G75*
%MOIN*%
%OFA0B0*%
%FSLAX25Y25*%
%IPPOS*%
%LPD*%
%AMOC8*
5,1,8,0,0,1.08239X$1,22.5*
%
%ADD10OC8,0.05600*%
%ADD11OC8,0.06300*%
%ADD12C,0.06300*%
%ADD13C,0.05600*%
%ADD14R,0.07677X0.07677*%
%ADD15C,0.15024*%
%ADD16R,0.15024X0.15024*%
%ADD17R,0.06731X0.06731*%
%ADD18C,0.05600*%
%ADD19C,0.06000*%
%ADD20C,0.07400*%
%ADD21R,0.11811X0.11811*%
%ADD22OC8,0.07400*%
%ADD23R,0.03937X0.11811*%
%ADD24C,0.01600*%
%ADD25C,0.01200*%
D10*
X0224938Y0104733D03*
X0224938Y0124733D03*
X0298838Y0188433D03*
X0328838Y0188433D03*
X0378838Y0156933D03*
X0378838Y0126933D03*
X0341838Y0242433D03*
X0321838Y0242433D03*
X0225838Y0249433D03*
X0211838Y0249433D03*
X0198838Y0243933D03*
X0178838Y0239833D03*
X0178838Y0249833D03*
X0178838Y0269933D03*
X0198838Y0273933D03*
X0211838Y0269433D03*
X0225838Y0269433D03*
X0178838Y0299933D03*
D11*
X0365838Y0212433D03*
X0388838Y0234933D03*
D12*
X0378838Y0234933D03*
X0355838Y0212433D03*
D13*
X0338838Y0199933D03*
X0328838Y0199933D03*
X0318838Y0199933D03*
X0308838Y0199933D03*
X0308838Y0229933D03*
X0318838Y0229933D03*
X0328838Y0229933D03*
X0338838Y0229933D03*
X0233838Y0229933D03*
X0223838Y0229933D03*
X0213838Y0229933D03*
X0203838Y0229933D03*
X0203838Y0199933D03*
X0213838Y0199933D03*
X0223838Y0199933D03*
X0233838Y0199933D03*
D14*
X0243601Y0114933D03*
X0258838Y0114933D03*
X0274074Y0114933D03*
X0323601Y0114933D03*
X0338838Y0114933D03*
X0354074Y0114933D03*
X0403601Y0114933D03*
X0418838Y0114933D03*
X0434074Y0114933D03*
D15*
X0440491Y0154303D03*
X0397184Y0154303D03*
X0360491Y0154303D03*
X0317184Y0154303D03*
X0280491Y0154303D03*
X0237184Y0154303D03*
D16*
X0212838Y0345689D03*
X0194334Y0357500D03*
X0212838Y0369311D03*
D17*
X0251901Y0344969D03*
X0251901Y0294969D03*
D18*
X0218838Y0297733D02*
X0218838Y0292133D01*
X0198838Y0292133D02*
X0198838Y0297733D01*
X0198838Y0322133D02*
X0198838Y0327733D01*
X0218838Y0327733D02*
X0218838Y0322133D01*
D19*
X0373838Y0191933D02*
X0373838Y0185933D01*
X0383838Y0185933D02*
X0383838Y0191933D01*
X0382838Y0116933D02*
X0376838Y0116933D01*
X0376838Y0106933D02*
X0382838Y0106933D01*
X0302838Y0106933D02*
X0296838Y0106933D01*
X0296838Y0116933D02*
X0302838Y0116933D01*
D20*
X0165438Y0161133D03*
X0419338Y0239933D03*
X0429338Y0240933D03*
X0439338Y0239933D03*
D21*
X0202227Y0148815D03*
X0183212Y0148815D03*
X0183212Y0130311D03*
X0183212Y0111807D03*
X0202227Y0111807D03*
X0202227Y0130311D03*
D22*
X0254338Y0201433D03*
X0264338Y0201433D03*
X0274338Y0201433D03*
X0284338Y0201433D03*
X0284338Y0211433D03*
X0274338Y0211433D03*
X0264338Y0211433D03*
X0254338Y0211433D03*
D23*
X0253338Y0126618D03*
X0263338Y0126618D03*
X0273338Y0126618D03*
D24*
X0160638Y0096733D02*
X0160638Y0158439D01*
X0160733Y0158250D01*
X0161242Y0157550D01*
X0161855Y0156938D01*
X0162555Y0156429D01*
X0163326Y0156036D01*
X0164150Y0155769D01*
X0165005Y0155633D01*
X0165237Y0155633D01*
X0165237Y0160933D01*
X0165638Y0160933D01*
X0165638Y0161333D01*
X0170938Y0161333D01*
X0170938Y0161566D01*
X0170802Y0162421D01*
X0170535Y0163244D01*
X0170142Y0164016D01*
X0169633Y0164716D01*
X0169021Y0165328D01*
X0168320Y0165837D01*
X0167549Y0166230D01*
X0166725Y0166498D01*
X0165870Y0166633D01*
X0165638Y0166633D01*
X0165638Y0161333D01*
X0165237Y0161333D01*
X0165237Y0166633D01*
X0165005Y0166633D01*
X0164150Y0166498D01*
X0163326Y0166230D01*
X0162555Y0165837D01*
X0161855Y0165328D01*
X0161242Y0164716D01*
X0160733Y0164016D01*
X0160638Y0163827D01*
X0160638Y0193133D01*
X0184583Y0193133D01*
X0185637Y0194187D01*
X0185637Y0220679D01*
X0184583Y0221733D01*
X0160638Y0221733D01*
X0160638Y0383133D01*
X0307038Y0383133D01*
X0307038Y0359187D01*
X0308092Y0358133D01*
X0334583Y0358133D01*
X0335638Y0359187D01*
X0335638Y0383133D01*
X0455738Y0383133D01*
X0455738Y0096733D01*
X0160638Y0096733D01*
X0160638Y0098130D02*
X0455738Y0098130D01*
X0455738Y0099729D02*
X0160638Y0099729D01*
X0160638Y0101327D02*
X0222121Y0101327D01*
X0223115Y0100333D02*
X0220538Y0102911D01*
X0220538Y0106556D01*
X0223115Y0109133D01*
X0226760Y0109133D01*
X0229337Y0106556D01*
X0229337Y0102911D01*
X0226760Y0100333D01*
X0223115Y0100333D01*
X0220538Y0102926D02*
X0160638Y0102926D01*
X0160638Y0104524D02*
X0176421Y0104524D01*
X0176643Y0104302D02*
X0189780Y0104302D01*
X0190717Y0105239D01*
X0190717Y0118375D01*
X0189780Y0119313D01*
X0176643Y0119313D01*
X0176248Y0118917D01*
X0176237Y0118927D01*
X0176237Y0123211D01*
X0176643Y0122806D01*
X0189780Y0122806D01*
X0190717Y0123743D01*
X0190717Y0136879D01*
X0189780Y0137817D01*
X0176643Y0137817D01*
X0176237Y0137411D01*
X0176237Y0138447D01*
X0179100Y0141309D01*
X0189780Y0141309D01*
X0190717Y0142247D01*
X0190717Y0155383D01*
X0189780Y0156320D01*
X0176643Y0156320D01*
X0175706Y0155383D01*
X0175706Y0144704D01*
X0171803Y0140800D01*
X0171438Y0139918D01*
X0171438Y0117456D01*
X0171803Y0116574D01*
X0172478Y0115898D01*
X0175706Y0112670D01*
X0175706Y0105239D01*
X0176643Y0104302D01*
X0175706Y0106123D02*
X0160638Y0106123D01*
X0160638Y0107721D02*
X0175706Y0107721D01*
X0175706Y0109320D02*
X0160638Y0109320D01*
X0160638Y0110918D02*
X0175706Y0110918D01*
X0175706Y0112517D02*
X0160638Y0112517D01*
X0160638Y0114115D02*
X0174261Y0114115D01*
X0172663Y0115714D02*
X0160638Y0115714D01*
X0160638Y0117312D02*
X0171497Y0117312D01*
X0171438Y0118911D02*
X0160638Y0118911D01*
X0160638Y0120509D02*
X0171438Y0120509D01*
X0171438Y0122108D02*
X0160638Y0122108D01*
X0160638Y0123706D02*
X0171438Y0123706D01*
X0171438Y0125305D02*
X0160638Y0125305D01*
X0160638Y0126903D02*
X0171438Y0126903D01*
X0171438Y0128502D02*
X0160638Y0128502D01*
X0160638Y0130100D02*
X0171438Y0130100D01*
X0171438Y0131699D02*
X0160638Y0131699D01*
X0160638Y0133297D02*
X0171438Y0133297D01*
X0171438Y0134896D02*
X0160638Y0134896D01*
X0160638Y0136494D02*
X0171438Y0136494D01*
X0171438Y0138093D02*
X0160638Y0138093D01*
X0160638Y0139691D02*
X0171438Y0139691D01*
X0172292Y0141290D02*
X0160638Y0141290D01*
X0160638Y0142888D02*
X0173891Y0142888D01*
X0175489Y0144487D02*
X0160638Y0144487D01*
X0160638Y0146085D02*
X0175706Y0146085D01*
X0175706Y0147684D02*
X0160638Y0147684D01*
X0160638Y0149282D02*
X0175706Y0149282D01*
X0175706Y0150881D02*
X0160638Y0150881D01*
X0160638Y0152479D02*
X0175706Y0152479D01*
X0175706Y0154078D02*
X0160638Y0154078D01*
X0160638Y0155677D02*
X0164730Y0155677D01*
X0165237Y0155677D02*
X0165638Y0155677D01*
X0165638Y0155633D02*
X0165870Y0155633D01*
X0166725Y0155769D01*
X0167549Y0156036D01*
X0168320Y0156429D01*
X0169021Y0156938D01*
X0169633Y0157550D01*
X0170142Y0158250D01*
X0170535Y0159022D01*
X0170802Y0159845D01*
X0170938Y0160700D01*
X0170938Y0160933D01*
X0165638Y0160933D01*
X0165638Y0155633D01*
X0166145Y0155677D02*
X0175999Y0155677D01*
X0170459Y0158874D02*
X0211438Y0158874D01*
X0211438Y0160472D02*
X0170901Y0160472D01*
X0170858Y0162071D02*
X0176655Y0162071D01*
X0177226Y0161834D02*
X0180449Y0161834D01*
X0183425Y0163067D01*
X0185704Y0165345D01*
X0186937Y0168322D01*
X0186937Y0171544D01*
X0185704Y0174521D01*
X0183425Y0176799D01*
X0180449Y0178032D01*
X0177226Y0178032D01*
X0174250Y0176799D01*
X0171971Y0174521D01*
X0170738Y0171544D01*
X0170738Y0168322D01*
X0171971Y0165345D01*
X0174250Y0163067D01*
X0177226Y0161834D01*
X0181020Y0162071D02*
X0211438Y0162071D01*
X0211438Y0163669D02*
X0184028Y0163669D01*
X0185626Y0165268D02*
X0211438Y0165268D01*
X0211438Y0166866D02*
X0186334Y0166866D01*
X0186937Y0168465D02*
X0211438Y0168465D01*
X0211438Y0170063D02*
X0186937Y0170063D01*
X0186888Y0171662D02*
X0211438Y0171662D01*
X0211438Y0173260D02*
X0186226Y0173260D01*
X0185366Y0174859D02*
X0211438Y0174859D01*
X0211438Y0176457D02*
X0183767Y0176457D01*
X0173908Y0176457D02*
X0160638Y0176457D01*
X0160638Y0174859D02*
X0172309Y0174859D01*
X0171449Y0173260D02*
X0160638Y0173260D01*
X0160638Y0171662D02*
X0170787Y0171662D01*
X0170738Y0170063D02*
X0160638Y0170063D01*
X0160638Y0168465D02*
X0170738Y0168465D01*
X0171341Y0166866D02*
X0160638Y0166866D01*
X0160638Y0165268D02*
X0161794Y0165268D01*
X0165237Y0165268D02*
X0165638Y0165268D01*
X0165638Y0163669D02*
X0165237Y0163669D01*
X0165237Y0162071D02*
X0165638Y0162071D01*
X0165638Y0160472D02*
X0165237Y0160472D01*
X0165237Y0158874D02*
X0165638Y0158874D01*
X0165638Y0157275D02*
X0165237Y0157275D01*
X0161517Y0157275D02*
X0160638Y0157275D01*
X0169358Y0157275D02*
X0211438Y0157275D01*
X0211438Y0155677D02*
X0209439Y0155677D01*
X0209733Y0155383D02*
X0208796Y0156320D01*
X0195659Y0156320D01*
X0194722Y0155383D01*
X0194722Y0142247D01*
X0195659Y0141309D01*
X0208796Y0141309D01*
X0209733Y0142247D01*
X0209733Y0155383D01*
X0209733Y0154078D02*
X0211438Y0154078D01*
X0211438Y0152479D02*
X0209733Y0152479D01*
X0209733Y0150881D02*
X0211438Y0150881D01*
X0211438Y0149282D02*
X0209733Y0149282D01*
X0209733Y0147684D02*
X0211438Y0147684D01*
X0211438Y0146085D02*
X0209733Y0146085D01*
X0209733Y0144487D02*
X0211438Y0144487D01*
X0211438Y0142888D02*
X0209733Y0142888D01*
X0211438Y0141290D02*
X0179081Y0141290D01*
X0177482Y0139691D02*
X0211438Y0139691D01*
X0211438Y0138093D02*
X0176237Y0138093D01*
X0173838Y0139441D02*
X0183212Y0148815D01*
X0190717Y0149282D02*
X0194722Y0149282D01*
X0194722Y0147684D02*
X0190717Y0147684D01*
X0190717Y0146085D02*
X0194722Y0146085D01*
X0194722Y0144487D02*
X0190717Y0144487D01*
X0190717Y0142888D02*
X0194722Y0142888D01*
X0195659Y0137817D02*
X0194722Y0136879D01*
X0194722Y0123743D01*
X0195659Y0122806D01*
X0208796Y0122806D01*
X0209733Y0123743D01*
X0209733Y0128033D01*
X0209815Y0128033D01*
X0210697Y0128398D01*
X0211372Y0129074D01*
X0215872Y0133574D01*
X0216237Y0134456D01*
X0216237Y0196165D01*
X0216330Y0196203D01*
X0217568Y0197441D01*
X0218237Y0199058D01*
X0218237Y0200808D01*
X0217568Y0202425D01*
X0216330Y0203663D01*
X0214713Y0204333D01*
X0212962Y0204333D01*
X0211345Y0203663D01*
X0210107Y0202425D01*
X0209438Y0200808D01*
X0209438Y0199058D01*
X0210107Y0197441D01*
X0211345Y0196203D01*
X0211438Y0196165D01*
X0211438Y0135927D01*
X0209733Y0134222D01*
X0209733Y0136879D01*
X0208796Y0137817D01*
X0195659Y0137817D01*
X0194722Y0136494D02*
X0190717Y0136494D01*
X0190717Y0134896D02*
X0194722Y0134896D01*
X0194722Y0133297D02*
X0190717Y0133297D01*
X0190717Y0131699D02*
X0194722Y0131699D01*
X0194722Y0130100D02*
X0190717Y0130100D01*
X0190717Y0128502D02*
X0194722Y0128502D01*
X0194722Y0126903D02*
X0190717Y0126903D01*
X0190717Y0125305D02*
X0194722Y0125305D01*
X0194758Y0123706D02*
X0190681Y0123706D01*
X0190182Y0118911D02*
X0195257Y0118911D01*
X0195659Y0119313D02*
X0194722Y0118375D01*
X0194722Y0105239D01*
X0195659Y0104302D01*
X0208796Y0104302D01*
X0209733Y0105239D01*
X0209733Y0118375D01*
X0208796Y0119313D01*
X0195659Y0119313D01*
X0194722Y0117312D02*
X0190717Y0117312D01*
X0190717Y0115714D02*
X0194722Y0115714D01*
X0194722Y0114115D02*
X0190717Y0114115D01*
X0190717Y0112517D02*
X0194722Y0112517D01*
X0194722Y0110918D02*
X0190717Y0110918D01*
X0190717Y0109320D02*
X0194722Y0109320D01*
X0194722Y0107721D02*
X0190717Y0107721D01*
X0190717Y0106123D02*
X0194722Y0106123D01*
X0195436Y0104524D02*
X0190002Y0104524D01*
X0183212Y0111807D02*
X0179963Y0111807D01*
X0173838Y0117933D01*
X0173838Y0139441D01*
X0176237Y0122108D02*
X0221057Y0122108D01*
X0220338Y0122828D02*
X0223032Y0120133D01*
X0224937Y0120133D01*
X0224937Y0124733D01*
X0220338Y0124733D01*
X0220338Y0122828D01*
X0220338Y0123706D02*
X0209696Y0123706D01*
X0209733Y0125305D02*
X0220338Y0125305D01*
X0220338Y0124733D02*
X0224937Y0124733D01*
X0224937Y0124733D01*
X0224938Y0124733D01*
X0224938Y0124733D01*
X0229537Y0124733D01*
X0229537Y0122828D01*
X0226843Y0120133D01*
X0224938Y0120133D01*
X0224938Y0124733D01*
X0229537Y0124733D01*
X0229537Y0126638D01*
X0226843Y0129333D01*
X0224938Y0129333D01*
X0224938Y0124733D01*
X0224937Y0124733D01*
X0224937Y0129333D01*
X0223032Y0129333D01*
X0220338Y0126638D01*
X0220338Y0124733D01*
X0220602Y0126903D02*
X0209733Y0126903D01*
X0210800Y0128502D02*
X0222201Y0128502D01*
X0224937Y0128502D02*
X0224938Y0128502D01*
X0224937Y0126903D02*
X0224938Y0126903D01*
X0224937Y0125305D02*
X0224938Y0125305D01*
X0224937Y0123706D02*
X0224938Y0123706D01*
X0224937Y0122108D02*
X0224938Y0122108D01*
X0224937Y0120509D02*
X0224938Y0120509D01*
X0227219Y0120509D02*
X0246066Y0120509D01*
X0245929Y0120372D02*
X0239100Y0120372D01*
X0238163Y0119434D01*
X0238163Y0110432D01*
X0239100Y0109494D01*
X0248103Y0109494D01*
X0249040Y0110432D01*
X0249040Y0117260D01*
X0250892Y0119113D01*
X0253399Y0119113D01*
X0253399Y0110432D01*
X0254336Y0109494D01*
X0263339Y0109494D01*
X0264276Y0110432D01*
X0264276Y0116978D01*
X0265372Y0118074D01*
X0265738Y0118956D01*
X0265738Y0119113D01*
X0265969Y0119113D01*
X0266906Y0120050D01*
X0266906Y0133186D01*
X0265969Y0134124D01*
X0260706Y0134124D01*
X0259769Y0133186D01*
X0259769Y0120372D01*
X0256906Y0120372D01*
X0256906Y0133186D01*
X0255969Y0134124D01*
X0250706Y0134124D01*
X0249769Y0133186D01*
X0249769Y0124212D01*
X0245929Y0120372D01*
X0247665Y0122108D02*
X0228818Y0122108D01*
X0229537Y0123706D02*
X0249263Y0123706D01*
X0249769Y0125305D02*
X0229537Y0125305D01*
X0229273Y0126903D02*
X0249769Y0126903D01*
X0249769Y0128502D02*
X0227674Y0128502D01*
X0222656Y0120509D02*
X0176237Y0120509D01*
X0202227Y0130311D02*
X0202349Y0130433D01*
X0209338Y0130433D01*
X0213838Y0134933D01*
X0213838Y0199933D01*
X0217730Y0202033D02*
X0219945Y0202033D01*
X0220107Y0202425D02*
X0219438Y0200808D01*
X0219438Y0199058D01*
X0220107Y0197441D01*
X0221345Y0196203D01*
X0222962Y0195533D01*
X0224713Y0195533D01*
X0224805Y0195571D01*
X0229478Y0190898D01*
X0230360Y0190533D01*
X0237843Y0190533D01*
X0243303Y0185074D01*
X0243978Y0184398D01*
X0244860Y0184033D01*
X0290343Y0184033D01*
X0293803Y0180574D01*
X0294478Y0179898D01*
X0295360Y0179533D01*
X0306315Y0179533D01*
X0307197Y0179898D01*
X0307872Y0180574D01*
X0320197Y0192898D01*
X0320872Y0193574D01*
X0321238Y0194456D01*
X0321238Y0196165D01*
X0321330Y0196203D01*
X0322568Y0197441D01*
X0323238Y0199058D01*
X0323238Y0200808D01*
X0322568Y0202425D01*
X0321330Y0203663D01*
X0319713Y0204333D01*
X0317962Y0204333D01*
X0316345Y0203663D01*
X0315107Y0202425D01*
X0314438Y0200808D01*
X0314438Y0199058D01*
X0315107Y0197441D01*
X0316345Y0196203D01*
X0316438Y0196165D01*
X0316438Y0195927D01*
X0304843Y0184333D01*
X0300960Y0184333D01*
X0303238Y0186611D01*
X0303238Y0190256D01*
X0300660Y0192833D01*
X0297015Y0192833D01*
X0294438Y0190256D01*
X0294438Y0186727D01*
X0292697Y0188468D01*
X0291815Y0188833D01*
X0264632Y0188833D01*
X0265697Y0189898D01*
X0266372Y0190574D01*
X0266738Y0191456D01*
X0266738Y0196338D01*
X0269338Y0198938D01*
X0272142Y0196133D01*
X0276533Y0196133D01*
X0279338Y0198938D01*
X0282142Y0196133D01*
X0286533Y0196133D01*
X0289638Y0199238D01*
X0289638Y0203628D01*
X0286833Y0206433D01*
X0289638Y0209238D01*
X0289638Y0213628D01*
X0286533Y0216733D01*
X0282142Y0216733D01*
X0279338Y0213928D01*
X0276533Y0216733D01*
X0272142Y0216733D01*
X0269338Y0213928D01*
X0266533Y0216733D01*
X0262142Y0216733D01*
X0259479Y0214070D01*
X0256616Y0216933D01*
X0254538Y0216933D01*
X0254538Y0211633D01*
X0254137Y0211633D01*
X0254137Y0211233D01*
X0248838Y0211233D01*
X0248838Y0209155D01*
X0251559Y0206433D01*
X0248838Y0203711D01*
X0248838Y0201633D01*
X0254137Y0201633D01*
X0254137Y0201233D01*
X0248838Y0201233D01*
X0248838Y0199155D01*
X0252059Y0195933D01*
X0254137Y0195933D01*
X0254137Y0201233D01*
X0254538Y0201233D01*
X0254538Y0195933D01*
X0256616Y0195933D01*
X0259479Y0198796D01*
X0261938Y0196338D01*
X0261938Y0192927D01*
X0261343Y0192333D01*
X0247832Y0192333D01*
X0245237Y0194927D01*
X0245237Y0201410D01*
X0244872Y0202293D01*
X0244197Y0202968D01*
X0218199Y0228965D01*
X0218237Y0229058D01*
X0218237Y0230808D01*
X0217568Y0232425D01*
X0216330Y0233663D01*
X0215437Y0234033D01*
X0222238Y0234033D01*
X0221345Y0233663D01*
X0220107Y0232425D01*
X0219438Y0230808D01*
X0219438Y0229058D01*
X0220107Y0227441D01*
X0221345Y0226203D01*
X0222962Y0225533D01*
X0224713Y0225533D01*
X0226330Y0226203D01*
X0227568Y0227441D01*
X0228237Y0229058D01*
X0228237Y0230808D01*
X0227568Y0232425D01*
X0226330Y0233663D01*
X0225437Y0234033D01*
X0232238Y0234033D01*
X0231345Y0233663D01*
X0230107Y0232425D01*
X0229438Y0230808D01*
X0229438Y0229058D01*
X0230107Y0227441D01*
X0231345Y0226203D01*
X0232962Y0225533D01*
X0234713Y0225533D01*
X0236330Y0226203D01*
X0237568Y0227441D01*
X0238237Y0229058D01*
X0238237Y0230808D01*
X0238004Y0231373D01*
X0246978Y0222398D01*
X0247860Y0222033D01*
X0290315Y0222033D01*
X0291197Y0222398D01*
X0291872Y0223074D01*
X0296332Y0227533D01*
X0305069Y0227533D01*
X0305107Y0227441D01*
X0306345Y0226203D01*
X0307962Y0225533D01*
X0309713Y0225533D01*
X0309805Y0225571D01*
X0334476Y0200901D01*
X0334438Y0200808D01*
X0334438Y0199058D01*
X0335107Y0197441D01*
X0336345Y0196203D01*
X0337962Y0195533D01*
X0339713Y0195533D01*
X0341330Y0196203D01*
X0342568Y0197441D01*
X0342938Y0198334D01*
X0342938Y0122427D01*
X0340882Y0120372D01*
X0334336Y0120372D01*
X0333399Y0119434D01*
X0333399Y0110432D01*
X0334336Y0109494D01*
X0343339Y0109494D01*
X0344276Y0110432D01*
X0344276Y0116978D01*
X0346697Y0119398D01*
X0347372Y0120074D01*
X0347737Y0120956D01*
X0347737Y0201410D01*
X0347372Y0202293D01*
X0346697Y0202968D01*
X0332238Y0217427D01*
X0332238Y0227111D01*
X0332568Y0227441D01*
X0333238Y0229058D01*
X0333238Y0230808D01*
X0332568Y0232425D01*
X0331460Y0233533D01*
X0331843Y0233533D01*
X0334476Y0230901D01*
X0334438Y0230808D01*
X0334438Y0229058D01*
X0335107Y0227441D01*
X0336345Y0226203D01*
X0337962Y0225533D01*
X0339713Y0225533D01*
X0341330Y0226203D01*
X0342568Y0227441D01*
X0343238Y0229058D01*
X0343238Y0230808D01*
X0342568Y0232425D01*
X0341330Y0233663D01*
X0339713Y0234333D01*
X0337962Y0234333D01*
X0337870Y0234295D01*
X0334872Y0237293D01*
X0334197Y0237968D01*
X0333315Y0238333D01*
X0323960Y0238333D01*
X0326238Y0240611D01*
X0326238Y0244256D01*
X0323660Y0246833D01*
X0320015Y0246833D01*
X0317438Y0244256D01*
X0317438Y0240611D01*
X0319715Y0238333D01*
X0295860Y0238333D01*
X0294978Y0237968D01*
X0287343Y0230333D01*
X0250832Y0230333D01*
X0230372Y0250793D01*
X0230237Y0250927D01*
X0230237Y0251256D01*
X0227660Y0253833D01*
X0224015Y0253833D01*
X0221438Y0251256D01*
X0221438Y0247611D01*
X0224015Y0245033D01*
X0227660Y0245033D01*
X0228502Y0245875D01*
X0235543Y0238833D01*
X0209860Y0238833D01*
X0208978Y0238468D01*
X0204805Y0234295D01*
X0204713Y0234333D01*
X0202962Y0234333D01*
X0202870Y0234295D01*
X0197632Y0239533D01*
X0200660Y0239533D01*
X0203237Y0242111D01*
X0203237Y0245756D01*
X0200660Y0248333D01*
X0197015Y0248333D01*
X0194438Y0245756D01*
X0194438Y0242224D01*
X0194415Y0242233D01*
X0182660Y0242233D01*
X0180660Y0244233D01*
X0177015Y0244233D01*
X0174438Y0241656D01*
X0174438Y0238011D01*
X0177015Y0235433D01*
X0180660Y0235433D01*
X0182660Y0237433D01*
X0192943Y0237433D01*
X0199476Y0230901D01*
X0199438Y0230808D01*
X0199438Y0229058D01*
X0200107Y0227441D01*
X0201345Y0226203D01*
X0202962Y0225533D01*
X0204713Y0225533D01*
X0206330Y0226203D01*
X0207568Y0227441D01*
X0208237Y0229058D01*
X0208237Y0230808D01*
X0208199Y0230901D01*
X0211332Y0234033D01*
X0212238Y0234033D01*
X0211345Y0233663D01*
X0210107Y0232425D01*
X0209438Y0230808D01*
X0209438Y0229058D01*
X0210107Y0227441D01*
X0211345Y0226203D01*
X0212962Y0225533D01*
X0214713Y0225533D01*
X0214805Y0225571D01*
X0240438Y0199939D01*
X0240438Y0194727D01*
X0240197Y0194968D01*
X0239315Y0195333D01*
X0231832Y0195333D01*
X0228199Y0198965D01*
X0228237Y0199058D01*
X0228237Y0200808D01*
X0227568Y0202425D01*
X0226330Y0203663D01*
X0224713Y0204333D01*
X0222962Y0204333D01*
X0221345Y0203663D01*
X0220107Y0202425D01*
X0221314Y0203632D02*
X0216361Y0203632D01*
X0218237Y0200435D02*
X0219438Y0200435D01*
X0219529Y0198836D02*
X0218146Y0198836D01*
X0217365Y0197238D02*
X0220310Y0197238D01*
X0222706Y0195639D02*
X0216237Y0195639D01*
X0216237Y0194041D02*
X0226336Y0194041D01*
X0227934Y0192442D02*
X0216237Y0192442D01*
X0216237Y0190844D02*
X0229610Y0190844D01*
X0230838Y0192933D02*
X0223838Y0199933D01*
X0227730Y0202033D02*
X0229945Y0202033D01*
X0230107Y0202425D02*
X0229438Y0200808D01*
X0229438Y0199058D01*
X0230107Y0197441D01*
X0231345Y0196203D01*
X0232962Y0195533D01*
X0234713Y0195533D01*
X0236330Y0196203D01*
X0237568Y0197441D01*
X0238237Y0199058D01*
X0238237Y0200808D01*
X0237568Y0202425D01*
X0236330Y0203663D01*
X0234713Y0204333D01*
X0232962Y0204333D01*
X0231345Y0203663D01*
X0230107Y0202425D01*
X0231314Y0203632D02*
X0226361Y0203632D01*
X0228237Y0200435D02*
X0229438Y0200435D01*
X0229529Y0198836D02*
X0228328Y0198836D01*
X0229927Y0197238D02*
X0230310Y0197238D01*
X0231525Y0195639D02*
X0232706Y0195639D01*
X0234969Y0195639D02*
X0240438Y0195639D01*
X0240438Y0197238D02*
X0237365Y0197238D01*
X0238146Y0198836D02*
X0240438Y0198836D01*
X0239942Y0200435D02*
X0238237Y0200435D01*
X0238343Y0202033D02*
X0237730Y0202033D01*
X0236745Y0203632D02*
X0236361Y0203632D01*
X0235146Y0205230D02*
X0185637Y0205230D01*
X0185637Y0203632D02*
X0201102Y0203632D01*
X0200841Y0203442D02*
X0200329Y0202930D01*
X0199903Y0202344D01*
X0199575Y0201699D01*
X0199351Y0201010D01*
X0199238Y0200295D01*
X0199238Y0199933D01*
X0199238Y0199571D01*
X0199351Y0198856D01*
X0199575Y0198167D01*
X0199903Y0197522D01*
X0200329Y0196936D01*
X0200841Y0196424D01*
X0201427Y0195999D01*
X0202072Y0195670D01*
X0202760Y0195446D01*
X0203475Y0195333D01*
X0203837Y0195333D01*
X0203837Y0199933D01*
X0199238Y0199933D01*
X0203837Y0199933D01*
X0203837Y0199933D01*
X0203838Y0199933D01*
X0203838Y0199933D01*
X0208437Y0199933D01*
X0208437Y0199571D01*
X0208324Y0198856D01*
X0208100Y0198167D01*
X0207772Y0197522D01*
X0207346Y0196936D01*
X0206834Y0196424D01*
X0206248Y0195999D01*
X0205603Y0195670D01*
X0204915Y0195446D01*
X0204200Y0195333D01*
X0203838Y0195333D01*
X0203838Y0199933D01*
X0208437Y0199933D01*
X0208437Y0200295D01*
X0208324Y0201010D01*
X0208100Y0201699D01*
X0207772Y0202344D01*
X0207346Y0202930D01*
X0206834Y0203442D01*
X0206248Y0203867D01*
X0205603Y0204196D01*
X0204915Y0204420D01*
X0204200Y0204533D01*
X0203838Y0204533D01*
X0203838Y0199933D01*
X0203837Y0199933D01*
X0203837Y0204533D01*
X0203475Y0204533D01*
X0202760Y0204420D01*
X0202072Y0204196D01*
X0201427Y0203867D01*
X0200841Y0203442D01*
X0199745Y0202033D02*
X0185637Y0202033D01*
X0185637Y0200435D02*
X0199260Y0200435D01*
X0199357Y0198836D02*
X0185637Y0198836D01*
X0185637Y0197238D02*
X0200110Y0197238D01*
X0202166Y0195639D02*
X0185637Y0195639D01*
X0185491Y0194041D02*
X0211438Y0194041D01*
X0211438Y0195639D02*
X0205509Y0195639D01*
X0203838Y0195639D02*
X0203837Y0195639D01*
X0203837Y0197238D02*
X0203838Y0197238D01*
X0203837Y0198836D02*
X0203838Y0198836D01*
X0203837Y0200435D02*
X0203838Y0200435D01*
X0203837Y0202033D02*
X0203838Y0202033D01*
X0203837Y0203632D02*
X0203838Y0203632D01*
X0206573Y0203632D02*
X0211314Y0203632D01*
X0209945Y0202033D02*
X0207930Y0202033D01*
X0208415Y0200435D02*
X0209438Y0200435D01*
X0209529Y0198836D02*
X0208318Y0198836D01*
X0207565Y0197238D02*
X0210310Y0197238D01*
X0211438Y0192442D02*
X0160638Y0192442D01*
X0160638Y0190844D02*
X0211438Y0190844D01*
X0211438Y0189245D02*
X0160638Y0189245D01*
X0160638Y0187647D02*
X0211438Y0187647D01*
X0211438Y0186048D02*
X0160638Y0186048D01*
X0160638Y0184450D02*
X0211438Y0184450D01*
X0211438Y0182851D02*
X0160638Y0182851D01*
X0160638Y0181253D02*
X0211438Y0181253D01*
X0211438Y0179654D02*
X0160638Y0179654D01*
X0160638Y0178056D02*
X0211438Y0178056D01*
X0216237Y0178056D02*
X0342938Y0178056D01*
X0342938Y0179654D02*
X0306607Y0179654D01*
X0307872Y0180574D02*
X0307872Y0180574D01*
X0308551Y0181253D02*
X0342938Y0181253D01*
X0342938Y0182851D02*
X0310150Y0182851D01*
X0311748Y0184450D02*
X0326598Y0184450D01*
X0327015Y0184033D02*
X0330660Y0184033D01*
X0333238Y0186611D01*
X0333238Y0190256D01*
X0330660Y0192833D01*
X0327015Y0192833D01*
X0324438Y0190256D01*
X0324438Y0186611D01*
X0327015Y0184033D01*
X0325000Y0186048D02*
X0313347Y0186048D01*
X0314945Y0187647D02*
X0324438Y0187647D01*
X0324438Y0189245D02*
X0316544Y0189245D01*
X0318142Y0190844D02*
X0325026Y0190844D01*
X0326624Y0192442D02*
X0319741Y0192442D01*
X0321066Y0194041D02*
X0342938Y0194041D01*
X0342938Y0195639D02*
X0339969Y0195639D01*
X0337706Y0195639D02*
X0329969Y0195639D01*
X0329713Y0195533D02*
X0331330Y0196203D01*
X0332568Y0197441D01*
X0333238Y0199058D01*
X0333238Y0200808D01*
X0332568Y0202425D01*
X0331330Y0203663D01*
X0329713Y0204333D01*
X0327962Y0204333D01*
X0326345Y0203663D01*
X0325107Y0202425D01*
X0324438Y0200808D01*
X0324438Y0199058D01*
X0325107Y0197441D01*
X0326345Y0196203D01*
X0327962Y0195533D01*
X0329713Y0195533D01*
X0327706Y0195639D02*
X0321238Y0195639D01*
X0322365Y0197238D02*
X0325310Y0197238D01*
X0324529Y0198836D02*
X0323146Y0198836D01*
X0323238Y0200435D02*
X0324438Y0200435D01*
X0324945Y0202033D02*
X0322730Y0202033D01*
X0321361Y0203632D02*
X0326314Y0203632D01*
X0328548Y0206829D02*
X0287229Y0206829D01*
X0288036Y0205230D02*
X0330146Y0205230D01*
X0331361Y0203632D02*
X0331745Y0203632D01*
X0332730Y0202033D02*
X0333343Y0202033D01*
X0333238Y0200435D02*
X0334438Y0200435D01*
X0334529Y0198836D02*
X0333146Y0198836D01*
X0332365Y0197238D02*
X0335310Y0197238D01*
X0338838Y0199933D02*
X0308838Y0229933D01*
X0295338Y0229933D01*
X0289838Y0224433D01*
X0248338Y0224433D01*
X0236338Y0236433D01*
X0210338Y0236433D01*
X0203838Y0229933D01*
X0193938Y0239833D01*
X0178838Y0239833D01*
X0174438Y0240398D02*
X0160638Y0240398D01*
X0160638Y0241996D02*
X0174778Y0241996D01*
X0176377Y0243595D02*
X0160638Y0243595D01*
X0160638Y0245193D02*
X0194438Y0245193D01*
X0194438Y0243595D02*
X0181298Y0243595D01*
X0180660Y0245433D02*
X0183237Y0248011D01*
X0183237Y0251656D01*
X0180660Y0254233D01*
X0177015Y0254233D01*
X0174438Y0251656D01*
X0174438Y0248011D01*
X0177015Y0245433D01*
X0180660Y0245433D01*
X0182019Y0246792D02*
X0195474Y0246792D01*
X0202201Y0246792D02*
X0208256Y0246792D01*
X0207438Y0247611D02*
X0210015Y0245033D01*
X0213660Y0245033D01*
X0216237Y0247611D01*
X0216237Y0251256D01*
X0213660Y0253833D01*
X0210015Y0253833D01*
X0207438Y0251256D01*
X0207438Y0247611D01*
X0207438Y0248390D02*
X0183237Y0248390D01*
X0183237Y0249989D02*
X0207438Y0249989D01*
X0207769Y0251587D02*
X0183237Y0251587D01*
X0181707Y0253186D02*
X0209368Y0253186D01*
X0214307Y0253186D02*
X0223368Y0253186D01*
X0221769Y0251587D02*
X0215906Y0251587D01*
X0216237Y0249989D02*
X0221438Y0249989D01*
X0221438Y0248390D02*
X0216237Y0248390D01*
X0215419Y0246792D02*
X0222256Y0246792D01*
X0223855Y0245193D02*
X0213820Y0245193D01*
X0209855Y0245193D02*
X0203237Y0245193D01*
X0203237Y0243595D02*
X0230782Y0243595D01*
X0229183Y0245193D02*
X0227820Y0245193D01*
X0228338Y0249433D02*
X0225838Y0249433D01*
X0228338Y0249433D02*
X0249838Y0227933D01*
X0288338Y0227933D01*
X0296338Y0235933D01*
X0332838Y0235933D01*
X0338838Y0229933D01*
X0340508Y0234004D02*
X0374088Y0234004D01*
X0374088Y0233988D02*
X0374811Y0232242D01*
X0376147Y0230906D01*
X0377893Y0230183D01*
X0379782Y0230183D01*
X0381528Y0230906D01*
X0382864Y0232242D01*
X0383587Y0233988D01*
X0383587Y0235878D01*
X0382864Y0237624D01*
X0381528Y0238960D01*
X0379782Y0239683D01*
X0377893Y0239683D01*
X0376147Y0238960D01*
X0374811Y0237624D01*
X0374088Y0235878D01*
X0374088Y0233988D01*
X0374088Y0235602D02*
X0336563Y0235602D01*
X0334964Y0237201D02*
X0374635Y0237201D01*
X0375986Y0238799D02*
X0344709Y0238799D01*
X0343743Y0237833D02*
X0346437Y0240528D01*
X0346437Y0242433D01*
X0341838Y0242433D01*
X0341838Y0242433D01*
X0346437Y0242433D01*
X0346437Y0244338D01*
X0343743Y0247033D01*
X0341838Y0247033D01*
X0341838Y0242433D01*
X0341838Y0237833D01*
X0343743Y0237833D01*
X0341837Y0237833D02*
X0341837Y0242433D01*
X0337238Y0242433D01*
X0337238Y0240528D01*
X0339932Y0237833D01*
X0341837Y0237833D01*
X0341837Y0238799D02*
X0341838Y0238799D01*
X0341837Y0240398D02*
X0341838Y0240398D01*
X0341837Y0241996D02*
X0341838Y0241996D01*
X0341837Y0242433D02*
X0341838Y0242433D01*
X0341837Y0242433D01*
X0341837Y0242433D01*
X0337238Y0242433D01*
X0337238Y0244338D01*
X0339932Y0247033D01*
X0341837Y0247033D01*
X0341837Y0242433D01*
X0341837Y0243595D02*
X0341838Y0243595D01*
X0341837Y0245193D02*
X0341838Y0245193D01*
X0341837Y0246792D02*
X0341838Y0246792D01*
X0343984Y0246792D02*
X0455738Y0246792D01*
X0455738Y0248390D02*
X0232775Y0248390D01*
X0234373Y0246792D02*
X0319974Y0246792D01*
X0318375Y0245193D02*
X0235972Y0245193D01*
X0237570Y0243595D02*
X0317438Y0243595D01*
X0317438Y0241996D02*
X0239169Y0241996D01*
X0240767Y0240398D02*
X0317650Y0240398D01*
X0319249Y0238799D02*
X0242366Y0238799D01*
X0243964Y0237201D02*
X0294211Y0237201D01*
X0292612Y0235602D02*
X0245563Y0235602D01*
X0247161Y0234004D02*
X0291014Y0234004D01*
X0289415Y0232405D02*
X0248760Y0232405D01*
X0250358Y0230807D02*
X0287817Y0230807D01*
X0293211Y0224412D02*
X0310964Y0224412D01*
X0312562Y0222814D02*
X0291613Y0222814D01*
X0294810Y0226011D02*
X0306808Y0226011D01*
X0314161Y0221215D02*
X0225949Y0221215D01*
X0227548Y0219617D02*
X0315760Y0219617D01*
X0317358Y0218018D02*
X0229146Y0218018D01*
X0230745Y0216420D02*
X0251546Y0216420D01*
X0252059Y0216933D02*
X0248838Y0213711D01*
X0248838Y0211633D01*
X0254137Y0211633D01*
X0254137Y0216933D01*
X0252059Y0216933D01*
X0254137Y0216420D02*
X0254538Y0216420D01*
X0254538Y0214821D02*
X0254137Y0214821D01*
X0254137Y0213223D02*
X0254538Y0213223D01*
X0254137Y0211624D02*
X0235540Y0211624D01*
X0237139Y0210026D02*
X0248838Y0210026D01*
X0249565Y0208427D02*
X0238737Y0208427D01*
X0240336Y0206829D02*
X0251164Y0206829D01*
X0250357Y0205230D02*
X0241934Y0205230D01*
X0243533Y0203632D02*
X0248838Y0203632D01*
X0248838Y0202033D02*
X0244980Y0202033D01*
X0245237Y0200435D02*
X0248838Y0200435D01*
X0249156Y0198836D02*
X0245237Y0198836D01*
X0245237Y0197238D02*
X0250755Y0197238D01*
X0254137Y0197238D02*
X0254538Y0197238D01*
X0254538Y0198836D02*
X0254137Y0198836D01*
X0254137Y0200435D02*
X0254538Y0200435D01*
X0254538Y0201633D02*
X0254137Y0201633D01*
X0254137Y0206933D01*
X0254137Y0211233D01*
X0254538Y0211233D01*
X0254538Y0201633D01*
X0254538Y0202033D02*
X0254137Y0202033D01*
X0254137Y0203632D02*
X0254538Y0203632D01*
X0254538Y0205230D02*
X0254137Y0205230D01*
X0254137Y0206829D02*
X0254538Y0206829D01*
X0254538Y0208427D02*
X0254137Y0208427D01*
X0254137Y0210026D02*
X0254538Y0210026D01*
X0258727Y0214821D02*
X0260231Y0214821D01*
X0261829Y0216420D02*
X0257129Y0216420D01*
X0249948Y0214821D02*
X0232343Y0214821D01*
X0233942Y0213223D02*
X0248838Y0213223D01*
X0246562Y0222814D02*
X0224351Y0222814D01*
X0222752Y0224412D02*
X0244964Y0224412D01*
X0243365Y0226011D02*
X0235867Y0226011D01*
X0237638Y0227610D02*
X0241767Y0227610D01*
X0240168Y0229208D02*
X0238237Y0229208D01*
X0238237Y0230807D02*
X0238570Y0230807D01*
X0232167Y0234004D02*
X0225508Y0234004D01*
X0227576Y0232405D02*
X0230099Y0232405D01*
X0229438Y0230807D02*
X0228237Y0230807D01*
X0228237Y0229208D02*
X0229438Y0229208D01*
X0230037Y0227610D02*
X0227638Y0227610D01*
X0225867Y0226011D02*
X0231808Y0226011D01*
X0223957Y0216420D02*
X0185637Y0216420D01*
X0185637Y0218018D02*
X0222358Y0218018D01*
X0220760Y0219617D02*
X0185637Y0219617D01*
X0185101Y0221215D02*
X0219161Y0221215D01*
X0217562Y0222814D02*
X0160638Y0222814D01*
X0160638Y0224412D02*
X0215964Y0224412D01*
X0211808Y0226011D02*
X0205867Y0226011D01*
X0207638Y0227610D02*
X0210037Y0227610D01*
X0209438Y0229208D02*
X0208237Y0229208D01*
X0208237Y0230807D02*
X0209438Y0230807D01*
X0209704Y0232405D02*
X0210099Y0232405D01*
X0211302Y0234004D02*
X0212167Y0234004D01*
X0215508Y0234004D02*
X0222167Y0234004D01*
X0220099Y0232405D02*
X0217576Y0232405D01*
X0218237Y0230807D02*
X0219438Y0230807D01*
X0219438Y0229208D02*
X0218237Y0229208D01*
X0219555Y0227610D02*
X0220037Y0227610D01*
X0221154Y0226011D02*
X0221808Y0226011D01*
X0213838Y0229933D02*
X0242838Y0200933D01*
X0242838Y0193933D01*
X0246838Y0189933D01*
X0262338Y0189933D01*
X0264338Y0191933D01*
X0264338Y0201433D01*
X0267638Y0197238D02*
X0271037Y0197238D01*
X0269439Y0198836D02*
X0269236Y0198836D01*
X0266738Y0195639D02*
X0307166Y0195639D01*
X0307072Y0195670D02*
X0307760Y0195446D01*
X0308475Y0195333D01*
X0308837Y0195333D01*
X0308837Y0199933D01*
X0304238Y0199933D01*
X0304238Y0199571D01*
X0304351Y0198856D01*
X0304575Y0198167D01*
X0304903Y0197522D01*
X0305329Y0196936D01*
X0305841Y0196424D01*
X0306427Y0195999D01*
X0307072Y0195670D01*
X0308837Y0195639D02*
X0308838Y0195639D01*
X0308838Y0195333D02*
X0309200Y0195333D01*
X0309915Y0195446D01*
X0310603Y0195670D01*
X0311248Y0195999D01*
X0311834Y0196424D01*
X0312346Y0196936D01*
X0312772Y0197522D01*
X0313100Y0198167D01*
X0313324Y0198856D01*
X0313438Y0199571D01*
X0313438Y0199933D01*
X0308838Y0199933D01*
X0308838Y0199933D01*
X0313438Y0199933D01*
X0313438Y0200295D01*
X0313324Y0201010D01*
X0313100Y0201699D01*
X0312772Y0202344D01*
X0312346Y0202930D01*
X0311834Y0203442D01*
X0311248Y0203867D01*
X0310603Y0204196D01*
X0309915Y0204420D01*
X0309200Y0204533D01*
X0308838Y0204533D01*
X0308838Y0199933D01*
X0308838Y0195333D01*
X0310509Y0195639D02*
X0316150Y0195639D01*
X0315310Y0197238D02*
X0312565Y0197238D01*
X0313318Y0198836D02*
X0314529Y0198836D01*
X0314438Y0200435D02*
X0313415Y0200435D01*
X0312930Y0202033D02*
X0314945Y0202033D01*
X0316314Y0203632D02*
X0311573Y0203632D01*
X0308838Y0203632D02*
X0308837Y0203632D01*
X0308837Y0204533D02*
X0308475Y0204533D01*
X0307760Y0204420D01*
X0307072Y0204196D01*
X0306427Y0203867D01*
X0305841Y0203442D01*
X0305329Y0202930D01*
X0304903Y0202344D01*
X0304575Y0201699D01*
X0304351Y0201010D01*
X0304238Y0200295D01*
X0304238Y0199933D01*
X0308837Y0199933D01*
X0308837Y0199933D01*
X0308838Y0199933D01*
X0308837Y0199933D01*
X0308837Y0204533D01*
X0308837Y0202033D02*
X0308838Y0202033D01*
X0308837Y0200435D02*
X0308838Y0200435D01*
X0308837Y0198836D02*
X0308838Y0198836D01*
X0308837Y0197238D02*
X0308838Y0197238D01*
X0305110Y0197238D02*
X0287638Y0197238D01*
X0289236Y0198836D02*
X0304357Y0198836D01*
X0304260Y0200435D02*
X0289638Y0200435D01*
X0289638Y0202033D02*
X0304745Y0202033D01*
X0306102Y0203632D02*
X0289634Y0203632D01*
X0288827Y0208427D02*
X0326949Y0208427D01*
X0325351Y0210026D02*
X0289638Y0210026D01*
X0289638Y0211624D02*
X0323752Y0211624D01*
X0322154Y0213223D02*
X0289638Y0213223D01*
X0288444Y0214821D02*
X0320555Y0214821D01*
X0318957Y0216420D02*
X0286846Y0216420D01*
X0281829Y0216420D02*
X0276846Y0216420D01*
X0278444Y0214821D02*
X0280231Y0214821D01*
X0271829Y0216420D02*
X0266846Y0216420D01*
X0268444Y0214821D02*
X0270231Y0214821D01*
X0279236Y0198836D02*
X0279439Y0198836D01*
X0281037Y0197238D02*
X0277638Y0197238D01*
X0266738Y0194041D02*
X0314551Y0194041D01*
X0312953Y0192442D02*
X0301051Y0192442D01*
X0302649Y0190844D02*
X0311354Y0190844D01*
X0309756Y0189245D02*
X0303238Y0189245D01*
X0303238Y0187647D02*
X0308157Y0187647D01*
X0306559Y0186048D02*
X0302675Y0186048D01*
X0301077Y0184450D02*
X0304960Y0184450D01*
X0305838Y0181933D02*
X0295838Y0181933D01*
X0291338Y0186433D01*
X0245338Y0186433D01*
X0238838Y0192933D01*
X0230838Y0192933D01*
X0239131Y0189245D02*
X0216237Y0189245D01*
X0216237Y0187647D02*
X0240730Y0187647D01*
X0242328Y0186048D02*
X0216237Y0186048D01*
X0216237Y0184450D02*
X0243927Y0184450D01*
X0247722Y0192442D02*
X0261453Y0192442D01*
X0261938Y0194041D02*
X0246124Y0194041D01*
X0245237Y0195639D02*
X0261938Y0195639D01*
X0261037Y0197238D02*
X0257920Y0197238D01*
X0266738Y0192442D02*
X0296624Y0192442D01*
X0295026Y0190844D02*
X0266484Y0190844D01*
X0265044Y0189245D02*
X0294438Y0189245D01*
X0294438Y0187647D02*
X0293518Y0187647D01*
X0291525Y0182851D02*
X0216237Y0182851D01*
X0216237Y0181253D02*
X0293124Y0181253D01*
X0295068Y0179654D02*
X0216237Y0179654D01*
X0216237Y0176457D02*
X0342938Y0176457D01*
X0342938Y0174859D02*
X0216237Y0174859D01*
X0216237Y0173260D02*
X0342938Y0173260D01*
X0342938Y0171662D02*
X0216237Y0171662D01*
X0216237Y0170063D02*
X0342938Y0170063D01*
X0342938Y0168465D02*
X0216237Y0168465D01*
X0216237Y0166866D02*
X0342938Y0166866D01*
X0342938Y0165268D02*
X0216237Y0165268D01*
X0216237Y0163669D02*
X0342938Y0163669D01*
X0342938Y0162071D02*
X0322242Y0162071D01*
X0322345Y0162028D02*
X0318996Y0163415D01*
X0315372Y0163415D01*
X0312023Y0162028D01*
X0309459Y0159465D01*
X0308072Y0156116D01*
X0308072Y0152491D01*
X0309459Y0149142D01*
X0312023Y0146579D01*
X0315372Y0145191D01*
X0318996Y0145191D01*
X0322345Y0146579D01*
X0324909Y0149142D01*
X0326296Y0152491D01*
X0326296Y0156116D01*
X0324909Y0159465D01*
X0322345Y0162028D01*
X0323901Y0160472D02*
X0342938Y0160472D01*
X0342938Y0158874D02*
X0325153Y0158874D01*
X0325816Y0157275D02*
X0342938Y0157275D01*
X0342938Y0155677D02*
X0326296Y0155677D01*
X0326296Y0154078D02*
X0342938Y0154078D01*
X0342938Y0152479D02*
X0326291Y0152479D01*
X0325629Y0150881D02*
X0342938Y0150881D01*
X0342938Y0149282D02*
X0324967Y0149282D01*
X0323451Y0147684D02*
X0342938Y0147684D01*
X0342938Y0146085D02*
X0321155Y0146085D01*
X0313213Y0146085D02*
X0284462Y0146085D01*
X0285652Y0146579D02*
X0288216Y0149142D01*
X0289603Y0152491D01*
X0289603Y0156116D01*
X0288216Y0159465D01*
X0285652Y0162028D01*
X0282304Y0163415D01*
X0278679Y0163415D01*
X0275330Y0162028D01*
X0272766Y0159465D01*
X0271379Y0156116D01*
X0271379Y0152491D01*
X0272766Y0149142D01*
X0275330Y0146579D01*
X0278679Y0145191D01*
X0282304Y0145191D01*
X0285652Y0146579D01*
X0286758Y0147684D02*
X0310917Y0147684D01*
X0309401Y0149282D02*
X0288274Y0149282D01*
X0288936Y0150881D02*
X0308739Y0150881D01*
X0308077Y0152479D02*
X0289598Y0152479D01*
X0289603Y0154078D02*
X0308072Y0154078D01*
X0308072Y0155677D02*
X0289603Y0155677D01*
X0289123Y0157275D02*
X0308552Y0157275D01*
X0309215Y0158874D02*
X0288460Y0158874D01*
X0287208Y0160472D02*
X0310467Y0160472D01*
X0312126Y0162071D02*
X0285549Y0162071D01*
X0275433Y0162071D02*
X0242242Y0162071D01*
X0242345Y0162028D02*
X0238996Y0163415D01*
X0235372Y0163415D01*
X0232023Y0162028D01*
X0229459Y0159465D01*
X0228072Y0156116D01*
X0228072Y0152491D01*
X0229459Y0149142D01*
X0232023Y0146579D01*
X0235372Y0145191D01*
X0238996Y0145191D01*
X0242345Y0146579D01*
X0244909Y0149142D01*
X0246296Y0152491D01*
X0246296Y0156116D01*
X0244909Y0159465D01*
X0242345Y0162028D01*
X0243901Y0160472D02*
X0273774Y0160472D01*
X0272522Y0158874D02*
X0245153Y0158874D01*
X0245816Y0157275D02*
X0271859Y0157275D01*
X0271379Y0155677D02*
X0246296Y0155677D01*
X0246296Y0154078D02*
X0271379Y0154078D01*
X0271384Y0152479D02*
X0246291Y0152479D01*
X0245629Y0150881D02*
X0272046Y0150881D01*
X0272708Y0149282D02*
X0244967Y0149282D01*
X0243451Y0147684D02*
X0274224Y0147684D01*
X0276520Y0146085D02*
X0241155Y0146085D01*
X0233213Y0146085D02*
X0216237Y0146085D01*
X0216237Y0144487D02*
X0342938Y0144487D01*
X0342938Y0142888D02*
X0216237Y0142888D01*
X0216237Y0141290D02*
X0342938Y0141290D01*
X0342938Y0139691D02*
X0216237Y0139691D01*
X0216237Y0138093D02*
X0342938Y0138093D01*
X0342938Y0136494D02*
X0216237Y0136494D01*
X0216237Y0134896D02*
X0342938Y0134896D01*
X0342938Y0133297D02*
X0276795Y0133297D01*
X0276906Y0133186D02*
X0275969Y0134124D01*
X0270706Y0134124D01*
X0269769Y0133186D01*
X0269769Y0120372D01*
X0269572Y0120372D01*
X0268635Y0119434D01*
X0268635Y0110432D01*
X0269572Y0109494D01*
X0278575Y0109494D01*
X0279512Y0110432D01*
X0279512Y0119434D01*
X0278575Y0120372D01*
X0276906Y0120372D01*
X0276906Y0133186D01*
X0276906Y0131699D02*
X0342938Y0131699D01*
X0342938Y0130100D02*
X0276906Y0130100D01*
X0276906Y0128502D02*
X0342938Y0128502D01*
X0342938Y0126903D02*
X0276906Y0126903D01*
X0276906Y0125305D02*
X0342938Y0125305D01*
X0342938Y0123706D02*
X0276906Y0123706D01*
X0276906Y0122108D02*
X0342618Y0122108D01*
X0341020Y0120509D02*
X0305767Y0120509D01*
X0305443Y0120833D02*
X0306737Y0119539D01*
X0307438Y0117848D01*
X0307438Y0116018D01*
X0306737Y0114327D01*
X0305443Y0113033D01*
X0303753Y0112333D01*
X0295923Y0112333D01*
X0294232Y0113033D01*
X0292938Y0114327D01*
X0292238Y0116018D01*
X0292238Y0117848D01*
X0292938Y0119539D01*
X0294232Y0120833D01*
X0295923Y0121533D01*
X0303753Y0121533D01*
X0305443Y0120833D01*
X0306997Y0118911D02*
X0318163Y0118911D01*
X0318163Y0119434D02*
X0318163Y0110432D01*
X0319100Y0109494D01*
X0328103Y0109494D01*
X0329040Y0110432D01*
X0329040Y0119434D01*
X0328103Y0120372D01*
X0319100Y0120372D01*
X0318163Y0119434D01*
X0318163Y0117312D02*
X0307438Y0117312D01*
X0307311Y0115714D02*
X0318163Y0115714D01*
X0318163Y0114115D02*
X0306525Y0114115D01*
X0304196Y0112517D02*
X0318163Y0112517D01*
X0318163Y0110918D02*
X0305237Y0110918D01*
X0305443Y0110833D02*
X0303753Y0111533D01*
X0295923Y0111533D01*
X0294232Y0110833D01*
X0292938Y0109539D01*
X0292238Y0107848D01*
X0292238Y0106018D01*
X0292938Y0104327D01*
X0294232Y0103033D01*
X0295923Y0102333D01*
X0303753Y0102333D01*
X0305443Y0103033D01*
X0306737Y0104327D01*
X0307438Y0106018D01*
X0307438Y0107848D01*
X0306737Y0109539D01*
X0305443Y0110833D01*
X0306828Y0109320D02*
X0372847Y0109320D01*
X0372938Y0109539D02*
X0372238Y0107848D01*
X0372238Y0106018D01*
X0372938Y0104327D01*
X0374232Y0103033D01*
X0375923Y0102333D01*
X0383753Y0102333D01*
X0385443Y0103033D01*
X0386737Y0104327D01*
X0387437Y0106018D01*
X0387437Y0107848D01*
X0386737Y0109539D01*
X0385443Y0110833D01*
X0383753Y0111533D01*
X0375923Y0111533D01*
X0374232Y0110833D01*
X0372938Y0109539D01*
X0372238Y0107721D02*
X0307438Y0107721D01*
X0307438Y0106123D02*
X0372238Y0106123D01*
X0372856Y0104524D02*
X0306819Y0104524D01*
X0305183Y0102926D02*
X0374492Y0102926D01*
X0385183Y0102926D02*
X0455738Y0102926D01*
X0455738Y0104524D02*
X0386819Y0104524D01*
X0387437Y0106123D02*
X0409254Y0106123D01*
X0408303Y0107074D02*
X0410478Y0104898D01*
X0411360Y0104533D01*
X0432315Y0104533D01*
X0433197Y0104898D01*
X0435197Y0106898D01*
X0435872Y0107574D01*
X0436237Y0108456D01*
X0436237Y0109494D01*
X0438575Y0109494D01*
X0439512Y0110432D01*
X0439512Y0119434D01*
X0438575Y0120372D01*
X0429572Y0120372D01*
X0428635Y0119434D01*
X0428635Y0110432D01*
X0429572Y0109494D01*
X0431005Y0109494D01*
X0430843Y0109333D01*
X0412832Y0109333D01*
X0412737Y0109427D01*
X0412737Y0117939D01*
X0413399Y0118600D01*
X0413399Y0110432D01*
X0414336Y0109494D01*
X0423339Y0109494D01*
X0424276Y0110432D01*
X0424276Y0119434D01*
X0423339Y0120372D01*
X0422737Y0120372D01*
X0422737Y0227939D01*
X0430460Y0235661D01*
X0432340Y0236440D01*
X0433831Y0237931D01*
X0434040Y0238437D01*
X0434240Y0237822D01*
X0434633Y0237050D01*
X0435142Y0236350D01*
X0435755Y0235738D01*
X0436455Y0235229D01*
X0437226Y0234836D01*
X0438050Y0234569D01*
X0438905Y0234433D01*
X0439137Y0234433D01*
X0439137Y0239733D01*
X0439538Y0239733D01*
X0439538Y0240133D01*
X0444837Y0240133D01*
X0444837Y0240366D01*
X0444702Y0241221D01*
X0444435Y0242044D01*
X0444042Y0242816D01*
X0443533Y0243516D01*
X0442921Y0244128D01*
X0442220Y0244637D01*
X0441449Y0245030D01*
X0440625Y0245298D01*
X0439770Y0245433D01*
X0439538Y0245433D01*
X0439538Y0240133D01*
X0439137Y0240133D01*
X0439137Y0245433D01*
X0438905Y0245433D01*
X0438050Y0245298D01*
X0437226Y0245030D01*
X0436455Y0244637D01*
X0435755Y0244128D01*
X0435142Y0243516D01*
X0434633Y0242816D01*
X0434446Y0242449D01*
X0433831Y0243935D01*
X0432340Y0245426D01*
X0430392Y0246233D01*
X0428283Y0246233D01*
X0426335Y0245426D01*
X0424844Y0243935D01*
X0424130Y0242212D01*
X0423831Y0242935D01*
X0422340Y0244426D01*
X0420392Y0245233D01*
X0418283Y0245233D01*
X0416335Y0244426D01*
X0414844Y0242935D01*
X0414038Y0240987D01*
X0414038Y0238879D01*
X0414844Y0236931D01*
X0416335Y0235440D01*
X0418283Y0234633D01*
X0420392Y0234633D01*
X0422340Y0235440D01*
X0423831Y0236931D01*
X0424545Y0238655D01*
X0424844Y0237931D01*
X0425393Y0237382D01*
X0418978Y0230968D01*
X0418303Y0230293D01*
X0417938Y0229410D01*
X0417938Y0209656D01*
X0416964Y0210629D01*
X0415145Y0211383D01*
X0413176Y0211383D01*
X0411357Y0210629D01*
X0409964Y0209237D01*
X0409211Y0207418D01*
X0409211Y0205954D01*
X0405697Y0209468D01*
X0404815Y0209833D01*
X0369955Y0209833D01*
X0370587Y0210466D01*
X0370587Y0214401D01*
X0367805Y0217183D01*
X0363870Y0217183D01*
X0361088Y0214401D01*
X0361088Y0210466D01*
X0363870Y0207683D01*
X0364693Y0207683D01*
X0366303Y0206074D01*
X0366978Y0205398D01*
X0367860Y0205033D01*
X0403343Y0205033D01*
X0414438Y0193939D01*
X0414438Y0126427D01*
X0408978Y0120968D01*
X0408303Y0120293D01*
X0408267Y0120207D01*
X0408103Y0120372D01*
X0399100Y0120372D01*
X0398163Y0119434D01*
X0398163Y0110432D01*
X0399100Y0109494D01*
X0407938Y0109494D01*
X0407938Y0107956D01*
X0408303Y0107074D01*
X0408035Y0107721D02*
X0387437Y0107721D01*
X0386828Y0109320D02*
X0407938Y0109320D01*
X0410338Y0108433D02*
X0411838Y0106933D01*
X0431838Y0106933D01*
X0433838Y0108933D01*
X0433838Y0114697D01*
X0434074Y0114933D01*
X0439512Y0115714D02*
X0455738Y0115714D01*
X0455738Y0117312D02*
X0439512Y0117312D01*
X0439512Y0118911D02*
X0455738Y0118911D01*
X0455738Y0120509D02*
X0422737Y0120509D01*
X0422737Y0122108D02*
X0455738Y0122108D01*
X0455738Y0123706D02*
X0422737Y0123706D01*
X0422737Y0125305D02*
X0455738Y0125305D01*
X0455738Y0126903D02*
X0422737Y0126903D01*
X0422737Y0128502D02*
X0455738Y0128502D01*
X0455738Y0130100D02*
X0422737Y0130100D01*
X0422737Y0131699D02*
X0455738Y0131699D01*
X0455738Y0133297D02*
X0422737Y0133297D01*
X0422737Y0134896D02*
X0455738Y0134896D01*
X0455738Y0136494D02*
X0422737Y0136494D01*
X0422737Y0138093D02*
X0455738Y0138093D01*
X0455738Y0139691D02*
X0422737Y0139691D01*
X0422737Y0141290D02*
X0455738Y0141290D01*
X0455738Y0142888D02*
X0422737Y0142888D01*
X0422737Y0144487D02*
X0455738Y0144487D01*
X0455738Y0146085D02*
X0444462Y0146085D01*
X0445652Y0146579D02*
X0448216Y0149142D01*
X0449603Y0152491D01*
X0449603Y0156116D01*
X0448216Y0159465D01*
X0445652Y0162028D01*
X0442304Y0163415D01*
X0438679Y0163415D01*
X0435330Y0162028D01*
X0432766Y0159465D01*
X0431379Y0156116D01*
X0431379Y0152491D01*
X0432766Y0149142D01*
X0435330Y0146579D01*
X0438679Y0145191D01*
X0442304Y0145191D01*
X0445652Y0146579D01*
X0446758Y0147684D02*
X0455738Y0147684D01*
X0455738Y0149282D02*
X0448274Y0149282D01*
X0448936Y0150881D02*
X0455738Y0150881D01*
X0455738Y0152479D02*
X0449598Y0152479D01*
X0449603Y0154078D02*
X0455738Y0154078D01*
X0455738Y0155677D02*
X0449603Y0155677D01*
X0449123Y0157275D02*
X0455738Y0157275D01*
X0455738Y0158874D02*
X0448460Y0158874D01*
X0447208Y0160472D02*
X0455738Y0160472D01*
X0455738Y0162071D02*
X0445549Y0162071D01*
X0435433Y0162071D02*
X0422737Y0162071D01*
X0422737Y0163669D02*
X0455738Y0163669D01*
X0455738Y0165268D02*
X0422737Y0165268D01*
X0422737Y0166866D02*
X0455738Y0166866D01*
X0455738Y0168465D02*
X0422737Y0168465D01*
X0422737Y0170063D02*
X0455738Y0170063D01*
X0455738Y0171662D02*
X0422737Y0171662D01*
X0422737Y0173260D02*
X0455738Y0173260D01*
X0455738Y0174859D02*
X0422737Y0174859D01*
X0422737Y0176457D02*
X0455738Y0176457D01*
X0455738Y0178056D02*
X0422737Y0178056D01*
X0422737Y0179654D02*
X0455738Y0179654D01*
X0455738Y0181253D02*
X0422737Y0181253D01*
X0422737Y0182851D02*
X0455738Y0182851D01*
X0455738Y0184450D02*
X0422737Y0184450D01*
X0422737Y0186048D02*
X0455738Y0186048D01*
X0455738Y0187647D02*
X0422737Y0187647D01*
X0422737Y0189245D02*
X0455738Y0189245D01*
X0455738Y0190844D02*
X0422737Y0190844D01*
X0422737Y0192442D02*
X0455738Y0192442D01*
X0455738Y0194041D02*
X0422737Y0194041D01*
X0422737Y0195639D02*
X0455738Y0195639D01*
X0455738Y0197238D02*
X0422737Y0197238D01*
X0422737Y0198836D02*
X0455738Y0198836D01*
X0455738Y0200435D02*
X0422737Y0200435D01*
X0422737Y0202033D02*
X0439407Y0202033D01*
X0438916Y0202237D02*
X0440735Y0201483D01*
X0442704Y0201483D01*
X0444523Y0202237D01*
X0445915Y0203629D01*
X0446669Y0205449D01*
X0446669Y0207418D01*
X0445915Y0209237D01*
X0444523Y0210629D01*
X0442704Y0211383D01*
X0440735Y0211383D01*
X0438916Y0210629D01*
X0437523Y0209237D01*
X0436770Y0207418D01*
X0436770Y0205449D01*
X0437523Y0203629D01*
X0438916Y0202237D01*
X0437522Y0203632D02*
X0422737Y0203632D01*
X0422737Y0205230D02*
X0436860Y0205230D01*
X0436770Y0206829D02*
X0422737Y0206829D01*
X0422737Y0208427D02*
X0437188Y0208427D01*
X0438312Y0210026D02*
X0422737Y0210026D01*
X0422737Y0211624D02*
X0455738Y0211624D01*
X0455738Y0210026D02*
X0445126Y0210026D01*
X0446251Y0208427D02*
X0455738Y0208427D01*
X0455738Y0206829D02*
X0446669Y0206829D01*
X0446579Y0205230D02*
X0455738Y0205230D01*
X0455738Y0203632D02*
X0445916Y0203632D01*
X0444031Y0202033D02*
X0455738Y0202033D01*
X0455738Y0213223D02*
X0422737Y0213223D01*
X0422737Y0214821D02*
X0455738Y0214821D01*
X0455738Y0216420D02*
X0422737Y0216420D01*
X0422737Y0218018D02*
X0455738Y0218018D01*
X0455738Y0219617D02*
X0422737Y0219617D01*
X0422737Y0221215D02*
X0455738Y0221215D01*
X0455738Y0222814D02*
X0422737Y0222814D01*
X0422737Y0224412D02*
X0455738Y0224412D01*
X0455738Y0226011D02*
X0422737Y0226011D01*
X0422737Y0227610D02*
X0455738Y0227610D01*
X0455738Y0229208D02*
X0424007Y0229208D01*
X0425605Y0230807D02*
X0455738Y0230807D01*
X0455738Y0232405D02*
X0427204Y0232405D01*
X0428802Y0234004D02*
X0455738Y0234004D01*
X0455738Y0235602D02*
X0442734Y0235602D01*
X0442921Y0235738D02*
X0443533Y0236350D01*
X0444042Y0237050D01*
X0444435Y0237822D01*
X0444702Y0238645D01*
X0444837Y0239500D01*
X0444837Y0239733D01*
X0439538Y0239733D01*
X0439538Y0234433D01*
X0439770Y0234433D01*
X0440625Y0234569D01*
X0441449Y0234836D01*
X0442220Y0235229D01*
X0442921Y0235738D01*
X0444118Y0237201D02*
X0455738Y0237201D01*
X0455738Y0238799D02*
X0444726Y0238799D01*
X0444832Y0240398D02*
X0455738Y0240398D01*
X0455738Y0241996D02*
X0444450Y0241996D01*
X0443454Y0243595D02*
X0455738Y0243595D01*
X0455738Y0245193D02*
X0440947Y0245193D01*
X0439538Y0245193D02*
X0439137Y0245193D01*
X0437728Y0245193D02*
X0432573Y0245193D01*
X0433972Y0243595D02*
X0435221Y0243595D01*
X0439137Y0243595D02*
X0439538Y0243595D01*
X0439538Y0241996D02*
X0439137Y0241996D01*
X0439137Y0240398D02*
X0439538Y0240398D01*
X0439538Y0238799D02*
X0439137Y0238799D01*
X0439137Y0237201D02*
X0439538Y0237201D01*
X0439538Y0235602D02*
X0439137Y0235602D01*
X0435941Y0235602D02*
X0430401Y0235602D01*
X0429338Y0237933D02*
X0420338Y0228933D01*
X0420338Y0116433D01*
X0418838Y0114933D01*
X0424276Y0115714D02*
X0428635Y0115714D01*
X0428635Y0117312D02*
X0424276Y0117312D01*
X0424276Y0118911D02*
X0428635Y0118911D01*
X0428635Y0114115D02*
X0424276Y0114115D01*
X0424276Y0112517D02*
X0428635Y0112517D01*
X0428635Y0110918D02*
X0424276Y0110918D01*
X0434421Y0106123D02*
X0455738Y0106123D01*
X0455738Y0107721D02*
X0435933Y0107721D01*
X0435197Y0106898D02*
X0435197Y0106898D01*
X0436237Y0109320D02*
X0455738Y0109320D01*
X0455738Y0110918D02*
X0439512Y0110918D01*
X0439512Y0112517D02*
X0455738Y0112517D01*
X0455738Y0114115D02*
X0439512Y0114115D01*
X0455738Y0101327D02*
X0227754Y0101327D01*
X0229337Y0102926D02*
X0294492Y0102926D01*
X0292856Y0104524D02*
X0229337Y0104524D01*
X0229337Y0106123D02*
X0292238Y0106123D01*
X0292238Y0107721D02*
X0228172Y0107721D01*
X0221703Y0107721D02*
X0209733Y0107721D01*
X0209733Y0106123D02*
X0220538Y0106123D01*
X0220538Y0104524D02*
X0209018Y0104524D01*
X0209733Y0109320D02*
X0292847Y0109320D01*
X0294438Y0110918D02*
X0279512Y0110918D01*
X0279512Y0112517D02*
X0295479Y0112517D01*
X0293150Y0114115D02*
X0279512Y0114115D01*
X0279512Y0115714D02*
X0292364Y0115714D01*
X0292238Y0117312D02*
X0279512Y0117312D01*
X0279512Y0118911D02*
X0292678Y0118911D01*
X0293908Y0120509D02*
X0276906Y0120509D01*
X0273338Y0115669D02*
X0274074Y0114933D01*
X0273338Y0115669D02*
X0273338Y0126618D01*
X0269769Y0126903D02*
X0266906Y0126903D01*
X0266906Y0125305D02*
X0269769Y0125305D01*
X0269769Y0123706D02*
X0266906Y0123706D01*
X0266906Y0122108D02*
X0269769Y0122108D01*
X0269769Y0120509D02*
X0266906Y0120509D01*
X0265719Y0118911D02*
X0268635Y0118911D01*
X0268635Y0117312D02*
X0264611Y0117312D01*
X0264276Y0115714D02*
X0268635Y0115714D01*
X0268635Y0114115D02*
X0264276Y0114115D01*
X0264276Y0112517D02*
X0268635Y0112517D01*
X0268635Y0110918D02*
X0264276Y0110918D01*
X0258838Y0114933D02*
X0263338Y0119433D01*
X0263338Y0126618D01*
X0259769Y0126903D02*
X0256906Y0126903D01*
X0256906Y0125305D02*
X0259769Y0125305D01*
X0259769Y0123706D02*
X0256906Y0123706D01*
X0256906Y0122108D02*
X0259769Y0122108D01*
X0259769Y0120509D02*
X0256906Y0120509D01*
X0253399Y0118911D02*
X0250690Y0118911D01*
X0249092Y0117312D02*
X0253399Y0117312D01*
X0253399Y0115714D02*
X0249040Y0115714D01*
X0249040Y0114115D02*
X0253399Y0114115D01*
X0253399Y0112517D02*
X0249040Y0112517D01*
X0249040Y0110918D02*
X0253399Y0110918D01*
X0253338Y0124669D02*
X0253338Y0126618D01*
X0256906Y0128502D02*
X0259769Y0128502D01*
X0259769Y0130100D02*
X0256906Y0130100D01*
X0256906Y0131699D02*
X0259769Y0131699D01*
X0259880Y0133297D02*
X0256795Y0133297D01*
X0249880Y0133297D02*
X0215596Y0133297D01*
X0213997Y0131699D02*
X0249769Y0131699D01*
X0249769Y0130100D02*
X0212399Y0130100D01*
X0210406Y0134896D02*
X0209733Y0134896D01*
X0209733Y0136494D02*
X0211438Y0136494D01*
X0202615Y0130311D02*
X0202227Y0130311D01*
X0209197Y0118911D02*
X0238163Y0118911D01*
X0238163Y0117312D02*
X0209733Y0117312D01*
X0209733Y0115714D02*
X0238163Y0115714D01*
X0238163Y0114115D02*
X0209733Y0114115D01*
X0209733Y0112517D02*
X0238163Y0112517D01*
X0238163Y0110918D02*
X0209733Y0110918D01*
X0216237Y0147684D02*
X0230917Y0147684D01*
X0229401Y0149282D02*
X0216237Y0149282D01*
X0216237Y0150881D02*
X0228739Y0150881D01*
X0228077Y0152479D02*
X0216237Y0152479D01*
X0216237Y0154078D02*
X0228072Y0154078D01*
X0228072Y0155677D02*
X0216237Y0155677D01*
X0216237Y0157275D02*
X0228552Y0157275D01*
X0229215Y0158874D02*
X0216237Y0158874D01*
X0216237Y0160472D02*
X0230467Y0160472D01*
X0232126Y0162071D02*
X0216237Y0162071D01*
X0195015Y0155677D02*
X0190424Y0155677D01*
X0190717Y0154078D02*
X0194722Y0154078D01*
X0194722Y0152479D02*
X0190717Y0152479D01*
X0190717Y0150881D02*
X0194722Y0150881D01*
X0173648Y0163669D02*
X0170318Y0163669D01*
X0169081Y0165268D02*
X0172049Y0165268D01*
X0185637Y0206829D02*
X0233548Y0206829D01*
X0231949Y0208427D02*
X0185637Y0208427D01*
X0185637Y0210026D02*
X0230351Y0210026D01*
X0228752Y0211624D02*
X0185637Y0211624D01*
X0185637Y0213223D02*
X0227154Y0213223D01*
X0225555Y0214821D02*
X0185637Y0214821D01*
X0200037Y0227610D02*
X0160638Y0227610D01*
X0160638Y0229208D02*
X0199438Y0229208D01*
X0199438Y0230807D02*
X0160638Y0230807D01*
X0160638Y0232405D02*
X0197971Y0232405D01*
X0196373Y0234004D02*
X0160638Y0234004D01*
X0160638Y0235602D02*
X0176846Y0235602D01*
X0175247Y0237201D02*
X0160638Y0237201D01*
X0160638Y0238799D02*
X0174438Y0238799D01*
X0180829Y0235602D02*
X0194774Y0235602D01*
X0193176Y0237201D02*
X0182428Y0237201D01*
X0175656Y0246792D02*
X0160638Y0246792D01*
X0160638Y0248390D02*
X0174438Y0248390D01*
X0174438Y0249989D02*
X0160638Y0249989D01*
X0160638Y0251587D02*
X0174438Y0251587D01*
X0175968Y0253186D02*
X0160638Y0253186D01*
X0160638Y0254784D02*
X0455738Y0254784D01*
X0455738Y0253186D02*
X0228307Y0253186D01*
X0229906Y0251587D02*
X0455738Y0251587D01*
X0455738Y0249989D02*
X0231176Y0249989D01*
X0232380Y0241996D02*
X0203123Y0241996D01*
X0201525Y0240398D02*
X0233979Y0240398D01*
X0209778Y0238799D02*
X0198366Y0238799D01*
X0199964Y0237201D02*
X0207711Y0237201D01*
X0206112Y0235602D02*
X0201563Y0235602D01*
X0203838Y0229933D02*
X0203838Y0229433D01*
X0201808Y0226011D02*
X0160638Y0226011D01*
X0160638Y0256383D02*
X0455738Y0256383D01*
X0455738Y0257981D02*
X0160638Y0257981D01*
X0160638Y0259580D02*
X0455738Y0259580D01*
X0455738Y0261178D02*
X0160638Y0261178D01*
X0160638Y0262777D02*
X0455738Y0262777D01*
X0455738Y0264375D02*
X0160638Y0264375D01*
X0160638Y0265974D02*
X0176574Y0265974D01*
X0177015Y0265533D02*
X0180660Y0265533D01*
X0183237Y0268111D01*
X0183237Y0271756D01*
X0180660Y0274333D01*
X0177015Y0274333D01*
X0174438Y0271756D01*
X0174438Y0268111D01*
X0177015Y0265533D01*
X0174976Y0267572D02*
X0160638Y0267572D01*
X0160638Y0269171D02*
X0174438Y0269171D01*
X0174438Y0270769D02*
X0160638Y0270769D01*
X0160638Y0272368D02*
X0175050Y0272368D01*
X0176648Y0273966D02*
X0160638Y0273966D01*
X0160638Y0275565D02*
X0194438Y0275565D01*
X0194438Y0275756D02*
X0194438Y0272111D01*
X0197015Y0269533D01*
X0200660Y0269533D01*
X0203237Y0272111D01*
X0203237Y0275756D01*
X0200660Y0278333D01*
X0197015Y0278333D01*
X0194438Y0275756D01*
X0194438Y0273966D02*
X0181027Y0273966D01*
X0182625Y0272368D02*
X0194438Y0272368D01*
X0195779Y0270769D02*
X0183237Y0270769D01*
X0183237Y0269171D02*
X0207238Y0269171D01*
X0207238Y0269433D02*
X0207238Y0267528D01*
X0209932Y0264833D01*
X0211837Y0264833D01*
X0211837Y0269433D01*
X0207238Y0269433D01*
X0211837Y0269433D01*
X0211837Y0269433D01*
X0211838Y0269433D01*
X0211838Y0269433D01*
X0216437Y0269433D01*
X0216437Y0267528D01*
X0213743Y0264833D01*
X0211838Y0264833D01*
X0211838Y0269433D01*
X0216437Y0269433D01*
X0216437Y0271338D01*
X0213743Y0274033D01*
X0211838Y0274033D01*
X0211838Y0269433D01*
X0211837Y0269433D01*
X0211837Y0274033D01*
X0209932Y0274033D01*
X0207238Y0271338D01*
X0207238Y0269433D01*
X0207238Y0270769D02*
X0201896Y0270769D01*
X0203237Y0272368D02*
X0208267Y0272368D01*
X0209865Y0273966D02*
X0203237Y0273966D01*
X0203237Y0275565D02*
X0290061Y0275565D01*
X0290061Y0275324D02*
X0291084Y0272854D01*
X0292975Y0270963D01*
X0295445Y0269940D01*
X0298119Y0269940D01*
X0300590Y0270963D01*
X0302480Y0272854D01*
X0303504Y0275324D01*
X0303504Y0277998D01*
X0302480Y0280469D01*
X0300590Y0282359D01*
X0298119Y0283383D01*
X0295445Y0283383D01*
X0292975Y0282359D01*
X0291084Y0280469D01*
X0290061Y0277998D01*
X0290061Y0275324D01*
X0290624Y0273966D02*
X0227810Y0273966D01*
X0227743Y0274033D02*
X0225838Y0274033D01*
X0225838Y0269433D01*
X0225838Y0269433D01*
X0230437Y0269433D01*
X0230437Y0267528D01*
X0227743Y0264833D01*
X0225838Y0264833D01*
X0225838Y0269433D01*
X0230437Y0269433D01*
X0230437Y0271338D01*
X0227743Y0274033D01*
X0225837Y0274033D02*
X0223932Y0274033D01*
X0221238Y0271338D01*
X0221238Y0269433D01*
X0221238Y0267528D01*
X0223932Y0264833D01*
X0225837Y0264833D01*
X0225837Y0269433D01*
X0221238Y0269433D01*
X0225837Y0269433D01*
X0225837Y0269433D01*
X0225838Y0269433D01*
X0225837Y0269433D01*
X0225837Y0274033D01*
X0225837Y0273966D02*
X0225838Y0273966D01*
X0225837Y0272368D02*
X0225838Y0272368D01*
X0225837Y0270769D02*
X0225838Y0270769D01*
X0225837Y0269171D02*
X0225838Y0269171D01*
X0225837Y0267572D02*
X0225838Y0267572D01*
X0225837Y0265974D02*
X0225838Y0265974D01*
X0228884Y0265974D02*
X0455738Y0265974D01*
X0455738Y0267572D02*
X0230437Y0267572D01*
X0230437Y0269171D02*
X0455738Y0269171D01*
X0455738Y0270769D02*
X0410357Y0270769D01*
X0410826Y0270963D02*
X0408356Y0269940D01*
X0405682Y0269940D01*
X0403211Y0270963D01*
X0401321Y0272854D01*
X0400297Y0275324D01*
X0400297Y0277998D01*
X0401321Y0280469D01*
X0403211Y0282359D01*
X0405682Y0283383D01*
X0408356Y0283383D01*
X0410826Y0282359D01*
X0412717Y0280469D01*
X0413740Y0277998D01*
X0413740Y0275324D01*
X0412717Y0272854D01*
X0410826Y0270963D01*
X0412230Y0272368D02*
X0455738Y0272368D01*
X0455738Y0273966D02*
X0413177Y0273966D01*
X0413740Y0275565D02*
X0455738Y0275565D01*
X0455738Y0277163D02*
X0413740Y0277163D01*
X0413424Y0278762D02*
X0455738Y0278762D01*
X0455738Y0280360D02*
X0412761Y0280360D01*
X0411226Y0281959D02*
X0455738Y0281959D01*
X0455738Y0283557D02*
X0160638Y0283557D01*
X0160638Y0281959D02*
X0292575Y0281959D01*
X0291040Y0280360D02*
X0160638Y0280360D01*
X0160638Y0278762D02*
X0290377Y0278762D01*
X0290061Y0277163D02*
X0201830Y0277163D01*
X0195845Y0277163D02*
X0160638Y0277163D01*
X0160638Y0285156D02*
X0455738Y0285156D01*
X0455738Y0286754D02*
X0160638Y0286754D01*
X0160638Y0288353D02*
X0196466Y0288353D01*
X0196345Y0288403D02*
X0197962Y0287733D01*
X0199713Y0287733D01*
X0201330Y0288403D01*
X0202568Y0289641D01*
X0203237Y0291258D01*
X0203237Y0298608D01*
X0202568Y0300225D01*
X0201330Y0301463D01*
X0199713Y0302133D01*
X0197962Y0302133D01*
X0196345Y0301463D01*
X0195107Y0300225D01*
X0194438Y0298608D01*
X0194438Y0291258D01*
X0195107Y0289641D01*
X0196345Y0288403D01*
X0194979Y0289951D02*
X0160638Y0289951D01*
X0160638Y0291550D02*
X0194438Y0291550D01*
X0194438Y0293148D02*
X0160638Y0293148D01*
X0160638Y0294747D02*
X0194438Y0294747D01*
X0194438Y0296345D02*
X0181755Y0296345D01*
X0180743Y0295333D02*
X0183437Y0298028D01*
X0183437Y0299933D01*
X0178838Y0299933D01*
X0178838Y0299933D01*
X0183437Y0299933D01*
X0183437Y0301838D01*
X0180743Y0304533D01*
X0178838Y0304533D01*
X0178838Y0299933D01*
X0178838Y0295333D01*
X0180743Y0295333D01*
X0178837Y0295333D02*
X0178837Y0299933D01*
X0174238Y0299933D01*
X0174238Y0298028D01*
X0176932Y0295333D01*
X0178837Y0295333D01*
X0178837Y0296345D02*
X0178838Y0296345D01*
X0178837Y0297944D02*
X0178838Y0297944D01*
X0178837Y0299543D02*
X0178838Y0299543D01*
X0178837Y0299933D02*
X0178838Y0299933D01*
X0178837Y0299933D01*
X0178837Y0299933D01*
X0174238Y0299933D01*
X0174238Y0301838D01*
X0176932Y0304533D01*
X0178837Y0304533D01*
X0178837Y0299933D01*
X0178837Y0301141D02*
X0178838Y0301141D01*
X0178837Y0302740D02*
X0178838Y0302740D01*
X0178837Y0304338D02*
X0178838Y0304338D01*
X0180938Y0304338D02*
X0455738Y0304338D01*
X0455738Y0302740D02*
X0182536Y0302740D01*
X0183437Y0301141D02*
X0196023Y0301141D01*
X0194824Y0299543D02*
X0183437Y0299543D01*
X0183354Y0297944D02*
X0194438Y0297944D01*
X0201652Y0301141D02*
X0216023Y0301141D01*
X0216345Y0301463D02*
X0215107Y0300225D01*
X0214438Y0298608D01*
X0214438Y0291258D01*
X0215107Y0289641D01*
X0216345Y0288403D01*
X0217962Y0287733D01*
X0219713Y0287733D01*
X0221330Y0288403D01*
X0222568Y0289641D01*
X0223237Y0291258D01*
X0223237Y0298608D01*
X0222568Y0300225D01*
X0221330Y0301463D01*
X0219713Y0302133D01*
X0217962Y0302133D01*
X0216345Y0301463D01*
X0214824Y0299543D02*
X0202851Y0299543D01*
X0203237Y0297944D02*
X0214438Y0297944D01*
X0214438Y0296345D02*
X0203237Y0296345D01*
X0203237Y0294747D02*
X0214438Y0294747D01*
X0214438Y0293148D02*
X0203237Y0293148D01*
X0203237Y0291550D02*
X0214438Y0291550D01*
X0214979Y0289951D02*
X0202696Y0289951D01*
X0201209Y0288353D02*
X0216466Y0288353D01*
X0221209Y0288353D02*
X0455738Y0288353D01*
X0455738Y0289951D02*
X0256005Y0289951D01*
X0255961Y0289926D02*
X0256371Y0290163D01*
X0256706Y0290498D01*
X0256943Y0290908D01*
X0257066Y0291366D01*
X0257066Y0294686D01*
X0252183Y0294686D01*
X0252183Y0289803D01*
X0255503Y0289803D01*
X0255961Y0289926D01*
X0257066Y0291550D02*
X0455738Y0291550D01*
X0455738Y0293148D02*
X0257066Y0293148D01*
X0257066Y0295251D02*
X0257066Y0298571D01*
X0256943Y0299029D01*
X0256706Y0299439D01*
X0256371Y0299774D01*
X0255961Y0300011D01*
X0255503Y0300134D01*
X0252183Y0300134D01*
X0252183Y0295251D01*
X0251618Y0295251D01*
X0251618Y0294686D01*
X0246735Y0294686D01*
X0246735Y0291366D01*
X0246858Y0290908D01*
X0247095Y0290498D01*
X0247430Y0290163D01*
X0247840Y0289926D01*
X0248298Y0289803D01*
X0251618Y0289803D01*
X0251618Y0294686D01*
X0252183Y0294686D01*
X0252183Y0295251D01*
X0257066Y0295251D01*
X0257066Y0296345D02*
X0455738Y0296345D01*
X0455738Y0294747D02*
X0252183Y0294747D01*
X0251618Y0294747D02*
X0223237Y0294747D01*
X0223237Y0296345D02*
X0246735Y0296345D01*
X0246735Y0295251D02*
X0251618Y0295251D01*
X0251618Y0300134D01*
X0248298Y0300134D01*
X0247840Y0300011D01*
X0247430Y0299774D01*
X0247095Y0299439D01*
X0246858Y0299029D01*
X0246735Y0298571D01*
X0246735Y0295251D01*
X0246735Y0293148D02*
X0223237Y0293148D01*
X0223237Y0291550D02*
X0246735Y0291550D01*
X0247796Y0289951D02*
X0222696Y0289951D01*
X0223237Y0297944D02*
X0246735Y0297944D01*
X0247198Y0299543D02*
X0222851Y0299543D01*
X0221652Y0301141D02*
X0455738Y0301141D01*
X0455738Y0299543D02*
X0256603Y0299543D01*
X0257066Y0297944D02*
X0455738Y0297944D01*
X0455738Y0305937D02*
X0160638Y0305937D01*
X0160638Y0307535D02*
X0455738Y0307535D01*
X0455738Y0309134D02*
X0160638Y0309134D01*
X0160638Y0310732D02*
X0455738Y0310732D01*
X0455738Y0312331D02*
X0160638Y0312331D01*
X0160638Y0313929D02*
X0455738Y0313929D01*
X0455738Y0315528D02*
X0160638Y0315528D01*
X0160638Y0317126D02*
X0176521Y0317126D01*
X0177226Y0316834D02*
X0180449Y0316834D01*
X0183425Y0318067D01*
X0185704Y0320345D01*
X0186937Y0323322D01*
X0186937Y0326544D01*
X0185704Y0329521D01*
X0183425Y0331799D01*
X0180449Y0333032D01*
X0177226Y0333032D01*
X0174250Y0331799D01*
X0171971Y0329521D01*
X0170738Y0326544D01*
X0170738Y0323322D01*
X0171971Y0320345D01*
X0174250Y0318067D01*
X0177226Y0316834D01*
X0181154Y0317126D02*
X0441521Y0317126D01*
X0442226Y0316834D02*
X0445449Y0316834D01*
X0448425Y0318067D01*
X0450704Y0320345D01*
X0451937Y0323322D01*
X0451937Y0326544D01*
X0450704Y0329521D01*
X0448425Y0331799D01*
X0445449Y0333032D01*
X0442226Y0333032D01*
X0439250Y0331799D01*
X0436971Y0329521D01*
X0435738Y0326544D01*
X0435738Y0323322D01*
X0436971Y0320345D01*
X0439250Y0318067D01*
X0442226Y0316834D01*
X0446154Y0317126D02*
X0455738Y0317126D01*
X0455738Y0318725D02*
X0449083Y0318725D01*
X0450682Y0320323D02*
X0455738Y0320323D01*
X0455738Y0321922D02*
X0451357Y0321922D01*
X0451937Y0323520D02*
X0455738Y0323520D01*
X0455738Y0325119D02*
X0451937Y0325119D01*
X0451865Y0326717D02*
X0455738Y0326717D01*
X0455738Y0328316D02*
X0451203Y0328316D01*
X0450310Y0329914D02*
X0455738Y0329914D01*
X0455738Y0331513D02*
X0448712Y0331513D01*
X0455738Y0333111D02*
X0160638Y0333111D01*
X0160638Y0331513D02*
X0173963Y0331513D01*
X0172365Y0329914D02*
X0160638Y0329914D01*
X0160638Y0328316D02*
X0171472Y0328316D01*
X0170810Y0326717D02*
X0160638Y0326717D01*
X0160638Y0325119D02*
X0170738Y0325119D01*
X0170738Y0323520D02*
X0160638Y0323520D01*
X0160638Y0321922D02*
X0171318Y0321922D01*
X0171993Y0320323D02*
X0160638Y0320323D01*
X0160638Y0318725D02*
X0173592Y0318725D01*
X0184083Y0318725D02*
X0196023Y0318725D01*
X0196345Y0318403D02*
X0197962Y0317733D01*
X0199713Y0317733D01*
X0201330Y0318403D01*
X0202568Y0319641D01*
X0203237Y0321258D01*
X0203237Y0328608D01*
X0202568Y0330225D01*
X0201330Y0331463D01*
X0199713Y0332133D01*
X0197962Y0332133D01*
X0196345Y0331463D01*
X0195107Y0330225D01*
X0194438Y0328608D01*
X0194438Y0321258D01*
X0195107Y0319641D01*
X0196345Y0318403D01*
X0194825Y0320323D02*
X0185682Y0320323D01*
X0186357Y0321922D02*
X0194438Y0321922D01*
X0194438Y0323520D02*
X0186937Y0323520D01*
X0186937Y0325119D02*
X0194438Y0325119D01*
X0194438Y0326717D02*
X0186865Y0326717D01*
X0186203Y0328316D02*
X0194438Y0328316D01*
X0194978Y0329914D02*
X0185310Y0329914D01*
X0183712Y0331513D02*
X0196465Y0331513D01*
X0201210Y0331513D02*
X0216465Y0331513D01*
X0216345Y0331463D02*
X0215107Y0330225D01*
X0214438Y0328608D01*
X0214438Y0321258D01*
X0215107Y0319641D01*
X0216345Y0318403D01*
X0217962Y0317733D01*
X0219713Y0317733D01*
X0221330Y0318403D01*
X0222568Y0319641D01*
X0223237Y0321258D01*
X0223237Y0328608D01*
X0222568Y0330225D01*
X0221330Y0331463D01*
X0219713Y0332133D01*
X0217962Y0332133D01*
X0216345Y0331463D01*
X0214978Y0329914D02*
X0202697Y0329914D01*
X0203237Y0328316D02*
X0214438Y0328316D01*
X0214438Y0326717D02*
X0203237Y0326717D01*
X0203237Y0325119D02*
X0214438Y0325119D01*
X0214438Y0323520D02*
X0203237Y0323520D01*
X0203237Y0321922D02*
X0214438Y0321922D01*
X0214825Y0320323D02*
X0202850Y0320323D01*
X0201652Y0318725D02*
X0216023Y0318725D01*
X0221652Y0318725D02*
X0438592Y0318725D01*
X0436993Y0320323D02*
X0222850Y0320323D01*
X0223237Y0321922D02*
X0436318Y0321922D01*
X0435738Y0323520D02*
X0223237Y0323520D01*
X0223237Y0325119D02*
X0435738Y0325119D01*
X0435810Y0326717D02*
X0223237Y0326717D01*
X0223237Y0328316D02*
X0436472Y0328316D01*
X0437365Y0329914D02*
X0222697Y0329914D01*
X0221210Y0331513D02*
X0438963Y0331513D01*
X0455738Y0334710D02*
X0160638Y0334710D01*
X0160638Y0336308D02*
X0455738Y0336308D01*
X0455738Y0337907D02*
X0221949Y0337907D01*
X0221949Y0337514D02*
X0221012Y0336577D01*
X0204663Y0336577D01*
X0203726Y0337514D01*
X0203726Y0353864D01*
X0204663Y0354801D01*
X0221012Y0354801D01*
X0221949Y0353864D01*
X0221949Y0337514D01*
X0221949Y0339505D02*
X0455738Y0339505D01*
X0455738Y0341104D02*
X0256866Y0341104D01*
X0256866Y0340940D02*
X0256866Y0348997D01*
X0255929Y0349934D01*
X0247872Y0349934D01*
X0246935Y0348997D01*
X0246935Y0340940D01*
X0247872Y0340003D01*
X0255929Y0340003D01*
X0256866Y0340940D01*
X0256866Y0342702D02*
X0455738Y0342702D01*
X0455738Y0344301D02*
X0256866Y0344301D01*
X0256866Y0345899D02*
X0455738Y0345899D01*
X0455738Y0347498D02*
X0256866Y0347498D01*
X0256766Y0349096D02*
X0455738Y0349096D01*
X0455738Y0350695D02*
X0221949Y0350695D01*
X0221949Y0352293D02*
X0455738Y0352293D01*
X0455738Y0353892D02*
X0221921Y0353892D01*
X0221949Y0349096D02*
X0247035Y0349096D01*
X0246935Y0347498D02*
X0221949Y0347498D01*
X0221949Y0345899D02*
X0246935Y0345899D01*
X0246935Y0344301D02*
X0221949Y0344301D01*
X0221949Y0342702D02*
X0246935Y0342702D01*
X0246935Y0341104D02*
X0221949Y0341104D01*
X0203726Y0341104D02*
X0160638Y0341104D01*
X0160638Y0342702D02*
X0203726Y0342702D01*
X0203726Y0344301D02*
X0160638Y0344301D01*
X0160638Y0345899D02*
X0203726Y0345899D01*
X0203726Y0347498D02*
X0160638Y0347498D01*
X0160638Y0349096D02*
X0185258Y0349096D01*
X0185144Y0349293D02*
X0185381Y0348883D01*
X0185717Y0348548D01*
X0186127Y0348311D01*
X0186585Y0348188D01*
X0193534Y0348188D01*
X0193534Y0356700D01*
X0195134Y0356700D01*
X0195134Y0358300D01*
X0203645Y0358300D01*
X0203645Y0361116D01*
X0203648Y0361104D01*
X0203885Y0360694D01*
X0204220Y0360359D01*
X0204631Y0360122D01*
X0205089Y0359999D01*
X0212038Y0359999D01*
X0212038Y0368511D01*
X0213637Y0368511D01*
X0213637Y0359999D01*
X0220586Y0359999D01*
X0221044Y0360122D01*
X0221455Y0360359D01*
X0221790Y0360694D01*
X0222027Y0361104D01*
X0222149Y0361562D01*
X0222149Y0368511D01*
X0213638Y0368511D01*
X0213638Y0370111D01*
X0222149Y0370111D01*
X0222149Y0377060D01*
X0222027Y0377518D01*
X0221790Y0377928D01*
X0221455Y0378263D01*
X0221044Y0378500D01*
X0220586Y0378623D01*
X0213637Y0378623D01*
X0213637Y0370111D01*
X0212038Y0370111D01*
X0212038Y0378623D01*
X0205089Y0378623D01*
X0204631Y0378500D01*
X0204220Y0378263D01*
X0203885Y0377928D01*
X0203648Y0377518D01*
X0203526Y0377060D01*
X0203526Y0370111D01*
X0212037Y0370111D01*
X0212037Y0368511D01*
X0203526Y0368511D01*
X0203526Y0365695D01*
X0203523Y0365707D01*
X0203286Y0366117D01*
X0202951Y0366452D01*
X0202540Y0366689D01*
X0202082Y0366812D01*
X0195134Y0366812D01*
X0195134Y0358300D01*
X0193534Y0358300D01*
X0193534Y0366812D01*
X0186585Y0366812D01*
X0186127Y0366689D01*
X0185717Y0366452D01*
X0185381Y0366117D01*
X0185144Y0365707D01*
X0185022Y0365249D01*
X0185022Y0358300D01*
X0193534Y0358300D01*
X0193534Y0356700D01*
X0185022Y0356700D01*
X0185022Y0349751D01*
X0185144Y0349293D01*
X0185022Y0350695D02*
X0160638Y0350695D01*
X0160638Y0352293D02*
X0185022Y0352293D01*
X0185022Y0353892D02*
X0160638Y0353892D01*
X0160638Y0355490D02*
X0185022Y0355490D01*
X0185022Y0358687D02*
X0160638Y0358687D01*
X0160638Y0357089D02*
X0193534Y0357089D01*
X0193534Y0358687D02*
X0195134Y0358687D01*
X0195134Y0357089D02*
X0349273Y0357089D01*
X0348093Y0357578D02*
X0350564Y0356554D01*
X0353237Y0356554D01*
X0355708Y0357578D01*
X0357598Y0359468D01*
X0358622Y0361939D01*
X0358622Y0364613D01*
X0357598Y0367083D01*
X0355708Y0368974D01*
X0353237Y0369997D01*
X0350564Y0369997D01*
X0348093Y0368974D01*
X0346202Y0367083D01*
X0345179Y0364613D01*
X0345179Y0361939D01*
X0346202Y0359468D01*
X0348093Y0357578D01*
X0346983Y0358687D02*
X0335137Y0358687D01*
X0335638Y0360286D02*
X0345864Y0360286D01*
X0345202Y0361884D02*
X0335638Y0361884D01*
X0335638Y0363483D02*
X0345179Y0363483D01*
X0345373Y0365081D02*
X0335638Y0365081D01*
X0335638Y0366680D02*
X0346036Y0366680D01*
X0347398Y0368279D02*
X0335638Y0368279D01*
X0335638Y0369877D02*
X0350274Y0369877D01*
X0353527Y0369877D02*
X0455738Y0369877D01*
X0455738Y0368279D02*
X0356403Y0368279D01*
X0357765Y0366680D02*
X0455738Y0366680D01*
X0455738Y0365081D02*
X0358428Y0365081D01*
X0358622Y0363483D02*
X0455738Y0363483D01*
X0455738Y0361884D02*
X0358599Y0361884D01*
X0357937Y0360286D02*
X0455738Y0360286D01*
X0455738Y0358687D02*
X0356818Y0358687D01*
X0354528Y0357089D02*
X0455738Y0357089D01*
X0455738Y0355490D02*
X0203645Y0355490D01*
X0203645Y0356700D02*
X0195134Y0356700D01*
X0195134Y0348188D01*
X0202082Y0348188D01*
X0202540Y0348311D01*
X0202951Y0348548D01*
X0203286Y0348883D01*
X0203523Y0349293D01*
X0203645Y0349751D01*
X0203645Y0356700D01*
X0203645Y0358687D02*
X0307538Y0358687D01*
X0307038Y0360286D02*
X0221328Y0360286D01*
X0222149Y0361884D02*
X0307038Y0361884D01*
X0307038Y0363483D02*
X0222149Y0363483D01*
X0222149Y0365081D02*
X0307038Y0365081D01*
X0307038Y0366680D02*
X0222149Y0366680D01*
X0222149Y0368279D02*
X0307038Y0368279D01*
X0307038Y0369877D02*
X0213638Y0369877D01*
X0213637Y0368279D02*
X0212038Y0368279D01*
X0212037Y0369877D02*
X0160638Y0369877D01*
X0160638Y0368279D02*
X0203526Y0368279D01*
X0203526Y0366680D02*
X0202556Y0366680D01*
X0203526Y0371476D02*
X0160638Y0371476D01*
X0160638Y0373074D02*
X0203526Y0373074D01*
X0203526Y0374673D02*
X0160638Y0374673D01*
X0160638Y0376271D02*
X0203526Y0376271D01*
X0203852Y0377870D02*
X0160638Y0377870D01*
X0160638Y0379468D02*
X0307038Y0379468D01*
X0307038Y0377870D02*
X0221823Y0377870D01*
X0222149Y0376271D02*
X0307038Y0376271D01*
X0307038Y0374673D02*
X0222149Y0374673D01*
X0222149Y0373074D02*
X0307038Y0373074D01*
X0307038Y0371476D02*
X0222149Y0371476D01*
X0213637Y0371476D02*
X0212038Y0371476D01*
X0212038Y0373074D02*
X0213637Y0373074D01*
X0213637Y0374673D02*
X0212038Y0374673D01*
X0212038Y0376271D02*
X0213637Y0376271D01*
X0213637Y0377870D02*
X0212038Y0377870D01*
X0212038Y0366680D02*
X0213637Y0366680D01*
X0213637Y0365081D02*
X0212038Y0365081D01*
X0212038Y0363483D02*
X0213637Y0363483D01*
X0213637Y0361884D02*
X0212038Y0361884D01*
X0212038Y0360286D02*
X0213637Y0360286D01*
X0204347Y0360286D02*
X0203645Y0360286D01*
X0203645Y0353892D02*
X0203754Y0353892D01*
X0203726Y0352293D02*
X0203645Y0352293D01*
X0203645Y0350695D02*
X0203726Y0350695D01*
X0203726Y0349096D02*
X0203409Y0349096D01*
X0195134Y0349096D02*
X0193534Y0349096D01*
X0193534Y0350695D02*
X0195134Y0350695D01*
X0195134Y0352293D02*
X0193534Y0352293D01*
X0193534Y0353892D02*
X0195134Y0353892D01*
X0195134Y0355490D02*
X0193534Y0355490D01*
X0193534Y0360286D02*
X0195134Y0360286D01*
X0195134Y0361884D02*
X0193534Y0361884D01*
X0193534Y0363483D02*
X0195134Y0363483D01*
X0195134Y0365081D02*
X0193534Y0365081D01*
X0193534Y0366680D02*
X0195134Y0366680D01*
X0186111Y0366680D02*
X0160638Y0366680D01*
X0160638Y0365081D02*
X0185022Y0365081D01*
X0185022Y0363483D02*
X0160638Y0363483D01*
X0160638Y0361884D02*
X0185022Y0361884D01*
X0185022Y0360286D02*
X0160638Y0360286D01*
X0160638Y0381067D02*
X0307038Y0381067D01*
X0307038Y0382665D02*
X0160638Y0382665D01*
X0160638Y0339505D02*
X0203726Y0339505D01*
X0203726Y0337907D02*
X0160638Y0337907D01*
X0160638Y0304338D02*
X0176737Y0304338D01*
X0175139Y0302740D02*
X0160638Y0302740D01*
X0160638Y0301141D02*
X0174238Y0301141D01*
X0174238Y0299543D02*
X0160638Y0299543D01*
X0160638Y0297944D02*
X0174321Y0297944D01*
X0175920Y0296345D02*
X0160638Y0296345D01*
X0182699Y0267572D02*
X0207238Y0267572D01*
X0208791Y0265974D02*
X0181101Y0265974D01*
X0211837Y0265974D02*
X0211838Y0265974D01*
X0211837Y0267572D02*
X0211838Y0267572D01*
X0211837Y0269171D02*
X0211838Y0269171D01*
X0211837Y0270769D02*
X0211838Y0270769D01*
X0211837Y0272368D02*
X0211838Y0272368D01*
X0211837Y0273966D02*
X0211838Y0273966D01*
X0213810Y0273966D02*
X0223865Y0273966D01*
X0222267Y0272368D02*
X0215408Y0272368D01*
X0216437Y0270769D02*
X0221238Y0270769D01*
X0221238Y0269171D02*
X0216437Y0269171D01*
X0216437Y0267572D02*
X0221238Y0267572D01*
X0222791Y0265974D02*
X0214884Y0265974D01*
X0229408Y0272368D02*
X0291571Y0272368D01*
X0293444Y0270769D02*
X0230437Y0270769D01*
X0251618Y0289951D02*
X0252183Y0289951D01*
X0252183Y0291550D02*
X0251618Y0291550D01*
X0251618Y0293148D02*
X0252183Y0293148D01*
X0252183Y0296345D02*
X0251618Y0296345D01*
X0251618Y0297944D02*
X0252183Y0297944D01*
X0252183Y0299543D02*
X0251618Y0299543D01*
X0300990Y0281959D02*
X0402811Y0281959D01*
X0401276Y0280360D02*
X0302525Y0280360D01*
X0303187Y0278762D02*
X0400614Y0278762D01*
X0400297Y0277163D02*
X0303504Y0277163D01*
X0303504Y0275565D02*
X0400297Y0275565D01*
X0400860Y0273966D02*
X0302941Y0273966D01*
X0301994Y0272368D02*
X0401807Y0272368D01*
X0403680Y0270769D02*
X0300121Y0270769D01*
X0323701Y0246792D02*
X0339691Y0246792D01*
X0338092Y0245193D02*
X0325300Y0245193D01*
X0326238Y0243595D02*
X0337238Y0243595D01*
X0337238Y0241996D02*
X0326238Y0241996D01*
X0326025Y0240398D02*
X0337368Y0240398D01*
X0338966Y0238799D02*
X0324426Y0238799D01*
X0328838Y0229933D02*
X0318838Y0229933D01*
X0328838Y0229933D02*
X0329838Y0228933D01*
X0329838Y0216433D01*
X0345338Y0200933D01*
X0345338Y0121433D01*
X0338838Y0114933D01*
X0344276Y0115714D02*
X0348635Y0115714D01*
X0348635Y0117312D02*
X0344611Y0117312D01*
X0346209Y0118911D02*
X0348635Y0118911D01*
X0348635Y0119434D02*
X0348635Y0110432D01*
X0349572Y0109494D01*
X0358575Y0109494D01*
X0359512Y0110432D01*
X0359512Y0119434D01*
X0358575Y0120372D01*
X0349572Y0120372D01*
X0348635Y0119434D01*
X0347553Y0120509D02*
X0373908Y0120509D01*
X0374232Y0120833D02*
X0372938Y0119539D01*
X0372238Y0117848D01*
X0372238Y0116018D01*
X0372938Y0114327D01*
X0374232Y0113033D01*
X0375923Y0112333D01*
X0383753Y0112333D01*
X0385443Y0113033D01*
X0386737Y0114327D01*
X0387437Y0116018D01*
X0387437Y0117848D01*
X0386737Y0119539D01*
X0385443Y0120833D01*
X0383753Y0121533D01*
X0375923Y0121533D01*
X0374232Y0120833D01*
X0372678Y0118911D02*
X0359512Y0118911D01*
X0359512Y0117312D02*
X0372238Y0117312D01*
X0372364Y0115714D02*
X0359512Y0115714D01*
X0359512Y0114115D02*
X0373150Y0114115D01*
X0375479Y0112517D02*
X0359512Y0112517D01*
X0359512Y0110918D02*
X0374438Y0110918D01*
X0384196Y0112517D02*
X0398163Y0112517D01*
X0398163Y0114115D02*
X0386525Y0114115D01*
X0387311Y0115714D02*
X0398163Y0115714D01*
X0398163Y0117312D02*
X0387437Y0117312D01*
X0386997Y0118911D02*
X0398163Y0118911D01*
X0398163Y0110918D02*
X0385237Y0110918D01*
X0385767Y0120509D02*
X0408520Y0120509D01*
X0410118Y0122108D02*
X0347737Y0122108D01*
X0347737Y0123706D02*
X0375842Y0123706D01*
X0377015Y0122533D02*
X0380660Y0122533D01*
X0383237Y0125111D01*
X0383237Y0128756D01*
X0380660Y0131333D01*
X0377015Y0131333D01*
X0374438Y0128756D01*
X0374438Y0125111D01*
X0377015Y0122533D01*
X0374438Y0125305D02*
X0347737Y0125305D01*
X0347737Y0126903D02*
X0374438Y0126903D01*
X0374438Y0128502D02*
X0347737Y0128502D01*
X0347737Y0130100D02*
X0375782Y0130100D01*
X0381893Y0130100D02*
X0414438Y0130100D01*
X0414438Y0128502D02*
X0383237Y0128502D01*
X0383237Y0126903D02*
X0414438Y0126903D01*
X0413315Y0125305D02*
X0383237Y0125305D01*
X0381833Y0123706D02*
X0411717Y0123706D01*
X0410338Y0118933D02*
X0410338Y0108433D01*
X0412737Y0110918D02*
X0413399Y0110918D01*
X0413399Y0112517D02*
X0412737Y0112517D01*
X0412737Y0114115D02*
X0413399Y0114115D01*
X0413399Y0115714D02*
X0412737Y0115714D01*
X0412737Y0117312D02*
X0413399Y0117312D01*
X0410338Y0118933D02*
X0416838Y0125433D01*
X0416838Y0194933D01*
X0404338Y0207433D01*
X0368338Y0207433D01*
X0365838Y0209933D01*
X0365838Y0212433D01*
X0370587Y0213223D02*
X0417938Y0213223D01*
X0417938Y0214821D02*
X0370167Y0214821D01*
X0368568Y0216420D02*
X0417938Y0216420D01*
X0417938Y0218018D02*
X0332238Y0218018D01*
X0332238Y0219617D02*
X0417938Y0219617D01*
X0417938Y0221215D02*
X0332238Y0221215D01*
X0332238Y0222814D02*
X0417938Y0222814D01*
X0417938Y0224412D02*
X0332238Y0224412D01*
X0332238Y0226011D02*
X0336808Y0226011D01*
X0335037Y0227610D02*
X0332638Y0227610D01*
X0333238Y0229208D02*
X0334438Y0229208D01*
X0334438Y0230807D02*
X0333238Y0230807D01*
X0332971Y0232405D02*
X0332576Y0232405D01*
X0342576Y0232405D02*
X0374743Y0232405D01*
X0376387Y0230807D02*
X0343238Y0230807D01*
X0343238Y0229208D02*
X0417938Y0229208D01*
X0417938Y0227610D02*
X0342638Y0227610D01*
X0340867Y0226011D02*
X0417938Y0226011D01*
X0418817Y0230807D02*
X0391428Y0230807D01*
X0390805Y0230183D02*
X0393587Y0232966D01*
X0393587Y0236901D01*
X0390805Y0239683D01*
X0386870Y0239683D01*
X0384088Y0236901D01*
X0384088Y0232966D01*
X0386870Y0230183D01*
X0390805Y0230183D01*
X0393027Y0232405D02*
X0420415Y0232405D01*
X0422014Y0234004D02*
X0393587Y0234004D01*
X0393587Y0235602D02*
X0416173Y0235602D01*
X0414733Y0237201D02*
X0393287Y0237201D01*
X0391689Y0238799D02*
X0414071Y0238799D01*
X0414038Y0240398D02*
X0346307Y0240398D01*
X0346437Y0241996D02*
X0414455Y0241996D01*
X0415504Y0243595D02*
X0346437Y0243595D01*
X0345583Y0245193D02*
X0418187Y0245193D01*
X0420488Y0245193D02*
X0426102Y0245193D01*
X0424703Y0243595D02*
X0423171Y0243595D01*
X0423942Y0237201D02*
X0425211Y0237201D01*
X0423612Y0235602D02*
X0422502Y0235602D01*
X0429338Y0237933D02*
X0429338Y0240933D01*
X0433100Y0237201D02*
X0434557Y0237201D01*
X0417938Y0211624D02*
X0370587Y0211624D01*
X0370148Y0210026D02*
X0410753Y0210026D01*
X0409629Y0208427D02*
X0406737Y0208427D01*
X0408336Y0206829D02*
X0409211Y0206829D01*
X0404745Y0203632D02*
X0346033Y0203632D01*
X0347480Y0202033D02*
X0406343Y0202033D01*
X0407942Y0200435D02*
X0347737Y0200435D01*
X0347737Y0198836D02*
X0409540Y0198836D01*
X0411139Y0197238D02*
X0347737Y0197238D01*
X0347737Y0195639D02*
X0371038Y0195639D01*
X0371232Y0195833D02*
X0369938Y0194539D01*
X0369238Y0192848D01*
X0369238Y0185018D01*
X0369938Y0183327D01*
X0371232Y0182033D01*
X0372923Y0181333D01*
X0374753Y0181333D01*
X0376443Y0182033D01*
X0377737Y0183327D01*
X0378437Y0185018D01*
X0378437Y0192848D01*
X0377737Y0194539D01*
X0376443Y0195833D01*
X0374753Y0196533D01*
X0372923Y0196533D01*
X0371232Y0195833D01*
X0369732Y0194041D02*
X0347737Y0194041D01*
X0347737Y0192442D02*
X0369238Y0192442D01*
X0369238Y0190844D02*
X0347737Y0190844D01*
X0347737Y0189245D02*
X0369238Y0189245D01*
X0369238Y0187647D02*
X0347737Y0187647D01*
X0347737Y0186048D02*
X0369238Y0186048D01*
X0369473Y0184450D02*
X0347737Y0184450D01*
X0347737Y0182851D02*
X0370414Y0182851D01*
X0377261Y0182851D02*
X0380414Y0182851D01*
X0379938Y0183327D02*
X0381232Y0182033D01*
X0382923Y0181333D01*
X0384753Y0181333D01*
X0386443Y0182033D01*
X0387737Y0183327D01*
X0388437Y0185018D01*
X0388437Y0192848D01*
X0387737Y0194539D01*
X0386443Y0195833D01*
X0384753Y0196533D01*
X0382923Y0196533D01*
X0381232Y0195833D01*
X0379938Y0194539D01*
X0379238Y0192848D01*
X0379238Y0185018D01*
X0379938Y0183327D01*
X0379473Y0184450D02*
X0378202Y0184450D01*
X0378437Y0186048D02*
X0379238Y0186048D01*
X0379238Y0187647D02*
X0378437Y0187647D01*
X0378437Y0189245D02*
X0379238Y0189245D01*
X0379238Y0190844D02*
X0378437Y0190844D01*
X0378437Y0192442D02*
X0379238Y0192442D01*
X0379732Y0194041D02*
X0377943Y0194041D01*
X0376637Y0195639D02*
X0381038Y0195639D01*
X0386637Y0195639D02*
X0412737Y0195639D01*
X0414336Y0194041D02*
X0387943Y0194041D01*
X0388437Y0192442D02*
X0414438Y0192442D01*
X0414438Y0190844D02*
X0388437Y0190844D01*
X0388437Y0189245D02*
X0414438Y0189245D01*
X0414438Y0187647D02*
X0388437Y0187647D01*
X0388437Y0186048D02*
X0414438Y0186048D01*
X0414438Y0184450D02*
X0388202Y0184450D01*
X0387261Y0182851D02*
X0414438Y0182851D01*
X0414438Y0181253D02*
X0347737Y0181253D01*
X0347737Y0179654D02*
X0414438Y0179654D01*
X0414438Y0178056D02*
X0347737Y0178056D01*
X0347737Y0176457D02*
X0373908Y0176457D01*
X0374250Y0176799D02*
X0371971Y0174521D01*
X0370738Y0171544D01*
X0370738Y0168322D01*
X0371971Y0165345D01*
X0374250Y0163067D01*
X0377226Y0161834D01*
X0380449Y0161834D01*
X0383425Y0163067D01*
X0385704Y0165345D01*
X0386937Y0168322D01*
X0386937Y0171544D01*
X0385704Y0174521D01*
X0383425Y0176799D01*
X0380449Y0178032D01*
X0377226Y0178032D01*
X0374250Y0176799D01*
X0372309Y0174859D02*
X0347737Y0174859D01*
X0347737Y0173260D02*
X0371449Y0173260D01*
X0370787Y0171662D02*
X0347737Y0171662D01*
X0347737Y0170063D02*
X0370738Y0170063D01*
X0370738Y0168465D02*
X0347737Y0168465D01*
X0347737Y0166866D02*
X0371341Y0166866D01*
X0372049Y0165268D02*
X0347737Y0165268D01*
X0347737Y0163669D02*
X0373648Y0163669D01*
X0376655Y0162071D02*
X0365549Y0162071D01*
X0365652Y0162028D02*
X0362304Y0163415D01*
X0358679Y0163415D01*
X0355330Y0162028D01*
X0352766Y0159465D01*
X0351379Y0156116D01*
X0351379Y0152491D01*
X0352766Y0149142D01*
X0355330Y0146579D01*
X0358679Y0145191D01*
X0362304Y0145191D01*
X0365652Y0146579D01*
X0368216Y0149142D01*
X0369603Y0152491D01*
X0369603Y0156116D01*
X0368216Y0159465D01*
X0365652Y0162028D01*
X0367208Y0160472D02*
X0376154Y0160472D01*
X0377015Y0161333D02*
X0374438Y0158756D01*
X0374438Y0155111D01*
X0377015Y0152533D01*
X0380660Y0152533D01*
X0383237Y0155111D01*
X0383237Y0158756D01*
X0380660Y0161333D01*
X0377015Y0161333D01*
X0374555Y0158874D02*
X0368460Y0158874D01*
X0369123Y0157275D02*
X0374438Y0157275D01*
X0374438Y0155677D02*
X0369603Y0155677D01*
X0369603Y0154078D02*
X0375470Y0154078D01*
X0369598Y0152479D02*
X0388077Y0152479D01*
X0388072Y0152491D02*
X0389459Y0149142D01*
X0392023Y0146579D01*
X0395372Y0145191D01*
X0398996Y0145191D01*
X0402345Y0146579D01*
X0404909Y0149142D01*
X0406296Y0152491D01*
X0406296Y0156116D01*
X0404909Y0159465D01*
X0402345Y0162028D01*
X0398996Y0163415D01*
X0395372Y0163415D01*
X0392023Y0162028D01*
X0389459Y0159465D01*
X0388072Y0156116D01*
X0388072Y0152491D01*
X0388072Y0154078D02*
X0382205Y0154078D01*
X0383237Y0155677D02*
X0388072Y0155677D01*
X0388552Y0157275D02*
X0383237Y0157275D01*
X0383120Y0158874D02*
X0389215Y0158874D01*
X0390467Y0160472D02*
X0381521Y0160472D01*
X0381020Y0162071D02*
X0392126Y0162071D01*
X0385626Y0165268D02*
X0414438Y0165268D01*
X0414438Y0166866D02*
X0386334Y0166866D01*
X0386937Y0168465D02*
X0414438Y0168465D01*
X0414438Y0170063D02*
X0386937Y0170063D01*
X0386888Y0171662D02*
X0414438Y0171662D01*
X0414438Y0173260D02*
X0386226Y0173260D01*
X0385366Y0174859D02*
X0414438Y0174859D01*
X0414438Y0176457D02*
X0383767Y0176457D01*
X0384028Y0163669D02*
X0414438Y0163669D01*
X0414438Y0162071D02*
X0402242Y0162071D01*
X0403901Y0160472D02*
X0414438Y0160472D01*
X0414438Y0158874D02*
X0405153Y0158874D01*
X0405816Y0157275D02*
X0414438Y0157275D01*
X0414438Y0155677D02*
X0406296Y0155677D01*
X0406296Y0154078D02*
X0414438Y0154078D01*
X0414438Y0152479D02*
X0406291Y0152479D01*
X0405629Y0150881D02*
X0414438Y0150881D01*
X0414438Y0149282D02*
X0404967Y0149282D01*
X0403451Y0147684D02*
X0414438Y0147684D01*
X0414438Y0146085D02*
X0401155Y0146085D01*
X0393213Y0146085D02*
X0364462Y0146085D01*
X0366758Y0147684D02*
X0390917Y0147684D01*
X0389401Y0149282D02*
X0368274Y0149282D01*
X0368936Y0150881D02*
X0388739Y0150881D01*
X0414438Y0144487D02*
X0347737Y0144487D01*
X0347737Y0146085D02*
X0356520Y0146085D01*
X0354224Y0147684D02*
X0347737Y0147684D01*
X0347737Y0149282D02*
X0352708Y0149282D01*
X0352046Y0150881D02*
X0347737Y0150881D01*
X0347737Y0152479D02*
X0351384Y0152479D01*
X0351379Y0154078D02*
X0347737Y0154078D01*
X0347737Y0155677D02*
X0351379Y0155677D01*
X0351859Y0157275D02*
X0347737Y0157275D01*
X0347737Y0158874D02*
X0352522Y0158874D01*
X0353774Y0160472D02*
X0347737Y0160472D01*
X0347737Y0162071D02*
X0355433Y0162071D01*
X0347737Y0142888D02*
X0414438Y0142888D01*
X0414438Y0141290D02*
X0347737Y0141290D01*
X0347737Y0139691D02*
X0414438Y0139691D01*
X0414438Y0138093D02*
X0347737Y0138093D01*
X0347737Y0136494D02*
X0414438Y0136494D01*
X0414438Y0134896D02*
X0347737Y0134896D01*
X0347737Y0133297D02*
X0414438Y0133297D01*
X0414438Y0131699D02*
X0347737Y0131699D01*
X0333399Y0118911D02*
X0329040Y0118911D01*
X0329040Y0117312D02*
X0333399Y0117312D01*
X0333399Y0115714D02*
X0329040Y0115714D01*
X0329040Y0114115D02*
X0333399Y0114115D01*
X0333399Y0112517D02*
X0329040Y0112517D01*
X0329040Y0110918D02*
X0333399Y0110918D01*
X0344276Y0110918D02*
X0348635Y0110918D01*
X0348635Y0112517D02*
X0344276Y0112517D01*
X0344276Y0114115D02*
X0348635Y0114115D01*
X0269769Y0128502D02*
X0266906Y0128502D01*
X0266906Y0130100D02*
X0269769Y0130100D01*
X0269769Y0131699D02*
X0266906Y0131699D01*
X0266795Y0133297D02*
X0269880Y0133297D01*
X0305838Y0181933D02*
X0318838Y0194933D01*
X0318838Y0199933D01*
X0331051Y0192442D02*
X0342938Y0192442D01*
X0342938Y0190844D02*
X0332649Y0190844D01*
X0333238Y0189245D02*
X0342938Y0189245D01*
X0342938Y0187647D02*
X0333238Y0187647D01*
X0332675Y0186048D02*
X0342938Y0186048D01*
X0342938Y0184450D02*
X0331077Y0184450D01*
X0342365Y0197238D02*
X0342938Y0197238D01*
X0344434Y0205230D02*
X0367384Y0205230D01*
X0365548Y0206829D02*
X0342836Y0206829D01*
X0341237Y0208427D02*
X0353126Y0208427D01*
X0353147Y0208406D02*
X0354893Y0207683D01*
X0356782Y0207683D01*
X0358528Y0208406D01*
X0359864Y0209742D01*
X0360587Y0211488D01*
X0360587Y0213378D01*
X0359864Y0215124D01*
X0358528Y0216460D01*
X0356782Y0217183D01*
X0354893Y0217183D01*
X0353147Y0216460D01*
X0351811Y0215124D01*
X0351088Y0213378D01*
X0351088Y0211488D01*
X0351811Y0209742D01*
X0353147Y0208406D01*
X0351693Y0210026D02*
X0339639Y0210026D01*
X0338040Y0211624D02*
X0351088Y0211624D01*
X0351088Y0213223D02*
X0336442Y0213223D01*
X0334843Y0214821D02*
X0351685Y0214821D01*
X0353107Y0216420D02*
X0333245Y0216420D01*
X0358568Y0216420D02*
X0363107Y0216420D01*
X0361508Y0214821D02*
X0359990Y0214821D01*
X0360587Y0213223D02*
X0361088Y0213223D01*
X0361088Y0211624D02*
X0360587Y0211624D01*
X0359982Y0210026D02*
X0361527Y0210026D01*
X0363126Y0208427D02*
X0358549Y0208427D01*
X0381288Y0230807D02*
X0386247Y0230807D01*
X0384648Y0232405D02*
X0382932Y0232405D01*
X0383587Y0234004D02*
X0384088Y0234004D01*
X0384088Y0235602D02*
X0383587Y0235602D01*
X0383040Y0237201D02*
X0384388Y0237201D01*
X0385986Y0238799D02*
X0381689Y0238799D01*
X0417567Y0210026D02*
X0417938Y0210026D01*
X0422737Y0160472D02*
X0433774Y0160472D01*
X0432522Y0158874D02*
X0422737Y0158874D01*
X0422737Y0157275D02*
X0431859Y0157275D01*
X0431379Y0155677D02*
X0422737Y0155677D01*
X0422737Y0154078D02*
X0431379Y0154078D01*
X0431384Y0152479D02*
X0422737Y0152479D01*
X0422737Y0150881D02*
X0432046Y0150881D01*
X0432708Y0149282D02*
X0422737Y0149282D01*
X0422737Y0147684D02*
X0434224Y0147684D01*
X0436520Y0146085D02*
X0422737Y0146085D01*
X0455738Y0371476D02*
X0335638Y0371476D01*
X0335638Y0373074D02*
X0455738Y0373074D01*
X0455738Y0374673D02*
X0335638Y0374673D01*
X0335638Y0376271D02*
X0455738Y0376271D01*
X0455738Y0377870D02*
X0335638Y0377870D01*
X0335638Y0379468D02*
X0455738Y0379468D01*
X0455738Y0381067D02*
X0335638Y0381067D01*
X0335638Y0382665D02*
X0455738Y0382665D01*
D25*
X0253338Y0124669D02*
X0243601Y0114933D01*
M02*
