G75*
%MOIN*%
%OFA0B0*%
%FSLAX25Y25*%
%IPPOS*%
%LPD*%
%AMOC8*
5,1,8,0,0,1.08239X$1,22.5*
%
%ADD10OC8,0.05600*%
%ADD11OC8,0.06300*%
%ADD12C,0.06300*%
%ADD13C,0.05600*%
%ADD14R,0.07677X0.07677*%
%ADD15C,0.15024*%
%ADD16R,0.11811X0.11811*%
%ADD17R,0.06731X0.06731*%
%ADD18C,0.05600*%
%ADD19C,0.06000*%
%ADD20C,0.07400*%
%ADD21C,0.01600*%
D10*
X0224938Y0104733D03*
X0224938Y0124733D03*
X0299338Y0146933D03*
X0299338Y0176933D03*
X0263838Y0204933D03*
X0263838Y0224933D03*
X0261338Y0242433D03*
X0281338Y0242433D03*
X0301338Y0242433D03*
X0321838Y0242433D03*
X0341838Y0242433D03*
X0378838Y0156933D03*
X0378838Y0126933D03*
X0231338Y0242433D03*
X0192938Y0233933D03*
X0182938Y0233933D03*
X0178838Y0269933D03*
X0178838Y0299933D03*
X0206338Y0307433D03*
X0206338Y0325433D03*
X0226338Y0325433D03*
X0226338Y0307433D03*
D11*
X0365838Y0212433D03*
X0388838Y0234933D03*
D12*
X0378838Y0234933D03*
X0355838Y0212433D03*
D13*
X0331338Y0224933D03*
X0321338Y0224933D03*
X0311338Y0224933D03*
X0301338Y0224933D03*
X0301338Y0194933D03*
X0311338Y0194933D03*
X0321338Y0194933D03*
X0331338Y0194933D03*
X0241338Y0194933D03*
X0231338Y0194933D03*
X0221338Y0194933D03*
X0211338Y0194933D03*
X0211338Y0224933D03*
X0221338Y0224933D03*
X0231338Y0224933D03*
X0241338Y0224933D03*
D14*
X0243601Y0114933D03*
X0258838Y0114933D03*
X0274074Y0114933D03*
X0323601Y0114933D03*
X0338838Y0114933D03*
X0354074Y0114933D03*
X0403601Y0114933D03*
X0418838Y0114933D03*
X0434074Y0114933D03*
D15*
X0440491Y0154303D03*
X0397184Y0154303D03*
X0360491Y0154303D03*
X0317184Y0154303D03*
X0280491Y0154303D03*
X0237184Y0154303D03*
D16*
X0202227Y0148815D03*
X0183212Y0148815D03*
X0183212Y0130311D03*
X0183212Y0111807D03*
X0202227Y0111807D03*
X0202227Y0130311D03*
X0212838Y0345689D03*
X0194334Y0357500D03*
X0212838Y0369311D03*
D17*
X0251901Y0344969D03*
X0251901Y0294969D03*
D18*
X0233638Y0285933D02*
X0228038Y0285933D01*
X0228038Y0270933D02*
X0233638Y0270933D01*
X0203638Y0270933D02*
X0198038Y0270933D01*
X0198038Y0285933D02*
X0203638Y0285933D01*
D19*
X0373838Y0191933D02*
X0373838Y0185933D01*
X0383838Y0185933D02*
X0383838Y0191933D01*
X0382838Y0116933D02*
X0376838Y0116933D01*
X0376838Y0106933D02*
X0382838Y0106933D01*
X0302838Y0106933D02*
X0296838Y0106933D01*
X0296838Y0116933D02*
X0302838Y0116933D01*
D20*
X0165438Y0161133D03*
X0419338Y0239933D03*
X0429338Y0240933D03*
X0439338Y0239933D03*
D21*
X0160638Y0158439D02*
X0160638Y0096733D01*
X0455738Y0096733D01*
X0455738Y0383133D01*
X0335638Y0383133D01*
X0335638Y0359187D01*
X0334583Y0358133D01*
X0308092Y0358133D01*
X0307038Y0359187D01*
X0307038Y0383133D01*
X0160638Y0383133D01*
X0160638Y0221733D01*
X0184583Y0221733D01*
X0185637Y0220679D01*
X0185637Y0194187D01*
X0184583Y0193133D01*
X0160638Y0193133D01*
X0160638Y0163827D01*
X0160733Y0164016D01*
X0161242Y0164716D01*
X0161855Y0165328D01*
X0162555Y0165837D01*
X0163326Y0166230D01*
X0164150Y0166498D01*
X0165005Y0166633D01*
X0165237Y0166633D01*
X0165237Y0161333D01*
X0165638Y0161333D01*
X0170938Y0161333D01*
X0170938Y0161566D01*
X0170802Y0162421D01*
X0170535Y0163244D01*
X0170142Y0164016D01*
X0169633Y0164716D01*
X0169021Y0165328D01*
X0168320Y0165837D01*
X0167549Y0166230D01*
X0166725Y0166498D01*
X0165870Y0166633D01*
X0165638Y0166633D01*
X0165638Y0161333D01*
X0165638Y0160933D01*
X0170938Y0160933D01*
X0170938Y0160700D01*
X0170802Y0159845D01*
X0170535Y0159022D01*
X0170142Y0158250D01*
X0169633Y0157550D01*
X0169021Y0156938D01*
X0168320Y0156429D01*
X0167549Y0156036D01*
X0166725Y0155769D01*
X0165870Y0155633D01*
X0165638Y0155633D01*
X0165638Y0160933D01*
X0165237Y0160933D01*
X0165237Y0155633D01*
X0165005Y0155633D01*
X0164150Y0155769D01*
X0163326Y0156036D01*
X0162555Y0156429D01*
X0161855Y0156938D01*
X0161242Y0157550D01*
X0160733Y0158250D01*
X0160638Y0158439D01*
X0160638Y0157275D02*
X0161517Y0157275D01*
X0160638Y0155677D02*
X0164730Y0155677D01*
X0165237Y0155677D02*
X0165638Y0155677D01*
X0166145Y0155677D02*
X0175999Y0155677D01*
X0175706Y0155383D02*
X0175706Y0144704D01*
X0171803Y0140800D01*
X0171438Y0139918D01*
X0171438Y0117456D01*
X0171803Y0116574D01*
X0172478Y0115898D01*
X0175706Y0112670D01*
X0175706Y0105239D01*
X0176643Y0104302D01*
X0189780Y0104302D01*
X0190717Y0105239D01*
X0190717Y0118375D01*
X0189780Y0119313D01*
X0176643Y0119313D01*
X0176248Y0118917D01*
X0176237Y0118927D01*
X0176237Y0123211D01*
X0176643Y0122806D01*
X0189780Y0122806D01*
X0190717Y0123743D01*
X0190717Y0136879D01*
X0189780Y0137817D01*
X0176643Y0137817D01*
X0176237Y0137411D01*
X0176237Y0138447D01*
X0179100Y0141309D01*
X0189780Y0141309D01*
X0190717Y0142247D01*
X0190717Y0155383D01*
X0189780Y0156320D01*
X0176643Y0156320D01*
X0175706Y0155383D01*
X0175706Y0154078D02*
X0160638Y0154078D01*
X0160638Y0152479D02*
X0175706Y0152479D01*
X0175706Y0150881D02*
X0160638Y0150881D01*
X0160638Y0149282D02*
X0175706Y0149282D01*
X0175706Y0147684D02*
X0160638Y0147684D01*
X0160638Y0146085D02*
X0175706Y0146085D01*
X0175489Y0144487D02*
X0160638Y0144487D01*
X0160638Y0142888D02*
X0173891Y0142888D01*
X0172292Y0141290D02*
X0160638Y0141290D01*
X0160638Y0139691D02*
X0171438Y0139691D01*
X0171438Y0138093D02*
X0160638Y0138093D01*
X0160638Y0136494D02*
X0171438Y0136494D01*
X0171438Y0134896D02*
X0160638Y0134896D01*
X0160638Y0133297D02*
X0171438Y0133297D01*
X0171438Y0131699D02*
X0160638Y0131699D01*
X0160638Y0130100D02*
X0171438Y0130100D01*
X0171438Y0128502D02*
X0160638Y0128502D01*
X0160638Y0126903D02*
X0171438Y0126903D01*
X0171438Y0125305D02*
X0160638Y0125305D01*
X0160638Y0123706D02*
X0171438Y0123706D01*
X0171438Y0122108D02*
X0160638Y0122108D01*
X0160638Y0120509D02*
X0171438Y0120509D01*
X0171438Y0118911D02*
X0160638Y0118911D01*
X0160638Y0117312D02*
X0171497Y0117312D01*
X0172663Y0115714D02*
X0160638Y0115714D01*
X0160638Y0114115D02*
X0174261Y0114115D01*
X0175706Y0112517D02*
X0160638Y0112517D01*
X0160638Y0110918D02*
X0175706Y0110918D01*
X0175706Y0109320D02*
X0160638Y0109320D01*
X0160638Y0107721D02*
X0175706Y0107721D01*
X0175706Y0106123D02*
X0160638Y0106123D01*
X0160638Y0104524D02*
X0176421Y0104524D01*
X0179963Y0111807D02*
X0173838Y0117933D01*
X0173838Y0139441D01*
X0183212Y0148815D01*
X0190717Y0149282D02*
X0194722Y0149282D01*
X0194722Y0147684D02*
X0190717Y0147684D01*
X0190717Y0146085D02*
X0194722Y0146085D01*
X0194722Y0144487D02*
X0190717Y0144487D01*
X0190717Y0142888D02*
X0194722Y0142888D01*
X0194722Y0142247D02*
X0195659Y0141309D01*
X0208796Y0141309D01*
X0209733Y0142247D01*
X0209733Y0155383D01*
X0208796Y0156320D01*
X0195659Y0156320D01*
X0194722Y0155383D01*
X0194722Y0142247D01*
X0195659Y0137817D02*
X0194722Y0136879D01*
X0194722Y0123743D01*
X0195659Y0122806D01*
X0208796Y0122806D01*
X0209733Y0123743D01*
X0209733Y0136879D01*
X0208796Y0137817D01*
X0195659Y0137817D01*
X0194722Y0136494D02*
X0190717Y0136494D01*
X0190717Y0134896D02*
X0194722Y0134896D01*
X0194722Y0133297D02*
X0190717Y0133297D01*
X0190717Y0131699D02*
X0194722Y0131699D01*
X0194722Y0130100D02*
X0190717Y0130100D01*
X0190717Y0128502D02*
X0194722Y0128502D01*
X0194722Y0126903D02*
X0190717Y0126903D01*
X0190717Y0125305D02*
X0194722Y0125305D01*
X0194758Y0123706D02*
X0190681Y0123706D01*
X0190182Y0118911D02*
X0195257Y0118911D01*
X0195659Y0119313D02*
X0194722Y0118375D01*
X0194722Y0105239D01*
X0195659Y0104302D01*
X0208796Y0104302D01*
X0209733Y0105239D01*
X0209733Y0118375D01*
X0208796Y0119313D01*
X0195659Y0119313D01*
X0194722Y0117312D02*
X0190717Y0117312D01*
X0190717Y0115714D02*
X0194722Y0115714D01*
X0194722Y0114115D02*
X0190717Y0114115D01*
X0190717Y0112517D02*
X0194722Y0112517D01*
X0194722Y0110918D02*
X0190717Y0110918D01*
X0190717Y0109320D02*
X0194722Y0109320D01*
X0194722Y0107721D02*
X0190717Y0107721D01*
X0190717Y0106123D02*
X0194722Y0106123D01*
X0195436Y0104524D02*
X0190002Y0104524D01*
X0183212Y0111807D02*
X0179963Y0111807D01*
X0176237Y0120509D02*
X0222656Y0120509D01*
X0223032Y0120133D02*
X0220338Y0122828D01*
X0220338Y0124733D01*
X0224937Y0124733D01*
X0224937Y0124733D01*
X0220338Y0124733D01*
X0220338Y0126638D01*
X0223032Y0129333D01*
X0224937Y0129333D01*
X0224937Y0124733D01*
X0224938Y0124733D01*
X0224938Y0124733D01*
X0229537Y0124733D01*
X0229537Y0122828D01*
X0226843Y0120133D01*
X0224938Y0120133D01*
X0224938Y0124733D01*
X0229537Y0124733D01*
X0229537Y0126638D01*
X0226843Y0129333D01*
X0224938Y0129333D01*
X0224938Y0124733D01*
X0224937Y0124733D01*
X0224937Y0120133D01*
X0223032Y0120133D01*
X0224937Y0120509D02*
X0224938Y0120509D01*
X0224937Y0122108D02*
X0224938Y0122108D01*
X0224937Y0123706D02*
X0224938Y0123706D01*
X0224937Y0125305D02*
X0224938Y0125305D01*
X0224937Y0126903D02*
X0224938Y0126903D01*
X0224937Y0128502D02*
X0224938Y0128502D01*
X0227674Y0128502D02*
X0338438Y0128502D01*
X0338438Y0130100D02*
X0209733Y0130100D01*
X0209733Y0128502D02*
X0222201Y0128502D01*
X0220602Y0126903D02*
X0209733Y0126903D01*
X0209733Y0125305D02*
X0220338Y0125305D01*
X0220338Y0123706D02*
X0209696Y0123706D01*
X0209197Y0118911D02*
X0238163Y0118911D01*
X0238163Y0119434D02*
X0238163Y0110432D01*
X0239100Y0109494D01*
X0248103Y0109494D01*
X0249040Y0110432D01*
X0249040Y0119434D01*
X0248103Y0120372D01*
X0239100Y0120372D01*
X0238163Y0119434D01*
X0238163Y0117312D02*
X0209733Y0117312D01*
X0209733Y0115714D02*
X0238163Y0115714D01*
X0238163Y0114115D02*
X0209733Y0114115D01*
X0209733Y0112517D02*
X0238163Y0112517D01*
X0238163Y0110918D02*
X0209733Y0110918D01*
X0209733Y0109320D02*
X0292847Y0109320D01*
X0292938Y0109539D02*
X0292238Y0107848D01*
X0292238Y0106018D01*
X0292938Y0104327D01*
X0294232Y0103033D01*
X0295923Y0102333D01*
X0303753Y0102333D01*
X0305443Y0103033D01*
X0306737Y0104327D01*
X0307438Y0106018D01*
X0307438Y0107848D01*
X0306737Y0109539D01*
X0305443Y0110833D01*
X0303753Y0111533D01*
X0295923Y0111533D01*
X0294232Y0110833D01*
X0292938Y0109539D01*
X0292238Y0107721D02*
X0228172Y0107721D01*
X0229337Y0106556D02*
X0226760Y0109133D01*
X0223115Y0109133D01*
X0220538Y0106556D01*
X0220538Y0102911D01*
X0223115Y0100333D01*
X0226760Y0100333D01*
X0229337Y0102911D01*
X0229337Y0106556D01*
X0229337Y0106123D02*
X0292238Y0106123D01*
X0292856Y0104524D02*
X0229337Y0104524D01*
X0229337Y0102926D02*
X0294492Y0102926D01*
X0294438Y0110918D02*
X0279512Y0110918D01*
X0279512Y0110432D02*
X0279512Y0119434D01*
X0278575Y0120372D01*
X0269572Y0120372D01*
X0268635Y0119434D01*
X0268635Y0110432D01*
X0269572Y0109494D01*
X0278575Y0109494D01*
X0279512Y0110432D01*
X0279512Y0112517D02*
X0295479Y0112517D01*
X0295923Y0112333D02*
X0294232Y0113033D01*
X0292938Y0114327D01*
X0292238Y0116018D01*
X0292238Y0117848D01*
X0292938Y0119539D01*
X0294232Y0120833D01*
X0295923Y0121533D01*
X0303753Y0121533D01*
X0305443Y0120833D01*
X0306737Y0119539D01*
X0307438Y0117848D01*
X0307438Y0116018D01*
X0306737Y0114327D01*
X0305443Y0113033D01*
X0303753Y0112333D01*
X0295923Y0112333D01*
X0293150Y0114115D02*
X0279512Y0114115D01*
X0279512Y0115714D02*
X0292364Y0115714D01*
X0292238Y0117312D02*
X0279512Y0117312D01*
X0279512Y0118911D02*
X0292678Y0118911D01*
X0293908Y0120509D02*
X0227219Y0120509D01*
X0228818Y0122108D02*
X0338438Y0122108D01*
X0338438Y0123706D02*
X0229537Y0123706D01*
X0229537Y0125305D02*
X0338438Y0125305D01*
X0338438Y0126903D02*
X0229273Y0126903D01*
X0221057Y0122108D02*
X0176237Y0122108D01*
X0176237Y0138093D02*
X0338438Y0138093D01*
X0338438Y0139691D02*
X0177482Y0139691D01*
X0179081Y0141290D02*
X0338438Y0141290D01*
X0338438Y0142888D02*
X0301515Y0142888D01*
X0301160Y0142533D02*
X0303738Y0145111D01*
X0303738Y0148756D01*
X0301160Y0151333D01*
X0297515Y0151333D01*
X0294938Y0148756D01*
X0294938Y0145111D01*
X0297515Y0142533D01*
X0301160Y0142533D01*
X0303114Y0144487D02*
X0338438Y0144487D01*
X0338438Y0146085D02*
X0321155Y0146085D01*
X0322345Y0146579D02*
X0324909Y0149142D01*
X0326296Y0152491D01*
X0326296Y0156116D01*
X0324909Y0159465D01*
X0322345Y0162028D01*
X0318996Y0163415D01*
X0315372Y0163415D01*
X0312023Y0162028D01*
X0309459Y0159465D01*
X0308072Y0156116D01*
X0308072Y0152491D01*
X0309459Y0149142D01*
X0312023Y0146579D01*
X0315372Y0145191D01*
X0318996Y0145191D01*
X0322345Y0146579D01*
X0323451Y0147684D02*
X0338438Y0147684D01*
X0338438Y0149282D02*
X0324967Y0149282D01*
X0325629Y0150881D02*
X0338438Y0150881D01*
X0338438Y0152479D02*
X0326291Y0152479D01*
X0326296Y0154078D02*
X0338438Y0154078D01*
X0338438Y0155677D02*
X0326296Y0155677D01*
X0325816Y0157275D02*
X0338438Y0157275D01*
X0338438Y0158874D02*
X0325153Y0158874D01*
X0323901Y0160472D02*
X0338438Y0160472D01*
X0338438Y0162071D02*
X0322242Y0162071D01*
X0312126Y0162071D02*
X0285549Y0162071D01*
X0285652Y0162028D02*
X0282304Y0163415D01*
X0278679Y0163415D01*
X0275330Y0162028D01*
X0272766Y0159465D01*
X0271379Y0156116D01*
X0271379Y0152491D01*
X0272766Y0149142D01*
X0275330Y0146579D01*
X0278679Y0145191D01*
X0282304Y0145191D01*
X0285652Y0146579D01*
X0288216Y0149142D01*
X0289603Y0152491D01*
X0289603Y0156116D01*
X0288216Y0159465D01*
X0285652Y0162028D01*
X0287208Y0160472D02*
X0310467Y0160472D01*
X0309215Y0158874D02*
X0288460Y0158874D01*
X0289123Y0157275D02*
X0308552Y0157275D01*
X0308072Y0155677D02*
X0289603Y0155677D01*
X0289603Y0154078D02*
X0308072Y0154078D01*
X0308077Y0152479D02*
X0289598Y0152479D01*
X0288936Y0150881D02*
X0297063Y0150881D01*
X0295464Y0149282D02*
X0288274Y0149282D01*
X0286758Y0147684D02*
X0294938Y0147684D01*
X0294938Y0146085D02*
X0284462Y0146085D01*
X0295561Y0144487D02*
X0209733Y0144487D01*
X0209733Y0146085D02*
X0233213Y0146085D01*
X0232023Y0146579D02*
X0235372Y0145191D01*
X0238996Y0145191D01*
X0242345Y0146579D01*
X0244909Y0149142D01*
X0246296Y0152491D01*
X0246296Y0156116D01*
X0244909Y0159465D01*
X0242345Y0162028D01*
X0238996Y0163415D01*
X0235372Y0163415D01*
X0232023Y0162028D01*
X0229459Y0159465D01*
X0228072Y0156116D01*
X0228072Y0152491D01*
X0229459Y0149142D01*
X0232023Y0146579D01*
X0230917Y0147684D02*
X0209733Y0147684D01*
X0209733Y0149282D02*
X0229401Y0149282D01*
X0228739Y0150881D02*
X0209733Y0150881D01*
X0209733Y0152479D02*
X0228077Y0152479D01*
X0228072Y0154078D02*
X0209733Y0154078D01*
X0209439Y0155677D02*
X0228072Y0155677D01*
X0228552Y0157275D02*
X0169358Y0157275D01*
X0170459Y0158874D02*
X0229215Y0158874D01*
X0230467Y0160472D02*
X0170901Y0160472D01*
X0170858Y0162071D02*
X0176655Y0162071D01*
X0177226Y0161834D02*
X0180449Y0161834D01*
X0183425Y0163067D01*
X0185704Y0165345D01*
X0186937Y0168322D01*
X0186937Y0171544D01*
X0185704Y0174521D01*
X0183425Y0176799D01*
X0180449Y0178032D01*
X0177226Y0178032D01*
X0174250Y0176799D01*
X0171971Y0174521D01*
X0170738Y0171544D01*
X0170738Y0168322D01*
X0171971Y0165345D01*
X0174250Y0163067D01*
X0177226Y0161834D01*
X0181020Y0162071D02*
X0232126Y0162071D01*
X0242242Y0162071D02*
X0275433Y0162071D01*
X0273774Y0160472D02*
X0243901Y0160472D01*
X0245153Y0158874D02*
X0272522Y0158874D01*
X0271859Y0157275D02*
X0245816Y0157275D01*
X0246296Y0155677D02*
X0271379Y0155677D01*
X0271379Y0154078D02*
X0246296Y0154078D01*
X0246291Y0152479D02*
X0271384Y0152479D01*
X0272046Y0150881D02*
X0245629Y0150881D01*
X0244967Y0149282D02*
X0272708Y0149282D01*
X0274224Y0147684D02*
X0243451Y0147684D01*
X0241155Y0146085D02*
X0276520Y0146085D01*
X0297160Y0142888D02*
X0209733Y0142888D01*
X0209733Y0136494D02*
X0338438Y0136494D01*
X0338438Y0134896D02*
X0209733Y0134896D01*
X0209733Y0133297D02*
X0338438Y0133297D01*
X0338438Y0131699D02*
X0209733Y0131699D01*
X0194722Y0150881D02*
X0190717Y0150881D01*
X0190717Y0152479D02*
X0194722Y0152479D01*
X0194722Y0154078D02*
X0190717Y0154078D01*
X0190424Y0155677D02*
X0195015Y0155677D01*
X0185626Y0165268D02*
X0296109Y0165268D01*
X0296303Y0165074D02*
X0296978Y0164398D01*
X0297860Y0164033D01*
X0305815Y0164033D01*
X0306697Y0164398D01*
X0310197Y0167898D01*
X0310872Y0168574D01*
X0311238Y0169456D01*
X0311238Y0190533D01*
X0312213Y0190533D01*
X0313830Y0191203D01*
X0315068Y0192441D01*
X0315738Y0194058D01*
X0315738Y0195808D01*
X0315068Y0197425D01*
X0313830Y0198663D01*
X0312213Y0199333D01*
X0310462Y0199333D01*
X0308845Y0198663D01*
X0307607Y0197425D01*
X0306938Y0195808D01*
X0306938Y0194058D01*
X0306976Y0193965D01*
X0306803Y0193793D01*
X0306438Y0192910D01*
X0306438Y0170927D01*
X0304343Y0168833D01*
X0299332Y0168833D01*
X0277872Y0190293D01*
X0277197Y0190968D01*
X0276315Y0191333D01*
X0243960Y0191333D01*
X0245068Y0192441D01*
X0245106Y0192533D01*
X0280343Y0192533D01*
X0294938Y0177939D01*
X0294938Y0175111D01*
X0297515Y0172533D01*
X0301160Y0172533D01*
X0303738Y0175111D01*
X0303738Y0178756D01*
X0301160Y0181333D01*
X0298332Y0181333D01*
X0284982Y0194683D01*
X0286697Y0196398D01*
X0287372Y0197074D01*
X0287738Y0197956D01*
X0287738Y0214939D01*
X0295332Y0222533D01*
X0297569Y0222533D01*
X0297607Y0222441D01*
X0298845Y0221203D01*
X0300462Y0220533D01*
X0302213Y0220533D01*
X0303830Y0221203D01*
X0305068Y0222441D01*
X0305738Y0224058D01*
X0305738Y0225808D01*
X0305068Y0227425D01*
X0303830Y0228663D01*
X0302213Y0229333D01*
X0300462Y0229333D01*
X0298845Y0228663D01*
X0297607Y0227425D01*
X0297569Y0227333D01*
X0293860Y0227333D01*
X0292978Y0226968D01*
X0283303Y0217293D01*
X0282938Y0216410D01*
X0282938Y0199427D01*
X0280843Y0197333D01*
X0245106Y0197333D01*
X0245068Y0197425D01*
X0243830Y0198663D01*
X0242213Y0199333D01*
X0240462Y0199333D01*
X0238845Y0198663D01*
X0237607Y0197425D01*
X0236938Y0195808D01*
X0236938Y0194058D01*
X0237607Y0192441D01*
X0238715Y0191333D01*
X0233960Y0191333D01*
X0235068Y0192441D01*
X0235737Y0194058D01*
X0235737Y0195808D01*
X0235068Y0197425D01*
X0233830Y0198663D01*
X0232213Y0199333D01*
X0230462Y0199333D01*
X0228845Y0198663D01*
X0227607Y0197425D01*
X0226938Y0195808D01*
X0226938Y0194058D01*
X0227607Y0192441D01*
X0228845Y0191203D01*
X0228938Y0191165D01*
X0228938Y0189956D01*
X0229303Y0189074D01*
X0230803Y0187574D01*
X0231478Y0186898D01*
X0232360Y0186533D01*
X0274843Y0186533D01*
X0296303Y0165074D01*
X0298338Y0166433D02*
X0305338Y0166433D01*
X0308838Y0169933D01*
X0308838Y0192433D01*
X0311338Y0194933D01*
X0312963Y0190844D02*
X0319712Y0190844D01*
X0320462Y0190533D02*
X0318845Y0191203D01*
X0317607Y0192441D01*
X0316938Y0194058D01*
X0316938Y0195808D01*
X0317607Y0197425D01*
X0318845Y0198663D01*
X0320462Y0199333D01*
X0322213Y0199333D01*
X0323830Y0198663D01*
X0325068Y0197425D01*
X0325738Y0195808D01*
X0325738Y0194058D01*
X0325068Y0192441D01*
X0323830Y0191203D01*
X0322213Y0190533D01*
X0320462Y0190533D01*
X0322963Y0190844D02*
X0329712Y0190844D01*
X0330462Y0190533D02*
X0332213Y0190533D01*
X0333830Y0191203D01*
X0335068Y0192441D01*
X0335738Y0194058D01*
X0335738Y0195808D01*
X0335068Y0197425D01*
X0333830Y0198663D01*
X0332213Y0199333D01*
X0330462Y0199333D01*
X0328845Y0198663D01*
X0327607Y0197425D01*
X0326938Y0195808D01*
X0326938Y0194058D01*
X0327607Y0192441D01*
X0328845Y0191203D01*
X0330462Y0190533D01*
X0332963Y0190844D02*
X0338438Y0190844D01*
X0338438Y0192442D02*
X0335068Y0192442D01*
X0335730Y0194041D02*
X0338438Y0194041D01*
X0338438Y0195639D02*
X0335738Y0195639D01*
X0335145Y0197238D02*
X0338438Y0197238D01*
X0338438Y0198836D02*
X0333412Y0198836D01*
X0329263Y0198836D02*
X0323412Y0198836D01*
X0325145Y0197238D02*
X0327530Y0197238D01*
X0326938Y0195639D02*
X0325738Y0195639D01*
X0325730Y0194041D02*
X0326945Y0194041D01*
X0327607Y0192442D02*
X0325068Y0192442D01*
X0317607Y0192442D02*
X0315068Y0192442D01*
X0315730Y0194041D02*
X0316945Y0194041D01*
X0316938Y0195639D02*
X0315738Y0195639D01*
X0315145Y0197238D02*
X0317530Y0197238D01*
X0319263Y0198836D02*
X0313412Y0198836D01*
X0309263Y0198836D02*
X0303791Y0198836D01*
X0303748Y0198867D02*
X0303103Y0199196D01*
X0302415Y0199420D01*
X0301700Y0199533D01*
X0301338Y0199533D01*
X0301338Y0194933D01*
X0301338Y0194933D01*
X0305938Y0194933D01*
X0305938Y0194571D01*
X0305824Y0193856D01*
X0305600Y0193167D01*
X0305272Y0192522D01*
X0304846Y0191936D01*
X0304334Y0191424D01*
X0303748Y0190999D01*
X0303103Y0190670D01*
X0302415Y0190446D01*
X0301700Y0190333D01*
X0301338Y0190333D01*
X0301338Y0194933D01*
X0305938Y0194933D01*
X0305938Y0195295D01*
X0305824Y0196010D01*
X0305600Y0196699D01*
X0305272Y0197344D01*
X0304846Y0197930D01*
X0304334Y0198442D01*
X0303748Y0198867D01*
X0305326Y0197238D02*
X0307530Y0197238D01*
X0306938Y0195639D02*
X0305883Y0195639D01*
X0305854Y0194041D02*
X0306945Y0194041D01*
X0306438Y0192442D02*
X0305214Y0192442D01*
X0306438Y0190844D02*
X0303444Y0190844D01*
X0301338Y0190844D02*
X0301337Y0190844D01*
X0301337Y0190333D02*
X0301337Y0194933D01*
X0296738Y0194933D01*
X0296738Y0194571D01*
X0296851Y0193856D01*
X0297075Y0193167D01*
X0297403Y0192522D01*
X0297829Y0191936D01*
X0298341Y0191424D01*
X0298927Y0190999D01*
X0299572Y0190670D01*
X0300260Y0190446D01*
X0300975Y0190333D01*
X0301337Y0190333D01*
X0301337Y0192442D02*
X0301338Y0192442D01*
X0301337Y0194041D02*
X0301338Y0194041D01*
X0301337Y0194933D02*
X0301338Y0194933D01*
X0301337Y0194933D01*
X0301337Y0194933D01*
X0296738Y0194933D01*
X0296738Y0195295D01*
X0296851Y0196010D01*
X0297075Y0196699D01*
X0297403Y0197344D01*
X0297829Y0197930D01*
X0298341Y0198442D01*
X0298927Y0198867D01*
X0299572Y0199196D01*
X0300260Y0199420D01*
X0300975Y0199533D01*
X0301337Y0199533D01*
X0301337Y0194933D01*
X0301337Y0195639D02*
X0301338Y0195639D01*
X0301337Y0197238D02*
X0301338Y0197238D01*
X0301337Y0198836D02*
X0301338Y0198836D01*
X0298884Y0198836D02*
X0287738Y0198836D01*
X0287738Y0200435D02*
X0338438Y0200435D01*
X0338438Y0202033D02*
X0287738Y0202033D01*
X0287738Y0203632D02*
X0338438Y0203632D01*
X0338438Y0205230D02*
X0287738Y0205230D01*
X0287738Y0206829D02*
X0338438Y0206829D01*
X0338438Y0208427D02*
X0287738Y0208427D01*
X0287738Y0210026D02*
X0338438Y0210026D01*
X0338438Y0211624D02*
X0287738Y0211624D01*
X0287738Y0213223D02*
X0337654Y0213223D01*
X0338438Y0212439D02*
X0336843Y0214033D01*
X0323360Y0214033D01*
X0322478Y0214398D01*
X0321803Y0215074D01*
X0319303Y0217574D01*
X0318938Y0218456D01*
X0318938Y0221165D01*
X0318845Y0221203D01*
X0317607Y0222441D01*
X0316938Y0224058D01*
X0316938Y0225808D01*
X0317607Y0227425D01*
X0318845Y0228663D01*
X0320462Y0229333D01*
X0322213Y0229333D01*
X0323830Y0228663D01*
X0325068Y0227425D01*
X0325738Y0225808D01*
X0325738Y0224058D01*
X0325068Y0222441D01*
X0323830Y0221203D01*
X0323738Y0221165D01*
X0323738Y0219927D01*
X0324832Y0218833D01*
X0338315Y0218833D01*
X0339197Y0218468D01*
X0339872Y0217793D01*
X0342872Y0214793D01*
X0343238Y0213910D01*
X0343238Y0120372D01*
X0343339Y0120372D01*
X0344276Y0119434D01*
X0344276Y0110432D01*
X0343339Y0109494D01*
X0334336Y0109494D01*
X0333399Y0110432D01*
X0333399Y0119434D01*
X0334336Y0120372D01*
X0338438Y0120372D01*
X0338438Y0212439D01*
X0340838Y0213433D02*
X0337838Y0216433D01*
X0323838Y0216433D01*
X0321338Y0218933D01*
X0321338Y0224933D01*
X0325222Y0222814D02*
X0327453Y0222814D01*
X0327607Y0222441D02*
X0328845Y0221203D01*
X0330462Y0220533D01*
X0332213Y0220533D01*
X0333830Y0221203D01*
X0335068Y0222441D01*
X0335738Y0224058D01*
X0335738Y0225808D01*
X0335068Y0227425D01*
X0333830Y0228663D01*
X0333592Y0228762D01*
X0333372Y0229293D01*
X0326697Y0235968D01*
X0325815Y0236333D01*
X0291860Y0236333D01*
X0290978Y0235968D01*
X0290303Y0235293D01*
X0290303Y0235293D01*
X0282343Y0227333D01*
X0267660Y0227333D01*
X0265660Y0229333D01*
X0262015Y0229333D01*
X0260015Y0227333D01*
X0245106Y0227333D01*
X0245068Y0227425D01*
X0243830Y0228663D01*
X0242213Y0229333D01*
X0240462Y0229333D01*
X0238845Y0228663D01*
X0237607Y0227425D01*
X0236938Y0225808D01*
X0236938Y0224058D01*
X0237607Y0222441D01*
X0238845Y0221203D01*
X0240462Y0220533D01*
X0242213Y0220533D01*
X0243830Y0221203D01*
X0245068Y0222441D01*
X0245106Y0222533D01*
X0260015Y0222533D01*
X0262015Y0220533D01*
X0265660Y0220533D01*
X0267660Y0222533D01*
X0283815Y0222533D01*
X0284697Y0222898D01*
X0293332Y0231533D01*
X0324343Y0231533D01*
X0328029Y0227847D01*
X0327607Y0227425D01*
X0326938Y0225808D01*
X0326938Y0224058D01*
X0327607Y0222441D01*
X0328833Y0221215D02*
X0323842Y0221215D01*
X0324048Y0219617D02*
X0417938Y0219617D01*
X0417938Y0221215D02*
X0333842Y0221215D01*
X0335222Y0222814D02*
X0417938Y0222814D01*
X0417938Y0224412D02*
X0335738Y0224412D01*
X0335654Y0226011D02*
X0417938Y0226011D01*
X0417938Y0227610D02*
X0334884Y0227610D01*
X0333407Y0229208D02*
X0417938Y0229208D01*
X0417938Y0229410D02*
X0417938Y0209656D01*
X0416964Y0210629D01*
X0415145Y0211383D01*
X0413176Y0211383D01*
X0411357Y0210629D01*
X0409964Y0209237D01*
X0409211Y0207418D01*
X0409211Y0205954D01*
X0405697Y0209468D01*
X0404815Y0209833D01*
X0369955Y0209833D01*
X0370587Y0210466D01*
X0370587Y0214401D01*
X0367805Y0217183D01*
X0363870Y0217183D01*
X0361088Y0214401D01*
X0361088Y0210466D01*
X0363870Y0207683D01*
X0364693Y0207683D01*
X0366303Y0206074D01*
X0366978Y0205398D01*
X0367860Y0205033D01*
X0403343Y0205033D01*
X0407938Y0200439D01*
X0407938Y0120372D01*
X0399100Y0120372D01*
X0398163Y0119434D01*
X0398163Y0110432D01*
X0399100Y0109494D01*
X0407938Y0109494D01*
X0407938Y0108956D01*
X0408303Y0108074D01*
X0413478Y0102898D01*
X0414360Y0102533D01*
X0430815Y0102533D01*
X0431697Y0102898D01*
X0435197Y0106398D01*
X0435872Y0107074D01*
X0436237Y0107956D01*
X0436237Y0109494D01*
X0438575Y0109494D01*
X0439512Y0110432D01*
X0439512Y0119434D01*
X0438575Y0120372D01*
X0429572Y0120372D01*
X0428635Y0119434D01*
X0428635Y0110432D01*
X0429572Y0109494D01*
X0431438Y0109494D01*
X0431438Y0109427D01*
X0429343Y0107333D01*
X0415832Y0107333D01*
X0412737Y0110427D01*
X0412737Y0201665D01*
X0413176Y0201483D01*
X0415145Y0201483D01*
X0416964Y0202237D01*
X0417938Y0203210D01*
X0417938Y0120372D01*
X0414336Y0120372D01*
X0413399Y0119434D01*
X0413399Y0110432D01*
X0414336Y0109494D01*
X0423339Y0109494D01*
X0424276Y0110432D01*
X0424276Y0119434D01*
X0423339Y0120372D01*
X0422737Y0120372D01*
X0422737Y0227939D01*
X0430460Y0235661D01*
X0432340Y0236440D01*
X0433831Y0237931D01*
X0434040Y0238437D01*
X0434240Y0237822D01*
X0434633Y0237050D01*
X0435142Y0236350D01*
X0435755Y0235738D01*
X0436455Y0235229D01*
X0437226Y0234836D01*
X0438050Y0234569D01*
X0438905Y0234433D01*
X0439137Y0234433D01*
X0439137Y0239733D01*
X0439538Y0239733D01*
X0439538Y0240133D01*
X0444837Y0240133D01*
X0444837Y0240366D01*
X0444702Y0241221D01*
X0444435Y0242044D01*
X0444042Y0242816D01*
X0443533Y0243516D01*
X0442921Y0244128D01*
X0442220Y0244637D01*
X0441449Y0245030D01*
X0440625Y0245298D01*
X0439770Y0245433D01*
X0439538Y0245433D01*
X0439538Y0240133D01*
X0439137Y0240133D01*
X0439137Y0245433D01*
X0438905Y0245433D01*
X0438050Y0245298D01*
X0437226Y0245030D01*
X0436455Y0244637D01*
X0435755Y0244128D01*
X0435142Y0243516D01*
X0434633Y0242816D01*
X0434446Y0242449D01*
X0433831Y0243935D01*
X0432340Y0245426D01*
X0430392Y0246233D01*
X0428283Y0246233D01*
X0426335Y0245426D01*
X0424844Y0243935D01*
X0424130Y0242212D01*
X0423831Y0242935D01*
X0422340Y0244426D01*
X0420392Y0245233D01*
X0418283Y0245233D01*
X0416335Y0244426D01*
X0414844Y0242935D01*
X0414038Y0240987D01*
X0414038Y0238879D01*
X0414844Y0236931D01*
X0416335Y0235440D01*
X0418283Y0234633D01*
X0420392Y0234633D01*
X0422340Y0235440D01*
X0423831Y0236931D01*
X0424545Y0238655D01*
X0424844Y0237931D01*
X0425393Y0237382D01*
X0418978Y0230968D01*
X0418303Y0230293D01*
X0417938Y0229410D01*
X0418817Y0230807D02*
X0391428Y0230807D01*
X0390805Y0230183D02*
X0393587Y0232966D01*
X0393587Y0236901D01*
X0390805Y0239683D01*
X0386870Y0239683D01*
X0384088Y0236901D01*
X0384088Y0232966D01*
X0386870Y0230183D01*
X0390805Y0230183D01*
X0393027Y0232405D02*
X0420415Y0232405D01*
X0422014Y0234004D02*
X0393587Y0234004D01*
X0393587Y0235602D02*
X0416173Y0235602D01*
X0414733Y0237201D02*
X0393287Y0237201D01*
X0391689Y0238799D02*
X0414071Y0238799D01*
X0414038Y0240398D02*
X0346307Y0240398D01*
X0346437Y0240528D02*
X0346437Y0242433D01*
X0341838Y0242433D01*
X0341838Y0242433D01*
X0346437Y0242433D01*
X0346437Y0244338D01*
X0343743Y0247033D01*
X0341838Y0247033D01*
X0341838Y0242433D01*
X0341838Y0237833D01*
X0343743Y0237833D01*
X0346437Y0240528D01*
X0346437Y0241996D02*
X0414455Y0241996D01*
X0415504Y0243595D02*
X0346437Y0243595D01*
X0345583Y0245193D02*
X0418187Y0245193D01*
X0420488Y0245193D02*
X0426102Y0245193D01*
X0424703Y0243595D02*
X0423171Y0243595D01*
X0423942Y0237201D02*
X0425211Y0237201D01*
X0423612Y0235602D02*
X0422502Y0235602D01*
X0427204Y0232405D02*
X0455738Y0232405D01*
X0455738Y0230807D02*
X0425605Y0230807D01*
X0424007Y0229208D02*
X0455738Y0229208D01*
X0455738Y0227610D02*
X0422737Y0227610D01*
X0422737Y0226011D02*
X0455738Y0226011D01*
X0455738Y0224412D02*
X0422737Y0224412D01*
X0422737Y0222814D02*
X0455738Y0222814D01*
X0455738Y0221215D02*
X0422737Y0221215D01*
X0422737Y0219617D02*
X0455738Y0219617D01*
X0455738Y0218018D02*
X0422737Y0218018D01*
X0422737Y0216420D02*
X0455738Y0216420D01*
X0455738Y0214821D02*
X0422737Y0214821D01*
X0422737Y0213223D02*
X0455738Y0213223D01*
X0455738Y0211624D02*
X0422737Y0211624D01*
X0422737Y0210026D02*
X0438312Y0210026D01*
X0438916Y0210629D02*
X0437523Y0209237D01*
X0436770Y0207418D01*
X0436770Y0205449D01*
X0437523Y0203629D01*
X0438916Y0202237D01*
X0440735Y0201483D01*
X0442704Y0201483D01*
X0444523Y0202237D01*
X0445915Y0203629D01*
X0446669Y0205449D01*
X0446669Y0207418D01*
X0445915Y0209237D01*
X0444523Y0210629D01*
X0442704Y0211383D01*
X0440735Y0211383D01*
X0438916Y0210629D01*
X0437188Y0208427D02*
X0422737Y0208427D01*
X0422737Y0206829D02*
X0436770Y0206829D01*
X0436860Y0205230D02*
X0422737Y0205230D01*
X0422737Y0203632D02*
X0437522Y0203632D01*
X0439407Y0202033D02*
X0422737Y0202033D01*
X0422737Y0200435D02*
X0455738Y0200435D01*
X0455738Y0202033D02*
X0444031Y0202033D01*
X0445916Y0203632D02*
X0455738Y0203632D01*
X0455738Y0205230D02*
X0446579Y0205230D01*
X0446669Y0206829D02*
X0455738Y0206829D01*
X0455738Y0208427D02*
X0446251Y0208427D01*
X0445126Y0210026D02*
X0455738Y0210026D01*
X0455738Y0198836D02*
X0422737Y0198836D01*
X0422737Y0197238D02*
X0455738Y0197238D01*
X0455738Y0195639D02*
X0422737Y0195639D01*
X0422737Y0194041D02*
X0455738Y0194041D01*
X0455738Y0192442D02*
X0422737Y0192442D01*
X0422737Y0190844D02*
X0455738Y0190844D01*
X0455738Y0189245D02*
X0422737Y0189245D01*
X0422737Y0187647D02*
X0455738Y0187647D01*
X0455738Y0186048D02*
X0422737Y0186048D01*
X0422737Y0184450D02*
X0455738Y0184450D01*
X0455738Y0182851D02*
X0422737Y0182851D01*
X0422737Y0181253D02*
X0455738Y0181253D01*
X0455738Y0179654D02*
X0422737Y0179654D01*
X0422737Y0178056D02*
X0455738Y0178056D01*
X0455738Y0176457D02*
X0422737Y0176457D01*
X0422737Y0174859D02*
X0455738Y0174859D01*
X0455738Y0173260D02*
X0422737Y0173260D01*
X0422737Y0171662D02*
X0455738Y0171662D01*
X0455738Y0170063D02*
X0422737Y0170063D01*
X0422737Y0168465D02*
X0455738Y0168465D01*
X0455738Y0166866D02*
X0422737Y0166866D01*
X0422737Y0165268D02*
X0455738Y0165268D01*
X0455738Y0163669D02*
X0422737Y0163669D01*
X0422737Y0162071D02*
X0435433Y0162071D01*
X0435330Y0162028D02*
X0432766Y0159465D01*
X0431379Y0156116D01*
X0431379Y0152491D01*
X0432766Y0149142D01*
X0435330Y0146579D01*
X0438679Y0145191D01*
X0442304Y0145191D01*
X0445652Y0146579D01*
X0448216Y0149142D01*
X0449603Y0152491D01*
X0449603Y0156116D01*
X0448216Y0159465D01*
X0445652Y0162028D01*
X0442304Y0163415D01*
X0438679Y0163415D01*
X0435330Y0162028D01*
X0433774Y0160472D02*
X0422737Y0160472D01*
X0422737Y0158874D02*
X0432522Y0158874D01*
X0431859Y0157275D02*
X0422737Y0157275D01*
X0422737Y0155677D02*
X0431379Y0155677D01*
X0431379Y0154078D02*
X0422737Y0154078D01*
X0422737Y0152479D02*
X0431384Y0152479D01*
X0432046Y0150881D02*
X0422737Y0150881D01*
X0422737Y0149282D02*
X0432708Y0149282D01*
X0434224Y0147684D02*
X0422737Y0147684D01*
X0422737Y0146085D02*
X0436520Y0146085D01*
X0444462Y0146085D02*
X0455738Y0146085D01*
X0455738Y0144487D02*
X0422737Y0144487D01*
X0422737Y0142888D02*
X0455738Y0142888D01*
X0455738Y0141290D02*
X0422737Y0141290D01*
X0422737Y0139691D02*
X0455738Y0139691D01*
X0455738Y0138093D02*
X0422737Y0138093D01*
X0422737Y0136494D02*
X0455738Y0136494D01*
X0455738Y0134896D02*
X0422737Y0134896D01*
X0422737Y0133297D02*
X0455738Y0133297D01*
X0455738Y0131699D02*
X0422737Y0131699D01*
X0422737Y0130100D02*
X0455738Y0130100D01*
X0455738Y0128502D02*
X0422737Y0128502D01*
X0422737Y0126903D02*
X0455738Y0126903D01*
X0455738Y0125305D02*
X0422737Y0125305D01*
X0422737Y0123706D02*
X0455738Y0123706D01*
X0455738Y0122108D02*
X0422737Y0122108D01*
X0422737Y0120509D02*
X0455738Y0120509D01*
X0455738Y0118911D02*
X0439512Y0118911D01*
X0439512Y0117312D02*
X0455738Y0117312D01*
X0455738Y0115714D02*
X0439512Y0115714D01*
X0439512Y0114115D02*
X0455738Y0114115D01*
X0455738Y0112517D02*
X0439512Y0112517D01*
X0439512Y0110918D02*
X0455738Y0110918D01*
X0455738Y0109320D02*
X0436237Y0109320D01*
X0436140Y0107721D02*
X0455738Y0107721D01*
X0455738Y0106123D02*
X0434921Y0106123D01*
X0433323Y0104524D02*
X0455738Y0104524D01*
X0455738Y0102926D02*
X0431724Y0102926D01*
X0430338Y0104933D02*
X0433838Y0108433D01*
X0433838Y0114697D01*
X0434074Y0114933D01*
X0428635Y0115714D02*
X0424276Y0115714D01*
X0424276Y0117312D02*
X0428635Y0117312D01*
X0428635Y0118911D02*
X0424276Y0118911D01*
X0420338Y0116433D02*
X0418838Y0114933D01*
X0420338Y0116433D02*
X0420338Y0228933D01*
X0429338Y0237933D01*
X0429338Y0240933D01*
X0433100Y0237201D02*
X0434557Y0237201D01*
X0435941Y0235602D02*
X0430401Y0235602D01*
X0428802Y0234004D02*
X0455738Y0234004D01*
X0455738Y0235602D02*
X0442734Y0235602D01*
X0442921Y0235738D02*
X0443533Y0236350D01*
X0444042Y0237050D01*
X0444435Y0237822D01*
X0444702Y0238645D01*
X0444837Y0239500D01*
X0444837Y0239733D01*
X0439538Y0239733D01*
X0439538Y0234433D01*
X0439770Y0234433D01*
X0440625Y0234569D01*
X0441449Y0234836D01*
X0442220Y0235229D01*
X0442921Y0235738D01*
X0444118Y0237201D02*
X0455738Y0237201D01*
X0455738Y0238799D02*
X0444726Y0238799D01*
X0444832Y0240398D02*
X0455738Y0240398D01*
X0455738Y0241996D02*
X0444450Y0241996D01*
X0443454Y0243595D02*
X0455738Y0243595D01*
X0455738Y0245193D02*
X0440947Y0245193D01*
X0439538Y0245193D02*
X0439137Y0245193D01*
X0437728Y0245193D02*
X0432573Y0245193D01*
X0433972Y0243595D02*
X0435221Y0243595D01*
X0439137Y0243595D02*
X0439538Y0243595D01*
X0439538Y0241996D02*
X0439137Y0241996D01*
X0439137Y0240398D02*
X0439538Y0240398D01*
X0439538Y0238799D02*
X0439137Y0238799D01*
X0439137Y0237201D02*
X0439538Y0237201D01*
X0439538Y0235602D02*
X0439137Y0235602D01*
X0455738Y0246792D02*
X0343984Y0246792D01*
X0341838Y0246792D02*
X0341837Y0246792D01*
X0341837Y0247033D02*
X0339932Y0247033D01*
X0337238Y0244338D01*
X0337238Y0242433D01*
X0337238Y0240528D01*
X0339932Y0237833D01*
X0341837Y0237833D01*
X0341837Y0242433D01*
X0337238Y0242433D01*
X0341837Y0242433D01*
X0341837Y0242433D01*
X0341838Y0242433D01*
X0341837Y0242433D01*
X0341837Y0247033D01*
X0341837Y0245193D02*
X0341838Y0245193D01*
X0341837Y0243595D02*
X0341838Y0243595D01*
X0341837Y0241996D02*
X0341838Y0241996D01*
X0341837Y0240398D02*
X0341838Y0240398D01*
X0341837Y0238799D02*
X0341838Y0238799D01*
X0344709Y0238799D02*
X0375986Y0238799D01*
X0376147Y0238960D02*
X0374811Y0237624D01*
X0374088Y0235878D01*
X0374088Y0233988D01*
X0374811Y0232242D01*
X0376147Y0230906D01*
X0377893Y0230183D01*
X0379782Y0230183D01*
X0381528Y0230906D01*
X0382864Y0232242D01*
X0383587Y0233988D01*
X0383587Y0235878D01*
X0382864Y0237624D01*
X0381528Y0238960D01*
X0379782Y0239683D01*
X0377893Y0239683D01*
X0376147Y0238960D01*
X0374635Y0237201D02*
X0195893Y0237201D01*
X0196760Y0236333D02*
X0194760Y0238333D01*
X0191115Y0238333D01*
X0188538Y0235756D01*
X0188538Y0232111D01*
X0191115Y0229533D01*
X0194760Y0229533D01*
X0196760Y0231533D01*
X0207843Y0231533D01*
X0208938Y0230439D01*
X0208938Y0228701D01*
X0208845Y0228663D01*
X0207607Y0227425D01*
X0206938Y0225808D01*
X0206938Y0224058D01*
X0207607Y0222441D01*
X0208845Y0221203D01*
X0210462Y0220533D01*
X0212213Y0220533D01*
X0213830Y0221203D01*
X0215068Y0222441D01*
X0215737Y0224058D01*
X0215737Y0225808D01*
X0215068Y0227425D01*
X0213830Y0228663D01*
X0213737Y0228701D01*
X0213737Y0231910D01*
X0213372Y0232793D01*
X0212697Y0233468D01*
X0210197Y0235968D01*
X0209315Y0236333D01*
X0196760Y0236333D01*
X0192938Y0233933D02*
X0208838Y0233933D01*
X0211338Y0231433D01*
X0211338Y0224933D01*
X0215222Y0222814D02*
X0217453Y0222814D01*
X0217607Y0222441D02*
X0218845Y0221203D01*
X0220462Y0220533D01*
X0222213Y0220533D01*
X0223830Y0221203D01*
X0225068Y0222441D01*
X0225737Y0224058D01*
X0225737Y0225808D01*
X0225068Y0227425D01*
X0223830Y0228663D01*
X0222213Y0229333D01*
X0220462Y0229333D01*
X0218845Y0228663D01*
X0217607Y0227425D01*
X0216938Y0225808D01*
X0216938Y0224058D01*
X0217607Y0222441D01*
X0218833Y0221215D02*
X0213842Y0221215D01*
X0215737Y0224412D02*
X0216938Y0224412D01*
X0217021Y0226011D02*
X0215654Y0226011D01*
X0214884Y0227610D02*
X0217791Y0227610D01*
X0220160Y0229208D02*
X0213737Y0229208D01*
X0213737Y0230807D02*
X0285817Y0230807D01*
X0287415Y0232405D02*
X0213533Y0232405D01*
X0212161Y0234004D02*
X0289014Y0234004D01*
X0290612Y0235602D02*
X0210563Y0235602D01*
X0208570Y0230807D02*
X0196034Y0230807D01*
X0189842Y0230807D02*
X0186034Y0230807D01*
X0184760Y0229533D02*
X0187337Y0232111D01*
X0187337Y0235756D01*
X0184760Y0238333D01*
X0181115Y0238333D01*
X0178538Y0235756D01*
X0178538Y0232111D01*
X0181115Y0229533D01*
X0184760Y0229533D01*
X0187337Y0232405D02*
X0188538Y0232405D01*
X0188538Y0234004D02*
X0187337Y0234004D01*
X0187337Y0235602D02*
X0188538Y0235602D01*
X0189982Y0237201D02*
X0185893Y0237201D01*
X0179982Y0237201D02*
X0160638Y0237201D01*
X0160638Y0238799D02*
X0228749Y0238799D01*
X0229515Y0238033D02*
X0226938Y0240611D01*
X0226938Y0244256D01*
X0229515Y0246833D01*
X0233160Y0246833D01*
X0235737Y0244256D01*
X0235737Y0240611D01*
X0233160Y0238033D01*
X0229515Y0238033D01*
X0227150Y0240398D02*
X0160638Y0240398D01*
X0160638Y0241996D02*
X0226938Y0241996D01*
X0226938Y0243595D02*
X0160638Y0243595D01*
X0160638Y0245193D02*
X0227875Y0245193D01*
X0229474Y0246792D02*
X0160638Y0246792D01*
X0160638Y0248390D02*
X0455738Y0248390D01*
X0455738Y0249989D02*
X0160638Y0249989D01*
X0160638Y0251587D02*
X0455738Y0251587D01*
X0455738Y0253186D02*
X0160638Y0253186D01*
X0160638Y0254784D02*
X0455738Y0254784D01*
X0455738Y0256383D02*
X0160638Y0256383D01*
X0160638Y0257981D02*
X0455738Y0257981D01*
X0455738Y0259580D02*
X0160638Y0259580D01*
X0160638Y0261178D02*
X0455738Y0261178D01*
X0455738Y0262777D02*
X0160638Y0262777D01*
X0160638Y0264375D02*
X0455738Y0264375D01*
X0455738Y0265974D02*
X0181101Y0265974D01*
X0180660Y0265533D02*
X0183237Y0268111D01*
X0183237Y0271756D01*
X0180660Y0274333D01*
X0177015Y0274333D01*
X0174438Y0271756D01*
X0174438Y0268111D01*
X0177015Y0265533D01*
X0180660Y0265533D01*
X0182699Y0267572D02*
X0195176Y0267572D01*
X0195545Y0267203D02*
X0197162Y0266533D01*
X0204513Y0266533D01*
X0206130Y0267203D01*
X0207368Y0268441D01*
X0208037Y0270058D01*
X0208037Y0271808D01*
X0207368Y0273425D01*
X0206130Y0274663D01*
X0204513Y0275333D01*
X0197162Y0275333D01*
X0195545Y0274663D01*
X0194307Y0273425D01*
X0193638Y0271808D01*
X0193638Y0270058D01*
X0194307Y0268441D01*
X0195545Y0267203D01*
X0194005Y0269171D02*
X0183237Y0269171D01*
X0183237Y0270769D02*
X0193638Y0270769D01*
X0193869Y0272368D02*
X0182625Y0272368D01*
X0181027Y0273966D02*
X0194848Y0273966D01*
X0197162Y0281533D02*
X0204513Y0281533D01*
X0206130Y0282203D01*
X0207368Y0283441D01*
X0208037Y0285058D01*
X0208037Y0286808D01*
X0207368Y0288425D01*
X0206130Y0289663D01*
X0204513Y0290333D01*
X0197162Y0290333D01*
X0195545Y0289663D01*
X0194307Y0288425D01*
X0193638Y0286808D01*
X0193638Y0285058D01*
X0194307Y0283441D01*
X0195545Y0282203D01*
X0197162Y0281533D01*
X0196134Y0281959D02*
X0160638Y0281959D01*
X0160638Y0283557D02*
X0194259Y0283557D01*
X0193638Y0285156D02*
X0160638Y0285156D01*
X0160638Y0286754D02*
X0193638Y0286754D01*
X0194277Y0288353D02*
X0160638Y0288353D01*
X0160638Y0289951D02*
X0196241Y0289951D01*
X0205434Y0289951D02*
X0226241Y0289951D01*
X0225545Y0289663D02*
X0224307Y0288425D01*
X0223638Y0286808D01*
X0223638Y0285058D01*
X0224307Y0283441D01*
X0225545Y0282203D01*
X0227162Y0281533D01*
X0234513Y0281533D01*
X0236130Y0282203D01*
X0237368Y0283441D01*
X0238037Y0285058D01*
X0238037Y0286808D01*
X0237368Y0288425D01*
X0236130Y0289663D01*
X0234513Y0290333D01*
X0227162Y0290333D01*
X0225545Y0289663D01*
X0224277Y0288353D02*
X0207398Y0288353D01*
X0208037Y0286754D02*
X0223638Y0286754D01*
X0223638Y0285156D02*
X0208037Y0285156D01*
X0207416Y0283557D02*
X0224259Y0283557D01*
X0226134Y0281959D02*
X0205541Y0281959D01*
X0206827Y0273966D02*
X0224848Y0273966D01*
X0224307Y0273425D02*
X0223638Y0271808D01*
X0223638Y0270058D01*
X0224307Y0268441D01*
X0225545Y0267203D01*
X0227162Y0266533D01*
X0234513Y0266533D01*
X0236130Y0267203D01*
X0237368Y0268441D01*
X0238037Y0270058D01*
X0238037Y0271808D01*
X0237368Y0273425D01*
X0236130Y0274663D01*
X0234513Y0275333D01*
X0227162Y0275333D01*
X0225545Y0274663D01*
X0224307Y0273425D01*
X0223869Y0272368D02*
X0207806Y0272368D01*
X0208037Y0270769D02*
X0223638Y0270769D01*
X0224005Y0269171D02*
X0207670Y0269171D01*
X0206499Y0267572D02*
X0225176Y0267572D01*
X0236499Y0267572D02*
X0455738Y0267572D01*
X0455738Y0269171D02*
X0237670Y0269171D01*
X0238037Y0270769D02*
X0293444Y0270769D01*
X0292975Y0270963D02*
X0295445Y0269940D01*
X0298119Y0269940D01*
X0300590Y0270963D01*
X0302480Y0272854D01*
X0303504Y0275324D01*
X0303504Y0277998D01*
X0302480Y0280469D01*
X0300590Y0282359D01*
X0298119Y0283383D01*
X0295445Y0283383D01*
X0292975Y0282359D01*
X0291084Y0280469D01*
X0290061Y0277998D01*
X0290061Y0275324D01*
X0291084Y0272854D01*
X0292975Y0270963D01*
X0291571Y0272368D02*
X0237806Y0272368D01*
X0236827Y0273966D02*
X0290624Y0273966D01*
X0290061Y0275565D02*
X0160638Y0275565D01*
X0160638Y0277163D02*
X0290061Y0277163D01*
X0290377Y0278762D02*
X0160638Y0278762D01*
X0160638Y0280360D02*
X0291040Y0280360D01*
X0292575Y0281959D02*
X0235541Y0281959D01*
X0237416Y0283557D02*
X0455738Y0283557D01*
X0455738Y0281959D02*
X0411226Y0281959D01*
X0410826Y0282359D02*
X0408356Y0283383D01*
X0405682Y0283383D01*
X0403211Y0282359D01*
X0401321Y0280469D01*
X0400297Y0277998D01*
X0400297Y0275324D01*
X0401321Y0272854D01*
X0403211Y0270963D01*
X0405682Y0269940D01*
X0408356Y0269940D01*
X0410826Y0270963D01*
X0412717Y0272854D01*
X0413740Y0275324D01*
X0413740Y0277998D01*
X0412717Y0280469D01*
X0410826Y0282359D01*
X0412761Y0280360D02*
X0455738Y0280360D01*
X0455738Y0278762D02*
X0413424Y0278762D01*
X0413740Y0277163D02*
X0455738Y0277163D01*
X0455738Y0275565D02*
X0413740Y0275565D01*
X0413177Y0273966D02*
X0455738Y0273966D01*
X0455738Y0272368D02*
X0412230Y0272368D01*
X0410357Y0270769D02*
X0455738Y0270769D01*
X0455738Y0285156D02*
X0238037Y0285156D01*
X0238037Y0286754D02*
X0455738Y0286754D01*
X0455738Y0288353D02*
X0237398Y0288353D01*
X0235434Y0289951D02*
X0247796Y0289951D01*
X0247840Y0289926D02*
X0248298Y0289803D01*
X0251618Y0289803D01*
X0251618Y0294686D01*
X0246735Y0294686D01*
X0246735Y0291366D01*
X0246858Y0290908D01*
X0247095Y0290498D01*
X0247430Y0290163D01*
X0247840Y0289926D01*
X0246735Y0291550D02*
X0160638Y0291550D01*
X0160638Y0293148D02*
X0246735Y0293148D01*
X0246735Y0295251D02*
X0251618Y0295251D01*
X0251618Y0294686D01*
X0252183Y0294686D01*
X0252183Y0289803D01*
X0255503Y0289803D01*
X0255961Y0289926D01*
X0256371Y0290163D01*
X0256706Y0290498D01*
X0256943Y0290908D01*
X0257066Y0291366D01*
X0257066Y0294686D01*
X0252183Y0294686D01*
X0252183Y0295251D01*
X0251618Y0295251D01*
X0251618Y0300134D01*
X0248298Y0300134D01*
X0247840Y0300011D01*
X0247430Y0299774D01*
X0247095Y0299439D01*
X0246858Y0299029D01*
X0246735Y0298571D01*
X0246735Y0295251D01*
X0246735Y0296345D02*
X0181755Y0296345D01*
X0180743Y0295333D02*
X0183437Y0298028D01*
X0183437Y0299933D01*
X0178838Y0299933D01*
X0178838Y0299933D01*
X0183437Y0299933D01*
X0183437Y0301838D01*
X0180743Y0304533D01*
X0178838Y0304533D01*
X0178838Y0299933D01*
X0178838Y0295333D01*
X0180743Y0295333D01*
X0178837Y0295333D02*
X0178837Y0299933D01*
X0174238Y0299933D01*
X0174238Y0298028D01*
X0176932Y0295333D01*
X0178837Y0295333D01*
X0178837Y0296345D02*
X0178838Y0296345D01*
X0178837Y0297944D02*
X0178838Y0297944D01*
X0178837Y0299543D02*
X0178838Y0299543D01*
X0178837Y0299933D02*
X0178838Y0299933D01*
X0178837Y0299933D01*
X0178837Y0299933D01*
X0174238Y0299933D01*
X0174238Y0301838D01*
X0176932Y0304533D01*
X0178837Y0304533D01*
X0178837Y0299933D01*
X0178837Y0301141D02*
X0178838Y0301141D01*
X0178837Y0302740D02*
X0178838Y0302740D01*
X0178837Y0304338D02*
X0178838Y0304338D01*
X0180938Y0304338D02*
X0202927Y0304338D01*
X0201738Y0305528D02*
X0204432Y0302833D01*
X0206337Y0302833D01*
X0206337Y0307433D01*
X0201738Y0307433D01*
X0201738Y0305528D01*
X0201738Y0305937D02*
X0160638Y0305937D01*
X0160638Y0307535D02*
X0201738Y0307535D01*
X0201738Y0307433D02*
X0206337Y0307433D01*
X0206337Y0307433D01*
X0206338Y0307433D01*
X0206338Y0307433D01*
X0210937Y0307433D01*
X0210937Y0305528D01*
X0208243Y0302833D01*
X0206338Y0302833D01*
X0206338Y0307433D01*
X0210937Y0307433D01*
X0210937Y0309338D01*
X0208243Y0312033D01*
X0206338Y0312033D01*
X0206338Y0307433D01*
X0206337Y0307433D01*
X0206337Y0312033D01*
X0204432Y0312033D01*
X0201738Y0309338D01*
X0201738Y0307433D01*
X0201738Y0309134D02*
X0160638Y0309134D01*
X0160638Y0310732D02*
X0203131Y0310732D01*
X0206337Y0310732D02*
X0206338Y0310732D01*
X0206337Y0309134D02*
X0206338Y0309134D01*
X0206337Y0307535D02*
X0206338Y0307535D01*
X0206337Y0305937D02*
X0206338Y0305937D01*
X0206337Y0304338D02*
X0206338Y0304338D01*
X0209748Y0304338D02*
X0223210Y0304338D01*
X0221938Y0305611D02*
X0224515Y0303033D01*
X0228160Y0303033D01*
X0230737Y0305611D01*
X0230737Y0309256D01*
X0228160Y0311833D01*
X0224515Y0311833D01*
X0221938Y0309256D01*
X0221938Y0305611D01*
X0221938Y0305937D02*
X0210937Y0305937D01*
X0210937Y0307535D02*
X0221938Y0307535D01*
X0221938Y0309134D02*
X0210937Y0309134D01*
X0209544Y0310732D02*
X0223414Y0310732D01*
X0229261Y0310732D02*
X0455738Y0310732D01*
X0455738Y0309134D02*
X0230737Y0309134D01*
X0230737Y0307535D02*
X0455738Y0307535D01*
X0455738Y0305937D02*
X0230737Y0305937D01*
X0229465Y0304338D02*
X0455738Y0304338D01*
X0455738Y0302740D02*
X0182536Y0302740D01*
X0183437Y0301141D02*
X0455738Y0301141D01*
X0455738Y0299543D02*
X0256603Y0299543D01*
X0256706Y0299439D02*
X0256371Y0299774D01*
X0255961Y0300011D01*
X0255503Y0300134D01*
X0252183Y0300134D01*
X0252183Y0295251D01*
X0257066Y0295251D01*
X0257066Y0298571D01*
X0256943Y0299029D01*
X0256706Y0299439D01*
X0257066Y0297944D02*
X0455738Y0297944D01*
X0455738Y0296345D02*
X0257066Y0296345D01*
X0257066Y0293148D02*
X0455738Y0293148D01*
X0455738Y0291550D02*
X0257066Y0291550D01*
X0256005Y0289951D02*
X0455738Y0289951D01*
X0455738Y0294747D02*
X0252183Y0294747D01*
X0251618Y0294747D02*
X0160638Y0294747D01*
X0160638Y0296345D02*
X0175920Y0296345D01*
X0174321Y0297944D02*
X0160638Y0297944D01*
X0160638Y0299543D02*
X0174238Y0299543D01*
X0174238Y0301141D02*
X0160638Y0301141D01*
X0160638Y0302740D02*
X0175139Y0302740D01*
X0176737Y0304338D02*
X0160638Y0304338D01*
X0160638Y0312331D02*
X0455738Y0312331D01*
X0455738Y0313929D02*
X0160638Y0313929D01*
X0160638Y0315528D02*
X0455738Y0315528D01*
X0455738Y0317126D02*
X0446154Y0317126D01*
X0445449Y0316834D02*
X0448425Y0318067D01*
X0450704Y0320345D01*
X0451937Y0323322D01*
X0451937Y0326544D01*
X0450704Y0329521D01*
X0448425Y0331799D01*
X0445449Y0333032D01*
X0442226Y0333032D01*
X0439250Y0331799D01*
X0436971Y0329521D01*
X0435738Y0326544D01*
X0435738Y0323322D01*
X0436971Y0320345D01*
X0439250Y0318067D01*
X0442226Y0316834D01*
X0445449Y0316834D01*
X0441521Y0317126D02*
X0181154Y0317126D01*
X0180449Y0316834D02*
X0183425Y0318067D01*
X0185704Y0320345D01*
X0186937Y0323322D01*
X0186937Y0326544D01*
X0185704Y0329521D01*
X0183425Y0331799D01*
X0180449Y0333032D01*
X0177226Y0333032D01*
X0174250Y0331799D01*
X0171971Y0329521D01*
X0170738Y0326544D01*
X0170738Y0323322D01*
X0171971Y0320345D01*
X0174250Y0318067D01*
X0177226Y0316834D01*
X0180449Y0316834D01*
X0176521Y0317126D02*
X0160638Y0317126D01*
X0160638Y0318725D02*
X0173592Y0318725D01*
X0171993Y0320323D02*
X0160638Y0320323D01*
X0160638Y0321922D02*
X0171318Y0321922D01*
X0170738Y0323520D02*
X0160638Y0323520D01*
X0160638Y0325119D02*
X0170738Y0325119D01*
X0170810Y0326717D02*
X0160638Y0326717D01*
X0160638Y0328316D02*
X0171472Y0328316D01*
X0172365Y0329914D02*
X0160638Y0329914D01*
X0160638Y0331513D02*
X0173963Y0331513D01*
X0183712Y0331513D02*
X0438963Y0331513D01*
X0437365Y0329914D02*
X0228362Y0329914D01*
X0228243Y0330033D02*
X0226338Y0330033D01*
X0226338Y0325433D01*
X0226338Y0325433D01*
X0230937Y0325433D01*
X0230937Y0323528D01*
X0228243Y0320833D01*
X0226338Y0320833D01*
X0226338Y0325433D01*
X0230937Y0325433D01*
X0230937Y0327338D01*
X0228243Y0330033D01*
X0226337Y0330033D02*
X0224432Y0330033D01*
X0221738Y0327338D01*
X0221738Y0325433D01*
X0221738Y0323528D01*
X0224432Y0320833D01*
X0226337Y0320833D01*
X0226337Y0325433D01*
X0221738Y0325433D01*
X0226337Y0325433D01*
X0226337Y0325433D01*
X0226338Y0325433D01*
X0226337Y0325433D01*
X0226337Y0330033D01*
X0226337Y0329914D02*
X0226338Y0329914D01*
X0226337Y0328316D02*
X0226338Y0328316D01*
X0226337Y0326717D02*
X0226338Y0326717D01*
X0226337Y0325119D02*
X0226338Y0325119D01*
X0226337Y0323520D02*
X0226338Y0323520D01*
X0226337Y0321922D02*
X0226338Y0321922D01*
X0229331Y0321922D02*
X0436318Y0321922D01*
X0435738Y0323520D02*
X0230930Y0323520D01*
X0230937Y0325119D02*
X0435738Y0325119D01*
X0435810Y0326717D02*
X0230937Y0326717D01*
X0229960Y0328316D02*
X0436472Y0328316D01*
X0436993Y0320323D02*
X0185682Y0320323D01*
X0186357Y0321922D02*
X0203626Y0321922D01*
X0204515Y0321033D02*
X0201938Y0323611D01*
X0201938Y0327256D01*
X0204515Y0329833D01*
X0208160Y0329833D01*
X0210737Y0327256D01*
X0210737Y0323611D01*
X0208160Y0321033D01*
X0204515Y0321033D01*
X0202028Y0323520D02*
X0186937Y0323520D01*
X0186937Y0325119D02*
X0201938Y0325119D01*
X0201938Y0326717D02*
X0186865Y0326717D01*
X0186203Y0328316D02*
X0202998Y0328316D01*
X0209677Y0328316D02*
X0222715Y0328316D01*
X0221738Y0326717D02*
X0210737Y0326717D01*
X0210737Y0325119D02*
X0221738Y0325119D01*
X0221745Y0323520D02*
X0210647Y0323520D01*
X0209049Y0321922D02*
X0223344Y0321922D01*
X0224313Y0329914D02*
X0185310Y0329914D01*
X0184083Y0318725D02*
X0438592Y0318725D01*
X0449083Y0318725D02*
X0455738Y0318725D01*
X0455738Y0320323D02*
X0450682Y0320323D01*
X0451357Y0321922D02*
X0455738Y0321922D01*
X0455738Y0323520D02*
X0451937Y0323520D01*
X0451937Y0325119D02*
X0455738Y0325119D01*
X0455738Y0326717D02*
X0451865Y0326717D01*
X0451203Y0328316D02*
X0455738Y0328316D01*
X0455738Y0329914D02*
X0450310Y0329914D01*
X0448712Y0331513D02*
X0455738Y0331513D01*
X0455738Y0333111D02*
X0160638Y0333111D01*
X0160638Y0334710D02*
X0455738Y0334710D01*
X0455738Y0336308D02*
X0160638Y0336308D01*
X0160638Y0337907D02*
X0455738Y0337907D01*
X0455738Y0339505D02*
X0220343Y0339505D01*
X0220343Y0339121D02*
X0219406Y0338183D01*
X0206269Y0338183D01*
X0205332Y0339121D01*
X0205332Y0352257D01*
X0206269Y0353194D01*
X0219406Y0353194D01*
X0220343Y0352257D01*
X0220343Y0339121D01*
X0220343Y0341104D02*
X0246935Y0341104D01*
X0246935Y0340940D02*
X0247872Y0340003D01*
X0255929Y0340003D01*
X0256866Y0340940D01*
X0256866Y0348997D01*
X0255929Y0349934D01*
X0247872Y0349934D01*
X0246935Y0348997D01*
X0246935Y0340940D01*
X0246935Y0342702D02*
X0220343Y0342702D01*
X0220343Y0344301D02*
X0246935Y0344301D01*
X0246935Y0345899D02*
X0220343Y0345899D01*
X0220343Y0347498D02*
X0246935Y0347498D01*
X0247035Y0349096D02*
X0220343Y0349096D01*
X0220343Y0350695D02*
X0455738Y0350695D01*
X0455738Y0352293D02*
X0220307Y0352293D01*
X0218980Y0361606D02*
X0213637Y0361606D01*
X0213637Y0368511D01*
X0212038Y0368511D01*
X0212038Y0361605D01*
X0206695Y0361606D01*
X0206237Y0361728D01*
X0205827Y0361965D01*
X0205492Y0362300D01*
X0205255Y0362711D01*
X0205132Y0363169D01*
X0205132Y0368511D01*
X0212037Y0368511D01*
X0212037Y0370111D01*
X0205132Y0370111D01*
X0205132Y0375454D01*
X0205255Y0375911D01*
X0205492Y0376322D01*
X0205827Y0376657D01*
X0206237Y0376894D01*
X0206695Y0377017D01*
X0212038Y0377017D01*
X0212038Y0370111D01*
X0213637Y0370111D01*
X0213637Y0377017D01*
X0218980Y0377017D01*
X0219438Y0376894D01*
X0219848Y0376657D01*
X0220183Y0376322D01*
X0220420Y0375911D01*
X0220543Y0375454D01*
X0220543Y0370111D01*
X0213638Y0370111D01*
X0213638Y0368511D01*
X0220543Y0368511D01*
X0220543Y0363169D01*
X0220420Y0362711D01*
X0220183Y0362300D01*
X0219848Y0361965D01*
X0219438Y0361728D01*
X0218980Y0361606D01*
X0219708Y0361884D02*
X0307038Y0361884D01*
X0307038Y0360286D02*
X0202039Y0360286D01*
X0202039Y0361884D02*
X0205967Y0361884D01*
X0205132Y0363483D02*
X0202039Y0363483D01*
X0202039Y0363642D02*
X0201916Y0364100D01*
X0201679Y0364511D01*
X0201344Y0364846D01*
X0200934Y0365083D01*
X0200476Y0365205D01*
X0195134Y0365205D01*
X0195134Y0358300D01*
X0202039Y0358300D01*
X0202039Y0363642D01*
X0200936Y0365081D02*
X0205132Y0365081D01*
X0205132Y0366680D02*
X0160638Y0366680D01*
X0160638Y0365081D02*
X0187731Y0365081D01*
X0187733Y0365083D02*
X0187323Y0364846D01*
X0186988Y0364511D01*
X0186751Y0364100D01*
X0186628Y0363642D01*
X0186628Y0358300D01*
X0193534Y0358300D01*
X0193534Y0365205D01*
X0188191Y0365205D01*
X0187733Y0365083D01*
X0186628Y0363483D02*
X0160638Y0363483D01*
X0160638Y0361884D02*
X0186628Y0361884D01*
X0186628Y0360286D02*
X0160638Y0360286D01*
X0160638Y0358687D02*
X0186628Y0358687D01*
X0186628Y0356700D02*
X0186628Y0351358D01*
X0186751Y0350900D01*
X0186988Y0350489D01*
X0187323Y0350154D01*
X0187733Y0349917D01*
X0188191Y0349794D01*
X0193534Y0349794D01*
X0193534Y0356700D01*
X0195134Y0356700D01*
X0195134Y0358300D01*
X0193534Y0358300D01*
X0193534Y0356700D01*
X0186628Y0356700D01*
X0186628Y0355490D02*
X0160638Y0355490D01*
X0160638Y0353892D02*
X0186628Y0353892D01*
X0186628Y0352293D02*
X0160638Y0352293D01*
X0160638Y0350695D02*
X0186869Y0350695D01*
X0193534Y0350695D02*
X0195134Y0350695D01*
X0195134Y0349794D02*
X0200476Y0349794D01*
X0200934Y0349917D01*
X0201344Y0350154D01*
X0201679Y0350489D01*
X0201916Y0350900D01*
X0202039Y0351358D01*
X0202039Y0356700D01*
X0195134Y0356700D01*
X0195134Y0349794D01*
X0195134Y0352293D02*
X0193534Y0352293D01*
X0193534Y0353892D02*
X0195134Y0353892D01*
X0195134Y0355490D02*
X0193534Y0355490D01*
X0193534Y0357089D02*
X0160638Y0357089D01*
X0160638Y0349096D02*
X0205332Y0349096D01*
X0205332Y0347498D02*
X0160638Y0347498D01*
X0160638Y0345899D02*
X0205332Y0345899D01*
X0205332Y0344301D02*
X0160638Y0344301D01*
X0160638Y0342702D02*
X0205332Y0342702D01*
X0205332Y0341104D02*
X0160638Y0341104D01*
X0160638Y0339505D02*
X0205332Y0339505D01*
X0205332Y0350695D02*
X0201798Y0350695D01*
X0202039Y0352293D02*
X0205368Y0352293D01*
X0202039Y0353892D02*
X0455738Y0353892D01*
X0455738Y0355490D02*
X0202039Y0355490D01*
X0202039Y0358687D02*
X0307538Y0358687D01*
X0307038Y0363483D02*
X0220543Y0363483D01*
X0220543Y0365081D02*
X0307038Y0365081D01*
X0307038Y0366680D02*
X0220543Y0366680D01*
X0220543Y0368279D02*
X0307038Y0368279D01*
X0307038Y0369877D02*
X0213638Y0369877D01*
X0213637Y0368279D02*
X0212038Y0368279D01*
X0212037Y0369877D02*
X0160638Y0369877D01*
X0160638Y0368279D02*
X0205132Y0368279D01*
X0205132Y0371476D02*
X0160638Y0371476D01*
X0160638Y0373074D02*
X0205132Y0373074D01*
X0205132Y0374673D02*
X0160638Y0374673D01*
X0160638Y0376271D02*
X0205462Y0376271D01*
X0212038Y0376271D02*
X0213637Y0376271D01*
X0213637Y0374673D02*
X0212038Y0374673D01*
X0212038Y0373074D02*
X0213637Y0373074D01*
X0213637Y0371476D02*
X0212038Y0371476D01*
X0212038Y0366680D02*
X0213637Y0366680D01*
X0213637Y0365081D02*
X0212038Y0365081D01*
X0212038Y0363483D02*
X0213637Y0363483D01*
X0213637Y0361884D02*
X0212038Y0361884D01*
X0220543Y0371476D02*
X0307038Y0371476D01*
X0307038Y0373074D02*
X0220543Y0373074D01*
X0220543Y0374673D02*
X0307038Y0374673D01*
X0307038Y0376271D02*
X0220213Y0376271D01*
X0195134Y0365081D02*
X0193534Y0365081D01*
X0193534Y0363483D02*
X0195134Y0363483D01*
X0195134Y0361884D02*
X0193534Y0361884D01*
X0193534Y0360286D02*
X0195134Y0360286D01*
X0195134Y0358687D02*
X0193534Y0358687D01*
X0195134Y0357089D02*
X0349273Y0357089D01*
X0348093Y0357578D02*
X0350564Y0356554D01*
X0353237Y0356554D01*
X0355708Y0357578D01*
X0357598Y0359468D01*
X0358622Y0361939D01*
X0358622Y0364613D01*
X0357598Y0367083D01*
X0355708Y0368974D01*
X0353237Y0369997D01*
X0350564Y0369997D01*
X0348093Y0368974D01*
X0346202Y0367083D01*
X0345179Y0364613D01*
X0345179Y0361939D01*
X0346202Y0359468D01*
X0348093Y0357578D01*
X0346983Y0358687D02*
X0335137Y0358687D01*
X0335638Y0360286D02*
X0345864Y0360286D01*
X0345202Y0361884D02*
X0335638Y0361884D01*
X0335638Y0363483D02*
X0345179Y0363483D01*
X0345373Y0365081D02*
X0335638Y0365081D01*
X0335638Y0366680D02*
X0346036Y0366680D01*
X0347398Y0368279D02*
X0335638Y0368279D01*
X0335638Y0369877D02*
X0350274Y0369877D01*
X0353527Y0369877D02*
X0455738Y0369877D01*
X0455738Y0368279D02*
X0356403Y0368279D01*
X0357765Y0366680D02*
X0455738Y0366680D01*
X0455738Y0365081D02*
X0358428Y0365081D01*
X0358622Y0363483D02*
X0455738Y0363483D01*
X0455738Y0361884D02*
X0358599Y0361884D01*
X0357937Y0360286D02*
X0455738Y0360286D01*
X0455738Y0358687D02*
X0356818Y0358687D01*
X0354528Y0357089D02*
X0455738Y0357089D01*
X0455738Y0349096D02*
X0256766Y0349096D01*
X0256866Y0347498D02*
X0455738Y0347498D01*
X0455738Y0345899D02*
X0256866Y0345899D01*
X0256866Y0344301D02*
X0455738Y0344301D01*
X0455738Y0342702D02*
X0256866Y0342702D01*
X0256866Y0341104D02*
X0455738Y0341104D01*
X0455738Y0371476D02*
X0335638Y0371476D01*
X0335638Y0373074D02*
X0455738Y0373074D01*
X0455738Y0374673D02*
X0335638Y0374673D01*
X0335638Y0376271D02*
X0455738Y0376271D01*
X0455738Y0377870D02*
X0335638Y0377870D01*
X0335638Y0379468D02*
X0455738Y0379468D01*
X0455738Y0381067D02*
X0335638Y0381067D01*
X0335638Y0382665D02*
X0455738Y0382665D01*
X0402811Y0281959D02*
X0300990Y0281959D01*
X0302525Y0280360D02*
X0401276Y0280360D01*
X0400614Y0278762D02*
X0303187Y0278762D01*
X0303504Y0277163D02*
X0400297Y0277163D01*
X0400297Y0275565D02*
X0303504Y0275565D01*
X0302941Y0273966D02*
X0400860Y0273966D01*
X0401807Y0272368D02*
X0301994Y0272368D01*
X0300121Y0270769D02*
X0403680Y0270769D01*
X0385986Y0238799D02*
X0381689Y0238799D01*
X0383040Y0237201D02*
X0384388Y0237201D01*
X0384088Y0235602D02*
X0383587Y0235602D01*
X0383587Y0234004D02*
X0384088Y0234004D01*
X0384648Y0232405D02*
X0382932Y0232405D01*
X0381288Y0230807D02*
X0386247Y0230807D01*
X0376387Y0230807D02*
X0331858Y0230807D01*
X0330260Y0232405D02*
X0374743Y0232405D01*
X0374088Y0234004D02*
X0328661Y0234004D01*
X0327063Y0235602D02*
X0374088Y0235602D01*
X0368568Y0216420D02*
X0417938Y0216420D01*
X0417938Y0218018D02*
X0339646Y0218018D01*
X0341245Y0216420D02*
X0353107Y0216420D01*
X0353147Y0216460D02*
X0351811Y0215124D01*
X0351088Y0213378D01*
X0351088Y0211488D01*
X0351811Y0209742D01*
X0353147Y0208406D01*
X0354893Y0207683D01*
X0356782Y0207683D01*
X0358528Y0208406D01*
X0359864Y0209742D01*
X0360587Y0211488D01*
X0360587Y0213378D01*
X0359864Y0215124D01*
X0358528Y0216460D01*
X0356782Y0217183D01*
X0354893Y0217183D01*
X0353147Y0216460D01*
X0351685Y0214821D02*
X0342843Y0214821D01*
X0343238Y0213223D02*
X0351088Y0213223D01*
X0351088Y0211624D02*
X0343238Y0211624D01*
X0343238Y0210026D02*
X0351693Y0210026D01*
X0353126Y0208427D02*
X0343238Y0208427D01*
X0343238Y0206829D02*
X0365548Y0206829D01*
X0367384Y0205230D02*
X0343238Y0205230D01*
X0343238Y0203632D02*
X0404745Y0203632D01*
X0406343Y0202033D02*
X0343238Y0202033D01*
X0343238Y0200435D02*
X0407938Y0200435D01*
X0407938Y0198836D02*
X0343238Y0198836D01*
X0343238Y0197238D02*
X0407938Y0197238D01*
X0407938Y0195639D02*
X0386637Y0195639D01*
X0386443Y0195833D02*
X0384753Y0196533D01*
X0382923Y0196533D01*
X0381232Y0195833D01*
X0379938Y0194539D01*
X0379238Y0192848D01*
X0379238Y0185018D01*
X0379938Y0183327D01*
X0381232Y0182033D01*
X0382923Y0181333D01*
X0384753Y0181333D01*
X0386443Y0182033D01*
X0387737Y0183327D01*
X0388437Y0185018D01*
X0388437Y0192848D01*
X0387737Y0194539D01*
X0386443Y0195833D01*
X0387943Y0194041D02*
X0407938Y0194041D01*
X0407938Y0192442D02*
X0388437Y0192442D01*
X0388437Y0190844D02*
X0407938Y0190844D01*
X0407938Y0189245D02*
X0388437Y0189245D01*
X0388437Y0187647D02*
X0407938Y0187647D01*
X0407938Y0186048D02*
X0388437Y0186048D01*
X0388202Y0184450D02*
X0407938Y0184450D01*
X0407938Y0182851D02*
X0387261Y0182851D01*
X0380414Y0182851D02*
X0377261Y0182851D01*
X0377737Y0183327D02*
X0378437Y0185018D01*
X0378437Y0192848D01*
X0377737Y0194539D01*
X0376443Y0195833D01*
X0374753Y0196533D01*
X0372923Y0196533D01*
X0371232Y0195833D01*
X0369938Y0194539D01*
X0369238Y0192848D01*
X0369238Y0185018D01*
X0369938Y0183327D01*
X0371232Y0182033D01*
X0372923Y0181333D01*
X0374753Y0181333D01*
X0376443Y0182033D01*
X0377737Y0183327D01*
X0378202Y0184450D02*
X0379473Y0184450D01*
X0379238Y0186048D02*
X0378437Y0186048D01*
X0378437Y0187647D02*
X0379238Y0187647D01*
X0379238Y0189245D02*
X0378437Y0189245D01*
X0378437Y0190844D02*
X0379238Y0190844D01*
X0379238Y0192442D02*
X0378437Y0192442D01*
X0377943Y0194041D02*
X0379732Y0194041D01*
X0381038Y0195639D02*
X0376637Y0195639D01*
X0371038Y0195639D02*
X0343238Y0195639D01*
X0343238Y0194041D02*
X0369732Y0194041D01*
X0369238Y0192442D02*
X0343238Y0192442D01*
X0343238Y0190844D02*
X0369238Y0190844D01*
X0369238Y0189245D02*
X0343238Y0189245D01*
X0343238Y0187647D02*
X0369238Y0187647D01*
X0369238Y0186048D02*
X0343238Y0186048D01*
X0343238Y0184450D02*
X0369473Y0184450D01*
X0370414Y0182851D02*
X0343238Y0182851D01*
X0343238Y0181253D02*
X0407938Y0181253D01*
X0407938Y0179654D02*
X0343238Y0179654D01*
X0343238Y0178056D02*
X0407938Y0178056D01*
X0407938Y0176457D02*
X0383767Y0176457D01*
X0383425Y0176799D02*
X0380449Y0178032D01*
X0377226Y0178032D01*
X0374250Y0176799D01*
X0371971Y0174521D01*
X0370738Y0171544D01*
X0370738Y0168322D01*
X0371971Y0165345D01*
X0374250Y0163067D01*
X0377226Y0161834D01*
X0380449Y0161834D01*
X0383425Y0163067D01*
X0385704Y0165345D01*
X0386937Y0168322D01*
X0386937Y0171544D01*
X0385704Y0174521D01*
X0383425Y0176799D01*
X0385366Y0174859D02*
X0407938Y0174859D01*
X0407938Y0173260D02*
X0386226Y0173260D01*
X0386888Y0171662D02*
X0407938Y0171662D01*
X0407938Y0170063D02*
X0386937Y0170063D01*
X0386937Y0168465D02*
X0407938Y0168465D01*
X0407938Y0166866D02*
X0386334Y0166866D01*
X0385626Y0165268D02*
X0407938Y0165268D01*
X0407938Y0163669D02*
X0384028Y0163669D01*
X0381020Y0162071D02*
X0392126Y0162071D01*
X0392023Y0162028D02*
X0389459Y0159465D01*
X0388072Y0156116D01*
X0388072Y0152491D01*
X0389459Y0149142D01*
X0392023Y0146579D01*
X0395372Y0145191D01*
X0398996Y0145191D01*
X0402345Y0146579D01*
X0404909Y0149142D01*
X0406296Y0152491D01*
X0406296Y0156116D01*
X0404909Y0159465D01*
X0402345Y0162028D01*
X0398996Y0163415D01*
X0395372Y0163415D01*
X0392023Y0162028D01*
X0390467Y0160472D02*
X0381521Y0160472D01*
X0380660Y0161333D02*
X0383237Y0158756D01*
X0383237Y0155111D01*
X0380660Y0152533D01*
X0377015Y0152533D01*
X0374438Y0155111D01*
X0374438Y0158756D01*
X0377015Y0161333D01*
X0380660Y0161333D01*
X0383120Y0158874D02*
X0389215Y0158874D01*
X0388552Y0157275D02*
X0383237Y0157275D01*
X0383237Y0155677D02*
X0388072Y0155677D01*
X0388072Y0154078D02*
X0382205Y0154078D01*
X0388077Y0152479D02*
X0369598Y0152479D01*
X0369603Y0152491D02*
X0368216Y0149142D01*
X0365652Y0146579D01*
X0362304Y0145191D01*
X0358679Y0145191D01*
X0355330Y0146579D01*
X0352766Y0149142D01*
X0351379Y0152491D01*
X0351379Y0156116D01*
X0352766Y0159465D01*
X0355330Y0162028D01*
X0358679Y0163415D01*
X0362304Y0163415D01*
X0365652Y0162028D01*
X0368216Y0159465D01*
X0369603Y0156116D01*
X0369603Y0152491D01*
X0369603Y0154078D02*
X0375470Y0154078D01*
X0374438Y0155677D02*
X0369603Y0155677D01*
X0369123Y0157275D02*
X0374438Y0157275D01*
X0374555Y0158874D02*
X0368460Y0158874D01*
X0367208Y0160472D02*
X0376154Y0160472D01*
X0376655Y0162071D02*
X0365549Y0162071D01*
X0372049Y0165268D02*
X0343238Y0165268D01*
X0343238Y0166866D02*
X0371341Y0166866D01*
X0370738Y0168465D02*
X0343238Y0168465D01*
X0343238Y0170063D02*
X0370738Y0170063D01*
X0370787Y0171662D02*
X0343238Y0171662D01*
X0343238Y0173260D02*
X0371449Y0173260D01*
X0372309Y0174859D02*
X0343238Y0174859D01*
X0343238Y0176457D02*
X0373908Y0176457D01*
X0373648Y0163669D02*
X0343238Y0163669D01*
X0343238Y0162071D02*
X0355433Y0162071D01*
X0353774Y0160472D02*
X0343238Y0160472D01*
X0343238Y0158874D02*
X0352522Y0158874D01*
X0351859Y0157275D02*
X0343238Y0157275D01*
X0343238Y0155677D02*
X0351379Y0155677D01*
X0351379Y0154078D02*
X0343238Y0154078D01*
X0343238Y0152479D02*
X0351384Y0152479D01*
X0352046Y0150881D02*
X0343238Y0150881D01*
X0343238Y0149282D02*
X0352708Y0149282D01*
X0354224Y0147684D02*
X0343238Y0147684D01*
X0343238Y0146085D02*
X0356520Y0146085D01*
X0364462Y0146085D02*
X0393213Y0146085D01*
X0390917Y0147684D02*
X0366758Y0147684D01*
X0368274Y0149282D02*
X0389401Y0149282D01*
X0388739Y0150881D02*
X0368936Y0150881D01*
X0377015Y0131333D02*
X0374438Y0128756D01*
X0374438Y0125111D01*
X0377015Y0122533D01*
X0380660Y0122533D01*
X0383237Y0125111D01*
X0383237Y0128756D01*
X0380660Y0131333D01*
X0377015Y0131333D01*
X0375782Y0130100D02*
X0343238Y0130100D01*
X0343238Y0128502D02*
X0374438Y0128502D01*
X0374438Y0126903D02*
X0343238Y0126903D01*
X0343238Y0125305D02*
X0374438Y0125305D01*
X0375842Y0123706D02*
X0343238Y0123706D01*
X0343238Y0122108D02*
X0407938Y0122108D01*
X0407938Y0123706D02*
X0381833Y0123706D01*
X0383237Y0125305D02*
X0407938Y0125305D01*
X0407938Y0126903D02*
X0383237Y0126903D01*
X0383237Y0128502D02*
X0407938Y0128502D01*
X0407938Y0130100D02*
X0381893Y0130100D01*
X0383753Y0121533D02*
X0375923Y0121533D01*
X0374232Y0120833D01*
X0372938Y0119539D01*
X0372238Y0117848D01*
X0372238Y0116018D01*
X0372938Y0114327D01*
X0374232Y0113033D01*
X0375923Y0112333D01*
X0383753Y0112333D01*
X0385443Y0113033D01*
X0386737Y0114327D01*
X0387437Y0116018D01*
X0387437Y0117848D01*
X0386737Y0119539D01*
X0385443Y0120833D01*
X0383753Y0121533D01*
X0385767Y0120509D02*
X0407938Y0120509D01*
X0412737Y0120509D02*
X0417938Y0120509D01*
X0417938Y0122108D02*
X0412737Y0122108D01*
X0412737Y0123706D02*
X0417938Y0123706D01*
X0417938Y0125305D02*
X0412737Y0125305D01*
X0412737Y0126903D02*
X0417938Y0126903D01*
X0417938Y0128502D02*
X0412737Y0128502D01*
X0412737Y0130100D02*
X0417938Y0130100D01*
X0417938Y0131699D02*
X0412737Y0131699D01*
X0412737Y0133297D02*
X0417938Y0133297D01*
X0417938Y0134896D02*
X0412737Y0134896D01*
X0412737Y0136494D02*
X0417938Y0136494D01*
X0417938Y0138093D02*
X0412737Y0138093D01*
X0412737Y0139691D02*
X0417938Y0139691D01*
X0417938Y0141290D02*
X0412737Y0141290D01*
X0412737Y0142888D02*
X0417938Y0142888D01*
X0417938Y0144487D02*
X0412737Y0144487D01*
X0412737Y0146085D02*
X0417938Y0146085D01*
X0417938Y0147684D02*
X0412737Y0147684D01*
X0412737Y0149282D02*
X0417938Y0149282D01*
X0417938Y0150881D02*
X0412737Y0150881D01*
X0412737Y0152479D02*
X0417938Y0152479D01*
X0417938Y0154078D02*
X0412737Y0154078D01*
X0412737Y0155677D02*
X0417938Y0155677D01*
X0417938Y0157275D02*
X0412737Y0157275D01*
X0412737Y0158874D02*
X0417938Y0158874D01*
X0417938Y0160472D02*
X0412737Y0160472D01*
X0412737Y0162071D02*
X0417938Y0162071D01*
X0417938Y0163669D02*
X0412737Y0163669D01*
X0412737Y0165268D02*
X0417938Y0165268D01*
X0417938Y0166866D02*
X0412737Y0166866D01*
X0412737Y0168465D02*
X0417938Y0168465D01*
X0417938Y0170063D02*
X0412737Y0170063D01*
X0412737Y0171662D02*
X0417938Y0171662D01*
X0417938Y0173260D02*
X0412737Y0173260D01*
X0412737Y0174859D02*
X0417938Y0174859D01*
X0417938Y0176457D02*
X0412737Y0176457D01*
X0412737Y0178056D02*
X0417938Y0178056D01*
X0417938Y0179654D02*
X0412737Y0179654D01*
X0412737Y0181253D02*
X0417938Y0181253D01*
X0417938Y0182851D02*
X0412737Y0182851D01*
X0412737Y0184450D02*
X0417938Y0184450D01*
X0417938Y0186048D02*
X0412737Y0186048D01*
X0412737Y0187647D02*
X0417938Y0187647D01*
X0417938Y0189245D02*
X0412737Y0189245D01*
X0412737Y0190844D02*
X0417938Y0190844D01*
X0417938Y0192442D02*
X0412737Y0192442D01*
X0412737Y0194041D02*
X0417938Y0194041D01*
X0417938Y0195639D02*
X0412737Y0195639D01*
X0412737Y0197238D02*
X0417938Y0197238D01*
X0417938Y0198836D02*
X0412737Y0198836D01*
X0412737Y0200435D02*
X0417938Y0200435D01*
X0417938Y0202033D02*
X0416472Y0202033D01*
X0410338Y0201433D02*
X0410338Y0109433D01*
X0414838Y0104933D01*
X0430338Y0104933D01*
X0429731Y0107721D02*
X0415444Y0107721D01*
X0413845Y0109320D02*
X0431330Y0109320D01*
X0428635Y0110918D02*
X0424276Y0110918D01*
X0424276Y0112517D02*
X0428635Y0112517D01*
X0428635Y0114115D02*
X0424276Y0114115D01*
X0413399Y0114115D02*
X0412737Y0114115D01*
X0412737Y0112517D02*
X0413399Y0112517D01*
X0413399Y0110918D02*
X0412737Y0110918D01*
X0412737Y0115714D02*
X0413399Y0115714D01*
X0413399Y0117312D02*
X0412737Y0117312D01*
X0412737Y0118911D02*
X0413399Y0118911D01*
X0407938Y0109320D02*
X0386828Y0109320D01*
X0386737Y0109539D02*
X0385443Y0110833D01*
X0383753Y0111533D01*
X0375923Y0111533D01*
X0374232Y0110833D01*
X0372938Y0109539D01*
X0372238Y0107848D01*
X0372238Y0106018D01*
X0372938Y0104327D01*
X0374232Y0103033D01*
X0375923Y0102333D01*
X0383753Y0102333D01*
X0385443Y0103033D01*
X0386737Y0104327D01*
X0387437Y0106018D01*
X0387437Y0107848D01*
X0386737Y0109539D01*
X0387437Y0107721D02*
X0408655Y0107721D01*
X0410254Y0106123D02*
X0387437Y0106123D01*
X0386819Y0104524D02*
X0411852Y0104524D01*
X0413451Y0102926D02*
X0385183Y0102926D01*
X0374492Y0102926D02*
X0305183Y0102926D01*
X0306819Y0104524D02*
X0372856Y0104524D01*
X0372238Y0106123D02*
X0307438Y0106123D01*
X0307438Y0107721D02*
X0372238Y0107721D01*
X0372847Y0109320D02*
X0306828Y0109320D01*
X0305237Y0110918D02*
X0318163Y0110918D01*
X0318163Y0110432D02*
X0319100Y0109494D01*
X0328103Y0109494D01*
X0329040Y0110432D01*
X0329040Y0119434D01*
X0328103Y0120372D01*
X0319100Y0120372D01*
X0318163Y0119434D01*
X0318163Y0110432D01*
X0318163Y0112517D02*
X0304196Y0112517D01*
X0306525Y0114115D02*
X0318163Y0114115D01*
X0318163Y0115714D02*
X0307311Y0115714D01*
X0307438Y0117312D02*
X0318163Y0117312D01*
X0318163Y0118911D02*
X0306997Y0118911D01*
X0305767Y0120509D02*
X0338438Y0120509D01*
X0340838Y0116933D02*
X0338838Y0114933D01*
X0340838Y0116933D02*
X0340838Y0213433D01*
X0331338Y0224933D02*
X0331338Y0227933D01*
X0325338Y0233933D01*
X0292338Y0233933D01*
X0283338Y0224933D01*
X0263838Y0224933D01*
X0241338Y0224933D01*
X0237453Y0222814D02*
X0235222Y0222814D01*
X0235068Y0222441D02*
X0235737Y0224058D01*
X0235737Y0225808D01*
X0235068Y0227425D01*
X0233830Y0228663D01*
X0232213Y0229333D01*
X0230462Y0229333D01*
X0228845Y0228663D01*
X0227607Y0227425D01*
X0226938Y0225808D01*
X0226938Y0224058D01*
X0227607Y0222441D01*
X0228845Y0221203D01*
X0228938Y0221165D01*
X0228938Y0205927D01*
X0222305Y0199295D01*
X0222213Y0199333D01*
X0220462Y0199333D01*
X0218845Y0198663D01*
X0217607Y0197425D01*
X0216938Y0195808D01*
X0216938Y0194058D01*
X0217607Y0192441D01*
X0218845Y0191203D01*
X0220462Y0190533D01*
X0222213Y0190533D01*
X0223830Y0191203D01*
X0225068Y0192441D01*
X0225737Y0194058D01*
X0225737Y0195808D01*
X0225699Y0195901D01*
X0233372Y0203574D01*
X0233737Y0204456D01*
X0233737Y0221165D01*
X0233830Y0221203D01*
X0235068Y0222441D01*
X0233842Y0221215D02*
X0238833Y0221215D01*
X0236938Y0224412D02*
X0235737Y0224412D01*
X0235654Y0226011D02*
X0237021Y0226011D01*
X0237791Y0227610D02*
X0234884Y0227610D01*
X0232515Y0229208D02*
X0240160Y0229208D01*
X0242515Y0229208D02*
X0261890Y0229208D01*
X0260291Y0227610D02*
X0244884Y0227610D01*
X0243842Y0221215D02*
X0261333Y0221215D01*
X0266342Y0221215D02*
X0287226Y0221215D01*
X0285627Y0219617D02*
X0233737Y0219617D01*
X0233737Y0218018D02*
X0284029Y0218018D01*
X0282941Y0216420D02*
X0233737Y0216420D01*
X0233737Y0214821D02*
X0282938Y0214821D01*
X0282938Y0213223D02*
X0233737Y0213223D01*
X0233737Y0211624D02*
X0282938Y0211624D01*
X0282938Y0210026D02*
X0233737Y0210026D01*
X0233737Y0208427D02*
X0260826Y0208427D01*
X0261932Y0209533D02*
X0259238Y0206838D01*
X0259238Y0204933D01*
X0259238Y0203028D01*
X0261932Y0200333D01*
X0263837Y0200333D01*
X0263837Y0204933D01*
X0259238Y0204933D01*
X0263837Y0204933D01*
X0263837Y0204933D01*
X0263838Y0204933D01*
X0263838Y0204933D01*
X0268438Y0204933D01*
X0268438Y0203028D01*
X0265743Y0200333D01*
X0263838Y0200333D01*
X0263838Y0204933D01*
X0268438Y0204933D01*
X0268438Y0206838D01*
X0265743Y0209533D01*
X0263838Y0209533D01*
X0263838Y0204933D01*
X0263837Y0204933D01*
X0263837Y0209533D01*
X0261932Y0209533D01*
X0263837Y0208427D02*
X0263838Y0208427D01*
X0263837Y0206829D02*
X0263838Y0206829D01*
X0263837Y0205230D02*
X0263838Y0205230D01*
X0263837Y0203632D02*
X0263838Y0203632D01*
X0263837Y0202033D02*
X0263838Y0202033D01*
X0263837Y0200435D02*
X0263838Y0200435D01*
X0265845Y0200435D02*
X0282938Y0200435D01*
X0282938Y0202033D02*
X0267443Y0202033D01*
X0268438Y0203632D02*
X0282938Y0203632D01*
X0282938Y0205230D02*
X0268438Y0205230D01*
X0268438Y0206829D02*
X0282938Y0206829D01*
X0282938Y0208427D02*
X0266849Y0208427D01*
X0260232Y0202033D02*
X0231832Y0202033D01*
X0233396Y0203632D02*
X0259238Y0203632D01*
X0259238Y0205230D02*
X0233737Y0205230D01*
X0233737Y0206829D02*
X0259238Y0206829D01*
X0261830Y0200435D02*
X0230233Y0200435D01*
X0229263Y0198836D02*
X0228635Y0198836D01*
X0227530Y0197238D02*
X0227036Y0197238D01*
X0226938Y0195639D02*
X0225737Y0195639D01*
X0225730Y0194041D02*
X0226945Y0194041D01*
X0227607Y0192442D02*
X0225068Y0192442D01*
X0222963Y0190844D02*
X0228938Y0190844D01*
X0229232Y0189245D02*
X0160638Y0189245D01*
X0160638Y0187647D02*
X0230730Y0187647D01*
X0232838Y0188933D02*
X0275838Y0188933D01*
X0298338Y0166433D01*
X0298102Y0170063D02*
X0305573Y0170063D01*
X0306438Y0171662D02*
X0296503Y0171662D01*
X0296788Y0173260D02*
X0294905Y0173260D01*
X0295189Y0174859D02*
X0293306Y0174859D01*
X0291708Y0176457D02*
X0294938Y0176457D01*
X0294821Y0178056D02*
X0290109Y0178056D01*
X0288511Y0179654D02*
X0293222Y0179654D01*
X0291624Y0181253D02*
X0286912Y0181253D01*
X0285313Y0182851D02*
X0290025Y0182851D01*
X0288427Y0184450D02*
X0283715Y0184450D01*
X0282116Y0186048D02*
X0286828Y0186048D01*
X0285230Y0187647D02*
X0280518Y0187647D01*
X0278919Y0189245D02*
X0283631Y0189245D01*
X0282033Y0190844D02*
X0277321Y0190844D01*
X0280434Y0192442D02*
X0245068Y0192442D01*
X0241338Y0194933D02*
X0281338Y0194933D01*
X0281838Y0194933D01*
X0285338Y0198433D01*
X0285338Y0215933D01*
X0294338Y0224933D01*
X0301338Y0224933D01*
X0305222Y0222814D02*
X0307453Y0222814D01*
X0307607Y0222441D02*
X0308845Y0221203D01*
X0310462Y0220533D01*
X0312213Y0220533D01*
X0313830Y0221203D01*
X0315068Y0222441D01*
X0315738Y0224058D01*
X0315738Y0225808D01*
X0315068Y0227425D01*
X0313830Y0228663D01*
X0312213Y0229333D01*
X0310462Y0229333D01*
X0308845Y0228663D01*
X0307607Y0227425D01*
X0306938Y0225808D01*
X0306938Y0224058D01*
X0307607Y0222441D01*
X0308833Y0221215D02*
X0303842Y0221215D01*
X0305738Y0224412D02*
X0306938Y0224412D01*
X0307021Y0226011D02*
X0305654Y0226011D01*
X0304884Y0227610D02*
X0307791Y0227610D01*
X0310160Y0229208D02*
X0302515Y0229208D01*
X0300160Y0229208D02*
X0291007Y0229208D01*
X0292605Y0230807D02*
X0325070Y0230807D01*
X0326668Y0229208D02*
X0322515Y0229208D01*
X0320160Y0229208D02*
X0312515Y0229208D01*
X0314884Y0227610D02*
X0317791Y0227610D01*
X0317021Y0226011D02*
X0315654Y0226011D01*
X0315738Y0224412D02*
X0316938Y0224412D01*
X0317453Y0222814D02*
X0315222Y0222814D01*
X0313842Y0221215D02*
X0318833Y0221215D01*
X0318938Y0219617D02*
X0292416Y0219617D01*
X0294014Y0221215D02*
X0298833Y0221215D01*
X0297791Y0227610D02*
X0289408Y0227610D01*
X0287810Y0226011D02*
X0292021Y0226011D01*
X0290423Y0224412D02*
X0286211Y0224412D01*
X0284493Y0222814D02*
X0288824Y0222814D01*
X0290817Y0218018D02*
X0319119Y0218018D01*
X0320457Y0216420D02*
X0289218Y0216420D01*
X0287738Y0214821D02*
X0322055Y0214821D01*
X0325738Y0224412D02*
X0326938Y0224412D01*
X0327021Y0226011D02*
X0325654Y0226011D01*
X0324884Y0227610D02*
X0327791Y0227610D01*
X0323660Y0238033D02*
X0326238Y0240611D01*
X0326238Y0244256D01*
X0323660Y0246833D01*
X0320015Y0246833D01*
X0317438Y0244256D01*
X0317438Y0240611D01*
X0320015Y0238033D01*
X0323660Y0238033D01*
X0324426Y0238799D02*
X0338966Y0238799D01*
X0337368Y0240398D02*
X0326025Y0240398D01*
X0326238Y0241996D02*
X0337238Y0241996D01*
X0337238Y0243595D02*
X0326238Y0243595D01*
X0325300Y0245193D02*
X0338092Y0245193D01*
X0339691Y0246792D02*
X0323701Y0246792D01*
X0319974Y0246792D02*
X0303484Y0246792D01*
X0303243Y0247033D02*
X0301338Y0247033D01*
X0301338Y0242433D01*
X0301338Y0242433D01*
X0305938Y0242433D01*
X0305938Y0240528D01*
X0303243Y0237833D01*
X0301338Y0237833D01*
X0301338Y0242433D01*
X0305938Y0242433D01*
X0305938Y0244338D01*
X0303243Y0247033D01*
X0301337Y0247033D02*
X0301337Y0242433D01*
X0296738Y0242433D01*
X0296738Y0240528D01*
X0299432Y0237833D01*
X0301337Y0237833D01*
X0301337Y0242433D01*
X0301337Y0242433D01*
X0296738Y0242433D01*
X0296738Y0244338D01*
X0299432Y0247033D01*
X0301337Y0247033D01*
X0301337Y0246792D02*
X0301338Y0246792D01*
X0301337Y0245193D02*
X0301338Y0245193D01*
X0301337Y0243595D02*
X0301338Y0243595D01*
X0301338Y0242433D02*
X0301337Y0242433D01*
X0301338Y0242433D01*
X0301337Y0241996D02*
X0301338Y0241996D01*
X0301337Y0240398D02*
X0301338Y0240398D01*
X0301337Y0238799D02*
X0301338Y0238799D01*
X0304209Y0238799D02*
X0319249Y0238799D01*
X0317650Y0240398D02*
X0305807Y0240398D01*
X0305938Y0241996D02*
X0317438Y0241996D01*
X0317438Y0243595D02*
X0305938Y0243595D01*
X0305083Y0245193D02*
X0318375Y0245193D01*
X0299191Y0246792D02*
X0283201Y0246792D01*
X0283160Y0246833D02*
X0279515Y0246833D01*
X0276938Y0244256D01*
X0276938Y0240611D01*
X0279515Y0238033D01*
X0283160Y0238033D01*
X0285738Y0240611D01*
X0285738Y0244256D01*
X0283160Y0246833D01*
X0284800Y0245193D02*
X0297592Y0245193D01*
X0296738Y0243595D02*
X0285738Y0243595D01*
X0285738Y0241996D02*
X0296738Y0241996D01*
X0296868Y0240398D02*
X0285525Y0240398D01*
X0283926Y0238799D02*
X0298466Y0238799D01*
X0284218Y0229208D02*
X0265785Y0229208D01*
X0267384Y0227610D02*
X0282620Y0227610D01*
X0278749Y0238799D02*
X0263926Y0238799D01*
X0263160Y0238033D02*
X0265738Y0240611D01*
X0265738Y0244256D01*
X0263160Y0246833D01*
X0259515Y0246833D01*
X0256938Y0244256D01*
X0256938Y0240611D01*
X0259515Y0238033D01*
X0263160Y0238033D01*
X0265525Y0240398D02*
X0277150Y0240398D01*
X0276938Y0241996D02*
X0265738Y0241996D01*
X0265738Y0243595D02*
X0276938Y0243595D01*
X0277875Y0245193D02*
X0264800Y0245193D01*
X0263201Y0246792D02*
X0279474Y0246792D01*
X0259474Y0246792D02*
X0233201Y0246792D01*
X0234800Y0245193D02*
X0257875Y0245193D01*
X0256938Y0243595D02*
X0235737Y0243595D01*
X0235737Y0241996D02*
X0256938Y0241996D01*
X0257150Y0240398D02*
X0235525Y0240398D01*
X0233926Y0238799D02*
X0258749Y0238799D01*
X0230160Y0229208D02*
X0222515Y0229208D01*
X0224884Y0227610D02*
X0227791Y0227610D01*
X0227021Y0226011D02*
X0225654Y0226011D01*
X0225737Y0224412D02*
X0226938Y0224412D01*
X0227453Y0222814D02*
X0225222Y0222814D01*
X0223842Y0221215D02*
X0228833Y0221215D01*
X0228938Y0219617D02*
X0185637Y0219617D01*
X0185637Y0218018D02*
X0228938Y0218018D01*
X0228938Y0216420D02*
X0185637Y0216420D01*
X0185637Y0214821D02*
X0228938Y0214821D01*
X0228938Y0213223D02*
X0185637Y0213223D01*
X0185637Y0211624D02*
X0228938Y0211624D01*
X0228938Y0210026D02*
X0185637Y0210026D01*
X0185637Y0208427D02*
X0228938Y0208427D01*
X0228938Y0206829D02*
X0185637Y0206829D01*
X0185637Y0205230D02*
X0228241Y0205230D01*
X0226642Y0203632D02*
X0185637Y0203632D01*
X0185637Y0202033D02*
X0225044Y0202033D01*
X0223445Y0200435D02*
X0185637Y0200435D01*
X0185637Y0198836D02*
X0208884Y0198836D01*
X0208927Y0198867D02*
X0208341Y0198442D01*
X0207829Y0197930D01*
X0207403Y0197344D01*
X0207075Y0196699D01*
X0206851Y0196010D01*
X0206738Y0195295D01*
X0206738Y0194933D01*
X0206738Y0194571D01*
X0206851Y0193856D01*
X0207075Y0193167D01*
X0207403Y0192522D01*
X0207829Y0191936D01*
X0208341Y0191424D01*
X0208927Y0190999D01*
X0209572Y0190670D01*
X0210260Y0190446D01*
X0210975Y0190333D01*
X0211337Y0190333D01*
X0211337Y0194933D01*
X0206738Y0194933D01*
X0211337Y0194933D01*
X0211337Y0194933D01*
X0211338Y0194933D01*
X0211338Y0194933D01*
X0215937Y0194933D01*
X0215937Y0194571D01*
X0215824Y0193856D01*
X0215600Y0193167D01*
X0215272Y0192522D01*
X0214846Y0191936D01*
X0214334Y0191424D01*
X0213748Y0190999D01*
X0213103Y0190670D01*
X0212415Y0190446D01*
X0211700Y0190333D01*
X0211338Y0190333D01*
X0211338Y0194933D01*
X0215937Y0194933D01*
X0215937Y0195295D01*
X0215824Y0196010D01*
X0215600Y0196699D01*
X0215272Y0197344D01*
X0214846Y0197930D01*
X0214334Y0198442D01*
X0213748Y0198867D01*
X0213103Y0199196D01*
X0212415Y0199420D01*
X0211700Y0199533D01*
X0211338Y0199533D01*
X0211338Y0194933D01*
X0211337Y0194933D01*
X0211337Y0199533D01*
X0210975Y0199533D01*
X0210260Y0199420D01*
X0209572Y0199196D01*
X0208927Y0198867D01*
X0207349Y0197238D02*
X0185637Y0197238D01*
X0185637Y0195639D02*
X0206792Y0195639D01*
X0206821Y0194041D02*
X0185491Y0194041D01*
X0183767Y0176457D02*
X0284919Y0176457D01*
X0283321Y0178056D02*
X0160638Y0178056D01*
X0160638Y0179654D02*
X0281722Y0179654D01*
X0280124Y0181253D02*
X0160638Y0181253D01*
X0160638Y0182851D02*
X0278525Y0182851D01*
X0276927Y0184450D02*
X0160638Y0184450D01*
X0160638Y0186048D02*
X0275328Y0186048D01*
X0281338Y0194933D02*
X0299338Y0176933D01*
X0303738Y0176457D02*
X0306438Y0176457D01*
X0306438Y0174859D02*
X0303486Y0174859D01*
X0301887Y0173260D02*
X0306438Y0173260D01*
X0306438Y0178056D02*
X0303738Y0178056D01*
X0302839Y0179654D02*
X0306438Y0179654D01*
X0306438Y0181253D02*
X0301240Y0181253D01*
X0296813Y0182851D02*
X0306438Y0182851D01*
X0306438Y0184450D02*
X0295215Y0184450D01*
X0293616Y0186048D02*
X0306438Y0186048D01*
X0306438Y0187647D02*
X0292018Y0187647D01*
X0290419Y0189245D02*
X0306438Y0189245D01*
X0311238Y0189245D02*
X0338438Y0189245D01*
X0338438Y0187647D02*
X0311238Y0187647D01*
X0311238Y0186048D02*
X0338438Y0186048D01*
X0338438Y0184450D02*
X0311238Y0184450D01*
X0311238Y0182851D02*
X0338438Y0182851D01*
X0338438Y0181253D02*
X0311238Y0181253D01*
X0311238Y0179654D02*
X0338438Y0179654D01*
X0338438Y0178056D02*
X0311238Y0178056D01*
X0311238Y0176457D02*
X0338438Y0176457D01*
X0338438Y0174859D02*
X0311238Y0174859D01*
X0311238Y0173260D02*
X0338438Y0173260D01*
X0338438Y0171662D02*
X0311238Y0171662D01*
X0311238Y0170063D02*
X0338438Y0170063D01*
X0338438Y0168465D02*
X0310763Y0168465D01*
X0309165Y0166866D02*
X0338438Y0166866D01*
X0338438Y0165268D02*
X0307566Y0165268D01*
X0294510Y0166866D02*
X0186334Y0166866D01*
X0186937Y0168465D02*
X0292912Y0168465D01*
X0291313Y0170063D02*
X0186937Y0170063D01*
X0186888Y0171662D02*
X0289715Y0171662D01*
X0288116Y0173260D02*
X0186226Y0173260D01*
X0185366Y0174859D02*
X0286518Y0174859D01*
X0288821Y0190844D02*
X0299231Y0190844D01*
X0297461Y0192442D02*
X0287222Y0192442D01*
X0285624Y0194041D02*
X0296821Y0194041D01*
X0296792Y0195639D02*
X0285938Y0195639D01*
X0287440Y0197238D02*
X0297349Y0197238D01*
X0282347Y0198836D02*
X0243412Y0198836D01*
X0239263Y0198836D02*
X0233412Y0198836D01*
X0235145Y0197238D02*
X0237530Y0197238D01*
X0236938Y0195639D02*
X0235737Y0195639D01*
X0235730Y0194041D02*
X0236945Y0194041D01*
X0237607Y0192442D02*
X0235068Y0192442D01*
X0232838Y0188933D02*
X0231338Y0190433D01*
X0231338Y0194933D01*
X0231338Y0204933D02*
X0221338Y0194933D01*
X0219712Y0190844D02*
X0213444Y0190844D01*
X0211338Y0190844D02*
X0211337Y0190844D01*
X0211337Y0192442D02*
X0211338Y0192442D01*
X0211337Y0194041D02*
X0211338Y0194041D01*
X0211337Y0195639D02*
X0211338Y0195639D01*
X0211337Y0197238D02*
X0211338Y0197238D01*
X0211337Y0198836D02*
X0211338Y0198836D01*
X0213791Y0198836D02*
X0219263Y0198836D01*
X0217530Y0197238D02*
X0215326Y0197238D01*
X0215883Y0195639D02*
X0216938Y0195639D01*
X0216945Y0194041D02*
X0215854Y0194041D01*
X0215214Y0192442D02*
X0217607Y0192442D01*
X0209231Y0190844D02*
X0160638Y0190844D01*
X0160638Y0192442D02*
X0207461Y0192442D01*
X0231338Y0204933D02*
X0231338Y0224933D01*
X0208938Y0229208D02*
X0160638Y0229208D01*
X0160638Y0227610D02*
X0207791Y0227610D01*
X0207021Y0226011D02*
X0160638Y0226011D01*
X0160638Y0224412D02*
X0206938Y0224412D01*
X0207453Y0222814D02*
X0160638Y0222814D01*
X0160638Y0230807D02*
X0179842Y0230807D01*
X0178538Y0232405D02*
X0160638Y0232405D01*
X0160638Y0234004D02*
X0178538Y0234004D01*
X0178538Y0235602D02*
X0160638Y0235602D01*
X0185101Y0221215D02*
X0208833Y0221215D01*
X0176574Y0265974D02*
X0160638Y0265974D01*
X0160638Y0267572D02*
X0174976Y0267572D01*
X0174438Y0269171D02*
X0160638Y0269171D01*
X0160638Y0270769D02*
X0174438Y0270769D01*
X0175050Y0272368D02*
X0160638Y0272368D01*
X0160638Y0273966D02*
X0176648Y0273966D01*
X0183354Y0297944D02*
X0246735Y0297944D01*
X0247198Y0299543D02*
X0183437Y0299543D01*
X0251618Y0299543D02*
X0252183Y0299543D01*
X0252183Y0297944D02*
X0251618Y0297944D01*
X0251618Y0296345D02*
X0252183Y0296345D01*
X0252183Y0293148D02*
X0251618Y0293148D01*
X0251618Y0291550D02*
X0252183Y0291550D01*
X0252183Y0289951D02*
X0251618Y0289951D01*
X0307038Y0377870D02*
X0160638Y0377870D01*
X0160638Y0379468D02*
X0307038Y0379468D01*
X0307038Y0381067D02*
X0160638Y0381067D01*
X0160638Y0382665D02*
X0307038Y0382665D01*
X0358568Y0216420D02*
X0363107Y0216420D01*
X0361508Y0214821D02*
X0359990Y0214821D01*
X0360587Y0213223D02*
X0361088Y0213223D01*
X0361088Y0211624D02*
X0360587Y0211624D01*
X0359982Y0210026D02*
X0361527Y0210026D01*
X0363126Y0208427D02*
X0358549Y0208427D01*
X0365838Y0209933D02*
X0365838Y0212433D01*
X0365838Y0209933D02*
X0368338Y0207433D01*
X0404338Y0207433D01*
X0410338Y0201433D01*
X0409211Y0206829D02*
X0408336Y0206829D01*
X0409629Y0208427D02*
X0406737Y0208427D01*
X0410753Y0210026D02*
X0370148Y0210026D01*
X0370587Y0211624D02*
X0417938Y0211624D01*
X0417938Y0210026D02*
X0417567Y0210026D01*
X0417938Y0213223D02*
X0370587Y0213223D01*
X0370167Y0214821D02*
X0417938Y0214821D01*
X0407938Y0162071D02*
X0402242Y0162071D01*
X0403901Y0160472D02*
X0407938Y0160472D01*
X0407938Y0158874D02*
X0405153Y0158874D01*
X0405816Y0157275D02*
X0407938Y0157275D01*
X0407938Y0155677D02*
X0406296Y0155677D01*
X0406296Y0154078D02*
X0407938Y0154078D01*
X0407938Y0152479D02*
X0406291Y0152479D01*
X0405629Y0150881D02*
X0407938Y0150881D01*
X0407938Y0149282D02*
X0404967Y0149282D01*
X0403451Y0147684D02*
X0407938Y0147684D01*
X0407938Y0146085D02*
X0401155Y0146085D01*
X0407938Y0144487D02*
X0343238Y0144487D01*
X0343238Y0142888D02*
X0407938Y0142888D01*
X0407938Y0141290D02*
X0343238Y0141290D01*
X0343238Y0139691D02*
X0407938Y0139691D01*
X0407938Y0138093D02*
X0343238Y0138093D01*
X0343238Y0136494D02*
X0407938Y0136494D01*
X0407938Y0134896D02*
X0343238Y0134896D01*
X0343238Y0133297D02*
X0407938Y0133297D01*
X0407938Y0131699D02*
X0343238Y0131699D01*
X0343238Y0120509D02*
X0373908Y0120509D01*
X0372678Y0118911D02*
X0359512Y0118911D01*
X0359512Y0119434D02*
X0358575Y0120372D01*
X0349572Y0120372D01*
X0348635Y0119434D01*
X0348635Y0110432D01*
X0349572Y0109494D01*
X0358575Y0109494D01*
X0359512Y0110432D01*
X0359512Y0119434D01*
X0359512Y0117312D02*
X0372238Y0117312D01*
X0372364Y0115714D02*
X0359512Y0115714D01*
X0359512Y0114115D02*
X0373150Y0114115D01*
X0375479Y0112517D02*
X0359512Y0112517D01*
X0359512Y0110918D02*
X0374438Y0110918D01*
X0384196Y0112517D02*
X0398163Y0112517D01*
X0398163Y0114115D02*
X0386525Y0114115D01*
X0387311Y0115714D02*
X0398163Y0115714D01*
X0398163Y0117312D02*
X0387437Y0117312D01*
X0386997Y0118911D02*
X0398163Y0118911D01*
X0398163Y0110918D02*
X0385237Y0110918D01*
X0348635Y0110918D02*
X0344276Y0110918D01*
X0344276Y0112517D02*
X0348635Y0112517D01*
X0348635Y0114115D02*
X0344276Y0114115D01*
X0344276Y0115714D02*
X0348635Y0115714D01*
X0348635Y0117312D02*
X0344276Y0117312D01*
X0344276Y0118911D02*
X0348635Y0118911D01*
X0333399Y0118911D02*
X0329040Y0118911D01*
X0329040Y0117312D02*
X0333399Y0117312D01*
X0333399Y0115714D02*
X0329040Y0115714D01*
X0329040Y0114115D02*
X0333399Y0114115D01*
X0333399Y0112517D02*
X0329040Y0112517D01*
X0329040Y0110918D02*
X0333399Y0110918D01*
X0313213Y0146085D02*
X0303738Y0146085D01*
X0303738Y0147684D02*
X0310917Y0147684D01*
X0309401Y0149282D02*
X0303211Y0149282D01*
X0301612Y0150881D02*
X0308739Y0150881D01*
X0338438Y0163669D02*
X0184028Y0163669D01*
X0173648Y0163669D02*
X0170318Y0163669D01*
X0169081Y0165268D02*
X0172049Y0165268D01*
X0171341Y0166866D02*
X0160638Y0166866D01*
X0160638Y0165268D02*
X0161794Y0165268D01*
X0160638Y0168465D02*
X0170738Y0168465D01*
X0170738Y0170063D02*
X0160638Y0170063D01*
X0160638Y0171662D02*
X0170787Y0171662D01*
X0171449Y0173260D02*
X0160638Y0173260D01*
X0160638Y0174859D02*
X0172309Y0174859D01*
X0173908Y0176457D02*
X0160638Y0176457D01*
X0165237Y0165268D02*
X0165638Y0165268D01*
X0165638Y0163669D02*
X0165237Y0163669D01*
X0165237Y0162071D02*
X0165638Y0162071D01*
X0165638Y0160472D02*
X0165237Y0160472D01*
X0165237Y0158874D02*
X0165638Y0158874D01*
X0165638Y0157275D02*
X0165237Y0157275D01*
X0209733Y0107721D02*
X0221703Y0107721D01*
X0220538Y0106123D02*
X0209733Y0106123D01*
X0209018Y0104524D02*
X0220538Y0104524D01*
X0220538Y0102926D02*
X0160638Y0102926D01*
X0160638Y0101327D02*
X0222121Y0101327D01*
X0227754Y0101327D02*
X0455738Y0101327D01*
X0455738Y0099729D02*
X0160638Y0099729D01*
X0160638Y0098130D02*
X0455738Y0098130D01*
X0455738Y0147684D02*
X0446758Y0147684D01*
X0448274Y0149282D02*
X0455738Y0149282D01*
X0455738Y0150881D02*
X0448936Y0150881D01*
X0449598Y0152479D02*
X0455738Y0152479D01*
X0455738Y0154078D02*
X0449603Y0154078D01*
X0449603Y0155677D02*
X0455738Y0155677D01*
X0455738Y0157275D02*
X0449123Y0157275D01*
X0448460Y0158874D02*
X0455738Y0158874D01*
X0455738Y0160472D02*
X0447208Y0160472D01*
X0445549Y0162071D02*
X0455738Y0162071D01*
X0268635Y0118911D02*
X0264276Y0118911D01*
X0264276Y0119434D02*
X0263339Y0120372D01*
X0254336Y0120372D01*
X0253399Y0119434D01*
X0253399Y0110432D01*
X0254336Y0109494D01*
X0263339Y0109494D01*
X0264276Y0110432D01*
X0264276Y0119434D01*
X0264276Y0117312D02*
X0268635Y0117312D01*
X0268635Y0115714D02*
X0264276Y0115714D01*
X0264276Y0114115D02*
X0268635Y0114115D01*
X0268635Y0112517D02*
X0264276Y0112517D01*
X0264276Y0110918D02*
X0268635Y0110918D01*
X0253399Y0110918D02*
X0249040Y0110918D01*
X0249040Y0112517D02*
X0253399Y0112517D01*
X0253399Y0114115D02*
X0249040Y0114115D01*
X0249040Y0115714D02*
X0253399Y0115714D01*
X0253399Y0117312D02*
X0249040Y0117312D01*
X0249040Y0118911D02*
X0253399Y0118911D01*
M02*
