%
M48
M72
T01C0.0236
T02C0.0276
T03C0.0320
T04C0.0360
T05C0.0400
T06C0.0433
T07C0.0512
T08C0.0630
T09C0.0787
T10C0.0984
T11C0.1102
T12C0.1260
%
T01
X23124Y24253
X22634Y30543
T02
X25384Y20243
X24144Y18343
T03
X24134Y19493
X23134Y19493
X22134Y19493
X21134Y19493
X21464Y17683
X19464Y17683
X21134Y22493
X22134Y22493
X23134Y22493
X24134Y22493
X23134Y24243
X23084Y27093
X23084Y28593
X22634Y30743
X22634Y32543
X20634Y32543
X20634Y30743
X20084Y28593
X20084Y27093
X17884Y26993
X17884Y29993
X18294Y23393
X19294Y23393
X26134Y24243
X28134Y24243
X30134Y24243
X31984Y24243
X32134Y22493
X33134Y22493
X31134Y22493
X30134Y22493
X30134Y19493
X31134Y19493
X32134Y19493
X33134Y19493
X35584Y21243
X36584Y21243
X37884Y23493
X38884Y23493
X33984Y24243
X26384Y22493
X26384Y20493
T04
X29984Y11693
X29984Y10693
X37984Y10693
X37984Y11693
X38384Y18893
X37384Y18893
T05
X41934Y23993
X42934Y24093
X43934Y23993
X16544Y16113
T06
X25190Y29497
X25190Y34497
T07
X25884Y11493
X24360Y11493
X27407Y11493
X32360Y11493
X33884Y11493
X35407Y11493
X40360Y11493
X41884Y11493
X43407Y11493
T08
X44172Y20643
X41416Y20643
T09
X18321Y11181
X18321Y13031
X20223Y13031
X20223Y11181
X20223Y14881
X18321Y14881
X21284Y34569
X19433Y35750
X21284Y36931
T10
X29678Y27666
X35190Y36328
X40702Y27666
T11
X39718Y15430
X36049Y15430
X31718Y15430
X28049Y15430
X23718Y15430
X44049Y15430
T12
X37884Y16993
X44384Y32493
X17884Y32493
X17884Y16993
M30
