G75*
%MOIN*%
%OFA0B0*%
%FSLAX25Y25*%
%IPPOS*%
%LPD*%
%AMOC8*
5,1,8,0,0,1.08239X$1,22.5*
%
%ADD10OC8,0.05600*%
%ADD11OC8,0.06300*%
%ADD12C,0.06300*%
%ADD13C,0.05600*%
%ADD14R,0.07677X0.07677*%
%ADD15C,0.15024*%
%ADD16R,0.08661X0.11024*%
%ADD17R,0.07874X0.11024*%
%ADD18R,0.11024X0.11024*%
%ADD19R,0.11811X0.11811*%
%ADD20R,0.06731X0.06731*%
%ADD21C,0.05600*%
%ADD22C,0.06000*%
%ADD23C,0.07400*%
%ADD24C,0.01600*%
D10*
X0224938Y0104733D03*
X0224938Y0124733D03*
X0299338Y0146933D03*
X0299338Y0176933D03*
X0263838Y0204933D03*
X0263838Y0224933D03*
X0261338Y0242433D03*
X0281338Y0242433D03*
X0301338Y0242433D03*
X0321838Y0242433D03*
X0341838Y0242433D03*
X0378838Y0156933D03*
X0378838Y0126933D03*
X0231338Y0242433D03*
X0192938Y0233933D03*
X0182938Y0233933D03*
X0178838Y0269933D03*
X0178838Y0299933D03*
X0206338Y0307433D03*
X0206338Y0325433D03*
X0226338Y0325433D03*
X0226338Y0307433D03*
D11*
X0365838Y0212433D03*
X0388838Y0234933D03*
D12*
X0378838Y0234933D03*
X0355838Y0212433D03*
D13*
X0331338Y0224933D03*
X0321338Y0224933D03*
X0311338Y0224933D03*
X0301338Y0224933D03*
X0301338Y0194933D03*
X0311338Y0194933D03*
X0321338Y0194933D03*
X0331338Y0194933D03*
X0241338Y0194933D03*
X0231338Y0194933D03*
X0221338Y0194933D03*
X0211338Y0194933D03*
X0211338Y0224933D03*
X0221338Y0224933D03*
X0231338Y0224933D03*
X0241338Y0224933D03*
D14*
X0243601Y0114933D03*
X0258838Y0114933D03*
X0274074Y0114933D03*
X0323601Y0114933D03*
X0338838Y0114933D03*
X0354074Y0114933D03*
X0403601Y0114933D03*
X0418838Y0114933D03*
X0434074Y0114933D03*
D15*
X0440491Y0154303D03*
X0397184Y0154303D03*
X0360491Y0154303D03*
X0317184Y0154303D03*
X0280491Y0154303D03*
X0237184Y0154303D03*
D16*
X0446050Y0223756D03*
D17*
X0438176Y0189110D03*
D18*
X0409042Y0223756D03*
X0392901Y0204465D03*
D19*
X0212838Y0345689D03*
X0194334Y0357500D03*
X0212838Y0369311D03*
X0202227Y0148815D03*
X0183212Y0148815D03*
X0183212Y0130311D03*
X0183212Y0111807D03*
X0202227Y0111807D03*
X0202227Y0130311D03*
D20*
X0251901Y0294969D03*
X0251901Y0344969D03*
D21*
X0233638Y0285933D02*
X0228038Y0285933D01*
X0228038Y0270933D02*
X0233638Y0270933D01*
X0203638Y0270933D02*
X0198038Y0270933D01*
X0198038Y0285933D02*
X0203638Y0285933D01*
D22*
X0373838Y0191933D02*
X0373838Y0185933D01*
X0383838Y0185933D02*
X0383838Y0191933D01*
X0382838Y0116933D02*
X0376838Y0116933D01*
X0376838Y0106933D02*
X0382838Y0106933D01*
X0302838Y0106933D02*
X0296838Y0106933D01*
X0296838Y0116933D02*
X0302838Y0116933D01*
D23*
X0165438Y0161133D03*
X0419338Y0239933D03*
X0429338Y0240933D03*
X0439338Y0239933D03*
D24*
X0160638Y0158439D02*
X0160638Y0096733D01*
X0455738Y0096733D01*
X0455738Y0383133D01*
X0335638Y0383133D01*
X0335638Y0359187D01*
X0334583Y0358133D01*
X0308092Y0358133D01*
X0307038Y0359187D01*
X0307038Y0383133D01*
X0160638Y0383133D01*
X0160638Y0221733D01*
X0184583Y0221733D01*
X0185637Y0220679D01*
X0185637Y0194187D01*
X0184583Y0193133D01*
X0160638Y0193133D01*
X0160638Y0163827D01*
X0160733Y0164016D01*
X0161242Y0164716D01*
X0161855Y0165328D01*
X0162555Y0165837D01*
X0163326Y0166230D01*
X0164150Y0166498D01*
X0165005Y0166633D01*
X0165237Y0166633D01*
X0165237Y0161333D01*
X0165638Y0161333D01*
X0170938Y0161333D01*
X0170938Y0161566D01*
X0170802Y0162421D01*
X0170535Y0163244D01*
X0170142Y0164016D01*
X0169633Y0164716D01*
X0169021Y0165328D01*
X0168320Y0165837D01*
X0167549Y0166230D01*
X0166725Y0166498D01*
X0165870Y0166633D01*
X0165638Y0166633D01*
X0165638Y0161333D01*
X0165638Y0160933D01*
X0170938Y0160933D01*
X0170938Y0160700D01*
X0170802Y0159845D01*
X0170535Y0159022D01*
X0170142Y0158250D01*
X0169633Y0157550D01*
X0169021Y0156938D01*
X0168320Y0156429D01*
X0167549Y0156036D01*
X0166725Y0155769D01*
X0165870Y0155633D01*
X0165638Y0155633D01*
X0165638Y0160933D01*
X0165237Y0160933D01*
X0165237Y0155633D01*
X0165005Y0155633D01*
X0164150Y0155769D01*
X0163326Y0156036D01*
X0162555Y0156429D01*
X0161855Y0156938D01*
X0161242Y0157550D01*
X0160733Y0158250D01*
X0160638Y0158439D01*
X0160638Y0157275D02*
X0161517Y0157275D01*
X0160638Y0155677D02*
X0164730Y0155677D01*
X0165237Y0155677D02*
X0165638Y0155677D01*
X0166145Y0155677D02*
X0171438Y0155677D01*
X0171438Y0156910D02*
X0171438Y0132956D01*
X0171803Y0132074D01*
X0172478Y0131398D01*
X0175600Y0128276D01*
X0175706Y0128233D01*
X0175706Y0123743D01*
X0176643Y0122806D01*
X0189780Y0122806D01*
X0190717Y0123743D01*
X0190717Y0136879D01*
X0189780Y0137817D01*
X0176643Y0137817D01*
X0176237Y0137411D01*
X0176237Y0141715D01*
X0176643Y0141309D01*
X0189780Y0141309D01*
X0190717Y0142247D01*
X0190717Y0150918D01*
X0194722Y0154923D01*
X0194722Y0142247D01*
X0195659Y0141309D01*
X0208796Y0141309D01*
X0209733Y0142247D01*
X0209733Y0155383D01*
X0208796Y0156320D01*
X0196119Y0156320D01*
X0199197Y0159398D01*
X0199872Y0160074D01*
X0200237Y0160956D01*
X0200237Y0197439D01*
X0211338Y0208539D01*
X0211803Y0208074D01*
X0211803Y0208074D01*
X0212478Y0207398D01*
X0213360Y0207033D01*
X0234343Y0207033D01*
X0234938Y0206439D01*
X0234938Y0198456D01*
X0235303Y0197574D01*
X0236976Y0195901D01*
X0236938Y0195808D01*
X0236938Y0194058D01*
X0237607Y0192441D01*
X0238845Y0191203D01*
X0240462Y0190533D01*
X0242213Y0190533D01*
X0243830Y0191203D01*
X0245068Y0192441D01*
X0245737Y0194058D01*
X0245737Y0195808D01*
X0245068Y0197425D01*
X0243830Y0198663D01*
X0242213Y0199333D01*
X0240462Y0199333D01*
X0240370Y0199295D01*
X0239737Y0199927D01*
X0239737Y0207910D01*
X0239372Y0208793D01*
X0238697Y0209468D01*
X0236697Y0211468D01*
X0235815Y0211833D01*
X0214832Y0211833D01*
X0213737Y0212927D01*
X0213737Y0221165D01*
X0213830Y0221203D01*
X0215068Y0222441D01*
X0215737Y0224058D01*
X0215737Y0225808D01*
X0215068Y0227425D01*
X0213830Y0228663D01*
X0212213Y0229333D01*
X0210462Y0229333D01*
X0208845Y0228663D01*
X0207607Y0227425D01*
X0206938Y0225808D01*
X0206938Y0224058D01*
X0207607Y0222441D01*
X0208845Y0221203D01*
X0208938Y0221165D01*
X0208938Y0212927D01*
X0195803Y0199793D01*
X0195438Y0198910D01*
X0195438Y0162427D01*
X0189331Y0156320D01*
X0177119Y0156320D01*
X0177832Y0157033D01*
X0184315Y0157033D01*
X0185197Y0157398D01*
X0192197Y0164398D01*
X0192872Y0165074D01*
X0193237Y0165956D01*
X0193237Y0201439D01*
X0202872Y0211074D01*
X0203237Y0211956D01*
X0203237Y0266533D01*
X0204513Y0266533D01*
X0206130Y0267203D01*
X0207368Y0268441D01*
X0208037Y0270058D01*
X0208037Y0271808D01*
X0207368Y0273425D01*
X0206130Y0274663D01*
X0204513Y0275333D01*
X0203237Y0275333D01*
X0203237Y0281533D01*
X0204513Y0281533D01*
X0206130Y0282203D01*
X0207368Y0283441D01*
X0208037Y0285058D01*
X0208037Y0286808D01*
X0207368Y0288425D01*
X0206130Y0289663D01*
X0204513Y0290333D01*
X0197162Y0290333D01*
X0195545Y0289663D01*
X0194307Y0288425D01*
X0193638Y0286808D01*
X0193638Y0285058D01*
X0194307Y0283441D01*
X0195545Y0282203D01*
X0197162Y0281533D01*
X0198438Y0281533D01*
X0198438Y0275333D01*
X0197162Y0275333D01*
X0195545Y0274663D01*
X0194307Y0273425D01*
X0193638Y0271808D01*
X0193638Y0270058D01*
X0194307Y0268441D01*
X0195545Y0267203D01*
X0197162Y0266533D01*
X0198438Y0266533D01*
X0198438Y0213427D01*
X0189478Y0204468D01*
X0188803Y0203793D01*
X0188438Y0202910D01*
X0188438Y0167427D01*
X0182843Y0161833D01*
X0176360Y0161833D01*
X0175478Y0161468D01*
X0174803Y0160793D01*
X0171803Y0157793D01*
X0171438Y0156910D01*
X0171589Y0157275D02*
X0169358Y0157275D01*
X0170459Y0158874D02*
X0172884Y0158874D01*
X0174482Y0160472D02*
X0170901Y0160472D01*
X0170858Y0162071D02*
X0176655Y0162071D01*
X0177226Y0161834D02*
X0180449Y0161834D01*
X0183425Y0163067D01*
X0185704Y0165345D01*
X0186937Y0168322D01*
X0186937Y0171544D01*
X0185704Y0174521D01*
X0183425Y0176799D01*
X0180449Y0178032D01*
X0177226Y0178032D01*
X0174250Y0176799D01*
X0171971Y0174521D01*
X0170738Y0171544D01*
X0170738Y0168322D01*
X0171971Y0165345D01*
X0174250Y0163067D01*
X0177226Y0161834D01*
X0176838Y0159433D02*
X0173838Y0156433D01*
X0173838Y0133433D01*
X0176960Y0130311D01*
X0183212Y0130311D01*
X0190717Y0130100D02*
X0194722Y0130100D01*
X0194722Y0128502D02*
X0190717Y0128502D01*
X0190717Y0126903D02*
X0194722Y0126903D01*
X0194722Y0125305D02*
X0190717Y0125305D01*
X0190681Y0123706D02*
X0194758Y0123706D01*
X0194722Y0123743D02*
X0195659Y0122806D01*
X0208796Y0122806D01*
X0209733Y0123743D01*
X0209733Y0128033D01*
X0218315Y0128033D01*
X0219197Y0128398D01*
X0219872Y0129074D01*
X0223272Y0132474D01*
X0223637Y0133356D01*
X0223637Y0191123D01*
X0223830Y0191203D01*
X0225068Y0192441D01*
X0225737Y0194058D01*
X0225737Y0195808D01*
X0225068Y0197425D01*
X0223830Y0198663D01*
X0222213Y0199333D01*
X0220462Y0199333D01*
X0218845Y0198663D01*
X0217607Y0197425D01*
X0216938Y0195808D01*
X0216938Y0194058D01*
X0217607Y0192441D01*
X0218838Y0191211D01*
X0218838Y0134827D01*
X0216843Y0132833D01*
X0209733Y0132833D01*
X0209733Y0136879D01*
X0208796Y0137817D01*
X0195659Y0137817D01*
X0194722Y0136879D01*
X0194722Y0123743D01*
X0195659Y0119313D02*
X0194722Y0118375D01*
X0194722Y0105239D01*
X0195659Y0104302D01*
X0202075Y0104302D01*
X0203303Y0103074D01*
X0203978Y0102398D01*
X0204860Y0102033D01*
X0221415Y0102033D01*
X0223115Y0100333D01*
X0226760Y0100333D01*
X0229337Y0102911D01*
X0229337Y0106556D01*
X0226760Y0109133D01*
X0223115Y0109133D01*
X0220815Y0106833D01*
X0209733Y0106833D01*
X0209733Y0118375D01*
X0208796Y0119313D01*
X0195659Y0119313D01*
X0195257Y0118911D02*
X0190182Y0118911D01*
X0189780Y0119313D02*
X0176643Y0119313D01*
X0175706Y0118375D01*
X0175706Y0105239D01*
X0176643Y0104302D01*
X0189780Y0104302D01*
X0190717Y0105239D01*
X0190717Y0118375D01*
X0189780Y0119313D01*
X0190717Y0117312D02*
X0194722Y0117312D01*
X0194722Y0115714D02*
X0190717Y0115714D01*
X0190717Y0114115D02*
X0194722Y0114115D01*
X0194722Y0112517D02*
X0190717Y0112517D01*
X0190717Y0110918D02*
X0194722Y0110918D01*
X0194722Y0109320D02*
X0190717Y0109320D01*
X0190717Y0107721D02*
X0194722Y0107721D01*
X0194722Y0106123D02*
X0190717Y0106123D01*
X0190002Y0104524D02*
X0195436Y0104524D01*
X0202227Y0107543D02*
X0205338Y0104433D01*
X0224638Y0104433D01*
X0224938Y0104733D01*
X0228172Y0107721D02*
X0262655Y0107721D01*
X0261057Y0109320D02*
X0209733Y0109320D01*
X0209733Y0110918D02*
X0238163Y0110918D01*
X0238163Y0110432D02*
X0239100Y0109494D01*
X0248103Y0109494D01*
X0249040Y0110432D01*
X0249040Y0115741D01*
X0251838Y0118539D01*
X0253399Y0116978D01*
X0253399Y0110432D01*
X0254336Y0109494D01*
X0260882Y0109494D01*
X0265478Y0104898D01*
X0266360Y0104533D01*
X0292853Y0104533D01*
X0292938Y0104327D01*
X0294232Y0103033D01*
X0295923Y0102333D01*
X0303753Y0102333D01*
X0305443Y0103033D01*
X0306737Y0104327D01*
X0307438Y0106018D01*
X0307438Y0107848D01*
X0306737Y0109539D01*
X0305443Y0110833D01*
X0303753Y0111533D01*
X0295923Y0111533D01*
X0294232Y0110833D01*
X0292938Y0109539D01*
X0292853Y0109333D01*
X0267832Y0109333D01*
X0264276Y0112889D01*
X0264276Y0119434D01*
X0263339Y0120372D01*
X0256793Y0120372D01*
X0254237Y0122927D01*
X0254237Y0214410D01*
X0253872Y0215293D01*
X0253197Y0215968D01*
X0251197Y0217968D01*
X0250315Y0218333D01*
X0224832Y0218333D01*
X0223737Y0219427D01*
X0223737Y0221165D01*
X0223830Y0221203D01*
X0225068Y0222441D01*
X0225737Y0224058D01*
X0225737Y0225808D01*
X0225068Y0227425D01*
X0223830Y0228663D01*
X0223737Y0228701D01*
X0223737Y0238039D01*
X0225832Y0240133D01*
X0227415Y0240133D01*
X0229515Y0238033D01*
X0233160Y0238033D01*
X0235737Y0240611D01*
X0235737Y0244256D01*
X0233160Y0246833D01*
X0229515Y0246833D01*
X0227615Y0244933D01*
X0224360Y0244933D01*
X0223478Y0244568D01*
X0222803Y0243893D01*
X0219303Y0240393D01*
X0218938Y0239510D01*
X0218938Y0228701D01*
X0218845Y0228663D01*
X0217607Y0227425D01*
X0216938Y0225808D01*
X0216938Y0224058D01*
X0217607Y0222441D01*
X0218845Y0221203D01*
X0218938Y0221165D01*
X0218938Y0217956D01*
X0219303Y0217074D01*
X0221803Y0214574D01*
X0222478Y0213898D01*
X0223360Y0213533D01*
X0248843Y0213533D01*
X0249438Y0212939D01*
X0249438Y0122927D01*
X0246882Y0120372D01*
X0239100Y0120372D01*
X0238163Y0119434D01*
X0238163Y0110432D01*
X0238163Y0112517D02*
X0209733Y0112517D01*
X0209733Y0114115D02*
X0238163Y0114115D01*
X0238163Y0115714D02*
X0209733Y0115714D01*
X0209733Y0117312D02*
X0238163Y0117312D01*
X0238163Y0118911D02*
X0209197Y0118911D01*
X0209696Y0123706D02*
X0220338Y0123706D01*
X0220338Y0122828D02*
X0223032Y0120133D01*
X0224937Y0120133D01*
X0224937Y0124733D01*
X0220338Y0124733D01*
X0220338Y0122828D01*
X0221057Y0122108D02*
X0160638Y0122108D01*
X0160638Y0123706D02*
X0175743Y0123706D01*
X0175706Y0125305D02*
X0160638Y0125305D01*
X0160638Y0126903D02*
X0175706Y0126903D01*
X0175375Y0128502D02*
X0160638Y0128502D01*
X0160638Y0130100D02*
X0173776Y0130100D01*
X0172178Y0131699D02*
X0160638Y0131699D01*
X0160638Y0133297D02*
X0171438Y0133297D01*
X0171438Y0134896D02*
X0160638Y0134896D01*
X0160638Y0136494D02*
X0171438Y0136494D01*
X0171438Y0138093D02*
X0160638Y0138093D01*
X0160638Y0139691D02*
X0171438Y0139691D01*
X0171438Y0141290D02*
X0160638Y0141290D01*
X0160638Y0142888D02*
X0171438Y0142888D01*
X0171438Y0144487D02*
X0160638Y0144487D01*
X0160638Y0146085D02*
X0171438Y0146085D01*
X0171438Y0147684D02*
X0160638Y0147684D01*
X0160638Y0149282D02*
X0171438Y0149282D01*
X0171438Y0150881D02*
X0160638Y0150881D01*
X0160638Y0152479D02*
X0171438Y0152479D01*
X0171438Y0154078D02*
X0160638Y0154078D01*
X0165237Y0157275D02*
X0165638Y0157275D01*
X0165638Y0158874D02*
X0165237Y0158874D01*
X0165237Y0160472D02*
X0165638Y0160472D01*
X0165638Y0162071D02*
X0165237Y0162071D01*
X0165237Y0163669D02*
X0165638Y0163669D01*
X0165638Y0165268D02*
X0165237Y0165268D01*
X0161794Y0165268D02*
X0160638Y0165268D01*
X0160638Y0166866D02*
X0171341Y0166866D01*
X0170738Y0168465D02*
X0160638Y0168465D01*
X0160638Y0170063D02*
X0170738Y0170063D01*
X0170787Y0171662D02*
X0160638Y0171662D01*
X0160638Y0173260D02*
X0171449Y0173260D01*
X0172309Y0174859D02*
X0160638Y0174859D01*
X0160638Y0176457D02*
X0173908Y0176457D01*
X0183767Y0176457D02*
X0188438Y0176457D01*
X0188438Y0174859D02*
X0185366Y0174859D01*
X0186226Y0173260D02*
X0188438Y0173260D01*
X0188438Y0171662D02*
X0186888Y0171662D01*
X0186937Y0170063D02*
X0188438Y0170063D01*
X0188438Y0168465D02*
X0186937Y0168465D01*
X0186334Y0166866D02*
X0187876Y0166866D01*
X0186278Y0165268D02*
X0185626Y0165268D01*
X0184679Y0163669D02*
X0184028Y0163669D01*
X0183081Y0162071D02*
X0181020Y0162071D01*
X0183838Y0159433D02*
X0176838Y0159433D01*
X0173648Y0163669D02*
X0170318Y0163669D01*
X0169081Y0165268D02*
X0172049Y0165268D01*
X0183838Y0159433D02*
X0190838Y0166433D01*
X0190838Y0202433D01*
X0200838Y0212433D01*
X0200838Y0270933D01*
X0200838Y0285933D01*
X0203237Y0280360D02*
X0236871Y0280360D01*
X0236130Y0282203D02*
X0234513Y0281533D01*
X0227162Y0281533D01*
X0225545Y0282203D01*
X0224307Y0283441D01*
X0223638Y0285058D01*
X0223638Y0286808D01*
X0224307Y0288425D01*
X0225545Y0289663D01*
X0227162Y0290333D01*
X0229043Y0290333D01*
X0213803Y0305574D01*
X0213438Y0306456D01*
X0213438Y0314439D01*
X0206843Y0321033D01*
X0204515Y0321033D01*
X0201938Y0323611D01*
X0201938Y0327256D01*
X0203938Y0329256D01*
X0203938Y0330910D01*
X0204303Y0331793D01*
X0204978Y0332468D01*
X0210438Y0337927D01*
X0210438Y0338183D01*
X0206269Y0338183D01*
X0205332Y0339121D01*
X0205332Y0352257D01*
X0206269Y0353194D01*
X0219406Y0353194D01*
X0220343Y0352257D01*
X0220343Y0339121D01*
X0219406Y0338183D01*
X0215237Y0338183D01*
X0215237Y0336456D01*
X0214872Y0335574D01*
X0208737Y0329439D01*
X0208737Y0329256D01*
X0210737Y0327256D01*
X0210737Y0323927D01*
X0217197Y0317468D01*
X0217872Y0316793D01*
X0218237Y0315910D01*
X0218237Y0307927D01*
X0233197Y0292968D01*
X0233872Y0292293D01*
X0234237Y0291410D01*
X0234237Y0290333D01*
X0234513Y0290333D01*
X0236130Y0289663D01*
X0237368Y0288425D01*
X0238037Y0286808D01*
X0238037Y0285058D01*
X0237368Y0283441D01*
X0236130Y0282203D01*
X0235541Y0281959D02*
X0238438Y0281959D01*
X0238438Y0281927D02*
X0231843Y0275333D01*
X0227162Y0275333D01*
X0225545Y0274663D01*
X0224307Y0273425D01*
X0223638Y0271808D01*
X0223638Y0270058D01*
X0224307Y0268441D01*
X0225545Y0267203D01*
X0227162Y0266533D01*
X0234513Y0266533D01*
X0236130Y0267203D01*
X0237368Y0268441D01*
X0238037Y0270058D01*
X0238037Y0271808D01*
X0237368Y0273425D01*
X0237046Y0273747D01*
X0242872Y0279574D01*
X0243237Y0280456D01*
X0243237Y0291410D01*
X0242872Y0292293D01*
X0242197Y0292968D01*
X0230146Y0305019D01*
X0230737Y0305611D01*
X0230737Y0308439D01*
X0253935Y0331637D01*
X0254300Y0332519D01*
X0254300Y0340003D01*
X0255929Y0340003D01*
X0256866Y0340940D01*
X0256866Y0348997D01*
X0255929Y0349934D01*
X0247872Y0349934D01*
X0246935Y0348997D01*
X0246935Y0340940D01*
X0247872Y0340003D01*
X0249501Y0340003D01*
X0249501Y0333990D01*
X0227343Y0311833D01*
X0224515Y0311833D01*
X0221938Y0309256D01*
X0221938Y0305611D01*
X0224515Y0303033D01*
X0225343Y0303033D01*
X0238438Y0289939D01*
X0238438Y0281927D01*
X0238438Y0283557D02*
X0237416Y0283557D01*
X0238037Y0285156D02*
X0238438Y0285156D01*
X0238438Y0286754D02*
X0238037Y0286754D01*
X0238438Y0288353D02*
X0237398Y0288353D01*
X0238425Y0289951D02*
X0235434Y0289951D01*
X0234180Y0291550D02*
X0236827Y0291550D01*
X0235228Y0293148D02*
X0233016Y0293148D01*
X0233629Y0294747D02*
X0231418Y0294747D01*
X0232031Y0296345D02*
X0229819Y0296345D01*
X0230432Y0297944D02*
X0228221Y0297944D01*
X0228834Y0299543D02*
X0226622Y0299543D01*
X0227235Y0301141D02*
X0225024Y0301141D01*
X0225637Y0302740D02*
X0223425Y0302740D01*
X0223210Y0304338D02*
X0221827Y0304338D01*
X0221938Y0305937D02*
X0220228Y0305937D01*
X0218630Y0307535D02*
X0221938Y0307535D01*
X0221938Y0309134D02*
X0218237Y0309134D01*
X0218237Y0310732D02*
X0223414Y0310732D01*
X0226338Y0307433D02*
X0226338Y0305433D01*
X0240838Y0290933D01*
X0240838Y0280933D01*
X0230838Y0270933D01*
X0232075Y0275565D02*
X0203237Y0275565D01*
X0203237Y0277163D02*
X0233674Y0277163D01*
X0235272Y0278762D02*
X0203237Y0278762D01*
X0205541Y0281959D02*
X0226134Y0281959D01*
X0224259Y0283557D02*
X0207416Y0283557D01*
X0208037Y0285156D02*
X0223638Y0285156D01*
X0223638Y0286754D02*
X0208037Y0286754D01*
X0207398Y0288353D02*
X0224277Y0288353D01*
X0226241Y0289951D02*
X0205434Y0289951D01*
X0196241Y0289951D02*
X0160638Y0289951D01*
X0160638Y0288353D02*
X0194277Y0288353D01*
X0193638Y0286754D02*
X0160638Y0286754D01*
X0160638Y0285156D02*
X0193638Y0285156D01*
X0194259Y0283557D02*
X0160638Y0283557D01*
X0160638Y0281959D02*
X0196134Y0281959D01*
X0198438Y0280360D02*
X0160638Y0280360D01*
X0160638Y0278762D02*
X0198438Y0278762D01*
X0198438Y0277163D02*
X0160638Y0277163D01*
X0160638Y0275565D02*
X0198438Y0275565D01*
X0194848Y0273966D02*
X0181027Y0273966D01*
X0180660Y0274333D02*
X0177015Y0274333D01*
X0174438Y0271756D01*
X0174438Y0268111D01*
X0176438Y0266111D01*
X0176438Y0237556D01*
X0176803Y0236674D01*
X0177478Y0235998D01*
X0178538Y0234939D01*
X0178538Y0232111D01*
X0181115Y0229533D01*
X0184760Y0229533D01*
X0187337Y0232111D01*
X0187337Y0235756D01*
X0184760Y0238333D01*
X0181932Y0238333D01*
X0181237Y0239027D01*
X0181237Y0266111D01*
X0183237Y0268111D01*
X0183237Y0271756D01*
X0180660Y0274333D01*
X0182625Y0272368D02*
X0193869Y0272368D01*
X0193638Y0270769D02*
X0183237Y0270769D01*
X0183237Y0269171D02*
X0194005Y0269171D01*
X0195176Y0267572D02*
X0182699Y0267572D01*
X0181237Y0265974D02*
X0198438Y0265974D01*
X0198438Y0264375D02*
X0181237Y0264375D01*
X0181237Y0262777D02*
X0198438Y0262777D01*
X0198438Y0261178D02*
X0181237Y0261178D01*
X0181237Y0259580D02*
X0198438Y0259580D01*
X0198438Y0257981D02*
X0181237Y0257981D01*
X0181237Y0256383D02*
X0198438Y0256383D01*
X0198438Y0254784D02*
X0181237Y0254784D01*
X0181237Y0253186D02*
X0198438Y0253186D01*
X0198438Y0251587D02*
X0181237Y0251587D01*
X0181237Y0249989D02*
X0198438Y0249989D01*
X0198438Y0248390D02*
X0181237Y0248390D01*
X0181237Y0246792D02*
X0198438Y0246792D01*
X0198438Y0245193D02*
X0181237Y0245193D01*
X0181237Y0243595D02*
X0198438Y0243595D01*
X0198438Y0241996D02*
X0181237Y0241996D01*
X0181237Y0240398D02*
X0198438Y0240398D01*
X0198438Y0238799D02*
X0181466Y0238799D01*
X0178838Y0238033D02*
X0182938Y0233933D01*
X0186034Y0230807D02*
X0189842Y0230807D01*
X0191115Y0229533D02*
X0194760Y0229533D01*
X0197337Y0232111D01*
X0197337Y0235756D01*
X0194760Y0238333D01*
X0191115Y0238333D01*
X0188538Y0235756D01*
X0188538Y0232111D01*
X0191115Y0229533D01*
X0188538Y0232405D02*
X0187337Y0232405D01*
X0187337Y0234004D02*
X0188538Y0234004D01*
X0188538Y0235602D02*
X0187337Y0235602D01*
X0185893Y0237201D02*
X0189982Y0237201D01*
X0195893Y0237201D02*
X0198438Y0237201D01*
X0198438Y0235602D02*
X0197337Y0235602D01*
X0197337Y0234004D02*
X0198438Y0234004D01*
X0198438Y0232405D02*
X0197337Y0232405D01*
X0198438Y0230807D02*
X0196034Y0230807D01*
X0198438Y0229208D02*
X0160638Y0229208D01*
X0160638Y0227610D02*
X0198438Y0227610D01*
X0198438Y0226011D02*
X0160638Y0226011D01*
X0160638Y0224412D02*
X0198438Y0224412D01*
X0198438Y0222814D02*
X0160638Y0222814D01*
X0160638Y0230807D02*
X0179842Y0230807D01*
X0178538Y0232405D02*
X0160638Y0232405D01*
X0160638Y0234004D02*
X0178538Y0234004D01*
X0177874Y0235602D02*
X0160638Y0235602D01*
X0160638Y0237201D02*
X0176585Y0237201D01*
X0176438Y0238799D02*
X0160638Y0238799D01*
X0160638Y0240398D02*
X0176438Y0240398D01*
X0176438Y0241996D02*
X0160638Y0241996D01*
X0160638Y0243595D02*
X0176438Y0243595D01*
X0176438Y0245193D02*
X0160638Y0245193D01*
X0160638Y0246792D02*
X0176438Y0246792D01*
X0176438Y0248390D02*
X0160638Y0248390D01*
X0160638Y0249989D02*
X0176438Y0249989D01*
X0176438Y0251587D02*
X0160638Y0251587D01*
X0160638Y0253186D02*
X0176438Y0253186D01*
X0176438Y0254784D02*
X0160638Y0254784D01*
X0160638Y0256383D02*
X0176438Y0256383D01*
X0176438Y0257981D02*
X0160638Y0257981D01*
X0160638Y0259580D02*
X0176438Y0259580D01*
X0176438Y0261178D02*
X0160638Y0261178D01*
X0160638Y0262777D02*
X0176438Y0262777D01*
X0176438Y0264375D02*
X0160638Y0264375D01*
X0160638Y0265974D02*
X0176438Y0265974D01*
X0174976Y0267572D02*
X0160638Y0267572D01*
X0160638Y0269171D02*
X0174438Y0269171D01*
X0174438Y0270769D02*
X0160638Y0270769D01*
X0160638Y0272368D02*
X0175050Y0272368D01*
X0176648Y0273966D02*
X0160638Y0273966D01*
X0178838Y0269933D02*
X0178838Y0238033D01*
X0185101Y0221215D02*
X0198438Y0221215D01*
X0198438Y0219617D02*
X0185637Y0219617D01*
X0185637Y0218018D02*
X0198438Y0218018D01*
X0198438Y0216420D02*
X0185637Y0216420D01*
X0185637Y0214821D02*
X0198438Y0214821D01*
X0198233Y0213223D02*
X0185637Y0213223D01*
X0185637Y0211624D02*
X0196635Y0211624D01*
X0195036Y0210026D02*
X0185637Y0210026D01*
X0185637Y0208427D02*
X0193438Y0208427D01*
X0191839Y0206829D02*
X0185637Y0206829D01*
X0185637Y0205230D02*
X0190241Y0205230D01*
X0189478Y0204468D02*
X0189478Y0204468D01*
X0188736Y0203632D02*
X0185637Y0203632D01*
X0185637Y0202033D02*
X0188438Y0202033D01*
X0188438Y0200435D02*
X0185637Y0200435D01*
X0185637Y0198836D02*
X0188438Y0198836D01*
X0188438Y0197238D02*
X0185637Y0197238D01*
X0185637Y0195639D02*
X0188438Y0195639D01*
X0188438Y0194041D02*
X0185491Y0194041D01*
X0188438Y0192442D02*
X0160638Y0192442D01*
X0160638Y0190844D02*
X0188438Y0190844D01*
X0188438Y0189245D02*
X0160638Y0189245D01*
X0160638Y0187647D02*
X0188438Y0187647D01*
X0188438Y0186048D02*
X0160638Y0186048D01*
X0160638Y0184450D02*
X0188438Y0184450D01*
X0188438Y0182851D02*
X0160638Y0182851D01*
X0160638Y0181253D02*
X0188438Y0181253D01*
X0188438Y0179654D02*
X0160638Y0179654D01*
X0160638Y0178056D02*
X0188438Y0178056D01*
X0193237Y0178056D02*
X0195438Y0178056D01*
X0195438Y0179654D02*
X0193237Y0179654D01*
X0193237Y0181253D02*
X0195438Y0181253D01*
X0195438Y0182851D02*
X0193237Y0182851D01*
X0193237Y0184450D02*
X0195438Y0184450D01*
X0195438Y0186048D02*
X0193237Y0186048D01*
X0193237Y0187647D02*
X0195438Y0187647D01*
X0195438Y0189245D02*
X0193237Y0189245D01*
X0193237Y0190844D02*
X0195438Y0190844D01*
X0195438Y0192442D02*
X0193237Y0192442D01*
X0193237Y0194041D02*
X0195438Y0194041D01*
X0195438Y0195639D02*
X0193237Y0195639D01*
X0193237Y0197238D02*
X0195438Y0197238D01*
X0195438Y0198836D02*
X0193237Y0198836D01*
X0193237Y0200435D02*
X0196445Y0200435D01*
X0198044Y0202033D02*
X0193832Y0202033D01*
X0195430Y0203632D02*
X0199642Y0203632D01*
X0201241Y0205230D02*
X0197029Y0205230D01*
X0198627Y0206829D02*
X0202839Y0206829D01*
X0204438Y0208427D02*
X0200226Y0208427D01*
X0201824Y0210026D02*
X0206036Y0210026D01*
X0207635Y0211624D02*
X0203100Y0211624D01*
X0203237Y0213223D02*
X0208938Y0213223D01*
X0208938Y0214821D02*
X0203237Y0214821D01*
X0203237Y0216420D02*
X0208938Y0216420D01*
X0208938Y0218018D02*
X0203237Y0218018D01*
X0203237Y0219617D02*
X0208938Y0219617D01*
X0208833Y0221215D02*
X0203237Y0221215D01*
X0203237Y0222814D02*
X0207453Y0222814D01*
X0206938Y0224412D02*
X0203237Y0224412D01*
X0203237Y0226011D02*
X0207021Y0226011D01*
X0207791Y0227610D02*
X0203237Y0227610D01*
X0203237Y0229208D02*
X0210160Y0229208D01*
X0212515Y0229208D02*
X0218938Y0229208D01*
X0218938Y0230807D02*
X0203237Y0230807D01*
X0203237Y0232405D02*
X0218938Y0232405D01*
X0218938Y0234004D02*
X0203237Y0234004D01*
X0203237Y0235602D02*
X0218938Y0235602D01*
X0218938Y0237201D02*
X0203237Y0237201D01*
X0203237Y0238799D02*
X0218938Y0238799D01*
X0219308Y0240398D02*
X0203237Y0240398D01*
X0203237Y0241996D02*
X0220906Y0241996D01*
X0222505Y0243595D02*
X0203237Y0243595D01*
X0203237Y0245193D02*
X0227875Y0245193D01*
X0229474Y0246792D02*
X0203237Y0246792D01*
X0203237Y0248390D02*
X0455738Y0248390D01*
X0455738Y0246792D02*
X0343984Y0246792D01*
X0343743Y0247033D02*
X0341838Y0247033D01*
X0341838Y0242433D01*
X0341838Y0242433D01*
X0346437Y0242433D01*
X0346437Y0240528D01*
X0343743Y0237833D01*
X0341838Y0237833D01*
X0341838Y0242433D01*
X0346437Y0242433D01*
X0346437Y0244338D01*
X0343743Y0247033D01*
X0341837Y0247033D02*
X0339932Y0247033D01*
X0337238Y0244338D01*
X0337238Y0242433D01*
X0337238Y0240528D01*
X0339932Y0237833D01*
X0341837Y0237833D01*
X0341837Y0242433D01*
X0337238Y0242433D01*
X0341837Y0242433D01*
X0341837Y0242433D01*
X0341838Y0242433D01*
X0341837Y0242433D01*
X0341837Y0247033D01*
X0341837Y0246792D02*
X0341838Y0246792D01*
X0341837Y0245193D02*
X0341838Y0245193D01*
X0341837Y0243595D02*
X0341838Y0243595D01*
X0341837Y0241996D02*
X0341838Y0241996D01*
X0341837Y0240398D02*
X0341838Y0240398D01*
X0341837Y0238799D02*
X0341838Y0238799D01*
X0344709Y0238799D02*
X0375986Y0238799D01*
X0376147Y0238960D02*
X0374811Y0237624D01*
X0374088Y0235878D01*
X0374088Y0234077D01*
X0357073Y0217063D01*
X0356782Y0217183D01*
X0354893Y0217183D01*
X0353147Y0216460D01*
X0351811Y0215124D01*
X0351483Y0214333D01*
X0324860Y0214333D01*
X0323978Y0213968D01*
X0319303Y0209293D01*
X0318938Y0208410D01*
X0318938Y0198701D01*
X0318845Y0198663D01*
X0317607Y0197425D01*
X0316938Y0195808D01*
X0316938Y0194058D01*
X0317607Y0192441D01*
X0318845Y0191203D01*
X0320462Y0190533D01*
X0322213Y0190533D01*
X0323830Y0191203D01*
X0325068Y0192441D01*
X0325738Y0194058D01*
X0325738Y0195808D01*
X0325068Y0197425D01*
X0323830Y0198663D01*
X0323738Y0198701D01*
X0323738Y0206939D01*
X0326332Y0209533D01*
X0352020Y0209533D01*
X0353147Y0208406D01*
X0354893Y0207683D01*
X0356782Y0207683D01*
X0358528Y0208406D01*
X0359864Y0209742D01*
X0360587Y0211488D01*
X0360587Y0213378D01*
X0360467Y0213669D01*
X0361088Y0214289D01*
X0361088Y0210466D01*
X0363870Y0207683D01*
X0367805Y0207683D01*
X0370587Y0210466D01*
X0370587Y0213289D01*
X0371599Y0214301D01*
X0371438Y0213910D01*
X0371438Y0195918D01*
X0371232Y0195833D01*
X0369938Y0194539D01*
X0369238Y0192848D01*
X0369238Y0187727D01*
X0360843Y0179333D01*
X0336832Y0179333D01*
X0333738Y0182427D01*
X0333738Y0191165D01*
X0333830Y0191203D01*
X0335068Y0192441D01*
X0335738Y0194058D01*
X0335738Y0195808D01*
X0335068Y0197425D01*
X0333830Y0198663D01*
X0332213Y0199333D01*
X0330462Y0199333D01*
X0328845Y0198663D01*
X0327607Y0197425D01*
X0326938Y0195808D01*
X0326938Y0194058D01*
X0327607Y0192441D01*
X0328845Y0191203D01*
X0328938Y0191165D01*
X0328938Y0182427D01*
X0325843Y0179333D01*
X0303160Y0179333D01*
X0301160Y0181333D01*
X0297515Y0181333D01*
X0294938Y0178756D01*
X0294938Y0175111D01*
X0297515Y0172533D01*
X0301160Y0172533D01*
X0303160Y0174533D01*
X0327315Y0174533D01*
X0328197Y0174898D01*
X0331338Y0178039D01*
X0334478Y0174898D01*
X0335360Y0174533D01*
X0360843Y0174533D01*
X0364938Y0170439D01*
X0364938Y0165456D01*
X0365303Y0164574D01*
X0365978Y0163898D01*
X0374438Y0155439D01*
X0374438Y0155111D01*
X0377015Y0152533D01*
X0380660Y0152533D01*
X0383237Y0155111D01*
X0383237Y0158756D01*
X0380660Y0161333D01*
X0377015Y0161333D01*
X0376173Y0160491D01*
X0369737Y0166927D01*
X0369737Y0171910D01*
X0369372Y0172793D01*
X0368697Y0173468D01*
X0365232Y0176933D01*
X0370782Y0182483D01*
X0371232Y0182033D01*
X0372923Y0181333D01*
X0374753Y0181333D01*
X0376443Y0182033D01*
X0377737Y0183327D01*
X0378437Y0185018D01*
X0378437Y0192848D01*
X0377737Y0194539D01*
X0376443Y0195833D01*
X0376237Y0195918D01*
X0376237Y0212439D01*
X0385154Y0221356D01*
X0401930Y0221356D01*
X0401930Y0217581D01*
X0402868Y0216644D01*
X0415217Y0216644D01*
X0416154Y0217581D01*
X0416154Y0229930D01*
X0415217Y0230868D01*
X0411442Y0230868D01*
X0411442Y0235644D01*
X0413332Y0237533D01*
X0414595Y0237533D01*
X0414844Y0236931D01*
X0416335Y0235440D01*
X0418283Y0234633D01*
X0420392Y0234633D01*
X0422340Y0235440D01*
X0423831Y0236931D01*
X0424545Y0238655D01*
X0424844Y0237931D01*
X0426335Y0236440D01*
X0426938Y0236191D01*
X0426938Y0226456D01*
X0427303Y0225574D01*
X0427978Y0224898D01*
X0431155Y0221721D01*
X0432037Y0221356D01*
X0440119Y0221356D01*
X0440119Y0217581D01*
X0441057Y0216644D01*
X0451044Y0216644D01*
X0451981Y0217581D01*
X0451981Y0229930D01*
X0451044Y0230868D01*
X0441057Y0230868D01*
X0440119Y0229930D01*
X0440119Y0226156D01*
X0433509Y0226156D01*
X0431737Y0227927D01*
X0431737Y0236191D01*
X0432340Y0236440D01*
X0433831Y0237931D01*
X0434040Y0238437D01*
X0434240Y0237822D01*
X0434633Y0237050D01*
X0435142Y0236350D01*
X0435755Y0235738D01*
X0436455Y0235229D01*
X0437226Y0234836D01*
X0438050Y0234569D01*
X0438905Y0234433D01*
X0439137Y0234433D01*
X0439137Y0239733D01*
X0439538Y0239733D01*
X0439538Y0240133D01*
X0444837Y0240133D01*
X0444837Y0240366D01*
X0444702Y0241221D01*
X0444435Y0242044D01*
X0444042Y0242816D01*
X0443533Y0243516D01*
X0442921Y0244128D01*
X0442220Y0244637D01*
X0441449Y0245030D01*
X0440625Y0245298D01*
X0439770Y0245433D01*
X0439538Y0245433D01*
X0439538Y0240133D01*
X0439137Y0240133D01*
X0439137Y0245433D01*
X0438905Y0245433D01*
X0438050Y0245298D01*
X0437226Y0245030D01*
X0436455Y0244637D01*
X0435755Y0244128D01*
X0435142Y0243516D01*
X0434633Y0242816D01*
X0434446Y0242449D01*
X0433831Y0243935D01*
X0432340Y0245426D01*
X0430392Y0246233D01*
X0428283Y0246233D01*
X0426335Y0245426D01*
X0424844Y0243935D01*
X0424130Y0242212D01*
X0423831Y0242935D01*
X0422340Y0244426D01*
X0420392Y0245233D01*
X0418283Y0245233D01*
X0416335Y0244426D01*
X0414844Y0242935D01*
X0414595Y0242333D01*
X0411860Y0242333D01*
X0410978Y0241968D01*
X0410303Y0241293D01*
X0407008Y0237997D01*
X0406642Y0237115D01*
X0406642Y0230868D01*
X0402868Y0230868D01*
X0401930Y0229930D01*
X0401930Y0226156D01*
X0383683Y0226156D01*
X0383293Y0225994D01*
X0387482Y0230183D01*
X0390805Y0230183D01*
X0393587Y0232966D01*
X0393587Y0236901D01*
X0390805Y0239683D01*
X0386870Y0239683D01*
X0384088Y0236901D01*
X0384088Y0233577D01*
X0382943Y0232433D01*
X0383587Y0233988D01*
X0383587Y0235878D01*
X0382864Y0237624D01*
X0381528Y0238960D01*
X0379782Y0239683D01*
X0377893Y0239683D01*
X0376147Y0238960D01*
X0374635Y0237201D02*
X0323738Y0237201D01*
X0323738Y0238111D02*
X0326238Y0240611D01*
X0326238Y0244256D01*
X0323660Y0246833D01*
X0320015Y0246833D01*
X0317438Y0244256D01*
X0317438Y0240611D01*
X0318938Y0239111D01*
X0318938Y0228701D01*
X0318845Y0228663D01*
X0317607Y0227425D01*
X0317569Y0227333D01*
X0315106Y0227333D01*
X0315068Y0227425D01*
X0313830Y0228663D01*
X0312213Y0229333D01*
X0310462Y0229333D01*
X0308845Y0228663D01*
X0307607Y0227425D01*
X0306938Y0225808D01*
X0306938Y0224058D01*
X0307607Y0222441D01*
X0308845Y0221203D01*
X0310462Y0220533D01*
X0312213Y0220533D01*
X0313830Y0221203D01*
X0315068Y0222441D01*
X0315106Y0222533D01*
X0317569Y0222533D01*
X0317607Y0222441D01*
X0318845Y0221203D01*
X0320462Y0220533D01*
X0322213Y0220533D01*
X0323830Y0221203D01*
X0325068Y0222441D01*
X0325738Y0224058D01*
X0325738Y0225808D01*
X0325068Y0227425D01*
X0323830Y0228663D01*
X0323738Y0228701D01*
X0323738Y0238111D01*
X0324426Y0238799D02*
X0338966Y0238799D01*
X0337368Y0240398D02*
X0326025Y0240398D01*
X0326238Y0241996D02*
X0337238Y0241996D01*
X0337238Y0243595D02*
X0326238Y0243595D01*
X0325300Y0245193D02*
X0338092Y0245193D01*
X0339691Y0246792D02*
X0323701Y0246792D01*
X0319974Y0246792D02*
X0303484Y0246792D01*
X0303243Y0247033D02*
X0301338Y0247033D01*
X0301338Y0242433D01*
X0301338Y0242433D01*
X0305938Y0242433D01*
X0305938Y0240528D01*
X0303243Y0237833D01*
X0301338Y0237833D01*
X0301338Y0242433D01*
X0305938Y0242433D01*
X0305938Y0244338D01*
X0303243Y0247033D01*
X0301337Y0247033D02*
X0301337Y0242433D01*
X0296738Y0242433D01*
X0296738Y0240528D01*
X0299432Y0237833D01*
X0301337Y0237833D01*
X0301337Y0242433D01*
X0301337Y0242433D01*
X0296738Y0242433D01*
X0296738Y0244338D01*
X0299432Y0247033D01*
X0301337Y0247033D01*
X0301337Y0246792D02*
X0301338Y0246792D01*
X0301337Y0245193D02*
X0301338Y0245193D01*
X0301337Y0243595D02*
X0301338Y0243595D01*
X0301338Y0242433D02*
X0301337Y0242433D01*
X0301338Y0242433D01*
X0301337Y0241996D02*
X0301338Y0241996D01*
X0301337Y0240398D02*
X0301338Y0240398D01*
X0301337Y0238799D02*
X0301338Y0238799D01*
X0304209Y0238799D02*
X0318938Y0238799D01*
X0318938Y0237201D02*
X0243499Y0237201D01*
X0245098Y0238799D02*
X0258749Y0238799D01*
X0259515Y0238033D02*
X0263160Y0238033D01*
X0265160Y0240033D01*
X0277515Y0240033D01*
X0279515Y0238033D01*
X0283160Y0238033D01*
X0285738Y0240611D01*
X0285738Y0244256D01*
X0283160Y0246833D01*
X0279515Y0246833D01*
X0277515Y0244833D01*
X0265160Y0244833D01*
X0263160Y0246833D01*
X0259515Y0246833D01*
X0257515Y0244833D01*
X0244860Y0244833D01*
X0243978Y0244468D01*
X0243303Y0243793D01*
X0229303Y0229793D01*
X0228938Y0228910D01*
X0228938Y0228701D01*
X0228845Y0228663D01*
X0227607Y0227425D01*
X0226938Y0225808D01*
X0226938Y0224058D01*
X0227607Y0222441D01*
X0228845Y0221203D01*
X0230462Y0220533D01*
X0232213Y0220533D01*
X0233830Y0221203D01*
X0235068Y0222441D01*
X0235737Y0224058D01*
X0235737Y0225808D01*
X0235068Y0227425D01*
X0234396Y0228097D01*
X0246332Y0240033D01*
X0257515Y0240033D01*
X0259515Y0238033D01*
X0263926Y0238799D02*
X0278749Y0238799D01*
X0281338Y0242433D02*
X0261338Y0242433D01*
X0245338Y0242433D01*
X0231338Y0228433D01*
X0231338Y0224933D01*
X0235222Y0222814D02*
X0237453Y0222814D01*
X0237607Y0222441D02*
X0238845Y0221203D01*
X0240462Y0220533D01*
X0242213Y0220533D01*
X0243830Y0221203D01*
X0245068Y0222441D01*
X0245737Y0224058D01*
X0245737Y0225808D01*
X0245068Y0227425D01*
X0243830Y0228663D01*
X0242213Y0229333D01*
X0240462Y0229333D01*
X0238845Y0228663D01*
X0237607Y0227425D01*
X0236938Y0225808D01*
X0236938Y0224058D01*
X0237607Y0222441D01*
X0238833Y0221215D02*
X0233842Y0221215D01*
X0235737Y0224412D02*
X0236938Y0224412D01*
X0237021Y0226011D02*
X0235654Y0226011D01*
X0234884Y0227610D02*
X0237791Y0227610D01*
X0235507Y0229208D02*
X0240160Y0229208D01*
X0242515Y0229208D02*
X0261890Y0229208D01*
X0262015Y0229333D02*
X0259438Y0226756D01*
X0259438Y0223111D01*
X0262015Y0220533D01*
X0265660Y0220533D01*
X0268238Y0223111D01*
X0268238Y0226756D01*
X0265660Y0229333D01*
X0262015Y0229333D01*
X0260291Y0227610D02*
X0244884Y0227610D01*
X0245654Y0226011D02*
X0259438Y0226011D01*
X0259438Y0224412D02*
X0245737Y0224412D01*
X0245222Y0222814D02*
X0259734Y0222814D01*
X0261333Y0221215D02*
X0243842Y0221215D01*
X0251074Y0218018D02*
X0358029Y0218018D01*
X0359627Y0219617D02*
X0223737Y0219617D01*
X0223842Y0221215D02*
X0228833Y0221215D01*
X0227453Y0222814D02*
X0225222Y0222814D01*
X0225737Y0224412D02*
X0226938Y0224412D01*
X0227021Y0226011D02*
X0225654Y0226011D01*
X0224884Y0227610D02*
X0227791Y0227610D01*
X0229061Y0229208D02*
X0223737Y0229208D01*
X0223737Y0230807D02*
X0230317Y0230807D01*
X0231915Y0232405D02*
X0223737Y0232405D01*
X0223737Y0234004D02*
X0233514Y0234004D01*
X0235112Y0235602D02*
X0223737Y0235602D01*
X0223737Y0237201D02*
X0236711Y0237201D01*
X0238309Y0238799D02*
X0233926Y0238799D01*
X0235525Y0240398D02*
X0239908Y0240398D01*
X0241506Y0241996D02*
X0235737Y0241996D01*
X0235737Y0243595D02*
X0243105Y0243595D01*
X0241901Y0235602D02*
X0318938Y0235602D01*
X0318938Y0234004D02*
X0240302Y0234004D01*
X0238704Y0232405D02*
X0318938Y0232405D01*
X0318938Y0230807D02*
X0237105Y0230807D01*
X0228749Y0238799D02*
X0224498Y0238799D01*
X0221338Y0239033D02*
X0224838Y0242533D01*
X0231238Y0242533D01*
X0231338Y0242433D01*
X0234800Y0245193D02*
X0257875Y0245193D01*
X0259474Y0246792D02*
X0233201Y0246792D01*
X0221338Y0239033D02*
X0221338Y0224933D01*
X0221338Y0218433D01*
X0223838Y0215933D01*
X0249838Y0215933D01*
X0251838Y0213933D01*
X0251838Y0121933D01*
X0244838Y0114933D01*
X0243601Y0114933D01*
X0249040Y0115714D02*
X0253399Y0115714D01*
X0253399Y0114115D02*
X0249040Y0114115D01*
X0249040Y0112517D02*
X0253399Y0112517D01*
X0253399Y0110918D02*
X0249040Y0110918D01*
X0250611Y0117312D02*
X0253064Y0117312D01*
X0251838Y0121933D02*
X0258838Y0114933D01*
X0266838Y0106933D01*
X0299838Y0106933D01*
X0295923Y0112333D02*
X0303753Y0112333D01*
X0305443Y0113033D01*
X0306737Y0114327D01*
X0307438Y0116018D01*
X0307438Y0117848D01*
X0306737Y0119539D01*
X0305443Y0120833D01*
X0304738Y0121125D01*
X0304738Y0123910D01*
X0304372Y0124793D01*
X0303697Y0125468D01*
X0301738Y0127427D01*
X0301738Y0143111D01*
X0303738Y0145111D01*
X0303738Y0148756D01*
X0301160Y0151333D01*
X0297515Y0151333D01*
X0294938Y0148756D01*
X0294938Y0145111D01*
X0296938Y0143111D01*
X0296938Y0125956D01*
X0297303Y0125074D01*
X0299938Y0122439D01*
X0299938Y0121533D01*
X0295923Y0121533D01*
X0294232Y0120833D01*
X0292938Y0119539D01*
X0292853Y0119333D01*
X0279512Y0119333D01*
X0279512Y0119434D01*
X0278575Y0120372D01*
X0269572Y0120372D01*
X0268635Y0119434D01*
X0268635Y0110432D01*
X0269572Y0109494D01*
X0278575Y0109494D01*
X0279512Y0110432D01*
X0279512Y0114533D01*
X0292853Y0114533D01*
X0292938Y0114327D01*
X0294232Y0113033D01*
X0295923Y0112333D01*
X0295479Y0112517D02*
X0279512Y0112517D01*
X0279512Y0114115D02*
X0293150Y0114115D01*
X0294438Y0110918D02*
X0279512Y0110918D01*
X0274074Y0114933D02*
X0276074Y0116933D01*
X0299838Y0116933D01*
X0302338Y0119433D01*
X0302338Y0123433D01*
X0299338Y0126433D01*
X0299338Y0146933D01*
X0303738Y0147684D02*
X0310917Y0147684D01*
X0312023Y0146579D02*
X0315372Y0145191D01*
X0318996Y0145191D01*
X0322345Y0146579D01*
X0324909Y0149142D01*
X0326296Y0152491D01*
X0326296Y0156116D01*
X0324909Y0159465D01*
X0322345Y0162028D01*
X0318996Y0163415D01*
X0315372Y0163415D01*
X0312023Y0162028D01*
X0309459Y0159465D01*
X0308072Y0156116D01*
X0308072Y0152491D01*
X0309459Y0149142D01*
X0312023Y0146579D01*
X0313213Y0146085D02*
X0303738Y0146085D01*
X0303114Y0144487D02*
X0455738Y0144487D01*
X0455738Y0146085D02*
X0444462Y0146085D01*
X0445652Y0146579D02*
X0448216Y0149142D01*
X0449603Y0152491D01*
X0449603Y0156116D01*
X0448216Y0159465D01*
X0445652Y0162028D01*
X0442304Y0163415D01*
X0438679Y0163415D01*
X0435330Y0162028D01*
X0432766Y0159465D01*
X0431379Y0156116D01*
X0431379Y0152491D01*
X0432766Y0149142D01*
X0435330Y0146579D01*
X0438679Y0145191D01*
X0442304Y0145191D01*
X0445652Y0146579D01*
X0446758Y0147684D02*
X0455738Y0147684D01*
X0455738Y0149282D02*
X0448274Y0149282D01*
X0448936Y0150881D02*
X0455738Y0150881D01*
X0455738Y0152479D02*
X0449598Y0152479D01*
X0449603Y0154078D02*
X0455738Y0154078D01*
X0455738Y0155677D02*
X0449603Y0155677D01*
X0449123Y0157275D02*
X0455738Y0157275D01*
X0455738Y0158874D02*
X0448460Y0158874D01*
X0447208Y0160472D02*
X0455738Y0160472D01*
X0455738Y0162071D02*
X0445549Y0162071D01*
X0435433Y0162071D02*
X0402242Y0162071D01*
X0402345Y0162028D02*
X0398996Y0163415D01*
X0395372Y0163415D01*
X0392023Y0162028D01*
X0389459Y0159465D01*
X0388072Y0156116D01*
X0388072Y0152491D01*
X0389459Y0149142D01*
X0392023Y0146579D01*
X0395372Y0145191D01*
X0398996Y0145191D01*
X0402345Y0146579D01*
X0404909Y0149142D01*
X0406296Y0152491D01*
X0406296Y0156116D01*
X0404909Y0159465D01*
X0402345Y0162028D01*
X0403901Y0160472D02*
X0433774Y0160472D01*
X0432522Y0158874D02*
X0405153Y0158874D01*
X0405816Y0157275D02*
X0431859Y0157275D01*
X0431379Y0155677D02*
X0406296Y0155677D01*
X0406296Y0154078D02*
X0431379Y0154078D01*
X0431384Y0152479D02*
X0406291Y0152479D01*
X0405629Y0150881D02*
X0432046Y0150881D01*
X0432708Y0149282D02*
X0404967Y0149282D01*
X0403451Y0147684D02*
X0434224Y0147684D01*
X0436520Y0146085D02*
X0401155Y0146085D01*
X0393213Y0146085D02*
X0364462Y0146085D01*
X0365652Y0146579D02*
X0368216Y0149142D01*
X0369603Y0152491D01*
X0369603Y0156116D01*
X0368216Y0159465D01*
X0365652Y0162028D01*
X0362304Y0163415D01*
X0358679Y0163415D01*
X0355330Y0162028D01*
X0352766Y0159465D01*
X0351379Y0156116D01*
X0351379Y0152491D01*
X0352766Y0149142D01*
X0355330Y0146579D01*
X0358679Y0145191D01*
X0362304Y0145191D01*
X0365652Y0146579D01*
X0366758Y0147684D02*
X0390917Y0147684D01*
X0389401Y0149282D02*
X0368274Y0149282D01*
X0368936Y0150881D02*
X0388739Y0150881D01*
X0388077Y0152479D02*
X0369598Y0152479D01*
X0369603Y0154078D02*
X0375470Y0154078D01*
X0374200Y0155677D02*
X0369603Y0155677D01*
X0369123Y0157275D02*
X0372601Y0157275D01*
X0371003Y0158874D02*
X0368460Y0158874D01*
X0369404Y0160472D02*
X0367208Y0160472D01*
X0367806Y0162071D02*
X0365549Y0162071D01*
X0366207Y0163669D02*
X0254237Y0163669D01*
X0254237Y0162071D02*
X0275433Y0162071D01*
X0275330Y0162028D02*
X0272766Y0159465D01*
X0271379Y0156116D01*
X0271379Y0152491D01*
X0272766Y0149142D01*
X0275330Y0146579D01*
X0278679Y0145191D01*
X0282304Y0145191D01*
X0285652Y0146579D01*
X0288216Y0149142D01*
X0289603Y0152491D01*
X0289603Y0156116D01*
X0288216Y0159465D01*
X0285652Y0162028D01*
X0282304Y0163415D01*
X0278679Y0163415D01*
X0275330Y0162028D01*
X0273774Y0160472D02*
X0254237Y0160472D01*
X0254237Y0158874D02*
X0272522Y0158874D01*
X0271859Y0157275D02*
X0254237Y0157275D01*
X0254237Y0155677D02*
X0271379Y0155677D01*
X0271379Y0154078D02*
X0254237Y0154078D01*
X0254237Y0152479D02*
X0271384Y0152479D01*
X0272046Y0150881D02*
X0254237Y0150881D01*
X0254237Y0149282D02*
X0272708Y0149282D01*
X0274224Y0147684D02*
X0254237Y0147684D01*
X0254237Y0146085D02*
X0276520Y0146085D01*
X0284462Y0146085D02*
X0294938Y0146085D01*
X0294938Y0147684D02*
X0286758Y0147684D01*
X0288274Y0149282D02*
X0295464Y0149282D01*
X0297063Y0150881D02*
X0288936Y0150881D01*
X0289598Y0152479D02*
X0308077Y0152479D01*
X0308072Y0154078D02*
X0289603Y0154078D01*
X0289603Y0155677D02*
X0308072Y0155677D01*
X0308552Y0157275D02*
X0289123Y0157275D01*
X0288460Y0158874D02*
X0309215Y0158874D01*
X0310467Y0160472D02*
X0287208Y0160472D01*
X0285549Y0162071D02*
X0312126Y0162071D01*
X0322242Y0162071D02*
X0355433Y0162071D01*
X0353774Y0160472D02*
X0323901Y0160472D01*
X0325153Y0158874D02*
X0352522Y0158874D01*
X0351859Y0157275D02*
X0325816Y0157275D01*
X0326296Y0155677D02*
X0351379Y0155677D01*
X0351379Y0154078D02*
X0326296Y0154078D01*
X0326291Y0152479D02*
X0351384Y0152479D01*
X0352046Y0150881D02*
X0325629Y0150881D01*
X0324967Y0149282D02*
X0352708Y0149282D01*
X0354224Y0147684D02*
X0323451Y0147684D01*
X0321155Y0146085D02*
X0356520Y0146085D01*
X0365015Y0165268D02*
X0254237Y0165268D01*
X0254237Y0166866D02*
X0364938Y0166866D01*
X0364938Y0168465D02*
X0254237Y0168465D01*
X0254237Y0170063D02*
X0364938Y0170063D01*
X0363715Y0171662D02*
X0254237Y0171662D01*
X0254237Y0173260D02*
X0296788Y0173260D01*
X0295189Y0174859D02*
X0254237Y0174859D01*
X0254237Y0176457D02*
X0294938Y0176457D01*
X0294938Y0178056D02*
X0254237Y0178056D01*
X0254237Y0179654D02*
X0295836Y0179654D01*
X0297435Y0181253D02*
X0254237Y0181253D01*
X0254237Y0182851D02*
X0328938Y0182851D01*
X0328938Y0184450D02*
X0254237Y0184450D01*
X0254237Y0186048D02*
X0328938Y0186048D01*
X0328938Y0187647D02*
X0254237Y0187647D01*
X0254237Y0189245D02*
X0328938Y0189245D01*
X0328938Y0190844D02*
X0322963Y0190844D01*
X0325068Y0192442D02*
X0327607Y0192442D01*
X0326945Y0194041D02*
X0325730Y0194041D01*
X0325738Y0195639D02*
X0326938Y0195639D01*
X0327530Y0197238D02*
X0325145Y0197238D01*
X0323738Y0198836D02*
X0329263Y0198836D01*
X0333412Y0198836D02*
X0371438Y0198836D01*
X0371438Y0197238D02*
X0335145Y0197238D01*
X0335738Y0195639D02*
X0371038Y0195639D01*
X0369732Y0194041D02*
X0335730Y0194041D01*
X0335068Y0192442D02*
X0369238Y0192442D01*
X0369238Y0190844D02*
X0333738Y0190844D01*
X0333738Y0189245D02*
X0369238Y0189245D01*
X0369157Y0187647D02*
X0333738Y0187647D01*
X0333738Y0186048D02*
X0367559Y0186048D01*
X0365960Y0184450D02*
X0333738Y0184450D01*
X0333738Y0182851D02*
X0364362Y0182851D01*
X0362763Y0181253D02*
X0334912Y0181253D01*
X0336511Y0179654D02*
X0361165Y0179654D01*
X0361838Y0176933D02*
X0335838Y0176933D01*
X0331338Y0181433D01*
X0331338Y0194933D01*
X0323738Y0200435D02*
X0371438Y0200435D01*
X0371438Y0202033D02*
X0323738Y0202033D01*
X0323738Y0203632D02*
X0371438Y0203632D01*
X0371438Y0205230D02*
X0323738Y0205230D01*
X0323738Y0206829D02*
X0371438Y0206829D01*
X0371438Y0208427D02*
X0368549Y0208427D01*
X0370148Y0210026D02*
X0371438Y0210026D01*
X0371438Y0211624D02*
X0370587Y0211624D01*
X0370587Y0213223D02*
X0371438Y0213223D01*
X0373838Y0213433D02*
X0384160Y0223756D01*
X0409042Y0223756D01*
X0409042Y0236638D01*
X0412338Y0239933D01*
X0419338Y0239933D01*
X0423171Y0243595D02*
X0424703Y0243595D01*
X0426102Y0245193D02*
X0420488Y0245193D01*
X0418187Y0245193D02*
X0345583Y0245193D01*
X0346437Y0243595D02*
X0415504Y0243595D01*
X0411047Y0241996D02*
X0346437Y0241996D01*
X0346307Y0240398D02*
X0409408Y0240398D01*
X0407809Y0238799D02*
X0391689Y0238799D01*
X0393287Y0237201D02*
X0406678Y0237201D01*
X0406642Y0235602D02*
X0393587Y0235602D01*
X0393587Y0234004D02*
X0406642Y0234004D01*
X0406642Y0232405D02*
X0393027Y0232405D01*
X0391428Y0230807D02*
X0402807Y0230807D01*
X0401930Y0229208D02*
X0386507Y0229208D01*
X0384908Y0227610D02*
X0401930Y0227610D01*
X0406865Y0223933D02*
X0409042Y0223756D01*
X0416154Y0224412D02*
X0428464Y0224412D01*
X0427122Y0226011D02*
X0416154Y0226011D01*
X0416154Y0227610D02*
X0426938Y0227610D01*
X0426938Y0229208D02*
X0416154Y0229208D01*
X0415278Y0230807D02*
X0426938Y0230807D01*
X0426938Y0232405D02*
X0411442Y0232405D01*
X0411442Y0234004D02*
X0426938Y0234004D01*
X0426938Y0235602D02*
X0422502Y0235602D01*
X0423942Y0237201D02*
X0425575Y0237201D01*
X0429338Y0240933D02*
X0429338Y0226933D01*
X0432515Y0223756D01*
X0446050Y0223756D01*
X0451981Y0224412D02*
X0455738Y0224412D01*
X0455738Y0222814D02*
X0451981Y0222814D01*
X0451981Y0221215D02*
X0455738Y0221215D01*
X0455738Y0219617D02*
X0451981Y0219617D01*
X0451981Y0218018D02*
X0455738Y0218018D01*
X0455738Y0216420D02*
X0380218Y0216420D01*
X0378620Y0214821D02*
X0455738Y0214821D01*
X0455738Y0213223D02*
X0377021Y0213223D01*
X0376237Y0211624D02*
X0455738Y0211624D01*
X0455738Y0210026D02*
X0445126Y0210026D01*
X0444523Y0210629D02*
X0442704Y0211383D01*
X0440735Y0211383D01*
X0438916Y0210629D01*
X0437523Y0209237D01*
X0436770Y0207418D01*
X0436770Y0205449D01*
X0437523Y0203629D01*
X0438916Y0202237D01*
X0440735Y0201483D01*
X0442704Y0201483D01*
X0444523Y0202237D01*
X0445915Y0203629D01*
X0446669Y0205449D01*
X0446669Y0207418D01*
X0445915Y0209237D01*
X0444523Y0210629D01*
X0446251Y0208427D02*
X0455738Y0208427D01*
X0455738Y0206829D02*
X0446669Y0206829D01*
X0446579Y0205230D02*
X0455738Y0205230D01*
X0455738Y0203632D02*
X0445916Y0203632D01*
X0444031Y0202033D02*
X0455738Y0202033D01*
X0455738Y0200435D02*
X0400012Y0200435D01*
X0400012Y0202033D02*
X0411848Y0202033D01*
X0411357Y0202237D02*
X0413176Y0201483D01*
X0415145Y0201483D01*
X0416964Y0202237D01*
X0418356Y0203629D01*
X0419110Y0205449D01*
X0419110Y0207418D01*
X0418356Y0209237D01*
X0416964Y0210629D01*
X0415145Y0211383D01*
X0413176Y0211383D01*
X0411357Y0210629D01*
X0409964Y0209237D01*
X0409211Y0207418D01*
X0409211Y0205449D01*
X0409964Y0203629D01*
X0411357Y0202237D01*
X0409963Y0203632D02*
X0400012Y0203632D01*
X0400012Y0205230D02*
X0409301Y0205230D01*
X0409211Y0206829D02*
X0400012Y0206829D01*
X0400012Y0208427D02*
X0409629Y0208427D01*
X0410753Y0210026D02*
X0400012Y0210026D01*
X0400012Y0210639D02*
X0399075Y0211576D01*
X0386726Y0211576D01*
X0385789Y0210639D01*
X0385789Y0198290D01*
X0386726Y0197353D01*
X0399075Y0197353D01*
X0400012Y0198290D01*
X0400012Y0210639D01*
X0401930Y0218018D02*
X0381817Y0218018D01*
X0383415Y0219617D02*
X0401930Y0219617D01*
X0401930Y0221215D02*
X0385014Y0221215D01*
X0383333Y0226011D02*
X0383310Y0226011D01*
X0383587Y0234004D02*
X0384088Y0234004D01*
X0384088Y0235602D02*
X0383587Y0235602D01*
X0383040Y0237201D02*
X0384388Y0237201D01*
X0385986Y0238799D02*
X0381689Y0238799D01*
X0378838Y0234933D02*
X0378338Y0234933D01*
X0355838Y0212433D01*
X0355338Y0211933D01*
X0325338Y0211933D01*
X0321338Y0207933D01*
X0321338Y0194933D01*
X0319712Y0190844D02*
X0312963Y0190844D01*
X0312213Y0190533D02*
X0313830Y0191203D01*
X0315068Y0192441D01*
X0315738Y0194058D01*
X0315738Y0195808D01*
X0315068Y0197425D01*
X0313830Y0198663D01*
X0312213Y0199333D01*
X0310462Y0199333D01*
X0308845Y0198663D01*
X0307607Y0197425D01*
X0306938Y0195808D01*
X0306938Y0194058D01*
X0307607Y0192441D01*
X0308845Y0191203D01*
X0310462Y0190533D01*
X0312213Y0190533D01*
X0309712Y0190844D02*
X0303444Y0190844D01*
X0303748Y0190999D02*
X0303103Y0190670D01*
X0302415Y0190446D01*
X0301700Y0190333D01*
X0301338Y0190333D01*
X0301338Y0194933D01*
X0301338Y0194933D01*
X0305938Y0194933D01*
X0305938Y0194571D01*
X0305824Y0193856D01*
X0305600Y0193167D01*
X0305272Y0192522D01*
X0304846Y0191936D01*
X0304334Y0191424D01*
X0303748Y0190999D01*
X0305214Y0192442D02*
X0307607Y0192442D01*
X0306945Y0194041D02*
X0305854Y0194041D01*
X0305938Y0194933D02*
X0305938Y0195295D01*
X0305824Y0196010D01*
X0305600Y0196699D01*
X0305272Y0197344D01*
X0304846Y0197930D01*
X0304334Y0198442D01*
X0303748Y0198867D01*
X0303103Y0199196D01*
X0302415Y0199420D01*
X0301700Y0199533D01*
X0301338Y0199533D01*
X0301338Y0194933D01*
X0305938Y0194933D01*
X0305883Y0195639D02*
X0306938Y0195639D01*
X0307530Y0197238D02*
X0305326Y0197238D01*
X0303791Y0198836D02*
X0309263Y0198836D01*
X0313412Y0198836D02*
X0318938Y0198836D01*
X0318938Y0200435D02*
X0265845Y0200435D01*
X0265743Y0200333D02*
X0268438Y0203028D01*
X0268438Y0204933D01*
X0263838Y0204933D01*
X0263838Y0204933D01*
X0268438Y0204933D01*
X0268438Y0206838D01*
X0265743Y0209533D01*
X0263838Y0209533D01*
X0263838Y0204933D01*
X0263838Y0200333D01*
X0265743Y0200333D01*
X0263837Y0200333D02*
X0263837Y0204933D01*
X0259238Y0204933D01*
X0259238Y0203028D01*
X0261932Y0200333D01*
X0263837Y0200333D01*
X0263837Y0200435D02*
X0263838Y0200435D01*
X0263837Y0202033D02*
X0263838Y0202033D01*
X0263837Y0203632D02*
X0263838Y0203632D01*
X0263837Y0204933D02*
X0263838Y0204933D01*
X0263837Y0204933D01*
X0263837Y0204933D01*
X0259238Y0204933D01*
X0259238Y0206838D01*
X0261932Y0209533D01*
X0263837Y0209533D01*
X0263837Y0204933D01*
X0263837Y0205230D02*
X0263838Y0205230D01*
X0263837Y0206829D02*
X0263838Y0206829D01*
X0263837Y0208427D02*
X0263838Y0208427D01*
X0266849Y0208427D02*
X0318945Y0208427D01*
X0318938Y0206829D02*
X0268438Y0206829D01*
X0268438Y0205230D02*
X0318938Y0205230D01*
X0318938Y0203632D02*
X0268438Y0203632D01*
X0267443Y0202033D02*
X0318938Y0202033D01*
X0317530Y0197238D02*
X0315145Y0197238D01*
X0315738Y0195639D02*
X0316938Y0195639D01*
X0316945Y0194041D02*
X0315730Y0194041D01*
X0315068Y0192442D02*
X0317607Y0192442D01*
X0327763Y0181253D02*
X0301240Y0181253D01*
X0302839Y0179654D02*
X0326165Y0179654D01*
X0326838Y0176933D02*
X0331338Y0181433D01*
X0329756Y0176457D02*
X0332919Y0176457D01*
X0334574Y0174859D02*
X0328101Y0174859D01*
X0326838Y0176933D02*
X0299338Y0176933D01*
X0301887Y0173260D02*
X0362116Y0173260D01*
X0361838Y0176933D02*
X0367338Y0171433D01*
X0367338Y0165933D01*
X0376338Y0156933D01*
X0378838Y0156933D01*
X0383237Y0157275D02*
X0388552Y0157275D01*
X0388072Y0155677D02*
X0383237Y0155677D01*
X0382205Y0154078D02*
X0388072Y0154078D01*
X0389215Y0158874D02*
X0383120Y0158874D01*
X0381521Y0160472D02*
X0390467Y0160472D01*
X0392126Y0162071D02*
X0381020Y0162071D01*
X0380449Y0161834D02*
X0383425Y0163067D01*
X0385704Y0165345D01*
X0386937Y0168322D01*
X0386937Y0171544D01*
X0385704Y0174521D01*
X0383425Y0176799D01*
X0380449Y0178032D01*
X0377226Y0178032D01*
X0374250Y0176799D01*
X0371971Y0174521D01*
X0370738Y0171544D01*
X0370738Y0168322D01*
X0371971Y0165345D01*
X0374250Y0163067D01*
X0377226Y0161834D01*
X0380449Y0161834D01*
X0376655Y0162071D02*
X0374594Y0162071D01*
X0373648Y0163669D02*
X0372996Y0163669D01*
X0372049Y0165268D02*
X0371397Y0165268D01*
X0371341Y0166866D02*
X0369799Y0166866D01*
X0369737Y0168465D02*
X0370738Y0168465D01*
X0370738Y0170063D02*
X0369737Y0170063D01*
X0369737Y0171662D02*
X0370787Y0171662D01*
X0371449Y0173260D02*
X0368905Y0173260D01*
X0368697Y0173468D02*
X0368697Y0173468D01*
X0367306Y0174859D02*
X0372309Y0174859D01*
X0373908Y0176457D02*
X0365708Y0176457D01*
X0366354Y0178056D02*
X0455738Y0178056D01*
X0455738Y0179654D02*
X0367953Y0179654D01*
X0369551Y0181253D02*
X0455738Y0181253D01*
X0455738Y0182851D02*
X0443629Y0182851D01*
X0443713Y0182936D02*
X0443713Y0195285D01*
X0442776Y0196222D01*
X0433576Y0196222D01*
X0432639Y0195285D01*
X0432639Y0191333D01*
X0388437Y0191333D01*
X0388437Y0192848D01*
X0387737Y0194539D01*
X0386443Y0195833D01*
X0384753Y0196533D01*
X0382923Y0196533D01*
X0381232Y0195833D01*
X0379938Y0194539D01*
X0379238Y0192848D01*
X0379238Y0185018D01*
X0379938Y0183327D01*
X0381232Y0182033D01*
X0382923Y0181333D01*
X0384753Y0181333D01*
X0386443Y0182033D01*
X0387737Y0183327D01*
X0388437Y0185018D01*
X0388437Y0186533D01*
X0432639Y0186533D01*
X0432639Y0182936D01*
X0433576Y0181998D01*
X0442776Y0181998D01*
X0443713Y0182936D01*
X0443713Y0184450D02*
X0455738Y0184450D01*
X0455738Y0186048D02*
X0443713Y0186048D01*
X0443713Y0187647D02*
X0455738Y0187647D01*
X0455738Y0189245D02*
X0443713Y0189245D01*
X0443713Y0190844D02*
X0455738Y0190844D01*
X0455738Y0192442D02*
X0443713Y0192442D01*
X0443713Y0194041D02*
X0455738Y0194041D01*
X0455738Y0195639D02*
X0443359Y0195639D01*
X0438176Y0189110D02*
X0435999Y0188933D01*
X0383838Y0188933D01*
X0379238Y0189245D02*
X0378437Y0189245D01*
X0378437Y0187647D02*
X0379238Y0187647D01*
X0379238Y0186048D02*
X0378437Y0186048D01*
X0378202Y0184450D02*
X0379473Y0184450D01*
X0380414Y0182851D02*
X0377261Y0182851D01*
X0373838Y0188933D02*
X0361838Y0176933D01*
X0373838Y0188933D02*
X0373838Y0213433D01*
X0376237Y0210026D02*
X0385789Y0210026D01*
X0385789Y0208427D02*
X0376237Y0208427D01*
X0376237Y0206829D02*
X0385789Y0206829D01*
X0385789Y0205230D02*
X0376237Y0205230D01*
X0376237Y0203632D02*
X0385789Y0203632D01*
X0385789Y0202033D02*
X0376237Y0202033D01*
X0376237Y0200435D02*
X0385789Y0200435D01*
X0385789Y0198836D02*
X0376237Y0198836D01*
X0376237Y0197238D02*
X0455738Y0197238D01*
X0455738Y0198836D02*
X0400012Y0198836D01*
X0387943Y0194041D02*
X0432639Y0194041D01*
X0432639Y0192442D02*
X0388437Y0192442D01*
X0386637Y0195639D02*
X0432994Y0195639D01*
X0432639Y0186048D02*
X0388437Y0186048D01*
X0388202Y0184450D02*
X0432639Y0184450D01*
X0432724Y0182851D02*
X0387261Y0182851D01*
X0383767Y0176457D02*
X0455738Y0176457D01*
X0455738Y0174859D02*
X0385366Y0174859D01*
X0386226Y0173260D02*
X0455738Y0173260D01*
X0455738Y0171662D02*
X0386888Y0171662D01*
X0386937Y0170063D02*
X0455738Y0170063D01*
X0455738Y0168465D02*
X0386937Y0168465D01*
X0386334Y0166866D02*
X0455738Y0166866D01*
X0455738Y0165268D02*
X0385626Y0165268D01*
X0384028Y0163669D02*
X0455738Y0163669D01*
X0455738Y0142888D02*
X0301738Y0142888D01*
X0301738Y0141290D02*
X0455738Y0141290D01*
X0455738Y0139691D02*
X0301738Y0139691D01*
X0301738Y0138093D02*
X0455738Y0138093D01*
X0455738Y0136494D02*
X0301738Y0136494D01*
X0301738Y0134896D02*
X0455738Y0134896D01*
X0455738Y0133297D02*
X0301738Y0133297D01*
X0301738Y0131699D02*
X0455738Y0131699D01*
X0455738Y0130100D02*
X0381893Y0130100D01*
X0380660Y0131333D02*
X0383237Y0128756D01*
X0383237Y0125111D01*
X0382396Y0124269D01*
X0383197Y0123468D01*
X0383872Y0122793D01*
X0384237Y0121910D01*
X0384237Y0121332D01*
X0385443Y0120833D01*
X0386737Y0119539D01*
X0387437Y0117848D01*
X0387437Y0116018D01*
X0386737Y0114327D01*
X0385443Y0113033D01*
X0383753Y0112333D01*
X0375923Y0112333D01*
X0374232Y0113033D01*
X0372938Y0114327D01*
X0372853Y0114533D01*
X0359512Y0114533D01*
X0359512Y0110432D01*
X0358575Y0109494D01*
X0349572Y0109494D01*
X0348635Y0110432D01*
X0348635Y0119434D01*
X0349572Y0120372D01*
X0358575Y0120372D01*
X0359512Y0119434D01*
X0359512Y0119333D01*
X0372853Y0119333D01*
X0372938Y0119539D01*
X0374232Y0120833D01*
X0375923Y0121533D01*
X0378343Y0121533D01*
X0377343Y0122533D01*
X0377015Y0122533D01*
X0374438Y0125111D01*
X0374438Y0128756D01*
X0377015Y0131333D01*
X0380660Y0131333D01*
X0383237Y0128502D02*
X0455738Y0128502D01*
X0455738Y0126903D02*
X0383237Y0126903D01*
X0383237Y0125305D02*
X0455738Y0125305D01*
X0455738Y0123706D02*
X0382958Y0123706D01*
X0384156Y0122108D02*
X0455738Y0122108D01*
X0455738Y0120509D02*
X0385767Y0120509D01*
X0386997Y0118911D02*
X0398163Y0118911D01*
X0398163Y0119434D02*
X0398163Y0110432D01*
X0399100Y0109494D01*
X0408103Y0109494D01*
X0409040Y0110432D01*
X0409040Y0112533D01*
X0413399Y0112533D01*
X0413399Y0110432D01*
X0414336Y0109494D01*
X0423339Y0109494D01*
X0424276Y0110432D01*
X0424276Y0119434D01*
X0423339Y0120372D01*
X0414336Y0120372D01*
X0413399Y0119434D01*
X0413399Y0117333D01*
X0409040Y0117333D01*
X0409040Y0119434D01*
X0408103Y0120372D01*
X0399100Y0120372D01*
X0398163Y0119434D01*
X0398163Y0117312D02*
X0387437Y0117312D01*
X0387311Y0115714D02*
X0398163Y0115714D01*
X0398163Y0114115D02*
X0386525Y0114115D01*
X0384196Y0112517D02*
X0398163Y0112517D01*
X0398163Y0110918D02*
X0385237Y0110918D01*
X0385443Y0110833D02*
X0383753Y0111533D01*
X0375923Y0111533D01*
X0374232Y0110833D01*
X0372938Y0109539D01*
X0372853Y0109333D01*
X0347832Y0109333D01*
X0344276Y0112889D01*
X0344276Y0119434D01*
X0343339Y0120372D01*
X0334336Y0120372D01*
X0333399Y0119434D01*
X0333399Y0117333D01*
X0329040Y0117333D01*
X0329040Y0119434D01*
X0328103Y0120372D01*
X0319100Y0120372D01*
X0318163Y0119434D01*
X0318163Y0110432D01*
X0319100Y0109494D01*
X0328103Y0109494D01*
X0329040Y0110432D01*
X0329040Y0112533D01*
X0333399Y0112533D01*
X0333399Y0110432D01*
X0334336Y0109494D01*
X0340882Y0109494D01*
X0344803Y0105574D01*
X0344803Y0105574D01*
X0345478Y0104898D01*
X0346360Y0104533D01*
X0372853Y0104533D01*
X0372938Y0104327D01*
X0374232Y0103033D01*
X0375923Y0102333D01*
X0383753Y0102333D01*
X0385443Y0103033D01*
X0386737Y0104327D01*
X0387437Y0106018D01*
X0387437Y0107848D01*
X0386737Y0109539D01*
X0385443Y0110833D01*
X0386828Y0109320D02*
X0455738Y0109320D01*
X0455738Y0110918D02*
X0439512Y0110918D01*
X0439512Y0110432D02*
X0439512Y0119434D01*
X0438575Y0120372D01*
X0429572Y0120372D01*
X0428635Y0119434D01*
X0428635Y0110432D01*
X0429572Y0109494D01*
X0438575Y0109494D01*
X0439512Y0110432D01*
X0439512Y0112517D02*
X0455738Y0112517D01*
X0455738Y0114115D02*
X0439512Y0114115D01*
X0439512Y0115714D02*
X0455738Y0115714D01*
X0455738Y0117312D02*
X0439512Y0117312D01*
X0439512Y0118911D02*
X0455738Y0118911D01*
X0455738Y0107721D02*
X0387437Y0107721D01*
X0387437Y0106123D02*
X0455738Y0106123D01*
X0455738Y0104524D02*
X0386819Y0104524D01*
X0385183Y0102926D02*
X0455738Y0102926D01*
X0455738Y0101327D02*
X0227754Y0101327D01*
X0229337Y0102926D02*
X0294492Y0102926D01*
X0292856Y0104524D02*
X0229337Y0104524D01*
X0229337Y0106123D02*
X0264254Y0106123D01*
X0266246Y0110918D02*
X0268635Y0110918D01*
X0268635Y0112517D02*
X0264648Y0112517D01*
X0264276Y0114115D02*
X0268635Y0114115D01*
X0268635Y0115714D02*
X0264276Y0115714D01*
X0264276Y0117312D02*
X0268635Y0117312D01*
X0268635Y0118911D02*
X0264276Y0118911D01*
X0256655Y0120509D02*
X0293908Y0120509D01*
X0298670Y0123706D02*
X0254237Y0123706D01*
X0254237Y0125305D02*
X0297207Y0125305D01*
X0296938Y0126903D02*
X0254237Y0126903D01*
X0254237Y0128502D02*
X0296938Y0128502D01*
X0296938Y0130100D02*
X0254237Y0130100D01*
X0254237Y0131699D02*
X0296938Y0131699D01*
X0296938Y0133297D02*
X0254237Y0133297D01*
X0254237Y0134896D02*
X0296938Y0134896D01*
X0296938Y0136494D02*
X0254237Y0136494D01*
X0254237Y0138093D02*
X0296938Y0138093D01*
X0296938Y0139691D02*
X0254237Y0139691D01*
X0254237Y0141290D02*
X0296938Y0141290D01*
X0296938Y0142888D02*
X0254237Y0142888D01*
X0254237Y0144487D02*
X0295561Y0144487D01*
X0301612Y0150881D02*
X0308739Y0150881D01*
X0309401Y0149282D02*
X0303211Y0149282D01*
X0301738Y0130100D02*
X0375782Y0130100D01*
X0374438Y0128502D02*
X0301738Y0128502D01*
X0302261Y0126903D02*
X0374438Y0126903D01*
X0374438Y0125305D02*
X0303860Y0125305D01*
X0304738Y0123706D02*
X0375842Y0123706D01*
X0377769Y0122108D02*
X0304738Y0122108D01*
X0305767Y0120509D02*
X0373908Y0120509D01*
X0378838Y0124433D02*
X0381838Y0121433D01*
X0381838Y0118933D01*
X0379838Y0116933D01*
X0356074Y0116933D01*
X0354074Y0114933D01*
X0348635Y0115714D02*
X0344276Y0115714D01*
X0344276Y0117312D02*
X0348635Y0117312D01*
X0348635Y0118911D02*
X0344276Y0118911D01*
X0344276Y0114115D02*
X0348635Y0114115D01*
X0348635Y0112517D02*
X0344648Y0112517D01*
X0346246Y0110918D02*
X0348635Y0110918D01*
X0346838Y0106933D02*
X0338838Y0114933D01*
X0323601Y0114933D01*
X0318163Y0115714D02*
X0307311Y0115714D01*
X0307438Y0117312D02*
X0318163Y0117312D01*
X0318163Y0118911D02*
X0306997Y0118911D01*
X0306525Y0114115D02*
X0318163Y0114115D01*
X0318163Y0112517D02*
X0304196Y0112517D01*
X0305237Y0110918D02*
X0318163Y0110918D01*
X0329040Y0110918D02*
X0333399Y0110918D01*
X0333399Y0112517D02*
X0329040Y0112517D01*
X0329040Y0118911D02*
X0333399Y0118911D01*
X0341057Y0109320D02*
X0306828Y0109320D01*
X0307438Y0107721D02*
X0342655Y0107721D01*
X0344254Y0106123D02*
X0307438Y0106123D01*
X0306819Y0104524D02*
X0372856Y0104524D01*
X0374492Y0102926D02*
X0305183Y0102926D01*
X0299938Y0122108D02*
X0255057Y0122108D01*
X0249438Y0123706D02*
X0229537Y0123706D01*
X0229537Y0122828D02*
X0229537Y0124733D01*
X0224938Y0124733D01*
X0224938Y0124733D01*
X0229537Y0124733D01*
X0229537Y0126638D01*
X0226843Y0129333D01*
X0224938Y0129333D01*
X0224938Y0124733D01*
X0224938Y0120133D01*
X0226843Y0120133D01*
X0229537Y0122828D01*
X0228818Y0122108D02*
X0248618Y0122108D01*
X0247020Y0120509D02*
X0227219Y0120509D01*
X0224938Y0120509D02*
X0224937Y0120509D01*
X0224937Y0122108D02*
X0224938Y0122108D01*
X0224937Y0123706D02*
X0224938Y0123706D01*
X0224937Y0124733D02*
X0224938Y0124733D01*
X0224937Y0124733D01*
X0224937Y0124733D01*
X0220338Y0124733D01*
X0220338Y0126638D01*
X0223032Y0129333D01*
X0224937Y0129333D01*
X0224937Y0124733D01*
X0224937Y0125305D02*
X0224938Y0125305D01*
X0224937Y0126903D02*
X0224938Y0126903D01*
X0224937Y0128502D02*
X0224938Y0128502D01*
X0227674Y0128502D02*
X0249438Y0128502D01*
X0249438Y0130100D02*
X0220899Y0130100D01*
X0222201Y0128502D02*
X0219300Y0128502D01*
X0220602Y0126903D02*
X0209733Y0126903D01*
X0209733Y0125305D02*
X0220338Y0125305D01*
X0222656Y0120509D02*
X0160638Y0120509D01*
X0160638Y0118911D02*
X0176241Y0118911D01*
X0175706Y0117312D02*
X0160638Y0117312D01*
X0160638Y0115714D02*
X0175706Y0115714D01*
X0175706Y0114115D02*
X0160638Y0114115D01*
X0160638Y0112517D02*
X0175706Y0112517D01*
X0175706Y0110918D02*
X0160638Y0110918D01*
X0160638Y0109320D02*
X0175706Y0109320D01*
X0175706Y0107721D02*
X0160638Y0107721D01*
X0160638Y0106123D02*
X0175706Y0106123D01*
X0176421Y0104524D02*
X0160638Y0104524D01*
X0160638Y0102926D02*
X0203451Y0102926D01*
X0202227Y0107543D02*
X0202227Y0111807D01*
X0209733Y0107721D02*
X0221703Y0107721D01*
X0222121Y0101327D02*
X0160638Y0101327D01*
X0160638Y0099729D02*
X0455738Y0099729D01*
X0455738Y0098130D02*
X0160638Y0098130D01*
X0190717Y0131699D02*
X0194722Y0131699D01*
X0194722Y0133297D02*
X0190717Y0133297D01*
X0190717Y0134896D02*
X0194722Y0134896D01*
X0194722Y0136494D02*
X0190717Y0136494D01*
X0190717Y0142888D02*
X0194722Y0142888D01*
X0194722Y0144487D02*
X0190717Y0144487D01*
X0190717Y0146085D02*
X0194722Y0146085D01*
X0194722Y0147684D02*
X0190717Y0147684D01*
X0190717Y0149282D02*
X0194722Y0149282D01*
X0194722Y0150881D02*
X0190717Y0150881D01*
X0192278Y0152479D02*
X0194722Y0152479D01*
X0194722Y0154078D02*
X0193877Y0154078D01*
X0197074Y0157275D02*
X0218838Y0157275D01*
X0218838Y0155677D02*
X0209439Y0155677D01*
X0209733Y0154078D02*
X0218838Y0154078D01*
X0218838Y0152479D02*
X0209733Y0152479D01*
X0209733Y0150881D02*
X0218838Y0150881D01*
X0218838Y0149282D02*
X0209733Y0149282D01*
X0209733Y0147684D02*
X0218838Y0147684D01*
X0218838Y0146085D02*
X0209733Y0146085D01*
X0209733Y0144487D02*
X0218838Y0144487D01*
X0218838Y0142888D02*
X0209733Y0142888D01*
X0209733Y0136494D02*
X0218838Y0136494D01*
X0218838Y0134896D02*
X0209733Y0134896D01*
X0209733Y0133297D02*
X0217308Y0133297D01*
X0217838Y0130433D02*
X0221238Y0133833D01*
X0221238Y0194833D01*
X0221338Y0194933D01*
X0221338Y0194433D01*
X0225068Y0192442D02*
X0227607Y0192442D01*
X0227607Y0192441D02*
X0228845Y0191203D01*
X0230462Y0190533D01*
X0232213Y0190533D01*
X0233830Y0191203D01*
X0235068Y0192441D01*
X0235737Y0194058D01*
X0235737Y0195808D01*
X0235068Y0197425D01*
X0233830Y0198663D01*
X0232213Y0199333D01*
X0230462Y0199333D01*
X0228845Y0198663D01*
X0227607Y0197425D01*
X0226938Y0195808D01*
X0226938Y0194058D01*
X0227607Y0192441D01*
X0226945Y0194041D02*
X0225730Y0194041D01*
X0225737Y0195639D02*
X0226938Y0195639D01*
X0227530Y0197238D02*
X0225145Y0197238D01*
X0223412Y0198836D02*
X0229263Y0198836D01*
X0233412Y0198836D02*
X0234938Y0198836D01*
X0234938Y0200435D02*
X0203233Y0200435D01*
X0201635Y0198836D02*
X0208884Y0198836D01*
X0208927Y0198867D02*
X0208341Y0198442D01*
X0207829Y0197930D01*
X0207403Y0197344D01*
X0207075Y0196699D01*
X0206851Y0196010D01*
X0206738Y0195295D01*
X0206738Y0194933D01*
X0206738Y0194571D01*
X0206851Y0193856D01*
X0207075Y0193167D01*
X0207403Y0192522D01*
X0207829Y0191936D01*
X0208341Y0191424D01*
X0208927Y0190999D01*
X0209572Y0190670D01*
X0210260Y0190446D01*
X0210975Y0190333D01*
X0211337Y0190333D01*
X0211337Y0194933D01*
X0206738Y0194933D01*
X0211337Y0194933D01*
X0211337Y0194933D01*
X0211338Y0194933D01*
X0211338Y0194933D01*
X0215937Y0194933D01*
X0215937Y0194571D01*
X0215824Y0193856D01*
X0215600Y0193167D01*
X0215272Y0192522D01*
X0214846Y0191936D01*
X0214334Y0191424D01*
X0213748Y0190999D01*
X0213103Y0190670D01*
X0212415Y0190446D01*
X0211700Y0190333D01*
X0211338Y0190333D01*
X0211338Y0194933D01*
X0215937Y0194933D01*
X0215937Y0195295D01*
X0215824Y0196010D01*
X0215600Y0196699D01*
X0215272Y0197344D01*
X0214846Y0197930D01*
X0214334Y0198442D01*
X0213748Y0198867D01*
X0213103Y0199196D01*
X0212415Y0199420D01*
X0211700Y0199533D01*
X0211338Y0199533D01*
X0211338Y0194933D01*
X0211337Y0194933D01*
X0211337Y0199533D01*
X0210975Y0199533D01*
X0210260Y0199420D01*
X0209572Y0199196D01*
X0208927Y0198867D01*
X0207349Y0197238D02*
X0200237Y0197238D01*
X0200237Y0195639D02*
X0206792Y0195639D01*
X0206821Y0194041D02*
X0200237Y0194041D01*
X0200237Y0192442D02*
X0207461Y0192442D01*
X0209231Y0190844D02*
X0200237Y0190844D01*
X0200237Y0189245D02*
X0218838Y0189245D01*
X0218838Y0187647D02*
X0200237Y0187647D01*
X0200237Y0186048D02*
X0218838Y0186048D01*
X0218838Y0184450D02*
X0200237Y0184450D01*
X0200237Y0182851D02*
X0218838Y0182851D01*
X0218838Y0181253D02*
X0200237Y0181253D01*
X0200237Y0179654D02*
X0218838Y0179654D01*
X0218838Y0178056D02*
X0200237Y0178056D01*
X0200237Y0176457D02*
X0218838Y0176457D01*
X0218838Y0174859D02*
X0200237Y0174859D01*
X0200237Y0173260D02*
X0218838Y0173260D01*
X0218838Y0171662D02*
X0200237Y0171662D01*
X0200237Y0170063D02*
X0218838Y0170063D01*
X0218838Y0168465D02*
X0200237Y0168465D01*
X0200237Y0166866D02*
X0218838Y0166866D01*
X0218838Y0165268D02*
X0200237Y0165268D01*
X0200237Y0163669D02*
X0218838Y0163669D01*
X0218838Y0162071D02*
X0200237Y0162071D01*
X0200037Y0160472D02*
X0218838Y0160472D01*
X0218838Y0158874D02*
X0198672Y0158874D01*
X0197838Y0161433D02*
X0197838Y0198433D01*
X0211338Y0211933D01*
X0213838Y0209433D01*
X0235338Y0209433D01*
X0237338Y0207433D01*
X0237338Y0198933D01*
X0241338Y0194933D01*
X0242963Y0190844D02*
X0249438Y0190844D01*
X0249438Y0192442D02*
X0245068Y0192442D01*
X0245730Y0194041D02*
X0249438Y0194041D01*
X0249438Y0195639D02*
X0245737Y0195639D01*
X0245145Y0197238D02*
X0249438Y0197238D01*
X0249438Y0198836D02*
X0243412Y0198836D01*
X0239737Y0200435D02*
X0249438Y0200435D01*
X0249438Y0202033D02*
X0239737Y0202033D01*
X0239737Y0203632D02*
X0249438Y0203632D01*
X0249438Y0205230D02*
X0239737Y0205230D01*
X0239737Y0206829D02*
X0249438Y0206829D01*
X0249438Y0208427D02*
X0239523Y0208427D01*
X0238139Y0210026D02*
X0249438Y0210026D01*
X0249438Y0211624D02*
X0236319Y0211624D01*
X0234548Y0206829D02*
X0209627Y0206829D01*
X0208029Y0205230D02*
X0234938Y0205230D01*
X0234938Y0203632D02*
X0206430Y0203632D01*
X0204832Y0202033D02*
X0234938Y0202033D01*
X0235145Y0197238D02*
X0235639Y0197238D01*
X0235737Y0195639D02*
X0236938Y0195639D01*
X0236945Y0194041D02*
X0235730Y0194041D01*
X0235068Y0192442D02*
X0237607Y0192442D01*
X0239712Y0190844D02*
X0232963Y0190844D01*
X0229712Y0190844D02*
X0223637Y0190844D01*
X0223637Y0189245D02*
X0249438Y0189245D01*
X0249438Y0187647D02*
X0223637Y0187647D01*
X0223637Y0186048D02*
X0249438Y0186048D01*
X0249438Y0184450D02*
X0223637Y0184450D01*
X0223637Y0182851D02*
X0249438Y0182851D01*
X0249438Y0181253D02*
X0223637Y0181253D01*
X0223637Y0179654D02*
X0249438Y0179654D01*
X0249438Y0178056D02*
X0223637Y0178056D01*
X0223637Y0176457D02*
X0249438Y0176457D01*
X0249438Y0174859D02*
X0223637Y0174859D01*
X0223637Y0173260D02*
X0249438Y0173260D01*
X0249438Y0171662D02*
X0223637Y0171662D01*
X0223637Y0170063D02*
X0249438Y0170063D01*
X0249438Y0168465D02*
X0223637Y0168465D01*
X0223637Y0166866D02*
X0249438Y0166866D01*
X0249438Y0165268D02*
X0223637Y0165268D01*
X0223637Y0163669D02*
X0249438Y0163669D01*
X0249438Y0162071D02*
X0242242Y0162071D01*
X0242345Y0162028D02*
X0238996Y0163415D01*
X0235372Y0163415D01*
X0232023Y0162028D01*
X0229459Y0159465D01*
X0228072Y0156116D01*
X0228072Y0152491D01*
X0229459Y0149142D01*
X0232023Y0146579D01*
X0235372Y0145191D01*
X0238996Y0145191D01*
X0242345Y0146579D01*
X0244909Y0149142D01*
X0246296Y0152491D01*
X0246296Y0156116D01*
X0244909Y0159465D01*
X0242345Y0162028D01*
X0243901Y0160472D02*
X0249438Y0160472D01*
X0249438Y0158874D02*
X0245153Y0158874D01*
X0245816Y0157275D02*
X0249438Y0157275D01*
X0249438Y0155677D02*
X0246296Y0155677D01*
X0246296Y0154078D02*
X0249438Y0154078D01*
X0249438Y0152479D02*
X0246291Y0152479D01*
X0245629Y0150881D02*
X0249438Y0150881D01*
X0249438Y0149282D02*
X0244967Y0149282D01*
X0243451Y0147684D02*
X0249438Y0147684D01*
X0249438Y0146085D02*
X0241155Y0146085D01*
X0233213Y0146085D02*
X0223637Y0146085D01*
X0223637Y0144487D02*
X0249438Y0144487D01*
X0249438Y0142888D02*
X0223637Y0142888D01*
X0223637Y0141290D02*
X0249438Y0141290D01*
X0249438Y0139691D02*
X0223637Y0139691D01*
X0223637Y0138093D02*
X0249438Y0138093D01*
X0249438Y0136494D02*
X0223637Y0136494D01*
X0223637Y0134896D02*
X0249438Y0134896D01*
X0249438Y0133297D02*
X0223613Y0133297D01*
X0222497Y0131699D02*
X0249438Y0131699D01*
X0249438Y0126903D02*
X0229273Y0126903D01*
X0229537Y0125305D02*
X0249438Y0125305D01*
X0230917Y0147684D02*
X0223637Y0147684D01*
X0223637Y0149282D02*
X0229401Y0149282D01*
X0228739Y0150881D02*
X0223637Y0150881D01*
X0223637Y0152479D02*
X0228077Y0152479D01*
X0228072Y0154078D02*
X0223637Y0154078D01*
X0223637Y0155677D02*
X0228072Y0155677D01*
X0228552Y0157275D02*
X0223637Y0157275D01*
X0223637Y0158874D02*
X0229215Y0158874D01*
X0230467Y0160472D02*
X0223637Y0160472D01*
X0223637Y0162071D02*
X0232126Y0162071D01*
X0218838Y0141290D02*
X0176237Y0141290D01*
X0176237Y0139691D02*
X0218838Y0139691D01*
X0218838Y0138093D02*
X0176237Y0138093D01*
X0183212Y0148815D02*
X0185219Y0148815D01*
X0197838Y0161433D01*
X0195081Y0162071D02*
X0189869Y0162071D01*
X0191468Y0163669D02*
X0195438Y0163669D01*
X0195438Y0165268D02*
X0192952Y0165268D01*
X0193237Y0166866D02*
X0195438Y0166866D01*
X0195438Y0168465D02*
X0193237Y0168465D01*
X0193237Y0170063D02*
X0195438Y0170063D01*
X0195438Y0171662D02*
X0193237Y0171662D01*
X0193237Y0173260D02*
X0195438Y0173260D01*
X0195438Y0174859D02*
X0193237Y0174859D01*
X0193237Y0176457D02*
X0195438Y0176457D01*
X0211337Y0190844D02*
X0211338Y0190844D01*
X0211337Y0192442D02*
X0211338Y0192442D01*
X0211337Y0194041D02*
X0211338Y0194041D01*
X0211337Y0195639D02*
X0211338Y0195639D01*
X0211337Y0197238D02*
X0211338Y0197238D01*
X0211337Y0198836D02*
X0211338Y0198836D01*
X0213791Y0198836D02*
X0219263Y0198836D01*
X0217530Y0197238D02*
X0215326Y0197238D01*
X0215883Y0195639D02*
X0216938Y0195639D01*
X0216945Y0194041D02*
X0215854Y0194041D01*
X0215214Y0192442D02*
X0217607Y0192442D01*
X0218838Y0190844D02*
X0213444Y0190844D01*
X0211449Y0208427D02*
X0211226Y0208427D01*
X0211338Y0211933D02*
X0211338Y0224933D01*
X0215222Y0222814D02*
X0217453Y0222814D01*
X0216938Y0224412D02*
X0215737Y0224412D01*
X0215654Y0226011D02*
X0217021Y0226011D01*
X0217791Y0227610D02*
X0214884Y0227610D01*
X0213842Y0221215D02*
X0218833Y0221215D01*
X0218938Y0219617D02*
X0213737Y0219617D01*
X0213737Y0218018D02*
X0218938Y0218018D01*
X0219957Y0216420D02*
X0213737Y0216420D01*
X0213737Y0214821D02*
X0221555Y0214821D01*
X0213737Y0213223D02*
X0249154Y0213223D01*
X0252745Y0216420D02*
X0353107Y0216420D01*
X0351685Y0214821D02*
X0254067Y0214821D01*
X0254237Y0213223D02*
X0323233Y0213223D01*
X0321635Y0211624D02*
X0254237Y0211624D01*
X0254237Y0210026D02*
X0320036Y0210026D01*
X0325226Y0208427D02*
X0353126Y0208427D01*
X0358549Y0208427D02*
X0363126Y0208427D01*
X0361527Y0210026D02*
X0359982Y0210026D01*
X0360587Y0211624D02*
X0361088Y0211624D01*
X0361088Y0213223D02*
X0360587Y0213223D01*
X0365838Y0212433D02*
X0366338Y0212433D01*
X0388838Y0234933D01*
X0374088Y0235602D02*
X0323738Y0235602D01*
X0323738Y0234004D02*
X0374014Y0234004D01*
X0372415Y0232405D02*
X0323738Y0232405D01*
X0323738Y0230807D02*
X0370817Y0230807D01*
X0369218Y0229208D02*
X0332515Y0229208D01*
X0332213Y0229333D02*
X0330462Y0229333D01*
X0328845Y0228663D01*
X0327607Y0227425D01*
X0326938Y0225808D01*
X0326938Y0224058D01*
X0327607Y0222441D01*
X0328845Y0221203D01*
X0330462Y0220533D01*
X0332213Y0220533D01*
X0333830Y0221203D01*
X0335068Y0222441D01*
X0335738Y0224058D01*
X0335738Y0225808D01*
X0335068Y0227425D01*
X0333830Y0228663D01*
X0332213Y0229333D01*
X0330160Y0229208D02*
X0323738Y0229208D01*
X0324884Y0227610D02*
X0327791Y0227610D01*
X0327021Y0226011D02*
X0325654Y0226011D01*
X0325738Y0224412D02*
X0326938Y0224412D01*
X0327453Y0222814D02*
X0325222Y0222814D01*
X0323842Y0221215D02*
X0328833Y0221215D01*
X0333842Y0221215D02*
X0361226Y0221215D01*
X0362824Y0222814D02*
X0335222Y0222814D01*
X0335738Y0224412D02*
X0364423Y0224412D01*
X0366021Y0226011D02*
X0335654Y0226011D01*
X0334884Y0227610D02*
X0367620Y0227610D01*
X0376637Y0195639D02*
X0381038Y0195639D01*
X0379732Y0194041D02*
X0377943Y0194041D01*
X0378437Y0192442D02*
X0379238Y0192442D01*
X0379238Y0190844D02*
X0378437Y0190844D01*
X0416472Y0202033D02*
X0439407Y0202033D01*
X0437522Y0203632D02*
X0418357Y0203632D01*
X0419020Y0205230D02*
X0436860Y0205230D01*
X0436770Y0206829D02*
X0419110Y0206829D01*
X0418692Y0208427D02*
X0437188Y0208427D01*
X0438312Y0210026D02*
X0417567Y0210026D01*
X0416154Y0218018D02*
X0440119Y0218018D01*
X0440119Y0219617D02*
X0416154Y0219617D01*
X0416154Y0221215D02*
X0440119Y0221215D01*
X0440119Y0227610D02*
X0432055Y0227610D01*
X0431737Y0229208D02*
X0440119Y0229208D01*
X0440995Y0230807D02*
X0431737Y0230807D01*
X0431737Y0232405D02*
X0455738Y0232405D01*
X0455738Y0230807D02*
X0451105Y0230807D01*
X0451981Y0229208D02*
X0455738Y0229208D01*
X0455738Y0227610D02*
X0451981Y0227610D01*
X0451981Y0226011D02*
X0455738Y0226011D01*
X0455738Y0234004D02*
X0431737Y0234004D01*
X0431737Y0235602D02*
X0435941Y0235602D01*
X0434557Y0237201D02*
X0433100Y0237201D01*
X0439137Y0237201D02*
X0439538Y0237201D01*
X0439538Y0238799D02*
X0439137Y0238799D01*
X0439538Y0239733D02*
X0439538Y0234433D01*
X0439770Y0234433D01*
X0440625Y0234569D01*
X0441449Y0234836D01*
X0442220Y0235229D01*
X0442921Y0235738D01*
X0443533Y0236350D01*
X0444042Y0237050D01*
X0444435Y0237822D01*
X0444702Y0238645D01*
X0444837Y0239500D01*
X0444837Y0239733D01*
X0439538Y0239733D01*
X0439538Y0240398D02*
X0439137Y0240398D01*
X0439137Y0241996D02*
X0439538Y0241996D01*
X0439538Y0243595D02*
X0439137Y0243595D01*
X0439137Y0245193D02*
X0439538Y0245193D01*
X0440947Y0245193D02*
X0455738Y0245193D01*
X0455738Y0243595D02*
X0443454Y0243595D01*
X0444450Y0241996D02*
X0455738Y0241996D01*
X0455738Y0240398D02*
X0444832Y0240398D01*
X0444726Y0238799D02*
X0455738Y0238799D01*
X0455738Y0237201D02*
X0444118Y0237201D01*
X0442734Y0235602D02*
X0455738Y0235602D01*
X0455738Y0249989D02*
X0203237Y0249989D01*
X0203237Y0251587D02*
X0455738Y0251587D01*
X0455738Y0253186D02*
X0203237Y0253186D01*
X0203237Y0254784D02*
X0455738Y0254784D01*
X0455738Y0256383D02*
X0203237Y0256383D01*
X0203237Y0257981D02*
X0455738Y0257981D01*
X0455738Y0259580D02*
X0203237Y0259580D01*
X0203237Y0261178D02*
X0455738Y0261178D01*
X0455738Y0262777D02*
X0203237Y0262777D01*
X0203237Y0264375D02*
X0455738Y0264375D01*
X0455738Y0265974D02*
X0203237Y0265974D01*
X0206499Y0267572D02*
X0225176Y0267572D01*
X0224005Y0269171D02*
X0207670Y0269171D01*
X0208037Y0270769D02*
X0223638Y0270769D01*
X0223869Y0272368D02*
X0207806Y0272368D01*
X0206827Y0273966D02*
X0224848Y0273966D01*
X0237265Y0273966D02*
X0290624Y0273966D01*
X0291084Y0272854D02*
X0292975Y0270963D01*
X0295445Y0269940D01*
X0298119Y0269940D01*
X0300590Y0270963D01*
X0302480Y0272854D01*
X0303504Y0275324D01*
X0303504Y0277998D01*
X0302480Y0280469D01*
X0300590Y0282359D01*
X0298119Y0283383D01*
X0295445Y0283383D01*
X0292975Y0282359D01*
X0291084Y0280469D01*
X0290061Y0277998D01*
X0290061Y0275324D01*
X0291084Y0272854D01*
X0291571Y0272368D02*
X0237806Y0272368D01*
X0238037Y0270769D02*
X0293444Y0270769D01*
X0290061Y0275565D02*
X0238863Y0275565D01*
X0240462Y0277163D02*
X0290061Y0277163D01*
X0290377Y0278762D02*
X0242060Y0278762D01*
X0243198Y0280360D02*
X0291040Y0280360D01*
X0292575Y0281959D02*
X0243237Y0281959D01*
X0243237Y0283557D02*
X0455738Y0283557D01*
X0455738Y0281959D02*
X0411226Y0281959D01*
X0410826Y0282359D02*
X0408356Y0283383D01*
X0405682Y0283383D01*
X0403211Y0282359D01*
X0401321Y0280469D01*
X0400297Y0277998D01*
X0400297Y0275324D01*
X0401321Y0272854D01*
X0403211Y0270963D01*
X0405682Y0269940D01*
X0408356Y0269940D01*
X0410826Y0270963D01*
X0412717Y0272854D01*
X0413740Y0275324D01*
X0413740Y0277998D01*
X0412717Y0280469D01*
X0410826Y0282359D01*
X0412761Y0280360D02*
X0455738Y0280360D01*
X0455738Y0278762D02*
X0413424Y0278762D01*
X0413740Y0277163D02*
X0455738Y0277163D01*
X0455738Y0275565D02*
X0413740Y0275565D01*
X0413177Y0273966D02*
X0455738Y0273966D01*
X0455738Y0272368D02*
X0412230Y0272368D01*
X0410357Y0270769D02*
X0455738Y0270769D01*
X0455738Y0269171D02*
X0237670Y0269171D01*
X0236499Y0267572D02*
X0455738Y0267572D01*
X0455738Y0285156D02*
X0243237Y0285156D01*
X0243237Y0286754D02*
X0455738Y0286754D01*
X0455738Y0288353D02*
X0243237Y0288353D01*
X0243237Y0289951D02*
X0247796Y0289951D01*
X0247840Y0289926D02*
X0248298Y0289803D01*
X0251618Y0289803D01*
X0251618Y0294686D01*
X0246735Y0294686D01*
X0246735Y0291366D01*
X0246858Y0290908D01*
X0247095Y0290498D01*
X0247430Y0290163D01*
X0247840Y0289926D01*
X0246735Y0291550D02*
X0243180Y0291550D01*
X0242016Y0293148D02*
X0246735Y0293148D01*
X0246735Y0295251D02*
X0251618Y0295251D01*
X0251618Y0294686D01*
X0252183Y0294686D01*
X0252183Y0289803D01*
X0255503Y0289803D01*
X0255961Y0289926D01*
X0256371Y0290163D01*
X0256706Y0290498D01*
X0256943Y0290908D01*
X0257066Y0291366D01*
X0257066Y0294686D01*
X0252183Y0294686D01*
X0252183Y0295251D01*
X0251618Y0295251D01*
X0251618Y0300134D01*
X0248298Y0300134D01*
X0247840Y0300011D01*
X0247430Y0299774D01*
X0247095Y0299439D01*
X0246858Y0299029D01*
X0246735Y0298571D01*
X0246735Y0295251D01*
X0246735Y0296345D02*
X0238819Y0296345D01*
X0240418Y0294747D02*
X0251618Y0294747D01*
X0252183Y0294747D02*
X0455738Y0294747D01*
X0455738Y0296345D02*
X0257066Y0296345D01*
X0257066Y0295251D02*
X0257066Y0298571D01*
X0256943Y0299029D01*
X0256706Y0299439D01*
X0256371Y0299774D01*
X0255961Y0300011D01*
X0255503Y0300134D01*
X0252183Y0300134D01*
X0252183Y0295251D01*
X0257066Y0295251D01*
X0257066Y0293148D02*
X0455738Y0293148D01*
X0455738Y0291550D02*
X0257066Y0291550D01*
X0256005Y0289951D02*
X0455738Y0289951D01*
X0455738Y0297944D02*
X0257066Y0297944D01*
X0256603Y0299543D02*
X0455738Y0299543D01*
X0455738Y0301141D02*
X0234024Y0301141D01*
X0235622Y0299543D02*
X0247198Y0299543D01*
X0246735Y0297944D02*
X0237221Y0297944D01*
X0232425Y0302740D02*
X0455738Y0302740D01*
X0455738Y0304338D02*
X0230827Y0304338D01*
X0230737Y0305937D02*
X0455738Y0305937D01*
X0455738Y0307535D02*
X0230737Y0307535D01*
X0231432Y0309134D02*
X0455738Y0309134D01*
X0455738Y0310732D02*
X0233031Y0310732D01*
X0234629Y0312331D02*
X0455738Y0312331D01*
X0455738Y0313929D02*
X0236228Y0313929D01*
X0237826Y0315528D02*
X0455738Y0315528D01*
X0455738Y0317126D02*
X0446154Y0317126D01*
X0445449Y0316834D02*
X0448425Y0318067D01*
X0450704Y0320345D01*
X0451937Y0323322D01*
X0451937Y0326544D01*
X0450704Y0329521D01*
X0448425Y0331799D01*
X0445449Y0333032D01*
X0442226Y0333032D01*
X0439250Y0331799D01*
X0436971Y0329521D01*
X0435738Y0326544D01*
X0435738Y0323322D01*
X0436971Y0320345D01*
X0439250Y0318067D01*
X0442226Y0316834D01*
X0445449Y0316834D01*
X0441521Y0317126D02*
X0239425Y0317126D01*
X0241023Y0318725D02*
X0438592Y0318725D01*
X0436993Y0320323D02*
X0242622Y0320323D01*
X0244220Y0321922D02*
X0436318Y0321922D01*
X0435738Y0323520D02*
X0245819Y0323520D01*
X0247417Y0325119D02*
X0435738Y0325119D01*
X0435810Y0326717D02*
X0249016Y0326717D01*
X0250614Y0328316D02*
X0436472Y0328316D01*
X0437365Y0329914D02*
X0252213Y0329914D01*
X0253811Y0331513D02*
X0438963Y0331513D01*
X0448712Y0331513D02*
X0455738Y0331513D01*
X0455738Y0333111D02*
X0254300Y0333111D01*
X0254300Y0334710D02*
X0455738Y0334710D01*
X0455738Y0336308D02*
X0254300Y0336308D01*
X0254300Y0337907D02*
X0455738Y0337907D01*
X0455738Y0339505D02*
X0254300Y0339505D01*
X0256866Y0341104D02*
X0455738Y0341104D01*
X0455738Y0342702D02*
X0256866Y0342702D01*
X0256866Y0344301D02*
X0455738Y0344301D01*
X0455738Y0345899D02*
X0256866Y0345899D01*
X0256866Y0347498D02*
X0455738Y0347498D01*
X0455738Y0349096D02*
X0256766Y0349096D01*
X0251901Y0344969D02*
X0251901Y0332996D01*
X0226338Y0307433D01*
X0227841Y0312331D02*
X0218237Y0312331D01*
X0218237Y0313929D02*
X0229439Y0313929D01*
X0231038Y0315528D02*
X0218237Y0315528D01*
X0217539Y0317126D02*
X0232636Y0317126D01*
X0234235Y0318725D02*
X0215940Y0318725D01*
X0214342Y0320323D02*
X0235834Y0320323D01*
X0237432Y0321922D02*
X0229331Y0321922D01*
X0228243Y0320833D02*
X0230937Y0323528D01*
X0230937Y0325433D01*
X0226338Y0325433D01*
X0226338Y0325433D01*
X0230937Y0325433D01*
X0230937Y0327338D01*
X0228243Y0330033D01*
X0226338Y0330033D01*
X0226338Y0325433D01*
X0226338Y0320833D01*
X0228243Y0320833D01*
X0226337Y0320833D02*
X0226337Y0325433D01*
X0221738Y0325433D01*
X0221738Y0323528D01*
X0224432Y0320833D01*
X0226337Y0320833D01*
X0226337Y0321922D02*
X0226338Y0321922D01*
X0226337Y0323520D02*
X0226338Y0323520D01*
X0226337Y0325119D02*
X0226338Y0325119D01*
X0226337Y0325433D02*
X0226338Y0325433D01*
X0226337Y0325433D01*
X0226337Y0325433D01*
X0221738Y0325433D01*
X0221738Y0327338D01*
X0224432Y0330033D01*
X0226337Y0330033D01*
X0226337Y0325433D01*
X0226337Y0326717D02*
X0226338Y0326717D01*
X0226337Y0328316D02*
X0226338Y0328316D01*
X0226337Y0329914D02*
X0226338Y0329914D01*
X0228362Y0329914D02*
X0245425Y0329914D01*
X0247023Y0331513D02*
X0210811Y0331513D01*
X0209213Y0329914D02*
X0224313Y0329914D01*
X0222715Y0328316D02*
X0209677Y0328316D01*
X0210737Y0326717D02*
X0221738Y0326717D01*
X0221738Y0325119D02*
X0210737Y0325119D01*
X0211144Y0323520D02*
X0221745Y0323520D01*
X0223344Y0321922D02*
X0212743Y0321922D01*
X0209152Y0318725D02*
X0184083Y0318725D01*
X0183425Y0318067D02*
X0185704Y0320345D01*
X0186937Y0323322D01*
X0186937Y0326544D01*
X0185704Y0329521D01*
X0183425Y0331799D01*
X0180449Y0333032D01*
X0177226Y0333032D01*
X0174250Y0331799D01*
X0171971Y0329521D01*
X0170738Y0326544D01*
X0170738Y0323322D01*
X0171971Y0320345D01*
X0174250Y0318067D01*
X0177226Y0316834D01*
X0180449Y0316834D01*
X0183425Y0318067D01*
X0181154Y0317126D02*
X0210750Y0317126D01*
X0212349Y0315528D02*
X0160638Y0315528D01*
X0160638Y0317126D02*
X0176521Y0317126D01*
X0173592Y0318725D02*
X0160638Y0318725D01*
X0160638Y0320323D02*
X0171993Y0320323D01*
X0171318Y0321922D02*
X0160638Y0321922D01*
X0160638Y0323520D02*
X0170738Y0323520D01*
X0170738Y0325119D02*
X0160638Y0325119D01*
X0160638Y0326717D02*
X0170810Y0326717D01*
X0171472Y0328316D02*
X0160638Y0328316D01*
X0160638Y0329914D02*
X0172365Y0329914D01*
X0173963Y0331513D02*
X0160638Y0331513D01*
X0160638Y0333111D02*
X0205622Y0333111D01*
X0204187Y0331513D02*
X0183712Y0331513D01*
X0185310Y0329914D02*
X0203938Y0329914D01*
X0202998Y0328316D02*
X0186203Y0328316D01*
X0186865Y0326717D02*
X0201938Y0326717D01*
X0201938Y0325119D02*
X0186937Y0325119D01*
X0186937Y0323520D02*
X0202028Y0323520D01*
X0203626Y0321922D02*
X0186357Y0321922D01*
X0185682Y0320323D02*
X0207553Y0320323D01*
X0206338Y0324933D02*
X0215838Y0315433D01*
X0215838Y0306933D01*
X0231838Y0290933D01*
X0231838Y0286933D01*
X0230838Y0285933D01*
X0227827Y0291550D02*
X0160638Y0291550D01*
X0160638Y0293148D02*
X0226228Y0293148D01*
X0224629Y0294747D02*
X0160638Y0294747D01*
X0160638Y0296345D02*
X0175920Y0296345D01*
X0176932Y0295333D02*
X0174238Y0298028D01*
X0174238Y0299933D01*
X0178837Y0299933D01*
X0178837Y0299933D01*
X0174238Y0299933D01*
X0174238Y0301838D01*
X0176932Y0304533D01*
X0178837Y0304533D01*
X0178837Y0299933D01*
X0178838Y0299933D01*
X0178838Y0299933D01*
X0183437Y0299933D01*
X0183437Y0298028D01*
X0180743Y0295333D01*
X0178838Y0295333D01*
X0178838Y0299933D01*
X0183437Y0299933D01*
X0183437Y0301838D01*
X0180743Y0304533D01*
X0178838Y0304533D01*
X0178838Y0299933D01*
X0178837Y0299933D01*
X0178837Y0295333D01*
X0176932Y0295333D01*
X0178837Y0296345D02*
X0178838Y0296345D01*
X0178837Y0297944D02*
X0178838Y0297944D01*
X0178837Y0299543D02*
X0178838Y0299543D01*
X0178837Y0301141D02*
X0178838Y0301141D01*
X0178837Y0302740D02*
X0178838Y0302740D01*
X0178837Y0304338D02*
X0178838Y0304338D01*
X0180938Y0304338D02*
X0202927Y0304338D01*
X0201738Y0305528D02*
X0204432Y0302833D01*
X0206337Y0302833D01*
X0206337Y0307433D01*
X0201738Y0307433D01*
X0201738Y0305528D01*
X0201738Y0305937D02*
X0160638Y0305937D01*
X0160638Y0307535D02*
X0201738Y0307535D01*
X0201738Y0307433D02*
X0206337Y0307433D01*
X0206337Y0307433D01*
X0206338Y0307433D01*
X0206338Y0307433D01*
X0210937Y0307433D01*
X0210937Y0305528D01*
X0208243Y0302833D01*
X0206338Y0302833D01*
X0206338Y0307433D01*
X0210937Y0307433D01*
X0210937Y0309338D01*
X0208243Y0312033D01*
X0206338Y0312033D01*
X0206338Y0307433D01*
X0206337Y0307433D01*
X0206337Y0312033D01*
X0204432Y0312033D01*
X0201738Y0309338D01*
X0201738Y0307433D01*
X0201738Y0309134D02*
X0160638Y0309134D01*
X0160638Y0310732D02*
X0203131Y0310732D01*
X0206337Y0310732D02*
X0206338Y0310732D01*
X0206337Y0309134D02*
X0206338Y0309134D01*
X0206337Y0307535D02*
X0206338Y0307535D01*
X0206337Y0305937D02*
X0206338Y0305937D01*
X0206337Y0304338D02*
X0206338Y0304338D01*
X0209748Y0304338D02*
X0215038Y0304338D01*
X0213653Y0305937D02*
X0210937Y0305937D01*
X0210937Y0307535D02*
X0213438Y0307535D01*
X0213438Y0309134D02*
X0210937Y0309134D01*
X0209544Y0310732D02*
X0213438Y0310732D01*
X0213438Y0312331D02*
X0160638Y0312331D01*
X0160638Y0313929D02*
X0213438Y0313929D01*
X0216637Y0302740D02*
X0182536Y0302740D01*
X0183437Y0301141D02*
X0218235Y0301141D01*
X0219834Y0299543D02*
X0183437Y0299543D01*
X0183354Y0297944D02*
X0221432Y0297944D01*
X0223031Y0296345D02*
X0181755Y0296345D01*
X0174321Y0297944D02*
X0160638Y0297944D01*
X0160638Y0299543D02*
X0174238Y0299543D01*
X0174238Y0301141D02*
X0160638Y0301141D01*
X0160638Y0302740D02*
X0175139Y0302740D01*
X0176737Y0304338D02*
X0160638Y0304338D01*
X0160638Y0334710D02*
X0207220Y0334710D01*
X0208819Y0336308D02*
X0160638Y0336308D01*
X0160638Y0337907D02*
X0210417Y0337907D01*
X0212838Y0336933D02*
X0212838Y0345689D01*
X0220343Y0345899D02*
X0246935Y0345899D01*
X0246935Y0344301D02*
X0220343Y0344301D01*
X0220343Y0342702D02*
X0246935Y0342702D01*
X0246935Y0341104D02*
X0220343Y0341104D01*
X0220343Y0339505D02*
X0249501Y0339505D01*
X0249501Y0337907D02*
X0215237Y0337907D01*
X0215176Y0336308D02*
X0249501Y0336308D01*
X0249501Y0334710D02*
X0214008Y0334710D01*
X0212410Y0333111D02*
X0248622Y0333111D01*
X0243826Y0328316D02*
X0229960Y0328316D01*
X0230937Y0326717D02*
X0242228Y0326717D01*
X0240629Y0325119D02*
X0230937Y0325119D01*
X0230930Y0323520D02*
X0239031Y0323520D01*
X0212838Y0336933D02*
X0206338Y0330433D01*
X0206338Y0325433D01*
X0206338Y0324933D01*
X0205332Y0339505D02*
X0160638Y0339505D01*
X0160638Y0341104D02*
X0205332Y0341104D01*
X0205332Y0342702D02*
X0160638Y0342702D01*
X0160638Y0344301D02*
X0205332Y0344301D01*
X0205332Y0345899D02*
X0160638Y0345899D01*
X0160638Y0347498D02*
X0205332Y0347498D01*
X0205332Y0349096D02*
X0160638Y0349096D01*
X0160638Y0350695D02*
X0186869Y0350695D01*
X0186751Y0350900D02*
X0186988Y0350489D01*
X0187323Y0350154D01*
X0187733Y0349917D01*
X0188191Y0349794D01*
X0193534Y0349794D01*
X0193534Y0356700D01*
X0195134Y0356700D01*
X0195134Y0358300D01*
X0202039Y0358300D01*
X0202039Y0363642D01*
X0201916Y0364100D01*
X0201679Y0364511D01*
X0201344Y0364846D01*
X0200934Y0365083D01*
X0200476Y0365205D01*
X0195134Y0365205D01*
X0195134Y0358300D01*
X0193534Y0358300D01*
X0193534Y0365205D01*
X0188191Y0365205D01*
X0187733Y0365083D01*
X0187323Y0364846D01*
X0186988Y0364511D01*
X0186751Y0364100D01*
X0186628Y0363642D01*
X0186628Y0358300D01*
X0193534Y0358300D01*
X0193534Y0356700D01*
X0186628Y0356700D01*
X0186628Y0351358D01*
X0186751Y0350900D01*
X0186628Y0352293D02*
X0160638Y0352293D01*
X0160638Y0353892D02*
X0186628Y0353892D01*
X0186628Y0355490D02*
X0160638Y0355490D01*
X0160638Y0357089D02*
X0193534Y0357089D01*
X0193534Y0358687D02*
X0195134Y0358687D01*
X0195134Y0357089D02*
X0349273Y0357089D01*
X0348093Y0357578D02*
X0350564Y0356554D01*
X0353237Y0356554D01*
X0355708Y0357578D01*
X0357598Y0359468D01*
X0358622Y0361939D01*
X0358622Y0364613D01*
X0357598Y0367083D01*
X0355708Y0368974D01*
X0353237Y0369997D01*
X0350564Y0369997D01*
X0348093Y0368974D01*
X0346202Y0367083D01*
X0345179Y0364613D01*
X0345179Y0361939D01*
X0346202Y0359468D01*
X0348093Y0357578D01*
X0346983Y0358687D02*
X0335137Y0358687D01*
X0335638Y0360286D02*
X0345864Y0360286D01*
X0345202Y0361884D02*
X0335638Y0361884D01*
X0335638Y0363483D02*
X0345179Y0363483D01*
X0345373Y0365081D02*
X0335638Y0365081D01*
X0335638Y0366680D02*
X0346036Y0366680D01*
X0347398Y0368279D02*
X0335638Y0368279D01*
X0335638Y0369877D02*
X0350274Y0369877D01*
X0353527Y0369877D02*
X0455738Y0369877D01*
X0455738Y0368279D02*
X0356403Y0368279D01*
X0357765Y0366680D02*
X0455738Y0366680D01*
X0455738Y0365081D02*
X0358428Y0365081D01*
X0358622Y0363483D02*
X0455738Y0363483D01*
X0455738Y0361884D02*
X0358599Y0361884D01*
X0357937Y0360286D02*
X0455738Y0360286D01*
X0455738Y0358687D02*
X0356818Y0358687D01*
X0354528Y0357089D02*
X0455738Y0357089D01*
X0455738Y0355490D02*
X0202039Y0355490D01*
X0202039Y0356700D02*
X0195134Y0356700D01*
X0195134Y0349794D01*
X0200476Y0349794D01*
X0200934Y0349917D01*
X0201344Y0350154D01*
X0201679Y0350489D01*
X0201916Y0350900D01*
X0202039Y0351358D01*
X0202039Y0356700D01*
X0202039Y0358687D02*
X0307538Y0358687D01*
X0307038Y0360286D02*
X0202039Y0360286D01*
X0202039Y0361884D02*
X0205967Y0361884D01*
X0205827Y0361965D02*
X0206237Y0361728D01*
X0206695Y0361606D01*
X0212038Y0361605D01*
X0212038Y0368511D01*
X0213637Y0368511D01*
X0213637Y0361606D01*
X0218980Y0361606D01*
X0219438Y0361728D01*
X0219848Y0361965D01*
X0220183Y0362300D01*
X0220420Y0362711D01*
X0220543Y0363169D01*
X0220543Y0368511D01*
X0213638Y0368511D01*
X0213638Y0370111D01*
X0220543Y0370111D01*
X0220543Y0375454D01*
X0220420Y0375911D01*
X0220183Y0376322D01*
X0219848Y0376657D01*
X0219438Y0376894D01*
X0218980Y0377017D01*
X0213637Y0377017D01*
X0213637Y0370111D01*
X0212038Y0370111D01*
X0212038Y0377017D01*
X0206695Y0377017D01*
X0206237Y0376894D01*
X0205827Y0376657D01*
X0205492Y0376322D01*
X0205255Y0375911D01*
X0205132Y0375454D01*
X0205132Y0370111D01*
X0212037Y0370111D01*
X0212037Y0368511D01*
X0205132Y0368511D01*
X0205132Y0363169D01*
X0205255Y0362711D01*
X0205492Y0362300D01*
X0205827Y0361965D01*
X0205132Y0363483D02*
X0202039Y0363483D01*
X0200936Y0365081D02*
X0205132Y0365081D01*
X0205132Y0366680D02*
X0160638Y0366680D01*
X0160638Y0365081D02*
X0187731Y0365081D01*
X0186628Y0363483D02*
X0160638Y0363483D01*
X0160638Y0361884D02*
X0186628Y0361884D01*
X0186628Y0360286D02*
X0160638Y0360286D01*
X0160638Y0358687D02*
X0186628Y0358687D01*
X0193534Y0360286D02*
X0195134Y0360286D01*
X0195134Y0361884D02*
X0193534Y0361884D01*
X0193534Y0363483D02*
X0195134Y0363483D01*
X0195134Y0365081D02*
X0193534Y0365081D01*
X0205132Y0368279D02*
X0160638Y0368279D01*
X0160638Y0369877D02*
X0212037Y0369877D01*
X0212038Y0368279D02*
X0213637Y0368279D01*
X0213638Y0369877D02*
X0307038Y0369877D01*
X0307038Y0368279D02*
X0220543Y0368279D01*
X0220543Y0366680D02*
X0307038Y0366680D01*
X0307038Y0365081D02*
X0220543Y0365081D01*
X0220543Y0363483D02*
X0307038Y0363483D01*
X0307038Y0361884D02*
X0219708Y0361884D01*
X0213637Y0361884D02*
X0212038Y0361884D01*
X0212038Y0363483D02*
X0213637Y0363483D01*
X0213637Y0365081D02*
X0212038Y0365081D01*
X0212038Y0366680D02*
X0213637Y0366680D01*
X0213637Y0371476D02*
X0212038Y0371476D01*
X0212038Y0373074D02*
X0213637Y0373074D01*
X0213637Y0374673D02*
X0212038Y0374673D01*
X0212038Y0376271D02*
X0213637Y0376271D01*
X0220213Y0376271D02*
X0307038Y0376271D01*
X0307038Y0374673D02*
X0220543Y0374673D01*
X0220543Y0373074D02*
X0307038Y0373074D01*
X0307038Y0371476D02*
X0220543Y0371476D01*
X0205462Y0376271D02*
X0160638Y0376271D01*
X0160638Y0374673D02*
X0205132Y0374673D01*
X0205132Y0373074D02*
X0160638Y0373074D01*
X0160638Y0371476D02*
X0205132Y0371476D01*
X0202039Y0353892D02*
X0455738Y0353892D01*
X0455738Y0352293D02*
X0220307Y0352293D01*
X0220343Y0350695D02*
X0455738Y0350695D01*
X0455738Y0371476D02*
X0335638Y0371476D01*
X0335638Y0373074D02*
X0455738Y0373074D01*
X0455738Y0374673D02*
X0335638Y0374673D01*
X0335638Y0376271D02*
X0455738Y0376271D01*
X0455738Y0377870D02*
X0335638Y0377870D01*
X0335638Y0379468D02*
X0455738Y0379468D01*
X0455738Y0381067D02*
X0335638Y0381067D01*
X0335638Y0382665D02*
X0455738Y0382665D01*
X0455738Y0329914D02*
X0450310Y0329914D01*
X0451203Y0328316D02*
X0455738Y0328316D01*
X0455738Y0326717D02*
X0451865Y0326717D01*
X0451937Y0325119D02*
X0455738Y0325119D01*
X0455738Y0323520D02*
X0451937Y0323520D01*
X0451357Y0321922D02*
X0455738Y0321922D01*
X0455738Y0320323D02*
X0450682Y0320323D01*
X0449083Y0318725D02*
X0455738Y0318725D01*
X0402811Y0281959D02*
X0300990Y0281959D01*
X0302525Y0280360D02*
X0401276Y0280360D01*
X0400614Y0278762D02*
X0303187Y0278762D01*
X0303504Y0277163D02*
X0400297Y0277163D01*
X0400297Y0275565D02*
X0303504Y0275565D01*
X0302941Y0273966D02*
X0400860Y0273966D01*
X0401807Y0272368D02*
X0301994Y0272368D01*
X0300121Y0270769D02*
X0403680Y0270769D01*
X0432573Y0245193D02*
X0437728Y0245193D01*
X0435221Y0243595D02*
X0433972Y0243595D01*
X0439137Y0235602D02*
X0439538Y0235602D01*
X0430062Y0222814D02*
X0416154Y0222814D01*
X0416173Y0235602D02*
X0411442Y0235602D01*
X0412999Y0237201D02*
X0414733Y0237201D01*
X0321838Y0242433D02*
X0321338Y0241933D01*
X0321338Y0224933D01*
X0311338Y0224933D01*
X0307453Y0222814D02*
X0305222Y0222814D01*
X0305068Y0222441D02*
X0305738Y0224058D01*
X0305738Y0225808D01*
X0305068Y0227425D01*
X0303830Y0228663D01*
X0302213Y0229333D01*
X0300462Y0229333D01*
X0298845Y0228663D01*
X0297607Y0227425D01*
X0296938Y0225808D01*
X0296938Y0224058D01*
X0297607Y0222441D01*
X0298845Y0221203D01*
X0300462Y0220533D01*
X0302213Y0220533D01*
X0303830Y0221203D01*
X0305068Y0222441D01*
X0303842Y0221215D02*
X0308833Y0221215D01*
X0306938Y0224412D02*
X0305738Y0224412D01*
X0305654Y0226011D02*
X0307021Y0226011D01*
X0307791Y0227610D02*
X0304884Y0227610D01*
X0302515Y0229208D02*
X0310160Y0229208D01*
X0312515Y0229208D02*
X0318938Y0229208D01*
X0317791Y0227610D02*
X0314884Y0227610D01*
X0313842Y0221215D02*
X0318833Y0221215D01*
X0317650Y0240398D02*
X0305807Y0240398D01*
X0305938Y0241996D02*
X0317438Y0241996D01*
X0317438Y0243595D02*
X0305938Y0243595D01*
X0305083Y0245193D02*
X0318375Y0245193D01*
X0299191Y0246792D02*
X0283201Y0246792D01*
X0284800Y0245193D02*
X0297592Y0245193D01*
X0296738Y0243595D02*
X0285738Y0243595D01*
X0285738Y0241996D02*
X0296738Y0241996D01*
X0296868Y0240398D02*
X0285525Y0240398D01*
X0283926Y0238799D02*
X0298466Y0238799D01*
X0300160Y0229208D02*
X0265785Y0229208D01*
X0267384Y0227610D02*
X0297791Y0227610D01*
X0297021Y0226011D02*
X0268238Y0226011D01*
X0268238Y0224412D02*
X0296938Y0224412D01*
X0297453Y0222814D02*
X0267941Y0222814D01*
X0266342Y0221215D02*
X0298833Y0221215D01*
X0277875Y0245193D02*
X0264800Y0245193D01*
X0263201Y0246792D02*
X0279474Y0246792D01*
X0260826Y0208427D02*
X0254237Y0208427D01*
X0254237Y0206829D02*
X0259238Y0206829D01*
X0259238Y0205230D02*
X0254237Y0205230D01*
X0254237Y0203632D02*
X0259238Y0203632D01*
X0260232Y0202033D02*
X0254237Y0202033D01*
X0254237Y0200435D02*
X0261830Y0200435D01*
X0254237Y0198836D02*
X0298884Y0198836D01*
X0298927Y0198867D02*
X0298341Y0198442D01*
X0297829Y0197930D01*
X0297403Y0197344D01*
X0297075Y0196699D01*
X0296851Y0196010D01*
X0296738Y0195295D01*
X0296738Y0194933D01*
X0296738Y0194571D01*
X0296851Y0193856D01*
X0297075Y0193167D01*
X0297403Y0192522D01*
X0297829Y0191936D01*
X0298341Y0191424D01*
X0298927Y0190999D01*
X0299572Y0190670D01*
X0300260Y0190446D01*
X0300975Y0190333D01*
X0301337Y0190333D01*
X0301337Y0194933D01*
X0296738Y0194933D01*
X0301337Y0194933D01*
X0301337Y0194933D01*
X0301338Y0194933D01*
X0301337Y0194933D01*
X0301337Y0199533D01*
X0300975Y0199533D01*
X0300260Y0199420D01*
X0299572Y0199196D01*
X0298927Y0198867D01*
X0297349Y0197238D02*
X0254237Y0197238D01*
X0254237Y0195639D02*
X0296792Y0195639D01*
X0296821Y0194041D02*
X0254237Y0194041D01*
X0254237Y0192442D02*
X0297461Y0192442D01*
X0299231Y0190844D02*
X0254237Y0190844D01*
X0301337Y0190844D02*
X0301338Y0190844D01*
X0301337Y0192442D02*
X0301338Y0192442D01*
X0301337Y0194041D02*
X0301338Y0194041D01*
X0301337Y0195639D02*
X0301338Y0195639D01*
X0301337Y0197238D02*
X0301338Y0197238D01*
X0301337Y0198836D02*
X0301338Y0198836D01*
X0378838Y0126933D02*
X0378838Y0124433D01*
X0373150Y0114115D02*
X0359512Y0114115D01*
X0359512Y0112517D02*
X0375479Y0112517D01*
X0374438Y0110918D02*
X0359512Y0110918D01*
X0346838Y0106933D02*
X0379838Y0106933D01*
X0403601Y0114933D02*
X0418838Y0114933D01*
X0424276Y0115714D02*
X0428635Y0115714D01*
X0428635Y0117312D02*
X0424276Y0117312D01*
X0424276Y0118911D02*
X0428635Y0118911D01*
X0428635Y0114115D02*
X0424276Y0114115D01*
X0424276Y0112517D02*
X0428635Y0112517D01*
X0428635Y0110918D02*
X0424276Y0110918D01*
X0413399Y0110918D02*
X0409040Y0110918D01*
X0409040Y0112517D02*
X0413399Y0112517D01*
X0413399Y0118911D02*
X0409040Y0118911D01*
X0217838Y0130433D02*
X0202349Y0130433D01*
X0202227Y0130311D01*
X0202615Y0130311D01*
X0190285Y0157275D02*
X0184899Y0157275D01*
X0186672Y0158874D02*
X0191884Y0158874D01*
X0193482Y0160472D02*
X0188271Y0160472D01*
X0251618Y0289951D02*
X0252183Y0289951D01*
X0252183Y0291550D02*
X0251618Y0291550D01*
X0251618Y0293148D02*
X0252183Y0293148D01*
X0252183Y0296345D02*
X0251618Y0296345D01*
X0251618Y0297944D02*
X0252183Y0297944D01*
X0252183Y0299543D02*
X0251618Y0299543D01*
X0246935Y0347498D02*
X0220343Y0347498D01*
X0220343Y0349096D02*
X0247035Y0349096D01*
X0205332Y0350695D02*
X0201798Y0350695D01*
X0202039Y0352293D02*
X0205368Y0352293D01*
X0195134Y0352293D02*
X0193534Y0352293D01*
X0193534Y0350695D02*
X0195134Y0350695D01*
X0195134Y0353892D02*
X0193534Y0353892D01*
X0193534Y0355490D02*
X0195134Y0355490D01*
X0160638Y0377870D02*
X0307038Y0377870D01*
X0307038Y0379468D02*
X0160638Y0379468D01*
X0160638Y0381067D02*
X0307038Y0381067D01*
X0307038Y0382665D02*
X0160638Y0382665D01*
M02*
