G75*
%MOIN*%
%OFA0B0*%
%FSLAX25Y25*%
%IPPOS*%
%LPD*%
%AMOC8*
5,1,8,0,0,1.08239X$1,22.5*
%
%ADD10C,0.13398*%
%ADD11OC8,0.06400*%
%ADD12OC8,0.07100*%
%ADD13C,0.07100*%
%ADD14C,0.06400*%
%ADD15R,0.08477X0.08477*%
%ADD16C,0.15824*%
%ADD17R,0.09461X0.11824*%
%ADD18R,0.08674X0.11824*%
%ADD19R,0.11824X0.11824*%
%ADD20C,0.07099*%
%ADD21R,0.15824X0.15824*%
%ADD22R,0.07531X0.07531*%
%ADD23C,0.10643*%
%ADD24C,0.06400*%
%ADD25C,0.06800*%
%ADD26C,0.08200*%
%ADD27R,0.12611X0.12611*%
%ADD28OC8,0.08200*%
D10*
X0178838Y0169933D03*
X0178838Y0324933D03*
X0378838Y0169933D03*
X0443838Y0324933D03*
D11*
X0341838Y0242433D03*
X0321838Y0242433D03*
X0328838Y0188433D03*
X0298838Y0188433D03*
X0225838Y0249433D03*
X0211838Y0249433D03*
X0198838Y0243933D03*
X0178838Y0239833D03*
X0178838Y0249833D03*
X0178838Y0269933D03*
X0198838Y0273933D03*
X0211838Y0269433D03*
X0225838Y0269433D03*
X0178838Y0299933D03*
X0378838Y0156933D03*
X0378838Y0126933D03*
X0224938Y0124733D03*
X0224938Y0104733D03*
D12*
X0365838Y0212433D03*
X0388838Y0234933D03*
D13*
X0378838Y0234933D03*
X0355838Y0212433D03*
D14*
X0338838Y0199933D03*
X0328838Y0199933D03*
X0318838Y0199933D03*
X0308838Y0199933D03*
X0308838Y0229933D03*
X0318838Y0229933D03*
X0328838Y0229933D03*
X0338838Y0229933D03*
X0233838Y0229933D03*
X0223838Y0229933D03*
X0213838Y0229933D03*
X0203838Y0229933D03*
X0203838Y0199933D03*
X0213838Y0199933D03*
X0223838Y0199933D03*
X0233838Y0199933D03*
D15*
X0243601Y0114933D03*
X0258838Y0114933D03*
X0274074Y0114933D03*
X0323601Y0114933D03*
X0338838Y0114933D03*
X0354074Y0114933D03*
X0403601Y0114933D03*
X0418838Y0114933D03*
X0434074Y0114933D03*
D16*
X0440491Y0154303D03*
X0397184Y0154303D03*
X0360491Y0154303D03*
X0317184Y0154303D03*
X0280491Y0154303D03*
X0237184Y0154303D03*
D17*
X0446050Y0223756D03*
D18*
X0438176Y0189110D03*
D19*
X0409042Y0223756D03*
X0392901Y0204465D03*
D20*
X0414160Y0206433D03*
X0441719Y0206433D03*
D21*
X0212838Y0345689D03*
X0194334Y0357500D03*
X0212838Y0369311D03*
D22*
X0251901Y0344969D03*
X0251901Y0294969D03*
D23*
X0296782Y0276661D03*
X0351901Y0363276D03*
X0407019Y0276661D03*
D24*
X0218838Y0292133D02*
X0218838Y0297733D01*
X0198838Y0297733D02*
X0198838Y0292133D01*
X0198838Y0322133D02*
X0198838Y0327733D01*
X0218838Y0327733D02*
X0218838Y0322133D01*
D25*
X0373838Y0191933D02*
X0373838Y0185933D01*
X0383838Y0185933D02*
X0383838Y0191933D01*
X0382838Y0116933D02*
X0376838Y0116933D01*
X0376838Y0106933D02*
X0382838Y0106933D01*
X0302838Y0106933D02*
X0296838Y0106933D01*
X0296838Y0116933D02*
X0302838Y0116933D01*
D26*
X0165438Y0161133D03*
X0419338Y0239933D03*
X0429338Y0240933D03*
X0439338Y0239933D03*
D27*
X0183212Y0111807D03*
X0183212Y0130311D03*
X0202227Y0130311D03*
X0202227Y0111807D03*
X0202227Y0148815D03*
X0183212Y0148815D03*
D28*
X0254338Y0201433D03*
X0264338Y0201433D03*
X0274338Y0201433D03*
X0284338Y0201433D03*
X0284338Y0211433D03*
X0274338Y0211433D03*
X0264338Y0211433D03*
X0254338Y0211433D03*
M02*
