%
M48
M72
T01C0.0320
T02C0.0360
T03C0.0400
T04C0.0433
T05C0.0512
T06C0.0630
T07C0.0787
T08C0.0984
T09C0.1102
T10C0.1260
%
T01
X22494Y10473
X22494Y12473
X29884Y18843
X30884Y19993
X31884Y19993
X32884Y19993
X33884Y19993
X32884Y18843
X35584Y21243
X36584Y21243
X37884Y23493
X38884Y23493
X34184Y24243
X33884Y22993
X32884Y22993
X31884Y22993
X30884Y22993
X32184Y24243
X23384Y22993
X22384Y22993
X21384Y22993
X20384Y22993
X19884Y24393
X21184Y24943
X22584Y24943
X22584Y26943
X21184Y26943
X19884Y27393
X17884Y26993
X17884Y24983
X17884Y23983
X20384Y19993
X21384Y19993
X22384Y19993
X23384Y19993
X21884Y29493
X19884Y29493
X17884Y29993
X19884Y32493
X21884Y32493
X37884Y15693
X37884Y12693
T02
X37984Y11693
X37984Y10693
X29984Y10693
X29984Y11693
X37384Y18893
X38384Y18893
T03
X41934Y23993
X42934Y24093
X43934Y23993
X28434Y21143
X28434Y20143
X27434Y20143
X26434Y20143
X25434Y20143
X25434Y21143
X26434Y21143
X27434Y21143
X16544Y16113
T04
X25190Y29497
X25190Y34497
T05
X25884Y11493
X24360Y11493
X27407Y11493
X32360Y11493
X33884Y11493
X35407Y11493
X40360Y11493
X41884Y11493
X43407Y11493
T06
X44172Y20643
X41416Y20643
T07
X18321Y11181
X18321Y13031
X20223Y13031
X20223Y11181
X20223Y14881
X18321Y14881
T08
X29678Y27666
X35190Y36328
X40702Y27666
T09
X39718Y15430
X36049Y15430
X31718Y15430
X28049Y15430
X23718Y15430
X44049Y15430
X21284Y34569
X19433Y35750
X21284Y36931
T10
X17884Y32493
X17884Y16993
X37884Y16993
X44384Y32493
M30
