G75*
%MOIN*%
%OFA0B0*%
%FSLAX25Y25*%
%IPPOS*%
%LPD*%
%AMOC8*
5,1,8,0,0,1.08239X$1,22.5*
%
%ADD10C,0.00400*%
%ADD11C,0.01600*%
D10*
X0200163Y0180000D02*
X0200163Y0181735D01*
X0201031Y0182603D01*
X0202765Y0182603D01*
X0203633Y0181735D01*
X0203633Y0180000D01*
X0202765Y0179133D01*
X0201031Y0179133D01*
X0200163Y0180000D01*
X0205320Y0180000D02*
X0205320Y0182603D01*
X0205320Y0180000D02*
X0206187Y0179133D01*
X0207054Y0180000D01*
X0207922Y0179133D01*
X0208789Y0180000D01*
X0208789Y0182603D01*
X0210492Y0182603D02*
X0212227Y0182603D01*
X0211359Y0183470D02*
X0211359Y0180000D01*
X0210492Y0179133D01*
X0219070Y0180000D02*
X0219937Y0180868D01*
X0221672Y0180868D01*
X0222540Y0181735D01*
X0221672Y0182603D01*
X0219070Y0182603D01*
X0219070Y0180000D02*
X0219937Y0179133D01*
X0222540Y0179133D01*
X0224226Y0179133D02*
X0224226Y0181735D01*
X0225094Y0182603D01*
X0226829Y0182603D01*
X0226829Y0180868D02*
X0224226Y0180868D01*
X0224226Y0179133D02*
X0226829Y0179133D01*
X0227696Y0180000D01*
X0226829Y0180868D01*
X0229407Y0175938D02*
X0229407Y0170733D01*
X0230274Y0170733D02*
X0228539Y0170733D01*
X0226837Y0171600D02*
X0225969Y0170733D01*
X0224234Y0170733D01*
X0223367Y0172468D02*
X0226837Y0172468D01*
X0226837Y0173335D02*
X0225969Y0174203D01*
X0224234Y0174203D01*
X0223367Y0173335D01*
X0223367Y0172468D01*
X0226837Y0171600D02*
X0226837Y0173335D01*
X0229407Y0175938D02*
X0230274Y0175938D01*
X0232828Y0174203D02*
X0235431Y0174203D01*
X0235431Y0175938D02*
X0235431Y0170733D01*
X0232828Y0170733D01*
X0231961Y0171600D01*
X0231961Y0173335D01*
X0232828Y0174203D01*
X0237117Y0173335D02*
X0237117Y0170733D01*
X0239720Y0170733D01*
X0240587Y0171600D01*
X0239720Y0172468D01*
X0237117Y0172468D01*
X0237117Y0173335D02*
X0237985Y0174203D01*
X0239720Y0174203D01*
X0243157Y0174203D02*
X0243157Y0170733D01*
X0242290Y0170733D02*
X0244025Y0170733D01*
X0244025Y0174203D02*
X0243157Y0174203D01*
X0243157Y0175938D02*
X0243157Y0176805D01*
X0244001Y0179133D02*
X0246603Y0179133D01*
X0248290Y0179133D02*
X0248290Y0181735D01*
X0249157Y0182603D01*
X0250024Y0181735D01*
X0250024Y0179133D01*
X0251759Y0179133D02*
X0251759Y0182603D01*
X0250892Y0182603D01*
X0250024Y0181735D01*
X0246603Y0182603D02*
X0246603Y0177398D01*
X0244001Y0179133D02*
X0243133Y0180000D01*
X0243133Y0181735D01*
X0244001Y0182603D01*
X0246603Y0182603D01*
X0241446Y0184338D02*
X0240579Y0184338D01*
X0240579Y0179133D01*
X0241446Y0179133D02*
X0239712Y0179133D01*
X0238009Y0180000D02*
X0238009Y0181735D01*
X0237141Y0182603D01*
X0235407Y0182603D01*
X0234539Y0181735D01*
X0234539Y0180868D01*
X0238009Y0180868D01*
X0238009Y0180000D02*
X0237141Y0179133D01*
X0235407Y0179133D01*
X0245719Y0174203D02*
X0246587Y0174203D01*
X0248322Y0172468D01*
X0250008Y0172468D02*
X0252611Y0172468D01*
X0253478Y0171600D01*
X0252611Y0170733D01*
X0250008Y0170733D01*
X0250008Y0173335D01*
X0250876Y0174203D01*
X0252611Y0174203D01*
X0255165Y0174203D02*
X0256900Y0170733D01*
X0258634Y0174203D01*
X0257751Y0179133D02*
X0256884Y0180000D01*
X0257751Y0180868D01*
X0259486Y0180868D01*
X0260353Y0181735D01*
X0259486Y0182603D01*
X0256884Y0182603D01*
X0255197Y0182603D02*
X0254329Y0182603D01*
X0254329Y0179133D01*
X0253462Y0179133D02*
X0255197Y0179133D01*
X0257751Y0179133D02*
X0260353Y0179133D01*
X0267196Y0180000D02*
X0268064Y0180868D01*
X0269799Y0180868D01*
X0270666Y0181735D01*
X0269799Y0182603D01*
X0267196Y0182603D01*
X0267196Y0180000D02*
X0268064Y0179133D01*
X0270666Y0179133D01*
X0272353Y0179133D02*
X0272353Y0181735D01*
X0273220Y0182603D01*
X0274955Y0182603D01*
X0274955Y0180868D02*
X0272353Y0180868D01*
X0272353Y0179133D02*
X0274955Y0179133D01*
X0275822Y0180000D01*
X0274955Y0180868D01*
X0276658Y0174203D02*
X0275790Y0173335D01*
X0275790Y0172468D01*
X0279260Y0172468D01*
X0279260Y0173335D02*
X0278393Y0174203D01*
X0276658Y0174203D01*
X0279260Y0173335D02*
X0279260Y0171600D01*
X0278393Y0170733D01*
X0276658Y0170733D01*
X0279260Y0167538D02*
X0279260Y0162333D01*
X0280963Y0162333D02*
X0281830Y0163200D01*
X0281830Y0166670D01*
X0282698Y0165803D02*
X0280963Y0165803D01*
X0279260Y0164935D02*
X0278393Y0165803D01*
X0276658Y0165803D01*
X0275790Y0164935D01*
X0275790Y0162333D01*
X0274104Y0163200D02*
X0274104Y0164935D01*
X0273236Y0165803D01*
X0271501Y0165803D01*
X0270634Y0164935D01*
X0270634Y0164068D01*
X0274104Y0164068D01*
X0274104Y0163200D02*
X0273236Y0162333D01*
X0271501Y0162333D01*
X0263791Y0165803D02*
X0262056Y0165803D01*
X0262923Y0166670D02*
X0262923Y0163200D01*
X0262056Y0162333D01*
X0260353Y0163200D02*
X0259486Y0162333D01*
X0257751Y0162333D01*
X0256884Y0163200D01*
X0256884Y0164935D01*
X0257751Y0165803D01*
X0259486Y0165803D01*
X0260353Y0164935D01*
X0260353Y0163200D01*
X0255197Y0162333D02*
X0255197Y0165803D01*
X0252595Y0165803D01*
X0251727Y0164935D01*
X0251727Y0162333D01*
X0250040Y0163200D02*
X0250040Y0164935D01*
X0249173Y0165803D01*
X0247438Y0165803D01*
X0246571Y0164935D01*
X0246571Y0164068D01*
X0250040Y0164068D01*
X0250040Y0163200D02*
X0249173Y0162333D01*
X0247438Y0162333D01*
X0239728Y0163200D02*
X0238860Y0162333D01*
X0237125Y0162333D01*
X0236258Y0163200D01*
X0236258Y0164935D01*
X0237125Y0165803D01*
X0238860Y0165803D01*
X0239728Y0164935D01*
X0239728Y0163200D01*
X0234571Y0162333D02*
X0234571Y0165803D01*
X0232836Y0165803D02*
X0231969Y0165803D01*
X0232836Y0165803D02*
X0234571Y0164068D01*
X0248322Y0170733D02*
X0248322Y0174203D01*
X0254329Y0184338D02*
X0254329Y0185205D01*
X0265478Y0173335D02*
X0265478Y0170733D01*
X0268080Y0170733D01*
X0268947Y0171600D01*
X0268080Y0172468D01*
X0265478Y0172468D01*
X0265478Y0173335D02*
X0266345Y0174203D01*
X0268080Y0174203D01*
X0280955Y0174203D02*
X0283557Y0172468D01*
X0280955Y0170733D01*
X0283557Y0170733D02*
X0283557Y0175938D01*
X0286127Y0175938D02*
X0286127Y0176805D01*
X0285268Y0179133D02*
X0286135Y0180000D01*
X0286135Y0181735D01*
X0285268Y0182603D01*
X0283533Y0182603D01*
X0282666Y0181735D01*
X0282666Y0180868D01*
X0286135Y0180868D01*
X0287822Y0181735D02*
X0287822Y0180000D01*
X0288689Y0179133D01*
X0291292Y0179133D01*
X0291292Y0184338D01*
X0291292Y0182603D02*
X0288689Y0182603D01*
X0287822Y0181735D01*
X0285268Y0179133D02*
X0283533Y0179133D01*
X0286127Y0174203D02*
X0286127Y0170733D01*
X0285260Y0170733D02*
X0286995Y0170733D01*
X0288697Y0170733D02*
X0290432Y0170733D01*
X0289565Y0170733D02*
X0289565Y0175938D01*
X0290432Y0175938D01*
X0286995Y0174203D02*
X0286127Y0174203D01*
X0289541Y0165803D02*
X0292143Y0165803D01*
X0293010Y0164935D01*
X0292143Y0164068D01*
X0290408Y0164068D01*
X0289541Y0163200D01*
X0290408Y0162333D01*
X0293010Y0162333D01*
X0294697Y0164068D02*
X0298167Y0164068D01*
X0298167Y0164935D02*
X0297299Y0165803D01*
X0295565Y0165803D01*
X0294697Y0164935D01*
X0294697Y0164068D01*
X0295565Y0162333D02*
X0297299Y0162333D01*
X0298167Y0163200D01*
X0298167Y0164935D01*
X0299854Y0165803D02*
X0302456Y0165803D01*
X0303323Y0164935D01*
X0303323Y0163200D01*
X0302456Y0162333D01*
X0299854Y0162333D01*
X0299854Y0161466D02*
X0299854Y0165803D01*
X0299854Y0161466D02*
X0300721Y0160598D01*
X0301588Y0160598D01*
X0305010Y0162333D02*
X0305010Y0164935D01*
X0305877Y0165803D01*
X0308480Y0165803D01*
X0308480Y0162333D01*
X0310166Y0162333D02*
X0312769Y0162333D01*
X0313636Y0163200D01*
X0312769Y0164068D01*
X0310166Y0164068D01*
X0310166Y0164935D02*
X0310166Y0162333D01*
X0310166Y0164935D02*
X0311034Y0165803D01*
X0312769Y0165803D01*
X0315323Y0164935D02*
X0315323Y0162333D01*
X0315323Y0164935D02*
X0316190Y0165803D01*
X0317925Y0165803D01*
X0318792Y0164935D01*
X0320479Y0165803D02*
X0323081Y0165803D01*
X0323949Y0164935D01*
X0323949Y0163200D01*
X0323081Y0162333D01*
X0320479Y0162333D01*
X0318792Y0162333D02*
X0318792Y0167538D01*
X0321339Y0170733D02*
X0321339Y0173335D01*
X0322206Y0174203D01*
X0324808Y0174203D01*
X0324808Y0170733D01*
X0326511Y0170733D02*
X0328246Y0170733D01*
X0327378Y0170733D02*
X0327378Y0174203D01*
X0328246Y0174203D01*
X0329941Y0174203D02*
X0332543Y0172468D01*
X0329941Y0170733D01*
X0332543Y0170733D02*
X0332543Y0175938D01*
X0334230Y0175070D02*
X0335097Y0175938D01*
X0336832Y0175938D01*
X0337699Y0175070D01*
X0337699Y0174203D01*
X0336832Y0173335D01*
X0335097Y0173335D01*
X0334230Y0172468D01*
X0334230Y0171600D01*
X0335097Y0170733D01*
X0336832Y0170733D01*
X0337699Y0171600D01*
X0340277Y0177398D02*
X0340277Y0182603D01*
X0337675Y0182603D01*
X0336808Y0181735D01*
X0336808Y0180000D01*
X0337675Y0179133D01*
X0340277Y0179133D01*
X0341964Y0179133D02*
X0341964Y0181735D01*
X0342832Y0182603D01*
X0344566Y0182603D01*
X0345434Y0181735D01*
X0347120Y0182603D02*
X0349723Y0182603D01*
X0350590Y0181735D01*
X0350590Y0180000D01*
X0349723Y0179133D01*
X0347120Y0179133D01*
X0345434Y0179133D02*
X0345434Y0184338D01*
X0352277Y0182603D02*
X0352277Y0179133D01*
X0354879Y0179133D01*
X0355747Y0180000D01*
X0355747Y0182603D01*
X0357433Y0181735D02*
X0357433Y0180000D01*
X0358301Y0179133D01*
X0360036Y0179133D01*
X0360903Y0180000D01*
X0360903Y0181735D01*
X0360036Y0182603D01*
X0358301Y0182603D01*
X0357433Y0181735D01*
X0362590Y0184338D02*
X0366059Y0184338D01*
X0364325Y0184338D02*
X0364325Y0179133D01*
X0362614Y0176805D02*
X0362614Y0175938D01*
X0362614Y0174203D02*
X0362614Y0170733D01*
X0363481Y0170733D02*
X0361746Y0170733D01*
X0360044Y0170733D02*
X0360044Y0174203D01*
X0360044Y0172468D02*
X0358309Y0174203D01*
X0357441Y0174203D01*
X0355747Y0173335D02*
X0354879Y0174203D01*
X0353144Y0174203D01*
X0352277Y0173335D01*
X0352277Y0172468D01*
X0355747Y0172468D01*
X0355747Y0173335D02*
X0355747Y0171600D01*
X0354879Y0170733D01*
X0353144Y0170733D01*
X0353160Y0168405D02*
X0353160Y0167538D01*
X0353160Y0165803D02*
X0353160Y0162333D01*
X0352293Y0162333D02*
X0354028Y0162333D01*
X0355714Y0163200D02*
X0356582Y0164068D01*
X0358317Y0164068D01*
X0359184Y0164935D01*
X0358317Y0165803D01*
X0355714Y0165803D01*
X0354028Y0165803D02*
X0353160Y0165803D01*
X0350590Y0164935D02*
X0349723Y0165803D01*
X0347120Y0165803D01*
X0345434Y0165803D02*
X0343699Y0165803D01*
X0344566Y0166670D02*
X0344566Y0163200D01*
X0343699Y0162333D01*
X0341996Y0163200D02*
X0341129Y0162333D01*
X0339394Y0162333D01*
X0338527Y0163200D01*
X0338527Y0164935D01*
X0339394Y0165803D01*
X0341129Y0165803D01*
X0341996Y0164935D01*
X0341996Y0163200D01*
X0347120Y0163200D02*
X0347988Y0164068D01*
X0349723Y0164068D01*
X0350590Y0164935D01*
X0350590Y0162333D02*
X0347988Y0162333D01*
X0347120Y0163200D01*
X0347988Y0170733D02*
X0347120Y0171600D01*
X0347988Y0172468D01*
X0349723Y0172468D01*
X0350590Y0173335D01*
X0349723Y0174203D01*
X0347120Y0174203D01*
X0345434Y0171600D02*
X0344566Y0171600D01*
X0344566Y0170733D01*
X0345434Y0170733D01*
X0345434Y0171600D01*
X0347988Y0170733D02*
X0350590Y0170733D01*
X0355714Y0163200D02*
X0356582Y0162333D01*
X0359184Y0162333D01*
X0360871Y0164068D02*
X0364341Y0164068D01*
X0364341Y0164935D02*
X0363473Y0165803D01*
X0361738Y0165803D01*
X0360871Y0164935D01*
X0360871Y0164068D01*
X0361738Y0162333D02*
X0363473Y0162333D01*
X0364341Y0163200D01*
X0364341Y0164935D01*
X0366035Y0165803D02*
X0366903Y0165803D01*
X0368638Y0164068D01*
X0368638Y0162333D02*
X0368638Y0165803D01*
X0367770Y0170733D02*
X0366903Y0171600D01*
X0366035Y0170733D01*
X0365168Y0171600D01*
X0365168Y0174203D01*
X0363481Y0174203D02*
X0362614Y0174203D01*
X0368638Y0174203D02*
X0368638Y0171600D01*
X0367770Y0170733D01*
X0367770Y0182603D02*
X0368638Y0183470D01*
X0368638Y0185205D01*
X0335121Y0180000D02*
X0334254Y0180868D01*
X0331651Y0180868D01*
X0331651Y0181735D02*
X0331651Y0179133D01*
X0334254Y0179133D01*
X0335121Y0180000D01*
X0334254Y0182603D02*
X0332519Y0182603D01*
X0331651Y0181735D01*
X0329965Y0181735D02*
X0329097Y0182603D01*
X0326495Y0182603D01*
X0326495Y0184338D02*
X0326495Y0179133D01*
X0329097Y0179133D01*
X0329965Y0180000D01*
X0329965Y0181735D01*
X0324808Y0181735D02*
X0323941Y0180868D01*
X0322206Y0180868D01*
X0321339Y0180000D01*
X0322206Y0179133D01*
X0324808Y0179133D01*
X0324808Y0181735D02*
X0323941Y0182603D01*
X0321339Y0182603D01*
X0319652Y0182603D02*
X0318784Y0183470D01*
X0318784Y0185205D01*
X0311917Y0181735D02*
X0311917Y0180000D01*
X0311050Y0179133D01*
X0308448Y0179133D01*
X0306761Y0180000D02*
X0305893Y0180868D01*
X0303291Y0180868D01*
X0303291Y0181735D02*
X0303291Y0179133D01*
X0305893Y0179133D01*
X0306761Y0180000D01*
X0305893Y0182603D02*
X0304159Y0182603D01*
X0303291Y0181735D01*
X0301604Y0182603D02*
X0301604Y0179133D01*
X0298135Y0179133D02*
X0298135Y0181735D01*
X0299002Y0182603D01*
X0301604Y0182603D01*
X0308448Y0182603D02*
X0311050Y0182603D01*
X0311917Y0181735D01*
X0311893Y0174203D02*
X0311026Y0173335D01*
X0311026Y0170733D01*
X0313628Y0170733D01*
X0314495Y0171600D01*
X0313628Y0172468D01*
X0311026Y0172468D01*
X0309339Y0173335D02*
X0309339Y0171600D01*
X0308472Y0170733D01*
X0305869Y0170733D01*
X0303315Y0171600D02*
X0302448Y0170733D01*
X0303315Y0171600D02*
X0303315Y0175070D01*
X0304183Y0174203D02*
X0302448Y0174203D01*
X0300745Y0173335D02*
X0299878Y0174203D01*
X0297275Y0174203D01*
X0298143Y0172468D02*
X0299878Y0172468D01*
X0300745Y0173335D01*
X0300745Y0170733D02*
X0298143Y0170733D01*
X0297275Y0171600D01*
X0298143Y0172468D01*
X0305869Y0174203D02*
X0308472Y0174203D01*
X0309339Y0173335D01*
X0311893Y0174203D02*
X0313628Y0174203D01*
X0327378Y0175938D02*
X0327378Y0176805D01*
X0330808Y0165803D02*
X0331675Y0165803D01*
X0331675Y0164935D01*
X0330808Y0164935D01*
X0330808Y0165803D01*
X0330808Y0163200D02*
X0331675Y0163200D01*
X0331675Y0162333D01*
X0330808Y0162333D01*
X0330808Y0163200D01*
X0330808Y0162333D02*
X0332543Y0160598D01*
X0336840Y0162333D02*
X0336840Y0165803D01*
X0335105Y0165803D02*
X0334238Y0165803D01*
X0335105Y0165803D02*
X0336840Y0164068D01*
X0308472Y0141470D02*
X0308472Y0138000D01*
X0307604Y0137133D01*
X0305901Y0137133D02*
X0303299Y0137133D01*
X0302432Y0138000D01*
X0302432Y0139735D01*
X0303299Y0140603D01*
X0305901Y0140603D01*
X0305901Y0135398D01*
X0311026Y0137133D02*
X0311026Y0140603D01*
X0309339Y0140603D02*
X0307604Y0140603D01*
X0311026Y0137133D02*
X0313628Y0137133D01*
X0314495Y0138000D01*
X0314495Y0140603D01*
X0316182Y0139735D02*
X0317050Y0140603D01*
X0318784Y0140603D01*
X0319652Y0139735D01*
X0319652Y0138000D01*
X0318784Y0137133D01*
X0317050Y0137133D01*
X0316182Y0138000D01*
X0316182Y0139735D01*
X0326495Y0140603D02*
X0326495Y0136266D01*
X0327362Y0135398D01*
X0328230Y0135398D01*
X0329097Y0137133D02*
X0326495Y0137133D01*
X0329097Y0137133D02*
X0329965Y0138000D01*
X0329965Y0140603D01*
X0331651Y0140603D02*
X0334254Y0140603D01*
X0335121Y0139735D01*
X0335121Y0138000D01*
X0334254Y0137133D01*
X0331651Y0137133D01*
X0336808Y0137133D02*
X0336808Y0139735D01*
X0337675Y0140603D01*
X0340277Y0140603D01*
X0340277Y0137133D01*
X0341964Y0138868D02*
X0345434Y0138868D01*
X0345434Y0139735D02*
X0344566Y0140603D01*
X0342832Y0140603D01*
X0341964Y0139735D01*
X0341964Y0138868D01*
X0342832Y0137133D02*
X0344566Y0137133D01*
X0345434Y0138000D01*
X0345434Y0139735D01*
X0347120Y0140603D02*
X0347120Y0137133D01*
X0349723Y0137133D01*
X0350590Y0138000D01*
X0350590Y0140603D01*
X0352277Y0140603D02*
X0354879Y0140603D01*
X0355747Y0139735D01*
X0355747Y0138000D01*
X0354879Y0137133D01*
X0352277Y0137133D01*
X0352277Y0135398D02*
X0352277Y0140603D01*
X0357433Y0139735D02*
X0357433Y0138868D01*
X0360903Y0138868D01*
X0360903Y0139735D02*
X0360036Y0140603D01*
X0358301Y0140603D01*
X0357433Y0139735D01*
X0358301Y0137133D02*
X0360036Y0137133D01*
X0360903Y0138000D01*
X0360903Y0139735D01*
X0362598Y0140603D02*
X0363465Y0140603D01*
X0365200Y0138868D01*
X0365200Y0137133D02*
X0365200Y0140603D01*
X0366903Y0139735D02*
X0368638Y0139735D01*
X0367770Y0141470D02*
X0366903Y0142338D01*
X0367770Y0141470D02*
X0367770Y0137133D01*
X0300745Y0138000D02*
X0299878Y0137133D01*
X0297275Y0137133D01*
X0297275Y0140603D01*
X0295589Y0140603D02*
X0293854Y0140603D01*
X0294721Y0141470D02*
X0294721Y0138000D01*
X0293854Y0137133D01*
X0300745Y0138000D02*
X0300745Y0140603D01*
X0286995Y0135398D02*
X0286127Y0135398D01*
X0285260Y0136266D01*
X0285260Y0140603D01*
X0283557Y0140603D02*
X0283557Y0138000D01*
X0282690Y0137133D01*
X0280087Y0137133D01*
X0280087Y0140603D01*
X0278401Y0139735D02*
X0277533Y0140603D01*
X0274931Y0140603D01*
X0273244Y0140603D02*
X0271509Y0140603D01*
X0272377Y0141470D02*
X0272377Y0138000D01*
X0271509Y0137133D01*
X0274931Y0138000D02*
X0275798Y0138868D01*
X0277533Y0138868D01*
X0278401Y0139735D01*
X0278401Y0137133D02*
X0275798Y0137133D01*
X0274931Y0138000D01*
X0264650Y0138000D02*
X0263783Y0138868D01*
X0261181Y0138868D01*
X0261181Y0139735D02*
X0261181Y0137133D01*
X0263783Y0137133D01*
X0264650Y0138000D01*
X0263783Y0140603D02*
X0262048Y0140603D01*
X0261181Y0139735D01*
X0254337Y0140603D02*
X0251735Y0140603D01*
X0250868Y0139735D01*
X0250868Y0138000D01*
X0251735Y0137133D01*
X0254337Y0137133D01*
X0254337Y0142338D01*
X0249181Y0140603D02*
X0248314Y0140603D01*
X0248314Y0137133D01*
X0249181Y0137133D02*
X0247446Y0137133D01*
X0244876Y0138000D02*
X0244009Y0137133D01*
X0244876Y0138000D02*
X0244876Y0141470D01*
X0245743Y0140603D02*
X0244009Y0140603D01*
X0242306Y0138000D02*
X0241438Y0138000D01*
X0241438Y0137133D01*
X0242306Y0137133D01*
X0242306Y0138000D01*
X0248314Y0142338D02*
X0248314Y0143205D01*
X0285260Y0143205D02*
X0285260Y0142338D01*
X0352598Y0251133D02*
X0353366Y0251133D01*
X0353366Y0251900D01*
X0352598Y0251900D01*
X0352598Y0251133D01*
X0354900Y0251900D02*
X0355668Y0251133D01*
X0357970Y0251133D01*
X0357202Y0252668D02*
X0355668Y0252668D01*
X0354900Y0251900D01*
X0354900Y0254202D02*
X0357202Y0254202D01*
X0357970Y0253435D01*
X0357202Y0252668D01*
X0359504Y0254202D02*
X0360271Y0254202D01*
X0361806Y0252668D01*
X0361806Y0254202D02*
X0361806Y0251133D01*
X0363341Y0252668D02*
X0366410Y0252668D01*
X0366410Y0253435D02*
X0365643Y0254202D01*
X0364108Y0254202D01*
X0363341Y0253435D01*
X0363341Y0252668D01*
X0364108Y0251133D02*
X0365643Y0251133D01*
X0366410Y0251900D01*
X0366410Y0253435D01*
X0367945Y0254202D02*
X0370247Y0254202D01*
X0371014Y0253435D01*
X0371014Y0251900D01*
X0370247Y0251133D01*
X0367945Y0251133D01*
X0372549Y0251133D02*
X0372549Y0253435D01*
X0373316Y0254202D01*
X0375618Y0254202D01*
X0375618Y0251133D01*
X0377153Y0252668D02*
X0380222Y0252668D01*
X0380222Y0253435D02*
X0379455Y0254202D01*
X0377920Y0254202D01*
X0377153Y0253435D01*
X0377153Y0252668D01*
X0377920Y0251133D02*
X0379455Y0251133D01*
X0380222Y0251900D01*
X0380222Y0253435D01*
X0381756Y0254202D02*
X0381756Y0251133D01*
X0384058Y0251133D01*
X0384826Y0251900D01*
X0384826Y0254202D01*
X0386360Y0254202D02*
X0386360Y0249598D01*
X0386360Y0251133D02*
X0388662Y0251133D01*
X0389430Y0251900D01*
X0389430Y0253435D01*
X0388662Y0254202D01*
X0386360Y0254202D01*
X0390964Y0253435D02*
X0390964Y0252668D01*
X0394034Y0252668D01*
X0394034Y0253435D02*
X0393266Y0254202D01*
X0391732Y0254202D01*
X0390964Y0253435D01*
X0391732Y0251133D02*
X0393266Y0251133D01*
X0394034Y0251900D01*
X0394034Y0253435D01*
X0395568Y0254202D02*
X0397870Y0254202D01*
X0398638Y0253435D01*
X0397870Y0252668D01*
X0396336Y0252668D01*
X0395568Y0251900D01*
X0396336Y0251133D01*
X0398638Y0251133D01*
X0398638Y0258633D02*
X0395568Y0258633D01*
X0394034Y0258633D02*
X0390964Y0263237D01*
X0389430Y0263237D02*
X0386360Y0263237D01*
X0384826Y0263237D02*
X0384826Y0258633D01*
X0381756Y0258633D01*
X0380222Y0258633D02*
X0380222Y0263237D01*
X0377920Y0263237D01*
X0377153Y0262470D01*
X0377153Y0260935D01*
X0377920Y0260168D01*
X0380222Y0260168D01*
X0378687Y0260168D02*
X0377153Y0258633D01*
X0375618Y0258633D02*
X0375618Y0263237D01*
X0372549Y0258633D01*
X0372549Y0263237D01*
X0371014Y0261702D02*
X0369479Y0263237D01*
X0367945Y0261702D01*
X0367945Y0258633D01*
X0366410Y0258633D02*
X0363341Y0258633D01*
X0366410Y0258633D02*
X0366410Y0263237D01*
X0367945Y0260935D02*
X0371014Y0260935D01*
X0371014Y0261702D02*
X0371014Y0258633D01*
X0367945Y0266133D02*
X0368712Y0266900D01*
X0368712Y0268435D01*
X0367945Y0269202D01*
X0366410Y0269202D01*
X0365643Y0268435D01*
X0365643Y0266900D01*
X0366410Y0266133D01*
X0367945Y0266133D01*
X0364108Y0266133D02*
X0364108Y0269202D01*
X0364108Y0267668D02*
X0362573Y0269202D01*
X0361806Y0269202D01*
X0362573Y0273633D02*
X0361806Y0274400D01*
X0361806Y0276702D01*
X0360271Y0275935D02*
X0359504Y0276702D01*
X0357202Y0276702D01*
X0357970Y0275168D02*
X0359504Y0275168D01*
X0360271Y0275935D01*
X0360271Y0273633D02*
X0357970Y0273633D01*
X0357202Y0274400D01*
X0357970Y0275168D01*
X0362573Y0273633D02*
X0363341Y0274400D01*
X0364108Y0273633D01*
X0364875Y0274400D01*
X0364875Y0276702D01*
X0366410Y0275935D02*
X0367177Y0276702D01*
X0368712Y0276702D01*
X0369479Y0275935D01*
X0369479Y0274400D01*
X0368712Y0273633D01*
X0367177Y0273633D01*
X0366410Y0274400D01*
X0366410Y0275935D01*
X0369479Y0279598D02*
X0369479Y0284202D01*
X0367177Y0284202D01*
X0366410Y0283435D01*
X0366410Y0281900D01*
X0367177Y0281133D01*
X0369479Y0281133D01*
X0371014Y0281133D02*
X0371781Y0281900D01*
X0371781Y0284970D01*
X0371014Y0284202D02*
X0372549Y0284202D01*
X0374083Y0284202D02*
X0374083Y0281133D01*
X0376385Y0281133D01*
X0377153Y0281900D01*
X0377153Y0284202D01*
X0378687Y0283435D02*
X0379455Y0284202D01*
X0380989Y0284202D01*
X0381756Y0283435D01*
X0381756Y0281900D01*
X0380989Y0281133D01*
X0379455Y0281133D01*
X0378687Y0281900D01*
X0378687Y0283435D01*
X0379455Y0288633D02*
X0378687Y0289400D01*
X0379455Y0290168D01*
X0380989Y0290168D01*
X0381756Y0290935D01*
X0380989Y0291702D01*
X0378687Y0291702D01*
X0379455Y0288633D02*
X0381756Y0288633D01*
X0383291Y0288633D02*
X0384826Y0288633D01*
X0384058Y0288633D02*
X0384058Y0291702D01*
X0384826Y0291702D01*
X0384058Y0293237D02*
X0384058Y0294004D01*
X0390964Y0293237D02*
X0392499Y0292470D01*
X0394034Y0290935D01*
X0391732Y0290935D01*
X0390964Y0290168D01*
X0390964Y0289400D01*
X0391732Y0288633D01*
X0393266Y0288633D01*
X0394034Y0289400D01*
X0394034Y0290935D01*
X0395568Y0289400D02*
X0396336Y0288633D01*
X0397870Y0288633D01*
X0398638Y0289400D01*
X0398638Y0292470D01*
X0397870Y0293237D01*
X0396336Y0293237D01*
X0395568Y0292470D01*
X0395568Y0285737D02*
X0395568Y0281133D01*
X0397103Y0281133D02*
X0397870Y0281900D01*
X0397870Y0284970D01*
X0397103Y0284202D02*
X0398638Y0284202D01*
X0395568Y0283435D02*
X0394801Y0284202D01*
X0393266Y0284202D01*
X0392499Y0283435D01*
X0392499Y0281133D01*
X0390964Y0281900D02*
X0390964Y0283435D01*
X0390197Y0284202D01*
X0388662Y0284202D01*
X0387895Y0283435D01*
X0387895Y0282668D01*
X0390964Y0282668D01*
X0390964Y0281900D02*
X0390197Y0281133D01*
X0388662Y0281133D01*
X0389430Y0278237D02*
X0387128Y0278237D01*
X0386360Y0277470D01*
X0386360Y0274400D01*
X0387128Y0273633D01*
X0389430Y0273633D01*
X0389430Y0278237D01*
X0390964Y0277470D02*
X0391732Y0278237D01*
X0393266Y0278237D01*
X0394034Y0277470D01*
X0394034Y0274400D01*
X0393266Y0273633D01*
X0391732Y0273633D01*
X0390964Y0274400D01*
X0390964Y0277470D01*
X0395568Y0278237D02*
X0395568Y0273633D01*
X0394801Y0271504D02*
X0394801Y0270737D01*
X0394801Y0269202D02*
X0394801Y0266133D01*
X0395568Y0266133D02*
X0394034Y0266133D01*
X0392499Y0266133D02*
X0390964Y0266133D01*
X0391732Y0266133D02*
X0391732Y0270737D01*
X0392499Y0270737D01*
X0394801Y0269202D02*
X0395568Y0269202D01*
X0397103Y0268435D02*
X0398638Y0268435D01*
X0397870Y0269970D02*
X0397870Y0266133D01*
X0398638Y0263237D02*
X0395568Y0263237D01*
X0394034Y0263237D02*
X0390964Y0258633D01*
X0387895Y0258633D02*
X0387895Y0263237D01*
X0387895Y0266133D02*
X0388662Y0266900D01*
X0388662Y0269970D01*
X0387895Y0269202D02*
X0389430Y0269202D01*
X0386360Y0268435D02*
X0385593Y0269202D01*
X0384058Y0269202D01*
X0383291Y0268435D01*
X0383291Y0267668D01*
X0386360Y0267668D01*
X0386360Y0268435D02*
X0386360Y0266900D01*
X0385593Y0266133D01*
X0384058Y0266133D01*
X0381756Y0266133D02*
X0381756Y0269202D01*
X0381756Y0267668D02*
X0380222Y0269202D01*
X0379455Y0269202D01*
X0377920Y0268435D02*
X0377153Y0269202D01*
X0374851Y0269202D01*
X0375618Y0267668D02*
X0377153Y0267668D01*
X0377920Y0268435D01*
X0377920Y0266133D02*
X0375618Y0266133D01*
X0374851Y0266900D01*
X0375618Y0267668D01*
X0375618Y0273633D02*
X0374083Y0273633D01*
X0374851Y0273633D02*
X0374851Y0278237D01*
X0375618Y0278237D01*
X0377920Y0276702D02*
X0377153Y0275935D01*
X0377153Y0273633D01*
X0379455Y0273633D01*
X0380222Y0274400D01*
X0379455Y0275168D01*
X0377153Y0275168D01*
X0377920Y0276702D02*
X0379455Y0276702D01*
X0372549Y0278237D02*
X0371781Y0278237D01*
X0371781Y0273633D01*
X0371014Y0273633D02*
X0372549Y0273633D01*
X0364875Y0281900D02*
X0364108Y0281133D01*
X0361806Y0281133D01*
X0361806Y0284202D01*
X0360271Y0284202D02*
X0358737Y0284202D01*
X0359504Y0284970D02*
X0359504Y0281900D01*
X0358737Y0281133D01*
X0364875Y0281900D02*
X0364875Y0284202D01*
X0367945Y0287098D02*
X0367945Y0291702D01*
X0365643Y0291702D01*
X0364875Y0290935D01*
X0364875Y0289400D01*
X0365643Y0288633D01*
X0367945Y0288633D01*
X0369479Y0289400D02*
X0369479Y0290935D01*
X0370247Y0291702D01*
X0371781Y0291702D01*
X0372549Y0290935D01*
X0372549Y0289400D01*
X0371781Y0288633D01*
X0370247Y0288633D01*
X0369479Y0289400D01*
X0363341Y0291702D02*
X0361806Y0291702D01*
X0362573Y0292470D02*
X0362573Y0289400D01*
X0361806Y0288633D01*
X0360271Y0288633D02*
X0358737Y0288633D01*
X0359504Y0288633D02*
X0359504Y0291702D01*
X0360271Y0291702D01*
X0359504Y0293237D02*
X0359504Y0294004D01*
X0356435Y0291702D02*
X0357202Y0290935D01*
X0357202Y0289400D01*
X0356435Y0288633D01*
X0354900Y0288633D01*
X0354133Y0289400D01*
X0354133Y0290935D01*
X0354900Y0291702D01*
X0356435Y0291702D01*
X0352598Y0291702D02*
X0352598Y0288633D01*
X0349529Y0288633D02*
X0349529Y0290935D01*
X0350296Y0291702D01*
X0352598Y0291702D01*
X0347994Y0289400D02*
X0347227Y0290168D01*
X0344925Y0290168D01*
X0344925Y0290935D02*
X0344925Y0288633D01*
X0347227Y0288633D01*
X0347994Y0289400D01*
X0347227Y0291702D02*
X0345692Y0291702D01*
X0344925Y0290935D01*
X0343390Y0288633D02*
X0341856Y0288633D01*
X0342623Y0288633D02*
X0342623Y0293237D01*
X0343390Y0293237D01*
X0335717Y0293237D02*
X0335717Y0288633D01*
X0333415Y0288633D01*
X0332648Y0289400D01*
X0332648Y0290935D01*
X0333415Y0291702D01*
X0335717Y0291702D01*
X0331113Y0291702D02*
X0331113Y0289400D01*
X0330346Y0288633D01*
X0328044Y0288633D01*
X0328044Y0291702D01*
X0326509Y0291702D02*
X0324975Y0291702D01*
X0325742Y0292470D02*
X0325742Y0289400D01*
X0324975Y0288633D01*
X0318836Y0289400D02*
X0318069Y0288633D01*
X0315767Y0288633D01*
X0314232Y0288633D02*
X0314232Y0293237D01*
X0313465Y0291702D02*
X0314232Y0290935D01*
X0313465Y0291702D02*
X0311930Y0291702D01*
X0311163Y0290935D01*
X0311163Y0288633D01*
X0309628Y0289400D02*
X0308861Y0290168D01*
X0306559Y0290168D01*
X0306559Y0290935D02*
X0306559Y0288633D01*
X0308861Y0288633D01*
X0309628Y0289400D01*
X0308861Y0291702D02*
X0307326Y0291702D01*
X0306559Y0290935D01*
X0305024Y0291702D02*
X0305024Y0288633D01*
X0301955Y0288633D02*
X0301955Y0290935D01*
X0302722Y0291702D01*
X0305024Y0291702D01*
X0300420Y0290935D02*
X0300420Y0289400D01*
X0299653Y0288633D01*
X0297351Y0288633D01*
X0297351Y0287866D02*
X0297351Y0291702D01*
X0299653Y0291702D01*
X0300420Y0290935D01*
X0298886Y0287098D02*
X0298119Y0287098D01*
X0297351Y0287866D01*
X0295817Y0289400D02*
X0295817Y0290935D01*
X0295049Y0291702D01*
X0293515Y0291702D01*
X0292747Y0290935D01*
X0292747Y0290168D01*
X0295817Y0290168D01*
X0295817Y0289400D02*
X0295049Y0288633D01*
X0293515Y0288633D01*
X0291213Y0288633D02*
X0288911Y0288633D01*
X0288143Y0289400D01*
X0288911Y0290168D01*
X0290445Y0290168D01*
X0291213Y0290935D01*
X0290445Y0291702D01*
X0288143Y0291702D01*
X0285121Y0304433D02*
X0282052Y0304433D01*
X0280517Y0305200D02*
X0277448Y0308270D01*
X0277448Y0305200D01*
X0278215Y0304433D01*
X0279750Y0304433D01*
X0280517Y0305200D01*
X0280517Y0308270D01*
X0279750Y0309037D01*
X0278215Y0309037D01*
X0277448Y0308270D01*
X0275913Y0307502D02*
X0274379Y0309037D01*
X0274379Y0304433D01*
X0275913Y0304433D02*
X0272844Y0304433D01*
X0271309Y0304433D02*
X0271309Y0305200D01*
X0268240Y0308270D01*
X0268240Y0309037D01*
X0271309Y0309037D01*
X0271309Y0311933D02*
X0273611Y0311933D01*
X0274379Y0312700D01*
X0274379Y0314235D01*
X0273611Y0315002D01*
X0271309Y0315002D01*
X0271309Y0316537D02*
X0271309Y0311933D01*
X0269775Y0311933D02*
X0267473Y0311933D01*
X0266705Y0312700D01*
X0267473Y0313468D01*
X0269007Y0313468D01*
X0269775Y0314235D01*
X0269007Y0315002D01*
X0266705Y0315002D01*
X0266705Y0319433D02*
X0268240Y0319433D01*
X0269007Y0320200D01*
X0269007Y0321735D01*
X0268240Y0322502D01*
X0266705Y0322502D01*
X0265938Y0321735D01*
X0265938Y0320968D01*
X0269007Y0320968D01*
X0270542Y0321735D02*
X0270542Y0319433D01*
X0270542Y0321735D02*
X0271309Y0322502D01*
X0273611Y0322502D01*
X0273611Y0319433D01*
X0275146Y0320968D02*
X0278215Y0320968D01*
X0278215Y0321735D02*
X0278215Y0320200D01*
X0277448Y0319433D01*
X0275913Y0319433D01*
X0275146Y0320968D02*
X0275146Y0321735D01*
X0275913Y0322502D01*
X0277448Y0322502D01*
X0278215Y0321735D01*
X0279750Y0321735D02*
X0281285Y0321735D01*
X0279750Y0321735D02*
X0279750Y0320200D01*
X0280517Y0319433D01*
X0282052Y0319433D01*
X0282819Y0320200D01*
X0282819Y0323270D01*
X0282052Y0324037D01*
X0280517Y0324037D01*
X0279750Y0323270D01*
X0280517Y0325398D02*
X0278983Y0326933D01*
X0279750Y0326933D01*
X0279750Y0327700D01*
X0278983Y0327700D01*
X0278983Y0326933D01*
X0278983Y0329235D02*
X0279750Y0329235D01*
X0279750Y0330002D01*
X0278983Y0330002D01*
X0278983Y0329235D01*
X0282052Y0329235D02*
X0285121Y0329235D01*
X0282819Y0331537D01*
X0282819Y0326933D01*
X0286656Y0327700D02*
X0287423Y0326933D01*
X0288958Y0326933D01*
X0289725Y0327700D01*
X0289725Y0328468D01*
X0288958Y0329235D01*
X0287423Y0329235D01*
X0286656Y0328468D01*
X0286656Y0327700D01*
X0287423Y0329235D02*
X0286656Y0330002D01*
X0286656Y0330770D01*
X0287423Y0331537D01*
X0288958Y0331537D01*
X0289725Y0330770D01*
X0289725Y0330002D01*
X0288958Y0329235D01*
X0291260Y0329235D02*
X0293562Y0329235D01*
X0294329Y0330002D01*
X0294329Y0330770D01*
X0293562Y0331537D01*
X0292027Y0331537D01*
X0291260Y0330770D01*
X0291260Y0327700D01*
X0292027Y0326933D01*
X0293562Y0326933D01*
X0294329Y0327700D01*
X0295864Y0326933D02*
X0298933Y0326933D01*
X0297398Y0326933D02*
X0297398Y0331537D01*
X0298933Y0330002D01*
X0302002Y0334433D02*
X0302770Y0335200D01*
X0302770Y0338270D01*
X0303537Y0337502D02*
X0302002Y0337502D01*
X0305071Y0337502D02*
X0307373Y0337502D01*
X0308141Y0336735D01*
X0307373Y0335968D01*
X0305839Y0335968D01*
X0305071Y0335200D01*
X0305839Y0334433D01*
X0308141Y0334433D01*
X0309675Y0335968D02*
X0312745Y0335968D01*
X0312745Y0336735D02*
X0312745Y0335200D01*
X0311977Y0334433D01*
X0310443Y0334433D01*
X0309675Y0335968D02*
X0309675Y0336735D01*
X0310443Y0337502D01*
X0311977Y0337502D01*
X0312745Y0336735D01*
X0314279Y0337502D02*
X0315047Y0337502D01*
X0316581Y0335968D01*
X0316581Y0337502D02*
X0316581Y0334433D01*
X0318116Y0337502D02*
X0318883Y0337502D01*
X0320418Y0335968D01*
X0320418Y0337502D02*
X0320418Y0334433D01*
X0321953Y0335200D02*
X0321953Y0336735D01*
X0322720Y0337502D01*
X0324255Y0337502D01*
X0325022Y0336735D01*
X0325022Y0335200D01*
X0324255Y0334433D01*
X0322720Y0334433D01*
X0321953Y0335200D01*
X0324255Y0331537D02*
X0323487Y0330770D01*
X0326556Y0327700D01*
X0325789Y0326933D01*
X0324255Y0326933D01*
X0323487Y0327700D01*
X0323487Y0330770D01*
X0324255Y0331537D02*
X0325789Y0331537D01*
X0326556Y0330770D01*
X0326556Y0327700D01*
X0328091Y0327700D02*
X0328858Y0326933D01*
X0330393Y0326933D01*
X0331160Y0327700D01*
X0331160Y0328468D01*
X0330393Y0329235D01*
X0328858Y0329235D01*
X0328091Y0328468D01*
X0328091Y0327700D01*
X0328858Y0329235D02*
X0328091Y0330002D01*
X0328091Y0330770D01*
X0328858Y0331537D01*
X0330393Y0331537D01*
X0331160Y0330770D01*
X0331160Y0330002D01*
X0330393Y0329235D01*
X0332695Y0329235D02*
X0334997Y0329235D01*
X0335764Y0330002D01*
X0335764Y0330770D01*
X0334997Y0331537D01*
X0333462Y0331537D01*
X0332695Y0330770D01*
X0332695Y0327700D01*
X0333462Y0326933D01*
X0334997Y0326933D01*
X0335764Y0327700D01*
X0337299Y0326933D02*
X0340368Y0326933D01*
X0338834Y0326933D02*
X0338834Y0331537D01*
X0340368Y0330002D01*
X0341903Y0331537D02*
X0343438Y0330002D01*
X0343438Y0328468D01*
X0341903Y0326933D01*
X0343438Y0324804D02*
X0343438Y0323270D01*
X0342670Y0322502D01*
X0341136Y0322502D02*
X0340368Y0321735D01*
X0338834Y0321735D01*
X0338066Y0320968D01*
X0338066Y0320200D01*
X0338834Y0319433D01*
X0340368Y0319433D01*
X0341136Y0320200D01*
X0341136Y0322502D02*
X0341136Y0323270D01*
X0340368Y0324037D01*
X0338834Y0324037D01*
X0338066Y0323270D01*
X0336532Y0322502D02*
X0334997Y0322502D01*
X0335764Y0323270D02*
X0335764Y0320200D01*
X0334997Y0319433D01*
X0333462Y0320200D02*
X0333462Y0321735D01*
X0332695Y0322502D01*
X0331160Y0322502D01*
X0330393Y0321735D01*
X0330393Y0320968D01*
X0333462Y0320968D01*
X0333462Y0320200D02*
X0332695Y0319433D01*
X0331160Y0319433D01*
X0328858Y0319433D02*
X0326556Y0319433D01*
X0325789Y0320200D01*
X0325789Y0321735D01*
X0326556Y0322502D01*
X0328858Y0322502D01*
X0328858Y0317898D01*
X0328091Y0315002D02*
X0330393Y0315002D01*
X0331160Y0314235D01*
X0330393Y0313468D01*
X0328858Y0313468D01*
X0328091Y0312700D01*
X0328858Y0311933D01*
X0331160Y0311933D01*
X0332695Y0311933D02*
X0334230Y0311933D01*
X0333462Y0311933D02*
X0333462Y0315002D01*
X0334230Y0315002D01*
X0335764Y0314235D02*
X0335764Y0311933D01*
X0335764Y0314235D02*
X0336532Y0315002D01*
X0338066Y0315002D01*
X0338834Y0314235D01*
X0338834Y0316537D02*
X0338834Y0311933D01*
X0338834Y0309037D02*
X0335764Y0309037D01*
X0336532Y0307502D02*
X0335764Y0306735D01*
X0335764Y0305200D01*
X0336532Y0304433D01*
X0338066Y0304433D01*
X0338834Y0305200D01*
X0338834Y0306735D02*
X0337299Y0307502D01*
X0336532Y0307502D01*
X0338834Y0306735D02*
X0338834Y0309037D01*
X0340368Y0309037D02*
X0340368Y0304433D01*
X0343438Y0309037D01*
X0343438Y0304433D01*
X0334230Y0305200D02*
X0333462Y0304433D01*
X0332695Y0304433D01*
X0331928Y0305200D01*
X0331928Y0309037D01*
X0332695Y0309037D02*
X0331160Y0309037D01*
X0329626Y0309037D02*
X0329626Y0304433D01*
X0329626Y0306735D02*
X0326556Y0306735D01*
X0325022Y0306735D02*
X0321953Y0306735D01*
X0321953Y0309037D02*
X0321953Y0304433D01*
X0320418Y0302898D02*
X0318883Y0304433D01*
X0319651Y0304433D01*
X0319651Y0305200D01*
X0318883Y0305200D01*
X0318883Y0304433D01*
X0312745Y0304433D02*
X0309675Y0307502D01*
X0309675Y0308270D01*
X0310443Y0309037D01*
X0311977Y0309037D01*
X0312745Y0308270D01*
X0312745Y0310398D02*
X0311977Y0310398D01*
X0311210Y0311166D01*
X0311210Y0315002D01*
X0309675Y0314235D02*
X0309675Y0312700D01*
X0308908Y0311933D01*
X0307373Y0311933D01*
X0306606Y0312700D01*
X0306606Y0314235D01*
X0307373Y0315002D01*
X0308908Y0315002D01*
X0309675Y0314235D01*
X0311210Y0311933D02*
X0313512Y0311933D01*
X0314279Y0312700D01*
X0314279Y0315002D01*
X0315814Y0314235D02*
X0315814Y0311933D01*
X0318116Y0311933D01*
X0318883Y0312700D01*
X0318116Y0313468D01*
X0315814Y0313468D01*
X0315814Y0314235D02*
X0316581Y0315002D01*
X0318116Y0315002D01*
X0321185Y0316537D02*
X0321185Y0311933D01*
X0320418Y0311933D02*
X0321953Y0311933D01*
X0325022Y0309037D02*
X0325022Y0304433D01*
X0326556Y0304433D02*
X0326556Y0309037D01*
X0321953Y0316537D02*
X0321185Y0316537D01*
X0321953Y0319433D02*
X0324255Y0319433D01*
X0324255Y0317898D02*
X0324255Y0322502D01*
X0321953Y0322502D01*
X0321185Y0321735D01*
X0321185Y0320200D01*
X0321953Y0319433D01*
X0319651Y0320200D02*
X0319651Y0321735D01*
X0318883Y0322502D01*
X0317349Y0322502D01*
X0316581Y0321735D01*
X0316581Y0320968D01*
X0319651Y0320968D01*
X0319651Y0320200D02*
X0318883Y0319433D01*
X0317349Y0319433D01*
X0315047Y0320200D02*
X0315047Y0321735D01*
X0314279Y0322502D01*
X0311977Y0322502D01*
X0311977Y0324037D02*
X0311977Y0319433D01*
X0314279Y0319433D01*
X0315047Y0320200D01*
X0314279Y0326933D02*
X0316581Y0326933D01*
X0317349Y0327700D01*
X0316581Y0328468D01*
X0314279Y0328468D01*
X0314279Y0329235D02*
X0314279Y0326933D01*
X0312745Y0326933D02*
X0312745Y0330002D01*
X0310443Y0330002D01*
X0309675Y0329235D01*
X0309675Y0326933D01*
X0308141Y0327700D02*
X0308141Y0329235D01*
X0307373Y0330002D01*
X0305071Y0330002D01*
X0305071Y0331537D02*
X0305071Y0326933D01*
X0307373Y0326933D01*
X0308141Y0327700D01*
X0305839Y0324037D02*
X0302770Y0324037D01*
X0304304Y0324037D02*
X0304304Y0319433D01*
X0301235Y0320200D02*
X0301235Y0321735D01*
X0300468Y0322502D01*
X0298933Y0322502D01*
X0298166Y0321735D01*
X0298166Y0320200D01*
X0298933Y0319433D01*
X0300468Y0319433D01*
X0301235Y0320200D01*
X0296631Y0319433D02*
X0296631Y0322502D01*
X0294329Y0322502D01*
X0293562Y0321735D01*
X0293562Y0319433D01*
X0292027Y0320200D02*
X0292027Y0321735D01*
X0291260Y0322502D01*
X0289725Y0322502D01*
X0288958Y0321735D01*
X0288958Y0320968D01*
X0292027Y0320968D01*
X0292027Y0320200D02*
X0291260Y0319433D01*
X0289725Y0319433D01*
X0292027Y0316537D02*
X0292794Y0315770D01*
X0292794Y0315002D01*
X0289725Y0311933D01*
X0289725Y0313468D02*
X0291260Y0311933D01*
X0292027Y0311933D01*
X0292794Y0312700D01*
X0292794Y0313468D01*
X0291260Y0315002D01*
X0291260Y0315770D01*
X0292027Y0316537D01*
X0298933Y0315002D02*
X0300468Y0315002D01*
X0299700Y0315770D02*
X0299700Y0312700D01*
X0298933Y0311933D01*
X0298933Y0309037D02*
X0298933Y0306735D01*
X0297398Y0307502D01*
X0296631Y0307502D01*
X0295864Y0306735D01*
X0295864Y0305200D01*
X0296631Y0304433D01*
X0298166Y0304433D01*
X0298933Y0305200D01*
X0300468Y0304433D02*
X0303537Y0304433D01*
X0302002Y0304433D02*
X0302002Y0309037D01*
X0303537Y0307502D01*
X0305071Y0308270D02*
X0308141Y0305200D01*
X0307373Y0304433D01*
X0305839Y0304433D01*
X0305071Y0305200D01*
X0305071Y0308270D01*
X0305839Y0309037D01*
X0307373Y0309037D01*
X0308141Y0308270D01*
X0308141Y0305200D01*
X0309675Y0304433D02*
X0312745Y0304433D01*
X0305071Y0312700D02*
X0304304Y0311933D01*
X0302002Y0311933D01*
X0302002Y0315002D01*
X0305071Y0315002D02*
X0305071Y0312700D01*
X0298933Y0309037D02*
X0295864Y0309037D01*
X0294329Y0306735D02*
X0291260Y0306735D01*
X0289725Y0306735D02*
X0286656Y0306735D01*
X0285121Y0308270D02*
X0284354Y0309037D01*
X0282819Y0309037D01*
X0282052Y0308270D01*
X0282052Y0307502D01*
X0285121Y0304433D01*
X0283587Y0311933D02*
X0283587Y0315002D01*
X0282819Y0315002D01*
X0282052Y0314235D01*
X0281285Y0315002D01*
X0280517Y0314235D01*
X0280517Y0311933D01*
X0282052Y0311933D02*
X0282052Y0314235D01*
X0278983Y0314235D02*
X0278983Y0312700D01*
X0278215Y0311933D01*
X0276681Y0311933D01*
X0275913Y0312700D01*
X0275913Y0314235D01*
X0276681Y0315002D01*
X0278215Y0315002D01*
X0278983Y0314235D01*
X0266705Y0305200D02*
X0265938Y0305200D01*
X0265938Y0304433D01*
X0266705Y0304433D01*
X0266705Y0305200D01*
X0259800Y0307502D02*
X0258265Y0304433D01*
X0256730Y0307502D01*
X0255196Y0307502D02*
X0253661Y0309037D01*
X0253661Y0304433D01*
X0255196Y0304433D02*
X0252126Y0304433D01*
X0250592Y0304433D02*
X0249824Y0304433D01*
X0249824Y0305200D01*
X0250592Y0305200D01*
X0250592Y0304433D01*
X0248290Y0304433D02*
X0245220Y0307502D01*
X0245220Y0308270D01*
X0245988Y0309037D01*
X0247522Y0309037D01*
X0248290Y0308270D01*
X0248290Y0304433D02*
X0245220Y0304433D01*
X0252894Y0311166D02*
X0253661Y0310398D01*
X0254428Y0310398D01*
X0252894Y0311166D02*
X0252894Y0315002D01*
X0252894Y0311933D02*
X0255196Y0311933D01*
X0255963Y0312700D01*
X0255963Y0315002D01*
X0257498Y0314235D02*
X0258265Y0315002D01*
X0260567Y0315002D01*
X0260567Y0316537D02*
X0260567Y0311933D01*
X0258265Y0311933D01*
X0257498Y0312700D01*
X0257498Y0314235D01*
X0257498Y0319433D02*
X0259800Y0319433D01*
X0260567Y0320200D01*
X0259800Y0320968D01*
X0257498Y0320968D01*
X0257498Y0321735D02*
X0257498Y0319433D01*
X0257498Y0321735D02*
X0258265Y0322502D01*
X0259800Y0322502D01*
X0262102Y0322502D02*
X0262869Y0322502D01*
X0264403Y0320968D01*
X0264403Y0322502D02*
X0264403Y0319433D01*
X0255963Y0322502D02*
X0254428Y0322502D01*
X0255196Y0323270D02*
X0255196Y0320200D01*
X0254428Y0319433D01*
X0252894Y0320200D02*
X0252894Y0321735D01*
X0252126Y0322502D01*
X0250592Y0322502D01*
X0249824Y0321735D01*
X0249824Y0320200D01*
X0250592Y0319433D01*
X0252126Y0319433D01*
X0252894Y0320200D01*
X0248290Y0319433D02*
X0248290Y0322502D01*
X0248290Y0320968D02*
X0246755Y0322502D01*
X0245988Y0322502D01*
X0244453Y0322502D02*
X0243686Y0323270D01*
X0243686Y0324804D01*
X0242151Y0324037D02*
X0240617Y0322502D01*
X0240617Y0320968D01*
X0242151Y0319433D01*
X0239082Y0319433D02*
X0238315Y0319433D01*
X0238315Y0320200D01*
X0239082Y0320200D01*
X0239082Y0319433D01*
X0240617Y0326933D02*
X0242919Y0326933D01*
X0243686Y0327700D01*
X0242919Y0328468D01*
X0240617Y0328468D01*
X0240617Y0329235D02*
X0240617Y0326933D01*
X0240617Y0329235D02*
X0241384Y0330002D01*
X0242919Y0330002D01*
X0249824Y0330002D02*
X0252126Y0330002D01*
X0252894Y0329235D01*
X0252894Y0327700D01*
X0252126Y0326933D01*
X0249824Y0326933D01*
X0249824Y0331537D01*
X0254428Y0329235D02*
X0254428Y0328468D01*
X0257498Y0328468D01*
X0257498Y0329235D02*
X0256730Y0330002D01*
X0255196Y0330002D01*
X0254428Y0329235D01*
X0255196Y0326933D02*
X0256730Y0326933D01*
X0257498Y0327700D01*
X0257498Y0329235D01*
X0259032Y0326933D02*
X0260567Y0326933D01*
X0259800Y0326933D02*
X0259800Y0331537D01*
X0260567Y0331537D01*
X0262869Y0331537D02*
X0262869Y0326933D01*
X0263636Y0326933D02*
X0262102Y0326933D01*
X0265171Y0326933D02*
X0267473Y0326933D01*
X0268240Y0327700D01*
X0267473Y0328468D01*
X0265171Y0328468D01*
X0265171Y0329235D02*
X0265171Y0326933D01*
X0265171Y0329235D02*
X0265938Y0330002D01*
X0267473Y0330002D01*
X0269775Y0330002D02*
X0272077Y0330002D01*
X0272844Y0329235D01*
X0272844Y0327700D01*
X0272077Y0326933D01*
X0269775Y0326933D01*
X0269775Y0334433D02*
X0271309Y0334433D01*
X0270542Y0334433D02*
X0270542Y0339037D01*
X0271309Y0339037D02*
X0269775Y0339037D01*
X0268240Y0339037D02*
X0266705Y0339037D01*
X0267473Y0339037D02*
X0267473Y0334433D01*
X0268240Y0334433D02*
X0266705Y0334433D01*
X0263636Y0331537D02*
X0262869Y0331537D01*
X0272844Y0334433D02*
X0274379Y0334433D01*
X0273611Y0334433D02*
X0273611Y0339037D01*
X0272844Y0339037D02*
X0274379Y0339037D01*
X0273611Y0341933D02*
X0274379Y0342700D01*
X0274379Y0344235D01*
X0273611Y0345002D01*
X0272077Y0345002D01*
X0271309Y0344235D01*
X0271309Y0342700D01*
X0272077Y0341933D01*
X0273611Y0341933D01*
X0275913Y0342700D02*
X0276681Y0343468D01*
X0278215Y0343468D01*
X0278983Y0344235D01*
X0278215Y0345002D01*
X0275913Y0345002D01*
X0275913Y0342700D02*
X0276681Y0341933D01*
X0278983Y0341933D01*
X0280517Y0341933D02*
X0280517Y0344235D01*
X0281285Y0345002D01*
X0283587Y0345002D01*
X0283587Y0341933D01*
X0285121Y0342700D02*
X0285121Y0344235D01*
X0285888Y0345002D01*
X0287423Y0345002D01*
X0288190Y0344235D01*
X0288190Y0342700D01*
X0287423Y0341933D01*
X0285888Y0341933D01*
X0285121Y0342700D01*
X0289725Y0342700D02*
X0290492Y0341933D01*
X0292027Y0341933D01*
X0292794Y0342700D01*
X0292794Y0345770D01*
X0292027Y0346537D01*
X0290492Y0346537D01*
X0289725Y0345770D01*
X0290492Y0339804D02*
X0290492Y0339037D01*
X0290492Y0337502D02*
X0290492Y0334433D01*
X0289725Y0334433D02*
X0291260Y0334433D01*
X0292794Y0334433D02*
X0292794Y0339037D01*
X0294329Y0337502D01*
X0295864Y0339037D01*
X0295864Y0334433D01*
X0291260Y0337502D02*
X0290492Y0337502D01*
X0288190Y0337502D02*
X0288190Y0334433D01*
X0286656Y0334433D02*
X0286656Y0336735D01*
X0285888Y0337502D01*
X0285121Y0336735D01*
X0285121Y0334433D01*
X0283587Y0334433D02*
X0281285Y0334433D01*
X0280517Y0335200D01*
X0281285Y0335968D01*
X0282819Y0335968D01*
X0283587Y0336735D01*
X0282819Y0337502D01*
X0280517Y0337502D01*
X0286656Y0336735D02*
X0287423Y0337502D01*
X0288190Y0337502D01*
X0298933Y0341933D02*
X0301235Y0343468D01*
X0298933Y0345002D01*
X0301235Y0346537D02*
X0301235Y0341933D01*
X0302770Y0341933D02*
X0302770Y0344235D01*
X0303537Y0345002D01*
X0305839Y0345002D01*
X0305839Y0341933D01*
X0307373Y0341933D02*
X0307373Y0345002D01*
X0307373Y0341933D02*
X0309675Y0341933D01*
X0310443Y0342700D01*
X0310443Y0345002D01*
X0311977Y0344235D02*
X0312745Y0343468D01*
X0315047Y0343468D01*
X0315047Y0341933D02*
X0315047Y0346537D01*
X0312745Y0346537D01*
X0311977Y0345770D01*
X0311977Y0344235D01*
X0321185Y0341933D02*
X0322720Y0341933D01*
X0321953Y0341933D02*
X0321953Y0345002D01*
X0322720Y0345002D01*
X0324255Y0345002D02*
X0325022Y0345002D01*
X0326556Y0343468D01*
X0326556Y0345002D02*
X0326556Y0341933D01*
X0328091Y0341933D02*
X0330393Y0341933D01*
X0331160Y0342700D01*
X0330393Y0343468D01*
X0328091Y0343468D01*
X0328091Y0344235D02*
X0328091Y0341933D01*
X0328091Y0344235D02*
X0328858Y0345002D01*
X0330393Y0345002D01*
X0332695Y0345002D02*
X0334230Y0345002D01*
X0333462Y0345770D02*
X0333462Y0342700D01*
X0332695Y0341933D01*
X0335764Y0341933D02*
X0335764Y0345002D01*
X0337299Y0346537D01*
X0338834Y0345002D01*
X0338834Y0341933D01*
X0338834Y0344235D02*
X0335764Y0344235D01*
X0340368Y0345002D02*
X0341136Y0345770D01*
X0341136Y0347304D01*
X0343438Y0347304D02*
X0343438Y0345770D01*
X0342670Y0345002D01*
X0343438Y0339037D02*
X0343438Y0334433D01*
X0341136Y0334433D01*
X0340368Y0335200D01*
X0340368Y0336735D01*
X0341136Y0337502D01*
X0343438Y0337502D01*
X0338834Y0337502D02*
X0338834Y0335200D01*
X0338066Y0334433D01*
X0335764Y0334433D01*
X0335764Y0333666D02*
X0336532Y0332898D01*
X0337299Y0332898D01*
X0335764Y0333666D02*
X0335764Y0337502D01*
X0329626Y0336735D02*
X0328091Y0336735D01*
X0329626Y0339037D02*
X0326556Y0339037D01*
X0329626Y0339037D02*
X0329626Y0334433D01*
X0316581Y0330002D02*
X0315047Y0330002D01*
X0314279Y0329235D01*
X0321953Y0346537D02*
X0321953Y0347304D01*
X0333462Y0317304D02*
X0333462Y0316537D01*
X0340368Y0316537D02*
X0343438Y0316537D01*
X0341903Y0316537D02*
X0341903Y0311933D01*
X0318836Y0290935D02*
X0318069Y0291702D01*
X0315767Y0291702D01*
X0318836Y0290935D02*
X0318836Y0289400D01*
X0318069Y0276702D02*
X0318069Y0273633D01*
X0318069Y0275168D02*
X0316534Y0276702D01*
X0315767Y0276702D01*
X0314232Y0276702D02*
X0311930Y0276702D01*
X0311163Y0275935D01*
X0311163Y0273633D01*
X0309628Y0274400D02*
X0308861Y0275168D01*
X0306559Y0275168D01*
X0306559Y0275935D02*
X0306559Y0273633D01*
X0308861Y0273633D01*
X0309628Y0274400D01*
X0308861Y0276702D02*
X0307326Y0276702D01*
X0306559Y0275935D01*
X0305024Y0273633D02*
X0303490Y0273633D01*
X0304257Y0273633D02*
X0304257Y0278237D01*
X0305024Y0278237D01*
X0307326Y0269202D02*
X0309628Y0269202D01*
X0310396Y0268435D01*
X0309628Y0267668D01*
X0308094Y0267668D01*
X0307326Y0266900D01*
X0308094Y0266133D01*
X0310396Y0266133D01*
X0311930Y0266133D02*
X0312698Y0266900D01*
X0312698Y0269970D01*
X0313465Y0269202D02*
X0311930Y0269202D01*
X0315000Y0269202D02*
X0315000Y0266133D01*
X0317302Y0266133D01*
X0318069Y0266900D01*
X0318069Y0269202D01*
X0319604Y0268435D02*
X0319604Y0266900D01*
X0320371Y0266133D01*
X0322673Y0266133D01*
X0324207Y0266133D02*
X0324207Y0268435D01*
X0324975Y0269202D01*
X0327277Y0269202D01*
X0327277Y0266133D01*
X0328811Y0266133D02*
X0330346Y0266133D01*
X0329579Y0266133D02*
X0329579Y0269202D01*
X0330346Y0269202D01*
X0329579Y0270737D02*
X0329579Y0271504D01*
X0330346Y0273633D02*
X0327277Y0276702D01*
X0325742Y0276702D02*
X0324207Y0276702D01*
X0324975Y0277470D02*
X0324975Y0274400D01*
X0324207Y0273633D01*
X0322673Y0274400D02*
X0322673Y0275935D01*
X0321905Y0276702D01*
X0320371Y0276702D01*
X0319603Y0275935D01*
X0319603Y0275168D01*
X0322673Y0275168D01*
X0322673Y0274400D02*
X0321905Y0273633D01*
X0320371Y0273633D01*
X0320371Y0269202D02*
X0319604Y0268435D01*
X0320371Y0269202D02*
X0322673Y0269202D01*
X0322673Y0264598D01*
X0321138Y0261702D02*
X0321905Y0260935D01*
X0321905Y0259400D01*
X0321138Y0258633D01*
X0319603Y0258633D01*
X0318836Y0259400D01*
X0318836Y0260935D01*
X0319603Y0261702D01*
X0321138Y0261702D01*
X0317302Y0260935D02*
X0315767Y0260935D01*
X0314232Y0260935D02*
X0312698Y0260935D01*
X0311163Y0260935D02*
X0308094Y0260935D01*
X0306559Y0261702D02*
X0304257Y0261702D01*
X0303490Y0260935D01*
X0303490Y0259400D01*
X0304257Y0258633D01*
X0306559Y0258633D01*
X0306559Y0263237D01*
X0305792Y0266133D02*
X0305024Y0266133D01*
X0305024Y0266900D01*
X0305792Y0266900D01*
X0305792Y0266133D01*
X0301188Y0261702D02*
X0301955Y0260935D01*
X0301955Y0259400D01*
X0301188Y0258633D01*
X0299653Y0258633D01*
X0298886Y0259400D01*
X0298886Y0260935D01*
X0299653Y0261702D01*
X0301188Y0261702D01*
X0297351Y0259400D02*
X0296584Y0260168D01*
X0294282Y0260168D01*
X0294282Y0260935D02*
X0294282Y0258633D01*
X0296584Y0258633D01*
X0297351Y0259400D01*
X0296584Y0261702D02*
X0295049Y0261702D01*
X0294282Y0260935D01*
X0292747Y0260168D02*
X0291213Y0261702D01*
X0290445Y0261702D01*
X0288911Y0260935D02*
X0288143Y0261702D01*
X0285841Y0261702D01*
X0285841Y0263237D02*
X0285841Y0258633D01*
X0288143Y0258633D01*
X0288911Y0259400D01*
X0288911Y0260935D01*
X0292747Y0261702D02*
X0292747Y0258633D01*
X0312698Y0263237D02*
X0313465Y0262470D01*
X0313465Y0258633D01*
X0316534Y0258633D02*
X0316534Y0262470D01*
X0315767Y0263237D01*
X0314232Y0273633D02*
X0314232Y0276702D01*
X0327277Y0273633D02*
X0330346Y0276702D01*
X0331881Y0275935D02*
X0331881Y0275168D01*
X0334950Y0275168D01*
X0334950Y0275935D02*
X0334183Y0276702D01*
X0332648Y0276702D01*
X0331881Y0275935D01*
X0332648Y0273633D02*
X0334183Y0273633D01*
X0334950Y0274400D01*
X0334950Y0275935D01*
X0334183Y0281133D02*
X0334950Y0281900D01*
X0334950Y0284970D01*
X0335717Y0284202D02*
X0334183Y0284202D01*
X0332648Y0281900D02*
X0331881Y0281900D01*
X0331881Y0281133D01*
X0332648Y0281133D01*
X0332648Y0281900D01*
X0337252Y0281133D02*
X0338787Y0281133D01*
X0338019Y0281133D02*
X0338019Y0284202D01*
X0338787Y0284202D01*
X0340321Y0283435D02*
X0341088Y0284202D01*
X0343390Y0284202D01*
X0343390Y0285737D02*
X0343390Y0281133D01*
X0341088Y0281133D01*
X0340321Y0281900D01*
X0340321Y0283435D01*
X0338019Y0285737D02*
X0338019Y0286504D01*
X0349529Y0283435D02*
X0349529Y0281133D01*
X0351831Y0281133D01*
X0352598Y0281900D01*
X0351831Y0282668D01*
X0349529Y0282668D01*
X0349529Y0283435D02*
X0350296Y0284202D01*
X0351831Y0284202D01*
X0349529Y0278237D02*
X0350296Y0277470D01*
X0350296Y0273633D01*
X0347994Y0274400D02*
X0347227Y0273633D01*
X0345692Y0273633D01*
X0344925Y0274400D01*
X0344925Y0275935D01*
X0345692Y0276702D01*
X0347227Y0276702D01*
X0347994Y0275935D01*
X0347994Y0274400D01*
X0349529Y0275935D02*
X0351064Y0275935D01*
X0350296Y0269970D02*
X0350296Y0266900D01*
X0349529Y0266133D01*
X0347994Y0266133D02*
X0347994Y0270737D01*
X0347227Y0269202D02*
X0345692Y0269202D01*
X0344925Y0268435D01*
X0344925Y0266133D01*
X0343390Y0266900D02*
X0343390Y0268435D01*
X0342623Y0269202D01*
X0341088Y0269202D01*
X0340321Y0268435D01*
X0340321Y0267668D01*
X0343390Y0267668D01*
X0343390Y0266900D02*
X0342623Y0266133D01*
X0341088Y0266133D01*
X0338787Y0266133D02*
X0338787Y0269202D01*
X0338787Y0267668D02*
X0337252Y0269202D01*
X0336485Y0269202D01*
X0338019Y0263237D02*
X0338019Y0258633D01*
X0338786Y0258633D02*
X0337252Y0258633D01*
X0335717Y0259400D02*
X0335717Y0260935D01*
X0334950Y0261702D01*
X0333415Y0261702D01*
X0332648Y0260935D01*
X0332648Y0260168D01*
X0335717Y0260168D01*
X0335717Y0259400D02*
X0334950Y0258633D01*
X0333415Y0258633D01*
X0331113Y0258633D02*
X0328811Y0258633D01*
X0328044Y0259400D01*
X0328811Y0260168D01*
X0330346Y0260168D01*
X0331113Y0260935D01*
X0330346Y0261702D01*
X0328044Y0261702D01*
X0338019Y0263237D02*
X0338786Y0263237D01*
X0340321Y0260935D02*
X0341088Y0261702D01*
X0343390Y0261702D01*
X0343390Y0263237D02*
X0343390Y0258633D01*
X0341088Y0258633D01*
X0340321Y0259400D01*
X0340321Y0260935D01*
X0344925Y0260935D02*
X0345692Y0261702D01*
X0347227Y0261702D01*
X0347227Y0260168D02*
X0344925Y0260168D01*
X0344925Y0260935D02*
X0344925Y0258633D01*
X0347227Y0258633D01*
X0347994Y0259400D01*
X0347227Y0260168D01*
X0349529Y0260935D02*
X0349529Y0258633D01*
X0349529Y0260935D02*
X0350296Y0261702D01*
X0352598Y0261702D01*
X0352598Y0258633D01*
X0354133Y0260168D02*
X0357202Y0260168D01*
X0357202Y0260935D02*
X0356435Y0261702D01*
X0354900Y0261702D01*
X0354133Y0260935D01*
X0354133Y0260168D01*
X0354900Y0258633D02*
X0356435Y0258633D01*
X0357202Y0259400D01*
X0357202Y0260935D01*
X0354900Y0266133D02*
X0355668Y0266900D01*
X0355668Y0268435D01*
X0354900Y0269202D01*
X0353366Y0269202D01*
X0352598Y0268435D01*
X0352598Y0266900D01*
X0353366Y0266133D01*
X0354900Y0266133D01*
X0351064Y0269202D02*
X0349529Y0269202D01*
X0347994Y0268435D02*
X0347227Y0269202D01*
X0343390Y0273633D02*
X0343390Y0276702D01*
X0341856Y0276702D02*
X0341088Y0276702D01*
X0341856Y0276702D02*
X0343390Y0275168D01*
X0381756Y0263237D02*
X0384826Y0263237D01*
X0384826Y0260935D02*
X0383291Y0260935D01*
X0397103Y0260935D02*
X0398638Y0260935D01*
X0398638Y0263237D02*
X0398638Y0258633D01*
X0397870Y0269970D02*
X0397103Y0270737D01*
X0398638Y0273633D02*
X0398638Y0278237D01*
X0397103Y0276702D01*
X0395568Y0278237D01*
X0277938Y0354598D02*
X0277938Y0359803D01*
X0275335Y0359803D01*
X0274468Y0358935D01*
X0274468Y0357200D01*
X0275335Y0356333D01*
X0277938Y0356333D01*
X0272781Y0357200D02*
X0271914Y0356333D01*
X0270179Y0356333D01*
X0269311Y0357200D01*
X0269311Y0358935D01*
X0270179Y0359803D01*
X0271914Y0359803D01*
X0272781Y0358935D01*
X0272781Y0357200D01*
X0267625Y0356333D02*
X0265023Y0356333D01*
X0264155Y0357200D01*
X0265023Y0358068D01*
X0266757Y0358068D01*
X0267625Y0358935D01*
X0266757Y0359803D01*
X0264155Y0359803D01*
X0262468Y0359803D02*
X0261601Y0359803D01*
X0261601Y0356333D01*
X0262468Y0356333D02*
X0260734Y0356333D01*
X0258163Y0357200D02*
X0257296Y0356333D01*
X0258163Y0357200D02*
X0258163Y0360670D01*
X0259031Y0359803D02*
X0257296Y0359803D01*
X0255593Y0359803D02*
X0254726Y0359803D01*
X0254726Y0356333D01*
X0255593Y0356333D02*
X0253858Y0356333D01*
X0250421Y0356333D02*
X0248686Y0359803D01*
X0246999Y0358935D02*
X0246132Y0359803D01*
X0244397Y0359803D01*
X0243530Y0358935D01*
X0243530Y0358068D01*
X0246999Y0358068D01*
X0246999Y0358935D02*
X0246999Y0357200D01*
X0246132Y0356333D01*
X0244397Y0356333D01*
X0250421Y0356333D02*
X0252156Y0359803D01*
X0254726Y0361538D02*
X0254726Y0362405D01*
X0253874Y0364733D02*
X0253874Y0368203D01*
X0252140Y0368203D02*
X0253874Y0366468D01*
X0255561Y0366468D02*
X0259031Y0366468D01*
X0259031Y0367335D02*
X0259031Y0365600D01*
X0258163Y0364733D01*
X0256429Y0364733D01*
X0255561Y0366468D02*
X0255561Y0367335D01*
X0256429Y0368203D01*
X0258163Y0368203D01*
X0259031Y0367335D01*
X0260734Y0368203D02*
X0262468Y0368203D01*
X0261601Y0369070D02*
X0261601Y0365600D01*
X0260734Y0364733D01*
X0261601Y0362405D02*
X0261601Y0361538D01*
X0264155Y0364733D02*
X0264155Y0367335D01*
X0265023Y0368203D01*
X0267625Y0368203D01*
X0267625Y0364733D01*
X0269311Y0366468D02*
X0272781Y0366468D01*
X0272781Y0367335D02*
X0272781Y0365600D01*
X0271914Y0364733D01*
X0270179Y0364733D01*
X0269311Y0366468D02*
X0269311Y0367335D01*
X0270179Y0368203D01*
X0271914Y0368203D01*
X0272781Y0367335D01*
X0274468Y0365600D02*
X0275335Y0364733D01*
X0277070Y0364733D01*
X0277938Y0365600D01*
X0277938Y0369070D01*
X0277070Y0369938D01*
X0275335Y0369938D01*
X0274468Y0369070D01*
X0274735Y0372933D02*
X0276470Y0372933D01*
X0277338Y0373800D01*
X0277338Y0375535D02*
X0275603Y0376403D01*
X0274735Y0376403D01*
X0273868Y0375535D01*
X0273868Y0373800D01*
X0274735Y0372933D01*
X0272181Y0372933D02*
X0271314Y0372933D01*
X0271314Y0373800D01*
X0272181Y0373800D01*
X0272181Y0372933D01*
X0269603Y0373800D02*
X0268736Y0372933D01*
X0267001Y0372933D01*
X0266133Y0373800D01*
X0266133Y0375535D01*
X0267001Y0376403D01*
X0267868Y0376403D01*
X0269603Y0375535D01*
X0269603Y0378138D01*
X0266133Y0378138D01*
X0264447Y0375535D02*
X0260977Y0375535D01*
X0259290Y0376403D02*
X0257555Y0378138D01*
X0257555Y0372933D01*
X0259290Y0372933D02*
X0255820Y0372933D01*
X0254134Y0373800D02*
X0253266Y0372933D01*
X0251532Y0372933D01*
X0250664Y0373800D01*
X0250664Y0375535D01*
X0251532Y0376403D01*
X0252399Y0376403D01*
X0254134Y0375535D01*
X0254134Y0378138D01*
X0250664Y0378138D01*
X0248977Y0378138D02*
X0248977Y0374668D01*
X0247243Y0372933D01*
X0245508Y0374668D01*
X0245508Y0378138D01*
X0238665Y0378138D02*
X0238665Y0372933D01*
X0236062Y0372933D01*
X0235195Y0373800D01*
X0235195Y0377270D01*
X0236062Y0378138D01*
X0238665Y0378138D01*
X0233508Y0377270D02*
X0233508Y0373800D01*
X0232641Y0372933D01*
X0230906Y0372933D01*
X0230039Y0373800D01*
X0230039Y0377270D02*
X0230906Y0378138D01*
X0232641Y0378138D01*
X0233508Y0377270D01*
X0233241Y0368203D02*
X0230639Y0368203D01*
X0228952Y0368203D02*
X0227217Y0368203D01*
X0228084Y0369070D02*
X0228084Y0365600D01*
X0227217Y0364733D01*
X0230639Y0365600D02*
X0231506Y0366468D01*
X0233241Y0366468D01*
X0234108Y0367335D01*
X0233241Y0368203D01*
X0235795Y0367335D02*
X0235795Y0365600D01*
X0236662Y0364733D01*
X0238397Y0364733D01*
X0239265Y0365600D01*
X0239265Y0367335D01*
X0238397Y0368203D01*
X0236662Y0368203D01*
X0235795Y0367335D01*
X0234108Y0364733D02*
X0231506Y0364733D01*
X0230639Y0365600D01*
X0240951Y0365600D02*
X0240951Y0367335D01*
X0241819Y0368203D01*
X0244421Y0368203D01*
X0244421Y0362998D01*
X0244421Y0364733D02*
X0241819Y0364733D01*
X0240951Y0365600D01*
X0251272Y0368203D02*
X0252140Y0368203D01*
X0259032Y0347304D02*
X0259032Y0345770D01*
X0259800Y0345002D01*
X0261334Y0345770D02*
X0262102Y0345002D01*
X0261334Y0345770D02*
X0261334Y0347304D01*
X0263636Y0344235D02*
X0263636Y0343468D01*
X0266705Y0343468D01*
X0266705Y0344235D02*
X0265938Y0345002D01*
X0264404Y0345002D01*
X0263636Y0344235D01*
X0264404Y0341933D02*
X0265938Y0341933D01*
X0266705Y0342700D01*
X0266705Y0344235D01*
X0268240Y0341933D02*
X0269775Y0341933D01*
X0269007Y0341933D02*
X0269007Y0346537D01*
X0269775Y0346537D01*
X0277338Y0375535D02*
X0277338Y0378138D01*
X0273868Y0378138D01*
D11*
X0274338Y0206733D02*
X0274338Y0206133D01*
X0284338Y0206133D02*
X0284338Y0206733D01*
X0264338Y0206733D02*
X0264338Y0206133D01*
M02*
