G75*
%MOIN*%
%OFA0B0*%
%FSLAX25Y25*%
%IPPOS*%
%LPD*%
%AMOC8*
5,1,8,0,0,1.08239X$1,22.5*
%
%ADD10C,0.00000*%
D10*
X0158838Y0094933D02*
X0158838Y0194933D01*
X0183838Y0194933D01*
X0183838Y0219933D01*
X0158838Y0219933D01*
X0158838Y0384933D01*
X0308838Y0384933D01*
X0308838Y0359933D01*
X0333838Y0359933D01*
X0333838Y0384933D01*
X0457538Y0384933D01*
X0457538Y0094933D01*
X0158838Y0094933D01*
X0172539Y0169933D02*
X0172541Y0170091D01*
X0172547Y0170249D01*
X0172557Y0170407D01*
X0172571Y0170565D01*
X0172589Y0170722D01*
X0172610Y0170879D01*
X0172636Y0171035D01*
X0172666Y0171191D01*
X0172699Y0171346D01*
X0172737Y0171499D01*
X0172778Y0171652D01*
X0172823Y0171804D01*
X0172872Y0171955D01*
X0172925Y0172104D01*
X0172981Y0172252D01*
X0173041Y0172398D01*
X0173105Y0172543D01*
X0173173Y0172686D01*
X0173244Y0172828D01*
X0173318Y0172968D01*
X0173396Y0173105D01*
X0173478Y0173241D01*
X0173562Y0173375D01*
X0173651Y0173506D01*
X0173742Y0173635D01*
X0173837Y0173762D01*
X0173934Y0173887D01*
X0174035Y0174009D01*
X0174139Y0174128D01*
X0174246Y0174245D01*
X0174356Y0174359D01*
X0174469Y0174470D01*
X0174584Y0174579D01*
X0174702Y0174684D01*
X0174823Y0174786D01*
X0174946Y0174886D01*
X0175072Y0174982D01*
X0175200Y0175075D01*
X0175330Y0175165D01*
X0175463Y0175251D01*
X0175598Y0175335D01*
X0175734Y0175414D01*
X0175873Y0175491D01*
X0176014Y0175563D01*
X0176156Y0175633D01*
X0176300Y0175698D01*
X0176446Y0175760D01*
X0176593Y0175818D01*
X0176742Y0175873D01*
X0176892Y0175924D01*
X0177043Y0175971D01*
X0177195Y0176014D01*
X0177348Y0176053D01*
X0177503Y0176089D01*
X0177658Y0176120D01*
X0177814Y0176148D01*
X0177970Y0176172D01*
X0178127Y0176192D01*
X0178285Y0176208D01*
X0178442Y0176220D01*
X0178601Y0176228D01*
X0178759Y0176232D01*
X0178917Y0176232D01*
X0179075Y0176228D01*
X0179234Y0176220D01*
X0179391Y0176208D01*
X0179549Y0176192D01*
X0179706Y0176172D01*
X0179862Y0176148D01*
X0180018Y0176120D01*
X0180173Y0176089D01*
X0180328Y0176053D01*
X0180481Y0176014D01*
X0180633Y0175971D01*
X0180784Y0175924D01*
X0180934Y0175873D01*
X0181083Y0175818D01*
X0181230Y0175760D01*
X0181376Y0175698D01*
X0181520Y0175633D01*
X0181662Y0175563D01*
X0181803Y0175491D01*
X0181942Y0175414D01*
X0182078Y0175335D01*
X0182213Y0175251D01*
X0182346Y0175165D01*
X0182476Y0175075D01*
X0182604Y0174982D01*
X0182730Y0174886D01*
X0182853Y0174786D01*
X0182974Y0174684D01*
X0183092Y0174579D01*
X0183207Y0174470D01*
X0183320Y0174359D01*
X0183430Y0174245D01*
X0183537Y0174128D01*
X0183641Y0174009D01*
X0183742Y0173887D01*
X0183839Y0173762D01*
X0183934Y0173635D01*
X0184025Y0173506D01*
X0184114Y0173375D01*
X0184198Y0173241D01*
X0184280Y0173105D01*
X0184358Y0172968D01*
X0184432Y0172828D01*
X0184503Y0172686D01*
X0184571Y0172543D01*
X0184635Y0172398D01*
X0184695Y0172252D01*
X0184751Y0172104D01*
X0184804Y0171955D01*
X0184853Y0171804D01*
X0184898Y0171652D01*
X0184939Y0171499D01*
X0184977Y0171346D01*
X0185010Y0171191D01*
X0185040Y0171035D01*
X0185066Y0170879D01*
X0185087Y0170722D01*
X0185105Y0170565D01*
X0185119Y0170407D01*
X0185129Y0170249D01*
X0185135Y0170091D01*
X0185137Y0169933D01*
X0185135Y0169775D01*
X0185129Y0169617D01*
X0185119Y0169459D01*
X0185105Y0169301D01*
X0185087Y0169144D01*
X0185066Y0168987D01*
X0185040Y0168831D01*
X0185010Y0168675D01*
X0184977Y0168520D01*
X0184939Y0168367D01*
X0184898Y0168214D01*
X0184853Y0168062D01*
X0184804Y0167911D01*
X0184751Y0167762D01*
X0184695Y0167614D01*
X0184635Y0167468D01*
X0184571Y0167323D01*
X0184503Y0167180D01*
X0184432Y0167038D01*
X0184358Y0166898D01*
X0184280Y0166761D01*
X0184198Y0166625D01*
X0184114Y0166491D01*
X0184025Y0166360D01*
X0183934Y0166231D01*
X0183839Y0166104D01*
X0183742Y0165979D01*
X0183641Y0165857D01*
X0183537Y0165738D01*
X0183430Y0165621D01*
X0183320Y0165507D01*
X0183207Y0165396D01*
X0183092Y0165287D01*
X0182974Y0165182D01*
X0182853Y0165080D01*
X0182730Y0164980D01*
X0182604Y0164884D01*
X0182476Y0164791D01*
X0182346Y0164701D01*
X0182213Y0164615D01*
X0182078Y0164531D01*
X0181942Y0164452D01*
X0181803Y0164375D01*
X0181662Y0164303D01*
X0181520Y0164233D01*
X0181376Y0164168D01*
X0181230Y0164106D01*
X0181083Y0164048D01*
X0180934Y0163993D01*
X0180784Y0163942D01*
X0180633Y0163895D01*
X0180481Y0163852D01*
X0180328Y0163813D01*
X0180173Y0163777D01*
X0180018Y0163746D01*
X0179862Y0163718D01*
X0179706Y0163694D01*
X0179549Y0163674D01*
X0179391Y0163658D01*
X0179234Y0163646D01*
X0179075Y0163638D01*
X0178917Y0163634D01*
X0178759Y0163634D01*
X0178601Y0163638D01*
X0178442Y0163646D01*
X0178285Y0163658D01*
X0178127Y0163674D01*
X0177970Y0163694D01*
X0177814Y0163718D01*
X0177658Y0163746D01*
X0177503Y0163777D01*
X0177348Y0163813D01*
X0177195Y0163852D01*
X0177043Y0163895D01*
X0176892Y0163942D01*
X0176742Y0163993D01*
X0176593Y0164048D01*
X0176446Y0164106D01*
X0176300Y0164168D01*
X0176156Y0164233D01*
X0176014Y0164303D01*
X0175873Y0164375D01*
X0175734Y0164452D01*
X0175598Y0164531D01*
X0175463Y0164615D01*
X0175330Y0164701D01*
X0175200Y0164791D01*
X0175072Y0164884D01*
X0174946Y0164980D01*
X0174823Y0165080D01*
X0174702Y0165182D01*
X0174584Y0165287D01*
X0174469Y0165396D01*
X0174356Y0165507D01*
X0174246Y0165621D01*
X0174139Y0165738D01*
X0174035Y0165857D01*
X0173934Y0165979D01*
X0173837Y0166104D01*
X0173742Y0166231D01*
X0173651Y0166360D01*
X0173562Y0166491D01*
X0173478Y0166625D01*
X0173396Y0166761D01*
X0173318Y0166898D01*
X0173244Y0167038D01*
X0173173Y0167180D01*
X0173105Y0167323D01*
X0173041Y0167468D01*
X0172981Y0167614D01*
X0172925Y0167762D01*
X0172872Y0167911D01*
X0172823Y0168062D01*
X0172778Y0168214D01*
X0172737Y0168367D01*
X0172699Y0168520D01*
X0172666Y0168675D01*
X0172636Y0168831D01*
X0172610Y0168987D01*
X0172589Y0169144D01*
X0172571Y0169301D01*
X0172557Y0169459D01*
X0172547Y0169617D01*
X0172541Y0169775D01*
X0172539Y0169933D01*
X0291861Y0276661D02*
X0291863Y0276801D01*
X0291869Y0276941D01*
X0291879Y0277080D01*
X0291893Y0277219D01*
X0291911Y0277358D01*
X0291932Y0277496D01*
X0291958Y0277634D01*
X0291988Y0277771D01*
X0292021Y0277906D01*
X0292059Y0278041D01*
X0292100Y0278175D01*
X0292145Y0278308D01*
X0292193Y0278439D01*
X0292246Y0278568D01*
X0292302Y0278697D01*
X0292361Y0278823D01*
X0292425Y0278948D01*
X0292491Y0279071D01*
X0292562Y0279192D01*
X0292635Y0279311D01*
X0292712Y0279428D01*
X0292793Y0279542D01*
X0292876Y0279654D01*
X0292963Y0279764D01*
X0293053Y0279872D01*
X0293145Y0279976D01*
X0293241Y0280078D01*
X0293340Y0280178D01*
X0293441Y0280274D01*
X0293545Y0280368D01*
X0293652Y0280458D01*
X0293761Y0280545D01*
X0293873Y0280630D01*
X0293987Y0280711D01*
X0294103Y0280789D01*
X0294221Y0280863D01*
X0294342Y0280934D01*
X0294464Y0281002D01*
X0294589Y0281066D01*
X0294715Y0281127D01*
X0294842Y0281184D01*
X0294972Y0281237D01*
X0295103Y0281287D01*
X0295235Y0281332D01*
X0295368Y0281375D01*
X0295503Y0281413D01*
X0295638Y0281447D01*
X0295775Y0281478D01*
X0295912Y0281505D01*
X0296050Y0281527D01*
X0296189Y0281546D01*
X0296328Y0281561D01*
X0296467Y0281572D01*
X0296607Y0281579D01*
X0296747Y0281582D01*
X0296887Y0281581D01*
X0297027Y0281576D01*
X0297166Y0281567D01*
X0297306Y0281554D01*
X0297445Y0281537D01*
X0297583Y0281516D01*
X0297721Y0281492D01*
X0297858Y0281463D01*
X0297994Y0281431D01*
X0298129Y0281394D01*
X0298263Y0281354D01*
X0298396Y0281310D01*
X0298527Y0281262D01*
X0298657Y0281211D01*
X0298786Y0281156D01*
X0298913Y0281097D01*
X0299038Y0281034D01*
X0299161Y0280969D01*
X0299283Y0280899D01*
X0299402Y0280826D01*
X0299520Y0280750D01*
X0299635Y0280671D01*
X0299748Y0280588D01*
X0299858Y0280502D01*
X0299966Y0280413D01*
X0300071Y0280321D01*
X0300174Y0280226D01*
X0300274Y0280128D01*
X0300371Y0280028D01*
X0300465Y0279924D01*
X0300557Y0279818D01*
X0300645Y0279710D01*
X0300730Y0279599D01*
X0300812Y0279485D01*
X0300891Y0279369D01*
X0300966Y0279252D01*
X0301038Y0279132D01*
X0301106Y0279010D01*
X0301171Y0278886D01*
X0301233Y0278760D01*
X0301291Y0278633D01*
X0301345Y0278504D01*
X0301396Y0278373D01*
X0301442Y0278241D01*
X0301485Y0278108D01*
X0301525Y0277974D01*
X0301560Y0277839D01*
X0301592Y0277702D01*
X0301619Y0277565D01*
X0301643Y0277427D01*
X0301663Y0277289D01*
X0301679Y0277150D01*
X0301691Y0277010D01*
X0301699Y0276871D01*
X0301703Y0276731D01*
X0301703Y0276591D01*
X0301699Y0276451D01*
X0301691Y0276312D01*
X0301679Y0276172D01*
X0301663Y0276033D01*
X0301643Y0275895D01*
X0301619Y0275757D01*
X0301592Y0275620D01*
X0301560Y0275483D01*
X0301525Y0275348D01*
X0301485Y0275214D01*
X0301442Y0275081D01*
X0301396Y0274949D01*
X0301345Y0274818D01*
X0301291Y0274689D01*
X0301233Y0274562D01*
X0301171Y0274436D01*
X0301106Y0274312D01*
X0301038Y0274190D01*
X0300966Y0274070D01*
X0300891Y0273953D01*
X0300812Y0273837D01*
X0300730Y0273723D01*
X0300645Y0273612D01*
X0300557Y0273504D01*
X0300465Y0273398D01*
X0300371Y0273294D01*
X0300274Y0273194D01*
X0300174Y0273096D01*
X0300071Y0273001D01*
X0299966Y0272909D01*
X0299858Y0272820D01*
X0299748Y0272734D01*
X0299635Y0272651D01*
X0299520Y0272572D01*
X0299402Y0272496D01*
X0299283Y0272423D01*
X0299161Y0272353D01*
X0299038Y0272288D01*
X0298913Y0272225D01*
X0298786Y0272166D01*
X0298657Y0272111D01*
X0298527Y0272060D01*
X0298396Y0272012D01*
X0298263Y0271968D01*
X0298129Y0271928D01*
X0297994Y0271891D01*
X0297858Y0271859D01*
X0297721Y0271830D01*
X0297583Y0271806D01*
X0297445Y0271785D01*
X0297306Y0271768D01*
X0297166Y0271755D01*
X0297027Y0271746D01*
X0296887Y0271741D01*
X0296747Y0271740D01*
X0296607Y0271743D01*
X0296467Y0271750D01*
X0296328Y0271761D01*
X0296189Y0271776D01*
X0296050Y0271795D01*
X0295912Y0271817D01*
X0295775Y0271844D01*
X0295638Y0271875D01*
X0295503Y0271909D01*
X0295368Y0271947D01*
X0295235Y0271990D01*
X0295103Y0272035D01*
X0294972Y0272085D01*
X0294842Y0272138D01*
X0294715Y0272195D01*
X0294589Y0272256D01*
X0294464Y0272320D01*
X0294342Y0272388D01*
X0294221Y0272459D01*
X0294103Y0272533D01*
X0293987Y0272611D01*
X0293873Y0272692D01*
X0293761Y0272777D01*
X0293652Y0272864D01*
X0293545Y0272954D01*
X0293441Y0273048D01*
X0293340Y0273144D01*
X0293241Y0273244D01*
X0293145Y0273346D01*
X0293053Y0273450D01*
X0292963Y0273558D01*
X0292876Y0273668D01*
X0292793Y0273780D01*
X0292712Y0273894D01*
X0292635Y0274011D01*
X0292562Y0274130D01*
X0292491Y0274251D01*
X0292425Y0274374D01*
X0292361Y0274499D01*
X0292302Y0274625D01*
X0292246Y0274754D01*
X0292193Y0274883D01*
X0292145Y0275014D01*
X0292100Y0275147D01*
X0292059Y0275281D01*
X0292021Y0275416D01*
X0291988Y0275551D01*
X0291958Y0275688D01*
X0291932Y0275826D01*
X0291911Y0275964D01*
X0291893Y0276103D01*
X0291879Y0276242D01*
X0291869Y0276381D01*
X0291863Y0276521D01*
X0291861Y0276661D01*
X0346980Y0363276D02*
X0346982Y0363416D01*
X0346988Y0363556D01*
X0346998Y0363695D01*
X0347012Y0363834D01*
X0347030Y0363973D01*
X0347051Y0364111D01*
X0347077Y0364249D01*
X0347107Y0364386D01*
X0347140Y0364521D01*
X0347178Y0364656D01*
X0347219Y0364790D01*
X0347264Y0364923D01*
X0347312Y0365054D01*
X0347365Y0365183D01*
X0347421Y0365312D01*
X0347480Y0365438D01*
X0347544Y0365563D01*
X0347610Y0365686D01*
X0347681Y0365807D01*
X0347754Y0365926D01*
X0347831Y0366043D01*
X0347912Y0366157D01*
X0347995Y0366269D01*
X0348082Y0366379D01*
X0348172Y0366487D01*
X0348264Y0366591D01*
X0348360Y0366693D01*
X0348459Y0366793D01*
X0348560Y0366889D01*
X0348664Y0366983D01*
X0348771Y0367073D01*
X0348880Y0367160D01*
X0348992Y0367245D01*
X0349106Y0367326D01*
X0349222Y0367404D01*
X0349340Y0367478D01*
X0349461Y0367549D01*
X0349583Y0367617D01*
X0349708Y0367681D01*
X0349834Y0367742D01*
X0349961Y0367799D01*
X0350091Y0367852D01*
X0350222Y0367902D01*
X0350354Y0367947D01*
X0350487Y0367990D01*
X0350622Y0368028D01*
X0350757Y0368062D01*
X0350894Y0368093D01*
X0351031Y0368120D01*
X0351169Y0368142D01*
X0351308Y0368161D01*
X0351447Y0368176D01*
X0351586Y0368187D01*
X0351726Y0368194D01*
X0351866Y0368197D01*
X0352006Y0368196D01*
X0352146Y0368191D01*
X0352285Y0368182D01*
X0352425Y0368169D01*
X0352564Y0368152D01*
X0352702Y0368131D01*
X0352840Y0368107D01*
X0352977Y0368078D01*
X0353113Y0368046D01*
X0353248Y0368009D01*
X0353382Y0367969D01*
X0353515Y0367925D01*
X0353646Y0367877D01*
X0353776Y0367826D01*
X0353905Y0367771D01*
X0354032Y0367712D01*
X0354157Y0367649D01*
X0354280Y0367584D01*
X0354402Y0367514D01*
X0354521Y0367441D01*
X0354639Y0367365D01*
X0354754Y0367286D01*
X0354867Y0367203D01*
X0354977Y0367117D01*
X0355085Y0367028D01*
X0355190Y0366936D01*
X0355293Y0366841D01*
X0355393Y0366743D01*
X0355490Y0366643D01*
X0355584Y0366539D01*
X0355676Y0366433D01*
X0355764Y0366325D01*
X0355849Y0366214D01*
X0355931Y0366100D01*
X0356010Y0365984D01*
X0356085Y0365867D01*
X0356157Y0365747D01*
X0356225Y0365625D01*
X0356290Y0365501D01*
X0356352Y0365375D01*
X0356410Y0365248D01*
X0356464Y0365119D01*
X0356515Y0364988D01*
X0356561Y0364856D01*
X0356604Y0364723D01*
X0356644Y0364589D01*
X0356679Y0364454D01*
X0356711Y0364317D01*
X0356738Y0364180D01*
X0356762Y0364042D01*
X0356782Y0363904D01*
X0356798Y0363765D01*
X0356810Y0363625D01*
X0356818Y0363486D01*
X0356822Y0363346D01*
X0356822Y0363206D01*
X0356818Y0363066D01*
X0356810Y0362927D01*
X0356798Y0362787D01*
X0356782Y0362648D01*
X0356762Y0362510D01*
X0356738Y0362372D01*
X0356711Y0362235D01*
X0356679Y0362098D01*
X0356644Y0361963D01*
X0356604Y0361829D01*
X0356561Y0361696D01*
X0356515Y0361564D01*
X0356464Y0361433D01*
X0356410Y0361304D01*
X0356352Y0361177D01*
X0356290Y0361051D01*
X0356225Y0360927D01*
X0356157Y0360805D01*
X0356085Y0360685D01*
X0356010Y0360568D01*
X0355931Y0360452D01*
X0355849Y0360338D01*
X0355764Y0360227D01*
X0355676Y0360119D01*
X0355584Y0360013D01*
X0355490Y0359909D01*
X0355393Y0359809D01*
X0355293Y0359711D01*
X0355190Y0359616D01*
X0355085Y0359524D01*
X0354977Y0359435D01*
X0354867Y0359349D01*
X0354754Y0359266D01*
X0354639Y0359187D01*
X0354521Y0359111D01*
X0354402Y0359038D01*
X0354280Y0358968D01*
X0354157Y0358903D01*
X0354032Y0358840D01*
X0353905Y0358781D01*
X0353776Y0358726D01*
X0353646Y0358675D01*
X0353515Y0358627D01*
X0353382Y0358583D01*
X0353248Y0358543D01*
X0353113Y0358506D01*
X0352977Y0358474D01*
X0352840Y0358445D01*
X0352702Y0358421D01*
X0352564Y0358400D01*
X0352425Y0358383D01*
X0352285Y0358370D01*
X0352146Y0358361D01*
X0352006Y0358356D01*
X0351866Y0358355D01*
X0351726Y0358358D01*
X0351586Y0358365D01*
X0351447Y0358376D01*
X0351308Y0358391D01*
X0351169Y0358410D01*
X0351031Y0358432D01*
X0350894Y0358459D01*
X0350757Y0358490D01*
X0350622Y0358524D01*
X0350487Y0358562D01*
X0350354Y0358605D01*
X0350222Y0358650D01*
X0350091Y0358700D01*
X0349961Y0358753D01*
X0349834Y0358810D01*
X0349708Y0358871D01*
X0349583Y0358935D01*
X0349461Y0359003D01*
X0349340Y0359074D01*
X0349222Y0359148D01*
X0349106Y0359226D01*
X0348992Y0359307D01*
X0348880Y0359392D01*
X0348771Y0359479D01*
X0348664Y0359569D01*
X0348560Y0359663D01*
X0348459Y0359759D01*
X0348360Y0359859D01*
X0348264Y0359961D01*
X0348172Y0360065D01*
X0348082Y0360173D01*
X0347995Y0360283D01*
X0347912Y0360395D01*
X0347831Y0360509D01*
X0347754Y0360626D01*
X0347681Y0360745D01*
X0347610Y0360866D01*
X0347544Y0360989D01*
X0347480Y0361114D01*
X0347421Y0361240D01*
X0347365Y0361369D01*
X0347312Y0361498D01*
X0347264Y0361629D01*
X0347219Y0361762D01*
X0347178Y0361896D01*
X0347140Y0362031D01*
X0347107Y0362166D01*
X0347077Y0362303D01*
X0347051Y0362441D01*
X0347030Y0362579D01*
X0347012Y0362718D01*
X0346998Y0362857D01*
X0346988Y0362996D01*
X0346982Y0363136D01*
X0346980Y0363276D01*
X0437539Y0324933D02*
X0437541Y0325091D01*
X0437547Y0325249D01*
X0437557Y0325407D01*
X0437571Y0325565D01*
X0437589Y0325722D01*
X0437610Y0325879D01*
X0437636Y0326035D01*
X0437666Y0326191D01*
X0437699Y0326346D01*
X0437737Y0326499D01*
X0437778Y0326652D01*
X0437823Y0326804D01*
X0437872Y0326955D01*
X0437925Y0327104D01*
X0437981Y0327252D01*
X0438041Y0327398D01*
X0438105Y0327543D01*
X0438173Y0327686D01*
X0438244Y0327828D01*
X0438318Y0327968D01*
X0438396Y0328105D01*
X0438478Y0328241D01*
X0438562Y0328375D01*
X0438651Y0328506D01*
X0438742Y0328635D01*
X0438837Y0328762D01*
X0438934Y0328887D01*
X0439035Y0329009D01*
X0439139Y0329128D01*
X0439246Y0329245D01*
X0439356Y0329359D01*
X0439469Y0329470D01*
X0439584Y0329579D01*
X0439702Y0329684D01*
X0439823Y0329786D01*
X0439946Y0329886D01*
X0440072Y0329982D01*
X0440200Y0330075D01*
X0440330Y0330165D01*
X0440463Y0330251D01*
X0440598Y0330335D01*
X0440734Y0330414D01*
X0440873Y0330491D01*
X0441014Y0330563D01*
X0441156Y0330633D01*
X0441300Y0330698D01*
X0441446Y0330760D01*
X0441593Y0330818D01*
X0441742Y0330873D01*
X0441892Y0330924D01*
X0442043Y0330971D01*
X0442195Y0331014D01*
X0442348Y0331053D01*
X0442503Y0331089D01*
X0442658Y0331120D01*
X0442814Y0331148D01*
X0442970Y0331172D01*
X0443127Y0331192D01*
X0443285Y0331208D01*
X0443442Y0331220D01*
X0443601Y0331228D01*
X0443759Y0331232D01*
X0443917Y0331232D01*
X0444075Y0331228D01*
X0444234Y0331220D01*
X0444391Y0331208D01*
X0444549Y0331192D01*
X0444706Y0331172D01*
X0444862Y0331148D01*
X0445018Y0331120D01*
X0445173Y0331089D01*
X0445328Y0331053D01*
X0445481Y0331014D01*
X0445633Y0330971D01*
X0445784Y0330924D01*
X0445934Y0330873D01*
X0446083Y0330818D01*
X0446230Y0330760D01*
X0446376Y0330698D01*
X0446520Y0330633D01*
X0446662Y0330563D01*
X0446803Y0330491D01*
X0446942Y0330414D01*
X0447078Y0330335D01*
X0447213Y0330251D01*
X0447346Y0330165D01*
X0447476Y0330075D01*
X0447604Y0329982D01*
X0447730Y0329886D01*
X0447853Y0329786D01*
X0447974Y0329684D01*
X0448092Y0329579D01*
X0448207Y0329470D01*
X0448320Y0329359D01*
X0448430Y0329245D01*
X0448537Y0329128D01*
X0448641Y0329009D01*
X0448742Y0328887D01*
X0448839Y0328762D01*
X0448934Y0328635D01*
X0449025Y0328506D01*
X0449114Y0328375D01*
X0449198Y0328241D01*
X0449280Y0328105D01*
X0449358Y0327968D01*
X0449432Y0327828D01*
X0449503Y0327686D01*
X0449571Y0327543D01*
X0449635Y0327398D01*
X0449695Y0327252D01*
X0449751Y0327104D01*
X0449804Y0326955D01*
X0449853Y0326804D01*
X0449898Y0326652D01*
X0449939Y0326499D01*
X0449977Y0326346D01*
X0450010Y0326191D01*
X0450040Y0326035D01*
X0450066Y0325879D01*
X0450087Y0325722D01*
X0450105Y0325565D01*
X0450119Y0325407D01*
X0450129Y0325249D01*
X0450135Y0325091D01*
X0450137Y0324933D01*
X0450135Y0324775D01*
X0450129Y0324617D01*
X0450119Y0324459D01*
X0450105Y0324301D01*
X0450087Y0324144D01*
X0450066Y0323987D01*
X0450040Y0323831D01*
X0450010Y0323675D01*
X0449977Y0323520D01*
X0449939Y0323367D01*
X0449898Y0323214D01*
X0449853Y0323062D01*
X0449804Y0322911D01*
X0449751Y0322762D01*
X0449695Y0322614D01*
X0449635Y0322468D01*
X0449571Y0322323D01*
X0449503Y0322180D01*
X0449432Y0322038D01*
X0449358Y0321898D01*
X0449280Y0321761D01*
X0449198Y0321625D01*
X0449114Y0321491D01*
X0449025Y0321360D01*
X0448934Y0321231D01*
X0448839Y0321104D01*
X0448742Y0320979D01*
X0448641Y0320857D01*
X0448537Y0320738D01*
X0448430Y0320621D01*
X0448320Y0320507D01*
X0448207Y0320396D01*
X0448092Y0320287D01*
X0447974Y0320182D01*
X0447853Y0320080D01*
X0447730Y0319980D01*
X0447604Y0319884D01*
X0447476Y0319791D01*
X0447346Y0319701D01*
X0447213Y0319615D01*
X0447078Y0319531D01*
X0446942Y0319452D01*
X0446803Y0319375D01*
X0446662Y0319303D01*
X0446520Y0319233D01*
X0446376Y0319168D01*
X0446230Y0319106D01*
X0446083Y0319048D01*
X0445934Y0318993D01*
X0445784Y0318942D01*
X0445633Y0318895D01*
X0445481Y0318852D01*
X0445328Y0318813D01*
X0445173Y0318777D01*
X0445018Y0318746D01*
X0444862Y0318718D01*
X0444706Y0318694D01*
X0444549Y0318674D01*
X0444391Y0318658D01*
X0444234Y0318646D01*
X0444075Y0318638D01*
X0443917Y0318634D01*
X0443759Y0318634D01*
X0443601Y0318638D01*
X0443442Y0318646D01*
X0443285Y0318658D01*
X0443127Y0318674D01*
X0442970Y0318694D01*
X0442814Y0318718D01*
X0442658Y0318746D01*
X0442503Y0318777D01*
X0442348Y0318813D01*
X0442195Y0318852D01*
X0442043Y0318895D01*
X0441892Y0318942D01*
X0441742Y0318993D01*
X0441593Y0319048D01*
X0441446Y0319106D01*
X0441300Y0319168D01*
X0441156Y0319233D01*
X0441014Y0319303D01*
X0440873Y0319375D01*
X0440734Y0319452D01*
X0440598Y0319531D01*
X0440463Y0319615D01*
X0440330Y0319701D01*
X0440200Y0319791D01*
X0440072Y0319884D01*
X0439946Y0319980D01*
X0439823Y0320080D01*
X0439702Y0320182D01*
X0439584Y0320287D01*
X0439469Y0320396D01*
X0439356Y0320507D01*
X0439246Y0320621D01*
X0439139Y0320738D01*
X0439035Y0320857D01*
X0438934Y0320979D01*
X0438837Y0321104D01*
X0438742Y0321231D01*
X0438651Y0321360D01*
X0438562Y0321491D01*
X0438478Y0321625D01*
X0438396Y0321761D01*
X0438318Y0321898D01*
X0438244Y0322038D01*
X0438173Y0322180D01*
X0438105Y0322323D01*
X0438041Y0322468D01*
X0437981Y0322614D01*
X0437925Y0322762D01*
X0437872Y0322911D01*
X0437823Y0323062D01*
X0437778Y0323214D01*
X0437737Y0323367D01*
X0437699Y0323520D01*
X0437666Y0323675D01*
X0437636Y0323831D01*
X0437610Y0323987D01*
X0437589Y0324144D01*
X0437571Y0324301D01*
X0437557Y0324459D01*
X0437547Y0324617D01*
X0437541Y0324775D01*
X0437539Y0324933D01*
X0402098Y0276661D02*
X0402100Y0276801D01*
X0402106Y0276941D01*
X0402116Y0277080D01*
X0402130Y0277219D01*
X0402148Y0277358D01*
X0402169Y0277496D01*
X0402195Y0277634D01*
X0402225Y0277771D01*
X0402258Y0277906D01*
X0402296Y0278041D01*
X0402337Y0278175D01*
X0402382Y0278308D01*
X0402430Y0278439D01*
X0402483Y0278568D01*
X0402539Y0278697D01*
X0402598Y0278823D01*
X0402662Y0278948D01*
X0402728Y0279071D01*
X0402799Y0279192D01*
X0402872Y0279311D01*
X0402949Y0279428D01*
X0403030Y0279542D01*
X0403113Y0279654D01*
X0403200Y0279764D01*
X0403290Y0279872D01*
X0403382Y0279976D01*
X0403478Y0280078D01*
X0403577Y0280178D01*
X0403678Y0280274D01*
X0403782Y0280368D01*
X0403889Y0280458D01*
X0403998Y0280545D01*
X0404110Y0280630D01*
X0404224Y0280711D01*
X0404340Y0280789D01*
X0404458Y0280863D01*
X0404579Y0280934D01*
X0404701Y0281002D01*
X0404826Y0281066D01*
X0404952Y0281127D01*
X0405079Y0281184D01*
X0405209Y0281237D01*
X0405340Y0281287D01*
X0405472Y0281332D01*
X0405605Y0281375D01*
X0405740Y0281413D01*
X0405875Y0281447D01*
X0406012Y0281478D01*
X0406149Y0281505D01*
X0406287Y0281527D01*
X0406426Y0281546D01*
X0406565Y0281561D01*
X0406704Y0281572D01*
X0406844Y0281579D01*
X0406984Y0281582D01*
X0407124Y0281581D01*
X0407264Y0281576D01*
X0407403Y0281567D01*
X0407543Y0281554D01*
X0407682Y0281537D01*
X0407820Y0281516D01*
X0407958Y0281492D01*
X0408095Y0281463D01*
X0408231Y0281431D01*
X0408366Y0281394D01*
X0408500Y0281354D01*
X0408633Y0281310D01*
X0408764Y0281262D01*
X0408894Y0281211D01*
X0409023Y0281156D01*
X0409150Y0281097D01*
X0409275Y0281034D01*
X0409398Y0280969D01*
X0409520Y0280899D01*
X0409639Y0280826D01*
X0409757Y0280750D01*
X0409872Y0280671D01*
X0409985Y0280588D01*
X0410095Y0280502D01*
X0410203Y0280413D01*
X0410308Y0280321D01*
X0410411Y0280226D01*
X0410511Y0280128D01*
X0410608Y0280028D01*
X0410702Y0279924D01*
X0410794Y0279818D01*
X0410882Y0279710D01*
X0410967Y0279599D01*
X0411049Y0279485D01*
X0411128Y0279369D01*
X0411203Y0279252D01*
X0411275Y0279132D01*
X0411343Y0279010D01*
X0411408Y0278886D01*
X0411470Y0278760D01*
X0411528Y0278633D01*
X0411582Y0278504D01*
X0411633Y0278373D01*
X0411679Y0278241D01*
X0411722Y0278108D01*
X0411762Y0277974D01*
X0411797Y0277839D01*
X0411829Y0277702D01*
X0411856Y0277565D01*
X0411880Y0277427D01*
X0411900Y0277289D01*
X0411916Y0277150D01*
X0411928Y0277010D01*
X0411936Y0276871D01*
X0411940Y0276731D01*
X0411940Y0276591D01*
X0411936Y0276451D01*
X0411928Y0276312D01*
X0411916Y0276172D01*
X0411900Y0276033D01*
X0411880Y0275895D01*
X0411856Y0275757D01*
X0411829Y0275620D01*
X0411797Y0275483D01*
X0411762Y0275348D01*
X0411722Y0275214D01*
X0411679Y0275081D01*
X0411633Y0274949D01*
X0411582Y0274818D01*
X0411528Y0274689D01*
X0411470Y0274562D01*
X0411408Y0274436D01*
X0411343Y0274312D01*
X0411275Y0274190D01*
X0411203Y0274070D01*
X0411128Y0273953D01*
X0411049Y0273837D01*
X0410967Y0273723D01*
X0410882Y0273612D01*
X0410794Y0273504D01*
X0410702Y0273398D01*
X0410608Y0273294D01*
X0410511Y0273194D01*
X0410411Y0273096D01*
X0410308Y0273001D01*
X0410203Y0272909D01*
X0410095Y0272820D01*
X0409985Y0272734D01*
X0409872Y0272651D01*
X0409757Y0272572D01*
X0409639Y0272496D01*
X0409520Y0272423D01*
X0409398Y0272353D01*
X0409275Y0272288D01*
X0409150Y0272225D01*
X0409023Y0272166D01*
X0408894Y0272111D01*
X0408764Y0272060D01*
X0408633Y0272012D01*
X0408500Y0271968D01*
X0408366Y0271928D01*
X0408231Y0271891D01*
X0408095Y0271859D01*
X0407958Y0271830D01*
X0407820Y0271806D01*
X0407682Y0271785D01*
X0407543Y0271768D01*
X0407403Y0271755D01*
X0407264Y0271746D01*
X0407124Y0271741D01*
X0406984Y0271740D01*
X0406844Y0271743D01*
X0406704Y0271750D01*
X0406565Y0271761D01*
X0406426Y0271776D01*
X0406287Y0271795D01*
X0406149Y0271817D01*
X0406012Y0271844D01*
X0405875Y0271875D01*
X0405740Y0271909D01*
X0405605Y0271947D01*
X0405472Y0271990D01*
X0405340Y0272035D01*
X0405209Y0272085D01*
X0405079Y0272138D01*
X0404952Y0272195D01*
X0404826Y0272256D01*
X0404701Y0272320D01*
X0404579Y0272388D01*
X0404458Y0272459D01*
X0404340Y0272533D01*
X0404224Y0272611D01*
X0404110Y0272692D01*
X0403998Y0272777D01*
X0403889Y0272864D01*
X0403782Y0272954D01*
X0403678Y0273048D01*
X0403577Y0273144D01*
X0403478Y0273244D01*
X0403382Y0273346D01*
X0403290Y0273450D01*
X0403200Y0273558D01*
X0403113Y0273668D01*
X0403030Y0273780D01*
X0402949Y0273894D01*
X0402872Y0274011D01*
X0402799Y0274130D01*
X0402728Y0274251D01*
X0402662Y0274374D01*
X0402598Y0274499D01*
X0402539Y0274625D01*
X0402483Y0274754D01*
X0402430Y0274883D01*
X0402382Y0275014D01*
X0402337Y0275147D01*
X0402296Y0275281D01*
X0402258Y0275416D01*
X0402225Y0275551D01*
X0402195Y0275688D01*
X0402169Y0275826D01*
X0402148Y0275964D01*
X0402130Y0276103D01*
X0402116Y0276242D01*
X0402106Y0276381D01*
X0402100Y0276521D01*
X0402098Y0276661D01*
X0411010Y0206433D02*
X0411012Y0206545D01*
X0411018Y0206656D01*
X0411028Y0206768D01*
X0411042Y0206879D01*
X0411059Y0206989D01*
X0411081Y0207099D01*
X0411107Y0207208D01*
X0411136Y0207316D01*
X0411169Y0207422D01*
X0411206Y0207528D01*
X0411247Y0207632D01*
X0411292Y0207735D01*
X0411340Y0207836D01*
X0411391Y0207935D01*
X0411446Y0208032D01*
X0411505Y0208127D01*
X0411566Y0208221D01*
X0411631Y0208312D01*
X0411700Y0208400D01*
X0411771Y0208486D01*
X0411845Y0208570D01*
X0411923Y0208650D01*
X0412003Y0208728D01*
X0412086Y0208804D01*
X0412171Y0208876D01*
X0412259Y0208945D01*
X0412349Y0209011D01*
X0412442Y0209073D01*
X0412537Y0209133D01*
X0412634Y0209189D01*
X0412732Y0209241D01*
X0412833Y0209290D01*
X0412935Y0209335D01*
X0413039Y0209377D01*
X0413144Y0209415D01*
X0413251Y0209449D01*
X0413358Y0209479D01*
X0413467Y0209506D01*
X0413576Y0209528D01*
X0413687Y0209547D01*
X0413797Y0209562D01*
X0413909Y0209573D01*
X0414020Y0209580D01*
X0414132Y0209583D01*
X0414244Y0209582D01*
X0414356Y0209577D01*
X0414467Y0209568D01*
X0414578Y0209555D01*
X0414689Y0209538D01*
X0414799Y0209518D01*
X0414908Y0209493D01*
X0415016Y0209465D01*
X0415123Y0209432D01*
X0415229Y0209396D01*
X0415333Y0209356D01*
X0415436Y0209313D01*
X0415538Y0209266D01*
X0415637Y0209215D01*
X0415735Y0209161D01*
X0415831Y0209103D01*
X0415925Y0209042D01*
X0416016Y0208978D01*
X0416105Y0208911D01*
X0416192Y0208840D01*
X0416276Y0208766D01*
X0416358Y0208690D01*
X0416436Y0208610D01*
X0416512Y0208528D01*
X0416585Y0208443D01*
X0416655Y0208356D01*
X0416721Y0208266D01*
X0416785Y0208174D01*
X0416845Y0208080D01*
X0416902Y0207984D01*
X0416955Y0207885D01*
X0417005Y0207785D01*
X0417051Y0207684D01*
X0417094Y0207580D01*
X0417133Y0207475D01*
X0417168Y0207369D01*
X0417199Y0207262D01*
X0417227Y0207153D01*
X0417250Y0207044D01*
X0417270Y0206934D01*
X0417286Y0206823D01*
X0417298Y0206712D01*
X0417306Y0206601D01*
X0417310Y0206489D01*
X0417310Y0206377D01*
X0417306Y0206265D01*
X0417298Y0206154D01*
X0417286Y0206043D01*
X0417270Y0205932D01*
X0417250Y0205822D01*
X0417227Y0205713D01*
X0417199Y0205604D01*
X0417168Y0205497D01*
X0417133Y0205391D01*
X0417094Y0205286D01*
X0417051Y0205182D01*
X0417005Y0205081D01*
X0416955Y0204981D01*
X0416902Y0204882D01*
X0416845Y0204786D01*
X0416785Y0204692D01*
X0416721Y0204600D01*
X0416655Y0204510D01*
X0416585Y0204423D01*
X0416512Y0204338D01*
X0416436Y0204256D01*
X0416358Y0204176D01*
X0416276Y0204100D01*
X0416192Y0204026D01*
X0416105Y0203955D01*
X0416016Y0203888D01*
X0415925Y0203824D01*
X0415831Y0203763D01*
X0415735Y0203705D01*
X0415637Y0203651D01*
X0415538Y0203600D01*
X0415436Y0203553D01*
X0415333Y0203510D01*
X0415229Y0203470D01*
X0415123Y0203434D01*
X0415016Y0203401D01*
X0414908Y0203373D01*
X0414799Y0203348D01*
X0414689Y0203328D01*
X0414578Y0203311D01*
X0414467Y0203298D01*
X0414356Y0203289D01*
X0414244Y0203284D01*
X0414132Y0203283D01*
X0414020Y0203286D01*
X0413909Y0203293D01*
X0413797Y0203304D01*
X0413687Y0203319D01*
X0413576Y0203338D01*
X0413467Y0203360D01*
X0413358Y0203387D01*
X0413251Y0203417D01*
X0413144Y0203451D01*
X0413039Y0203489D01*
X0412935Y0203531D01*
X0412833Y0203576D01*
X0412732Y0203625D01*
X0412634Y0203677D01*
X0412537Y0203733D01*
X0412442Y0203793D01*
X0412349Y0203855D01*
X0412259Y0203921D01*
X0412171Y0203990D01*
X0412086Y0204062D01*
X0412003Y0204138D01*
X0411923Y0204216D01*
X0411845Y0204296D01*
X0411771Y0204380D01*
X0411700Y0204466D01*
X0411631Y0204554D01*
X0411566Y0204645D01*
X0411505Y0204739D01*
X0411446Y0204834D01*
X0411391Y0204931D01*
X0411340Y0205030D01*
X0411292Y0205131D01*
X0411247Y0205234D01*
X0411206Y0205338D01*
X0411169Y0205444D01*
X0411136Y0205550D01*
X0411107Y0205658D01*
X0411081Y0205767D01*
X0411059Y0205877D01*
X0411042Y0205987D01*
X0411028Y0206098D01*
X0411018Y0206210D01*
X0411012Y0206321D01*
X0411010Y0206433D01*
X0438569Y0206433D02*
X0438571Y0206545D01*
X0438577Y0206656D01*
X0438587Y0206768D01*
X0438601Y0206879D01*
X0438618Y0206989D01*
X0438640Y0207099D01*
X0438666Y0207208D01*
X0438695Y0207316D01*
X0438728Y0207422D01*
X0438765Y0207528D01*
X0438806Y0207632D01*
X0438851Y0207735D01*
X0438899Y0207836D01*
X0438950Y0207935D01*
X0439005Y0208032D01*
X0439064Y0208127D01*
X0439125Y0208221D01*
X0439190Y0208312D01*
X0439259Y0208400D01*
X0439330Y0208486D01*
X0439404Y0208570D01*
X0439482Y0208650D01*
X0439562Y0208728D01*
X0439645Y0208804D01*
X0439730Y0208876D01*
X0439818Y0208945D01*
X0439908Y0209011D01*
X0440001Y0209073D01*
X0440096Y0209133D01*
X0440193Y0209189D01*
X0440291Y0209241D01*
X0440392Y0209290D01*
X0440494Y0209335D01*
X0440598Y0209377D01*
X0440703Y0209415D01*
X0440810Y0209449D01*
X0440917Y0209479D01*
X0441026Y0209506D01*
X0441135Y0209528D01*
X0441246Y0209547D01*
X0441356Y0209562D01*
X0441468Y0209573D01*
X0441579Y0209580D01*
X0441691Y0209583D01*
X0441803Y0209582D01*
X0441915Y0209577D01*
X0442026Y0209568D01*
X0442137Y0209555D01*
X0442248Y0209538D01*
X0442358Y0209518D01*
X0442467Y0209493D01*
X0442575Y0209465D01*
X0442682Y0209432D01*
X0442788Y0209396D01*
X0442892Y0209356D01*
X0442995Y0209313D01*
X0443097Y0209266D01*
X0443196Y0209215D01*
X0443294Y0209161D01*
X0443390Y0209103D01*
X0443484Y0209042D01*
X0443575Y0208978D01*
X0443664Y0208911D01*
X0443751Y0208840D01*
X0443835Y0208766D01*
X0443917Y0208690D01*
X0443995Y0208610D01*
X0444071Y0208528D01*
X0444144Y0208443D01*
X0444214Y0208356D01*
X0444280Y0208266D01*
X0444344Y0208174D01*
X0444404Y0208080D01*
X0444461Y0207984D01*
X0444514Y0207885D01*
X0444564Y0207785D01*
X0444610Y0207684D01*
X0444653Y0207580D01*
X0444692Y0207475D01*
X0444727Y0207369D01*
X0444758Y0207262D01*
X0444786Y0207153D01*
X0444809Y0207044D01*
X0444829Y0206934D01*
X0444845Y0206823D01*
X0444857Y0206712D01*
X0444865Y0206601D01*
X0444869Y0206489D01*
X0444869Y0206377D01*
X0444865Y0206265D01*
X0444857Y0206154D01*
X0444845Y0206043D01*
X0444829Y0205932D01*
X0444809Y0205822D01*
X0444786Y0205713D01*
X0444758Y0205604D01*
X0444727Y0205497D01*
X0444692Y0205391D01*
X0444653Y0205286D01*
X0444610Y0205182D01*
X0444564Y0205081D01*
X0444514Y0204981D01*
X0444461Y0204882D01*
X0444404Y0204786D01*
X0444344Y0204692D01*
X0444280Y0204600D01*
X0444214Y0204510D01*
X0444144Y0204423D01*
X0444071Y0204338D01*
X0443995Y0204256D01*
X0443917Y0204176D01*
X0443835Y0204100D01*
X0443751Y0204026D01*
X0443664Y0203955D01*
X0443575Y0203888D01*
X0443484Y0203824D01*
X0443390Y0203763D01*
X0443294Y0203705D01*
X0443196Y0203651D01*
X0443097Y0203600D01*
X0442995Y0203553D01*
X0442892Y0203510D01*
X0442788Y0203470D01*
X0442682Y0203434D01*
X0442575Y0203401D01*
X0442467Y0203373D01*
X0442358Y0203348D01*
X0442248Y0203328D01*
X0442137Y0203311D01*
X0442026Y0203298D01*
X0441915Y0203289D01*
X0441803Y0203284D01*
X0441691Y0203283D01*
X0441579Y0203286D01*
X0441468Y0203293D01*
X0441356Y0203304D01*
X0441246Y0203319D01*
X0441135Y0203338D01*
X0441026Y0203360D01*
X0440917Y0203387D01*
X0440810Y0203417D01*
X0440703Y0203451D01*
X0440598Y0203489D01*
X0440494Y0203531D01*
X0440392Y0203576D01*
X0440291Y0203625D01*
X0440193Y0203677D01*
X0440096Y0203733D01*
X0440001Y0203793D01*
X0439908Y0203855D01*
X0439818Y0203921D01*
X0439730Y0203990D01*
X0439645Y0204062D01*
X0439562Y0204138D01*
X0439482Y0204216D01*
X0439404Y0204296D01*
X0439330Y0204380D01*
X0439259Y0204466D01*
X0439190Y0204554D01*
X0439125Y0204645D01*
X0439064Y0204739D01*
X0439005Y0204834D01*
X0438950Y0204931D01*
X0438899Y0205030D01*
X0438851Y0205131D01*
X0438806Y0205234D01*
X0438765Y0205338D01*
X0438728Y0205444D01*
X0438695Y0205550D01*
X0438666Y0205658D01*
X0438640Y0205767D01*
X0438618Y0205877D01*
X0438601Y0205987D01*
X0438587Y0206098D01*
X0438577Y0206210D01*
X0438571Y0206321D01*
X0438569Y0206433D01*
X0372539Y0169933D02*
X0372541Y0170091D01*
X0372547Y0170249D01*
X0372557Y0170407D01*
X0372571Y0170565D01*
X0372589Y0170722D01*
X0372610Y0170879D01*
X0372636Y0171035D01*
X0372666Y0171191D01*
X0372699Y0171346D01*
X0372737Y0171499D01*
X0372778Y0171652D01*
X0372823Y0171804D01*
X0372872Y0171955D01*
X0372925Y0172104D01*
X0372981Y0172252D01*
X0373041Y0172398D01*
X0373105Y0172543D01*
X0373173Y0172686D01*
X0373244Y0172828D01*
X0373318Y0172968D01*
X0373396Y0173105D01*
X0373478Y0173241D01*
X0373562Y0173375D01*
X0373651Y0173506D01*
X0373742Y0173635D01*
X0373837Y0173762D01*
X0373934Y0173887D01*
X0374035Y0174009D01*
X0374139Y0174128D01*
X0374246Y0174245D01*
X0374356Y0174359D01*
X0374469Y0174470D01*
X0374584Y0174579D01*
X0374702Y0174684D01*
X0374823Y0174786D01*
X0374946Y0174886D01*
X0375072Y0174982D01*
X0375200Y0175075D01*
X0375330Y0175165D01*
X0375463Y0175251D01*
X0375598Y0175335D01*
X0375734Y0175414D01*
X0375873Y0175491D01*
X0376014Y0175563D01*
X0376156Y0175633D01*
X0376300Y0175698D01*
X0376446Y0175760D01*
X0376593Y0175818D01*
X0376742Y0175873D01*
X0376892Y0175924D01*
X0377043Y0175971D01*
X0377195Y0176014D01*
X0377348Y0176053D01*
X0377503Y0176089D01*
X0377658Y0176120D01*
X0377814Y0176148D01*
X0377970Y0176172D01*
X0378127Y0176192D01*
X0378285Y0176208D01*
X0378442Y0176220D01*
X0378601Y0176228D01*
X0378759Y0176232D01*
X0378917Y0176232D01*
X0379075Y0176228D01*
X0379234Y0176220D01*
X0379391Y0176208D01*
X0379549Y0176192D01*
X0379706Y0176172D01*
X0379862Y0176148D01*
X0380018Y0176120D01*
X0380173Y0176089D01*
X0380328Y0176053D01*
X0380481Y0176014D01*
X0380633Y0175971D01*
X0380784Y0175924D01*
X0380934Y0175873D01*
X0381083Y0175818D01*
X0381230Y0175760D01*
X0381376Y0175698D01*
X0381520Y0175633D01*
X0381662Y0175563D01*
X0381803Y0175491D01*
X0381942Y0175414D01*
X0382078Y0175335D01*
X0382213Y0175251D01*
X0382346Y0175165D01*
X0382476Y0175075D01*
X0382604Y0174982D01*
X0382730Y0174886D01*
X0382853Y0174786D01*
X0382974Y0174684D01*
X0383092Y0174579D01*
X0383207Y0174470D01*
X0383320Y0174359D01*
X0383430Y0174245D01*
X0383537Y0174128D01*
X0383641Y0174009D01*
X0383742Y0173887D01*
X0383839Y0173762D01*
X0383934Y0173635D01*
X0384025Y0173506D01*
X0384114Y0173375D01*
X0384198Y0173241D01*
X0384280Y0173105D01*
X0384358Y0172968D01*
X0384432Y0172828D01*
X0384503Y0172686D01*
X0384571Y0172543D01*
X0384635Y0172398D01*
X0384695Y0172252D01*
X0384751Y0172104D01*
X0384804Y0171955D01*
X0384853Y0171804D01*
X0384898Y0171652D01*
X0384939Y0171499D01*
X0384977Y0171346D01*
X0385010Y0171191D01*
X0385040Y0171035D01*
X0385066Y0170879D01*
X0385087Y0170722D01*
X0385105Y0170565D01*
X0385119Y0170407D01*
X0385129Y0170249D01*
X0385135Y0170091D01*
X0385137Y0169933D01*
X0385135Y0169775D01*
X0385129Y0169617D01*
X0385119Y0169459D01*
X0385105Y0169301D01*
X0385087Y0169144D01*
X0385066Y0168987D01*
X0385040Y0168831D01*
X0385010Y0168675D01*
X0384977Y0168520D01*
X0384939Y0168367D01*
X0384898Y0168214D01*
X0384853Y0168062D01*
X0384804Y0167911D01*
X0384751Y0167762D01*
X0384695Y0167614D01*
X0384635Y0167468D01*
X0384571Y0167323D01*
X0384503Y0167180D01*
X0384432Y0167038D01*
X0384358Y0166898D01*
X0384280Y0166761D01*
X0384198Y0166625D01*
X0384114Y0166491D01*
X0384025Y0166360D01*
X0383934Y0166231D01*
X0383839Y0166104D01*
X0383742Y0165979D01*
X0383641Y0165857D01*
X0383537Y0165738D01*
X0383430Y0165621D01*
X0383320Y0165507D01*
X0383207Y0165396D01*
X0383092Y0165287D01*
X0382974Y0165182D01*
X0382853Y0165080D01*
X0382730Y0164980D01*
X0382604Y0164884D01*
X0382476Y0164791D01*
X0382346Y0164701D01*
X0382213Y0164615D01*
X0382078Y0164531D01*
X0381942Y0164452D01*
X0381803Y0164375D01*
X0381662Y0164303D01*
X0381520Y0164233D01*
X0381376Y0164168D01*
X0381230Y0164106D01*
X0381083Y0164048D01*
X0380934Y0163993D01*
X0380784Y0163942D01*
X0380633Y0163895D01*
X0380481Y0163852D01*
X0380328Y0163813D01*
X0380173Y0163777D01*
X0380018Y0163746D01*
X0379862Y0163718D01*
X0379706Y0163694D01*
X0379549Y0163674D01*
X0379391Y0163658D01*
X0379234Y0163646D01*
X0379075Y0163638D01*
X0378917Y0163634D01*
X0378759Y0163634D01*
X0378601Y0163638D01*
X0378442Y0163646D01*
X0378285Y0163658D01*
X0378127Y0163674D01*
X0377970Y0163694D01*
X0377814Y0163718D01*
X0377658Y0163746D01*
X0377503Y0163777D01*
X0377348Y0163813D01*
X0377195Y0163852D01*
X0377043Y0163895D01*
X0376892Y0163942D01*
X0376742Y0163993D01*
X0376593Y0164048D01*
X0376446Y0164106D01*
X0376300Y0164168D01*
X0376156Y0164233D01*
X0376014Y0164303D01*
X0375873Y0164375D01*
X0375734Y0164452D01*
X0375598Y0164531D01*
X0375463Y0164615D01*
X0375330Y0164701D01*
X0375200Y0164791D01*
X0375072Y0164884D01*
X0374946Y0164980D01*
X0374823Y0165080D01*
X0374702Y0165182D01*
X0374584Y0165287D01*
X0374469Y0165396D01*
X0374356Y0165507D01*
X0374246Y0165621D01*
X0374139Y0165738D01*
X0374035Y0165857D01*
X0373934Y0165979D01*
X0373837Y0166104D01*
X0373742Y0166231D01*
X0373651Y0166360D01*
X0373562Y0166491D01*
X0373478Y0166625D01*
X0373396Y0166761D01*
X0373318Y0166898D01*
X0373244Y0167038D01*
X0373173Y0167180D01*
X0373105Y0167323D01*
X0373041Y0167468D01*
X0372981Y0167614D01*
X0372925Y0167762D01*
X0372872Y0167911D01*
X0372823Y0168062D01*
X0372778Y0168214D01*
X0372737Y0168367D01*
X0372699Y0168520D01*
X0372666Y0168675D01*
X0372636Y0168831D01*
X0372610Y0168987D01*
X0372589Y0169144D01*
X0372571Y0169301D01*
X0372557Y0169459D01*
X0372547Y0169617D01*
X0372541Y0169775D01*
X0372539Y0169933D01*
X0172539Y0324933D02*
X0172541Y0325091D01*
X0172547Y0325249D01*
X0172557Y0325407D01*
X0172571Y0325565D01*
X0172589Y0325722D01*
X0172610Y0325879D01*
X0172636Y0326035D01*
X0172666Y0326191D01*
X0172699Y0326346D01*
X0172737Y0326499D01*
X0172778Y0326652D01*
X0172823Y0326804D01*
X0172872Y0326955D01*
X0172925Y0327104D01*
X0172981Y0327252D01*
X0173041Y0327398D01*
X0173105Y0327543D01*
X0173173Y0327686D01*
X0173244Y0327828D01*
X0173318Y0327968D01*
X0173396Y0328105D01*
X0173478Y0328241D01*
X0173562Y0328375D01*
X0173651Y0328506D01*
X0173742Y0328635D01*
X0173837Y0328762D01*
X0173934Y0328887D01*
X0174035Y0329009D01*
X0174139Y0329128D01*
X0174246Y0329245D01*
X0174356Y0329359D01*
X0174469Y0329470D01*
X0174584Y0329579D01*
X0174702Y0329684D01*
X0174823Y0329786D01*
X0174946Y0329886D01*
X0175072Y0329982D01*
X0175200Y0330075D01*
X0175330Y0330165D01*
X0175463Y0330251D01*
X0175598Y0330335D01*
X0175734Y0330414D01*
X0175873Y0330491D01*
X0176014Y0330563D01*
X0176156Y0330633D01*
X0176300Y0330698D01*
X0176446Y0330760D01*
X0176593Y0330818D01*
X0176742Y0330873D01*
X0176892Y0330924D01*
X0177043Y0330971D01*
X0177195Y0331014D01*
X0177348Y0331053D01*
X0177503Y0331089D01*
X0177658Y0331120D01*
X0177814Y0331148D01*
X0177970Y0331172D01*
X0178127Y0331192D01*
X0178285Y0331208D01*
X0178442Y0331220D01*
X0178601Y0331228D01*
X0178759Y0331232D01*
X0178917Y0331232D01*
X0179075Y0331228D01*
X0179234Y0331220D01*
X0179391Y0331208D01*
X0179549Y0331192D01*
X0179706Y0331172D01*
X0179862Y0331148D01*
X0180018Y0331120D01*
X0180173Y0331089D01*
X0180328Y0331053D01*
X0180481Y0331014D01*
X0180633Y0330971D01*
X0180784Y0330924D01*
X0180934Y0330873D01*
X0181083Y0330818D01*
X0181230Y0330760D01*
X0181376Y0330698D01*
X0181520Y0330633D01*
X0181662Y0330563D01*
X0181803Y0330491D01*
X0181942Y0330414D01*
X0182078Y0330335D01*
X0182213Y0330251D01*
X0182346Y0330165D01*
X0182476Y0330075D01*
X0182604Y0329982D01*
X0182730Y0329886D01*
X0182853Y0329786D01*
X0182974Y0329684D01*
X0183092Y0329579D01*
X0183207Y0329470D01*
X0183320Y0329359D01*
X0183430Y0329245D01*
X0183537Y0329128D01*
X0183641Y0329009D01*
X0183742Y0328887D01*
X0183839Y0328762D01*
X0183934Y0328635D01*
X0184025Y0328506D01*
X0184114Y0328375D01*
X0184198Y0328241D01*
X0184280Y0328105D01*
X0184358Y0327968D01*
X0184432Y0327828D01*
X0184503Y0327686D01*
X0184571Y0327543D01*
X0184635Y0327398D01*
X0184695Y0327252D01*
X0184751Y0327104D01*
X0184804Y0326955D01*
X0184853Y0326804D01*
X0184898Y0326652D01*
X0184939Y0326499D01*
X0184977Y0326346D01*
X0185010Y0326191D01*
X0185040Y0326035D01*
X0185066Y0325879D01*
X0185087Y0325722D01*
X0185105Y0325565D01*
X0185119Y0325407D01*
X0185129Y0325249D01*
X0185135Y0325091D01*
X0185137Y0324933D01*
X0185135Y0324775D01*
X0185129Y0324617D01*
X0185119Y0324459D01*
X0185105Y0324301D01*
X0185087Y0324144D01*
X0185066Y0323987D01*
X0185040Y0323831D01*
X0185010Y0323675D01*
X0184977Y0323520D01*
X0184939Y0323367D01*
X0184898Y0323214D01*
X0184853Y0323062D01*
X0184804Y0322911D01*
X0184751Y0322762D01*
X0184695Y0322614D01*
X0184635Y0322468D01*
X0184571Y0322323D01*
X0184503Y0322180D01*
X0184432Y0322038D01*
X0184358Y0321898D01*
X0184280Y0321761D01*
X0184198Y0321625D01*
X0184114Y0321491D01*
X0184025Y0321360D01*
X0183934Y0321231D01*
X0183839Y0321104D01*
X0183742Y0320979D01*
X0183641Y0320857D01*
X0183537Y0320738D01*
X0183430Y0320621D01*
X0183320Y0320507D01*
X0183207Y0320396D01*
X0183092Y0320287D01*
X0182974Y0320182D01*
X0182853Y0320080D01*
X0182730Y0319980D01*
X0182604Y0319884D01*
X0182476Y0319791D01*
X0182346Y0319701D01*
X0182213Y0319615D01*
X0182078Y0319531D01*
X0181942Y0319452D01*
X0181803Y0319375D01*
X0181662Y0319303D01*
X0181520Y0319233D01*
X0181376Y0319168D01*
X0181230Y0319106D01*
X0181083Y0319048D01*
X0180934Y0318993D01*
X0180784Y0318942D01*
X0180633Y0318895D01*
X0180481Y0318852D01*
X0180328Y0318813D01*
X0180173Y0318777D01*
X0180018Y0318746D01*
X0179862Y0318718D01*
X0179706Y0318694D01*
X0179549Y0318674D01*
X0179391Y0318658D01*
X0179234Y0318646D01*
X0179075Y0318638D01*
X0178917Y0318634D01*
X0178759Y0318634D01*
X0178601Y0318638D01*
X0178442Y0318646D01*
X0178285Y0318658D01*
X0178127Y0318674D01*
X0177970Y0318694D01*
X0177814Y0318718D01*
X0177658Y0318746D01*
X0177503Y0318777D01*
X0177348Y0318813D01*
X0177195Y0318852D01*
X0177043Y0318895D01*
X0176892Y0318942D01*
X0176742Y0318993D01*
X0176593Y0319048D01*
X0176446Y0319106D01*
X0176300Y0319168D01*
X0176156Y0319233D01*
X0176014Y0319303D01*
X0175873Y0319375D01*
X0175734Y0319452D01*
X0175598Y0319531D01*
X0175463Y0319615D01*
X0175330Y0319701D01*
X0175200Y0319791D01*
X0175072Y0319884D01*
X0174946Y0319980D01*
X0174823Y0320080D01*
X0174702Y0320182D01*
X0174584Y0320287D01*
X0174469Y0320396D01*
X0174356Y0320507D01*
X0174246Y0320621D01*
X0174139Y0320738D01*
X0174035Y0320857D01*
X0173934Y0320979D01*
X0173837Y0321104D01*
X0173742Y0321231D01*
X0173651Y0321360D01*
X0173562Y0321491D01*
X0173478Y0321625D01*
X0173396Y0321761D01*
X0173318Y0321898D01*
X0173244Y0322038D01*
X0173173Y0322180D01*
X0173105Y0322323D01*
X0173041Y0322468D01*
X0172981Y0322614D01*
X0172925Y0322762D01*
X0172872Y0322911D01*
X0172823Y0323062D01*
X0172778Y0323214D01*
X0172737Y0323367D01*
X0172699Y0323520D01*
X0172666Y0323675D01*
X0172636Y0323831D01*
X0172610Y0323987D01*
X0172589Y0324144D01*
X0172571Y0324301D01*
X0172557Y0324459D01*
X0172547Y0324617D01*
X0172541Y0324775D01*
X0172539Y0324933D01*
M02*
